<svg xmlns="http://www.w3.org/2000/svg" xmlns:xlink="http://www.w3.org/1999/xlink" width="107.254mm" height="80.4918mm" version="1.1" style="shape-rendering:geometricPrecision; text-rendering:geometricPrecision; image-rendering:optimizeQuality; fill-rule:evenodd; clip-rule:evenodd" viewBox="0 0 386.48 290.04"> <defs> <style type="text/css"> .fil0 {fill:black;fill-rule:nonzero} </style> </defs> <g id="Слой_x0020_1">  <g id="_1895011717456"> <path class="fil0" d="M15.11 66.5c0,-0.02 0,-0.03 0,-0.05 0,-0.27 0.08,-0.64 0.21,-1.02l2.65 -7.61c0.08,-0.23 0.24,-0.24 0.32,-0.02l3.39 8.65c0,0.02 0.02,0.03 0.02,0.05 -2.64,0.09 -4.93,0.11 -6.59,0zm5.61 0.63l2.32 0.02c1.27,0 1.31,0.47 1.31,0.95 0,0.06 0,0.12 0,0.17 -0.02,0.21 0.03,0.26 0.11,0.26 0.09,0 0.12,-0.06 0.15,-0.2 0.03,-0.17 0.26,-1.3 0.35,-1.77 0.02,-0.09 0.03,-0.18 -0.05,-0.18 -0.09,0 -0.35,0.09 -0.82,0.12 -0.17,0.02 -0.59,-0.03 -0.95,-0.35 -0.24,-0.3 -0.44,-0.67 -0.61,-1.02 -0.96,-2.35 -3.48,-8.66 -3.72,-9.24 -0.21,-0.47 -0.27,-0.55 -0.37,-0.55 -0.09,0 -0.17,0.09 -0.35,0.59l-3.74 9.52c-0.26,0.67 -0.53,1.05 -1.34,1.07 -0.41,0.02 -0.66,-0.18 -0.78,-0.18 -0.06,0 -0.05,0.2 -0.05,0.29 0.02,0.12 0.24,1.62 0.32,1.77 0.03,0.09 0.08,0.14 0.12,0.14 0.06,0 0.09,-0.03 0.09,-0.15 0,-0.15 -0.03,-0.41 0.03,-0.67 0.11,-0.37 0.21,-0.53 1.25,-0.55l2.62 -0.02 4.09 0zm12.17 0.31c0.98,0 2.14,-0.11 2.75,-0.35 0.27,-0.12 0.31,-0.15 0.4,-0.44 0.15,-0.52 0.34,-1.85 0.34,-1.95 0,-0.12 -0.03,-0.23 -0.11,-0.23 -0.09,0 -0.12,0.06 -0.15,0.23 -0.05,0.27 -0.24,0.95 -0.56,1.28 -0.61,0.63 -1.51,0.76 -2.65,0.76 -3.26,0 -5.51,-2.67 -5.51,-5.58 0,-2.7 0.96,-5.09 4.88,-5.09 1.91,0 3.69,0.64 3.69,2.43 0,0.21 0.02,0.32 0.12,0.32 0.12,0 0.15,-0.23 0.15,-0.96 0,-0.88 0.11,-1.62 0.11,-1.78 0,-0.09 -0.03,-0.17 -0.2,-0.17 -0.58,0 -1.95,-0.41 -3.77,-0.41 -4.85,0 -6.36,3.36 -6.36,5.8 0,3.52 2.23,6.16 6.88,6.16z"></path> <path class="fil0" d="M76.15 67.3c0.98,0 2.14,-0.11 2.75,-0.35 0.27,-0.12 0.31,-0.15 0.4,-0.44 0.15,-0.52 0.34,-1.85 0.34,-1.95 0,-0.12 -0.03,-0.23 -0.11,-0.23 -0.09,0 -0.12,0.06 -0.15,0.23 -0.05,0.27 -0.24,0.95 -0.56,1.28 -0.61,0.63 -1.51,0.76 -2.65,0.76 -3.26,0 -5.51,-2.67 -5.51,-5.58 0,-2.7 0.96,-5.09 4.88,-5.09 1.91,0 3.69,0.64 3.69,2.43 0,0.21 0.02,0.32 0.12,0.32 0.12,0 0.15,-0.23 0.15,-0.96 0,-0.88 0.11,-1.62 0.11,-1.78 0,-0.09 -0.03,-0.17 -0.2,-0.17 -0.58,0 -1.95,-0.41 -3.77,-0.41 -4.85,0 -6.36,3.36 -6.36,5.8 0,3.52 2.23,6.16 6.88,6.16zm12.28 0c0.98,0 2.14,-0.11 2.75,-0.35 0.27,-0.12 0.31,-0.15 0.4,-0.44 0.15,-0.52 0.34,-1.85 0.34,-1.95 0,-0.12 -0.03,-0.23 -0.11,-0.23 -0.09,0 -0.12,0.06 -0.15,0.23 -0.05,0.27 -0.24,0.95 -0.56,1.28 -0.61,0.63 -1.51,0.76 -2.65,0.76 -3.26,0 -5.51,-2.67 -5.51,-5.58 0,-2.7 0.96,-5.09 4.88,-5.09 1.91,0 3.69,0.64 3.69,2.43 0,0.21 0.02,0.32 0.12,0.32 0.12,0 0.15,-0.23 0.15,-0.96 0,-0.88 0.11,-1.62 0.11,-1.78 0,-0.09 -0.03,-0.17 -0.2,-0.17 -0.58,0 -1.95,-0.41 -3.77,-0.41 -4.85,0 -6.36,3.36 -6.36,5.8 0,3.52 2.23,6.16 6.88,6.16z"></path> <path class="fil0" d="M133.88 67.3c0.98,0 2.14,-0.11 2.75,-0.35 0.27,-0.12 0.31,-0.15 0.4,-0.44 0.15,-0.52 0.34,-1.85 0.34,-1.95 0,-0.12 -0.03,-0.23 -0.11,-0.23 -0.09,0 -0.12,0.06 -0.15,0.23 -0.05,0.27 -0.24,0.95 -0.56,1.28 -0.61,0.63 -1.51,0.76 -2.65,0.76 -3.26,0 -5.51,-2.67 -5.51,-5.58 0,-2.7 0.96,-5.09 4.88,-5.09 1.91,0 3.69,0.64 3.69,2.43 0,0.21 0.02,0.32 0.12,0.32 0.12,0 0.15,-0.23 0.15,-0.96 0,-0.88 0.11,-1.62 0.11,-1.78 0,-0.09 -0.03,-0.17 -0.2,-0.17 -0.58,0 -1.95,-0.41 -3.77,-0.41 -4.85,0 -6.36,3.36 -6.36,5.8 0,3.52 2.23,6.16 6.88,6.16zm7.14 -4.64c0,1.46 0,2.67 -0.08,3.31 -0.06,0.44 -0.14,0.78 -0.44,0.84 -0.14,0.03 -0.32,0.06 -0.46,0.06 -0.09,0 -0.12,0.05 -0.12,0.09 0,0.09 0.08,0.12 0.24,0.12 0.46,0 1.42,-0.05 1.46,-0.05 0.08,0 1.04,0.05 1.88,0.05 0.17,0 0.24,-0.05 0.24,-0.12 0,-0.05 -0.03,-0.09 -0.12,-0.09 -0.14,0 -0.47,-0.03 -0.69,-0.06 -0.46,-0.06 -0.55,-0.4 -0.59,-0.84 -0.08,-0.64 -0.08,-1.85 -0.08,-3.31l0 -6.27c0,-0.15 0.03,-0.26 0.12,-0.29 0.14,-0.06 0.4,-0.09 0.66,-0.09 0.35,0 1.28,-0.06 2.09,0.76 0.81,0.82 0.85,1.85 0.85,2.35 0,1.4 -1.16,2.49 -2.64,2.49 -0.32,0 -0.41,0.02 -0.41,0.14 0,0.08 0.09,0.11 0.17,0.11 0.08,0.02 0.24,0.02 0.32,0.02 2.17,0 3.75,-1.46 3.75,-3.63 0,-0.81 -0.43,-1.5 -0.76,-1.82 -0.24,-0.23 -0.93,-0.87 -2.84,-0.87 -0.7,0 -1.59,0.05 -1.92,0.05 -0.12,0 -1.04,-0.05 -1.72,-0.05 -0.17,0 -0.24,0.03 -0.24,0.12 0,0.06 0.06,0.09 0.12,0.09 0.14,0 0.4,0.02 0.52,0.05 0.5,0.11 0.63,0.35 0.66,0.87 0.03,0.49 0.03,0.92 0.03,3.29l0 2.68z"></path> <path class="fil0" d="M185.52 55.6c-0.08,0 -1.04,-0.05 -1.72,-0.05 -0.17,0 -0.24,0.03 -0.24,0.12 0,0.06 0.06,0.09 0.12,0.09 0.14,0 0.4,0.02 0.52,0.05 0.5,0.11 0.63,0.35 0.66,0.87 0.03,0.49 0.03,0.92 0.03,3.29l0 2.68c0,1.46 0,2.67 -0.08,3.31 -0.06,0.44 -0.14,0.78 -0.44,0.84 -0.14,0.03 -0.32,0.06 -0.46,0.06 -0.09,0 -0.12,0.05 -0.12,0.09 0,0.09 0.08,0.12 0.24,0.12 0.46,0 1.42,-0.05 1.49,-0.05 0.12,0 1.68,0.09 2.03,0.09 2.61,0 3.89,-1.69 3.89,-3.33 0,-2.81 -2.68,-3.26 -4.3,-3.26 -0.56,0 -0.84,-0.05 -0.93,-0.06 -0.08,-0.03 -0.11,-0.06 -0.11,-0.17l0 -4.03c0.02,-0.09 0.06,-0.12 0.14,-0.12l2.78 0.02c0.59,0.02 0.95,0.29 1.04,0.49 0.09,0.2 0.14,0.46 0.14,0.58 0,0.11 0.03,0.18 0.11,0.18 0.08,0 0.11,-0.09 0.12,-0.17 0.03,-0.18 0.06,-0.85 0.08,-1.01 0.05,-0.43 0.12,-0.61 0.12,-0.72 0,-0.08 -0.03,-0.14 -0.09,-0.14 -0.06,0 -0.12,0.06 -0.21,0.09 -0.14,0.05 -0.38,0.05 -0.67,0.06 -0.34,0.02 -3.42,0.05 -3.97,0.05 -0.05,0 -0.11,0 -0.15,0zm0.58 5.46c0,-0.08 0.03,-0.11 0.09,-0.11 0.95,0 1.59,-0.15 2.46,0.44 1.17,0.81 1.48,2.17 1.48,3.08 0,1.72 -1.33,2.17 -2.15,2.17 -0.27,0 -0.93,-0.03 -1.34,-0.23 -0.47,-0.23 -0.47,-0.44 -0.52,-1.19 -0.02,-0.23 -0.02,-2.12 -0.02,-3.29l0 -0.87zm14.4 6.24c0.98,0 2.14,-0.11 2.75,-0.35 0.27,-0.12 0.31,-0.15 0.4,-0.44 0.15,-0.52 0.34,-1.85 0.34,-1.95 0,-0.12 -0.03,-0.23 -0.11,-0.23 -0.09,0 -0.12,0.06 -0.15,0.23 -0.05,0.27 -0.24,0.95 -0.56,1.28 -0.61,0.63 -1.51,0.76 -2.65,0.76 -3.26,0 -5.51,-2.67 -5.51,-5.58 0,-2.7 0.96,-5.09 4.88,-5.09 1.91,0 3.69,0.64 3.69,2.43 0,0.21 0.02,0.32 0.12,0.32 0.12,0 0.15,-0.23 0.15,-0.96 0,-0.88 0.11,-1.62 0.11,-1.78 0,-0.09 -0.03,-0.17 -0.2,-0.17 -0.58,0 -1.95,-0.41 -3.77,-0.41 -4.85,0 -6.36,3.36 -6.36,5.8 0,3.52 2.23,6.16 6.88,6.16z"></path> <path class="fil0" d="M242.73 60.89l-0.06 0 0 -0.92c0,-1.5 0,-2.21 0,-2.67 0.05,-0.61 -0.11,-1.37 0.69,-1.5 0.12,-0.03 0.38,-0.05 0.52,-0.05 0.06,0 0.12,-0.03 0.12,-0.09 0,-0.09 -0.08,-0.12 -0.24,-0.12 -0.05,0 -0.09,0 -0.14,0 -0.03,0 -0.06,0 -0.09,0 -0.47,-0.02 -0.99,0.02 -1.45,0.05l-0.03 0c-0.3,0 -0.67,-0.03 -1.14,-0.05 -0.11,0 -0.21,0 -0.3,0 -0.03,0 -0.06,0 -0.09,0 -0.05,0 -0.09,0 -0.14,0 -0.17,0 -0.24,0.03 -0.24,0.12 0,0.06 0.06,0.09 0.12,0.09 0.14,0 0.4,0.02 0.52,0.05 0.75,0.08 0.64,0.85 0.69,1.43 0,0.46 0,1.17 0,2.73l0 0.92 -0.06 0c-0.26,-0.29 -3.02,-3.1 -3.57,-3.69 -0.43,-0.44 -0.82,-0.84 -0.82,-1.1 0,-0.18 0.08,-0.27 0.2,-0.32 0.08,-0.03 0.14,-0.06 0.14,-0.12 0,-0.08 -0.08,-0.11 -0.18,-0.11 -0.31,0 -0.78,0.05 -1.14,0.05 -0.08,0 -1.08,-0.05 -1.46,-0.05 -0.17,0 -0.23,0.03 -0.23,0.11 0,0.08 0.03,0.11 0.15,0.11 0.23,0 0.55,0.08 0.85,0.21 0.63,0.27 0.96,0.66 1.65,1.31 0.38,0.37 3.11,3.14 3.28,3.34 -0.75,0.92 -3.07,3.68 -3.66,4.3 -1.25,1.33 -1.46,1.43 -2.2,1.75 -0.5,0.21 -0.78,0.15 -0.81,0.27 -0.02,0.08 0.06,0.11 0.32,0.12l0.37 0c0.43,-0.02 0.72,-0.02 1.05,-0.03 0.82,-0.08 1.27,-0.34 1.86,-0.93 0.69,-0.69 3.4,-4 4.2,-4.96l0.08 0 0 1.49c0,1.1 0,2.06 -0.03,2.73 0,0.32 -0.05,0.56 -0.08,0.85 -0.02,0.06 -0.05,0.15 -0.06,0.2 -0.08,0.2 -0.23,0.34 -0.5,0.37 -0.21,0.03 -0.46,0.06 -0.59,0.06 -0.09,0 -0.12,0.05 -0.12,0.09 0,0.08 0.08,0.12 0.24,0.12 0.09,0 0.2,0 0.29,0 0.15,0 0.35,0 0.55,0 0.06,0 0.14,-0.02 0.2,-0.02 0.37,-0.02 0.66,-0.03 0.72,-0.03 0.12,0 1.01,0.05 1.46,0.05 0.18,0 0.37,0.02 0.47,-0.05 0.03,-0.02 0.06,-0.03 0.06,-0.08 0,-0.05 -0.03,-0.09 -0.12,-0.09 -0.17,0 -0.32,-0.02 -0.61,-0.06 -0.24,-0.05 -0.49,-0.27 -0.55,-0.59 -0.08,-0.56 -0.09,-1.13 -0.11,-1.71 0,-0.53 0,-1.16 0,-1.85l0 -1.49 0.08 0.02c0.79,0.9 3.51,4.26 4.19,4.94 0.59,0.59 1.04,0.85 1.86,0.93 0.34,0.02 0.63,0.02 1.05,0.03l0.31 0c0.26,-0.02 0.32,-0.05 0.32,-0.12 0,-0.11 -0.23,-0.05 -0.7,-0.24 -0.73,-0.32 -0.99,-0.46 -2.24,-1.78 -0.59,-0.63 -3.13,-3.55 -3.72,-4.24 0.15,-0.21 2.96,-3.04 3.34,-3.4 0.69,-0.66 1.02,-1.04 1.65,-1.31 0.31,-0.14 0.63,-0.21 0.85,-0.21 0.12,0 0.15,-0.03 0.15,-0.11 0,-0.08 -0.06,-0.11 -0.23,-0.11 -0.38,0 -1.39,0.05 -1.46,0.05 -0.37,0 -0.84,-0.05 -1.14,-0.05 -0.11,0 -0.18,0.03 -0.18,0.11 0,0.06 0.06,0.09 0.14,0.12 0.12,0.05 0.2,0.14 0.2,0.32 0,0.26 -0.4,0.66 -0.82,1.1 -0.55,0.59 -3.31,3.4 -3.57,3.69zm21.49 -5.14c-0.03,-0.29 -0.08,-0.41 -0.18,-0.41 -0.11,0 -0.17,0.11 -0.23,0.24l-4.48 9.58 -4.67 -9.59c-0.08,-0.17 -0.14,-0.23 -0.23,-0.23 -0.09,0 -0.14,0.11 -0.17,0.27l-1.1 9.95c-0.06,0.58 -0.11,1.17 -0.61,1.27 -0.23,0.05 -0.34,0.05 -0.46,0.05 -0.08,0 -0.15,0.03 -0.15,0.08 0,0.11 0.11,0.14 0.26,0.14 0.41,0 1.14,-0.05 1.28,-0.05 0.12,0 0.85,0.05 1.42,0.05 0.18,0 0.27,-0.03 0.27,-0.14 0,-0.05 -0.06,-0.08 -0.12,-0.08 -0.09,0 -0.32,-0.02 -0.58,-0.08 -0.23,-0.05 -0.4,-0.24 -0.4,-0.47 0,-0.26 0,-0.53 0.02,-0.78l0.61 -7.08 0.06 0c0.17,0.41 1.88,4.07 2.01,4.35 0.08,0.15 1.39,2.79 1.78,3.54 0.29,0.53 0.37,0.69 0.47,0.69 0.14,0.02 0.18,-0.12 0.5,-0.79l3.74 -7.93 0.05 0 0.73 7.87c0.03,0.27 0.05,0.59 -0.03,0.61 -0.08,0.02 -0.18,0.05 -0.18,0.11 0,0.12 0.12,0.15 0.47,0.18 0.21,0.02 0.59,0 0.99,0 0.64,0 1.34,0 1.56,0 0.18,0 0.32,-0.05 0.32,-0.14 0,-0.06 -0.05,-0.08 -0.12,-0.08 -0.15,-0.02 -0.55,-0.02 -0.99,-0.15 -0.66,-0.2 -0.76,-1.05 -0.82,-1.6l-1.02 -9.37z"></path> <path class="fil0" d="M302.99 67.3c0.98,0 2.14,-0.11 2.75,-0.35 0.27,-0.12 0.31,-0.15 0.4,-0.44 0.15,-0.52 0.34,-1.85 0.34,-1.95 0,-0.12 -0.03,-0.23 -0.11,-0.23 -0.09,0 -0.12,0.06 -0.15,0.23 -0.05,0.27 -0.24,0.95 -0.56,1.28 -0.61,0.63 -1.51,0.76 -2.65,0.76 -3.26,0 -5.51,-2.67 -5.51,-5.58 0,-2.7 0.96,-5.09 4.88,-5.09 1.91,0 3.69,0.64 3.69,2.43 0,0.21 0.02,0.32 0.12,0.32 0.12,0 0.15,-0.23 0.15,-0.96 0,-0.88 0.11,-1.62 0.11,-1.78 0,-0.09 -0.03,-0.17 -0.2,-0.17 -0.58,0 -1.95,-0.41 -3.77,-0.41 -4.85,0 -6.36,3.36 -6.36,5.8 0,3.52 2.23,6.16 6.88,6.16zm7.78 -11.7c-0.08,0 -1.04,-0.05 -1.72,-0.05 -0.17,0 -0.24,0.03 -0.24,0.12 0,0.06 0.06,0.09 0.12,0.09 0.14,0 0.4,0.02 0.52,0.05 0.5,0.11 0.63,0.35 0.66,0.87 0.03,0.49 0.03,0.92 0.03,3.29l0 2.68c0,1.46 0,2.67 -0.08,3.31 -0.06,0.44 -0.14,0.78 -0.44,0.84 -0.14,0.03 -0.32,0.06 -0.46,0.06 -0.09,0 -0.12,0.05 -0.12,0.09 0,0.09 0.08,0.12 0.24,0.12 0.46,0 1.42,-0.05 1.49,-0.05 0.12,0 1.68,0.09 2.03,0.09 2.61,0 3.89,-1.69 3.89,-3.33 0,-2.81 -2.68,-3.26 -4.3,-3.26 -0.56,0 -0.84,-0.05 -0.93,-0.06 -0.08,-0.03 -0.11,-0.06 -0.11,-0.17l0 -4.03c0.02,-0.09 0.06,-0.12 0.14,-0.12l2.78 0.02c0.59,0.02 0.95,0.29 1.04,0.49 0.09,0.2 0.14,0.46 0.14,0.58 0,0.11 0.03,0.18 0.11,0.18 0.08,0 0.11,-0.09 0.12,-0.17 0.03,-0.18 0.06,-0.85 0.08,-1.01 0.05,-0.43 0.12,-0.61 0.12,-0.72 0,-0.08 -0.03,-0.14 -0.09,-0.14 -0.06,0 -0.12,0.06 -0.21,0.09 -0.14,0.05 -0.38,0.05 -0.67,0.06 -0.34,0.02 -3.42,0.05 -3.97,0.05 -0.05,0 -0.11,0 -0.15,0zm0.58 5.46c0,-0.08 0.03,-0.11 0.09,-0.11 0.95,0 1.59,-0.15 2.46,0.44 1.17,0.81 1.48,2.17 1.48,3.08 0,1.72 -1.33,2.17 -2.15,2.17 -0.27,0 -0.93,-0.03 -1.34,-0.23 -0.47,-0.23 -0.47,-0.44 -0.52,-1.19 -0.02,-0.23 -0.02,-2.12 -0.02,-3.29l0 -0.87z"></path> <path class="fil0" d="M357.57 60.89l-0.06 0 0 -0.92c0,-1.5 0,-2.21 0,-2.67 0.05,-0.61 -0.11,-1.37 0.69,-1.5 0.12,-0.03 0.38,-0.05 0.52,-0.05 0.06,0 0.12,-0.03 0.12,-0.09 0,-0.09 -0.08,-0.12 -0.24,-0.12 -0.05,0 -0.09,0 -0.14,0 -0.03,0 -0.06,0 -0.09,0 -0.47,-0.02 -0.99,0.02 -1.45,0.05l-0.03 0c-0.3,0 -0.67,-0.03 -1.14,-0.05 -0.11,0 -0.21,0 -0.3,0 -0.03,0 -0.06,0 -0.09,0 -0.05,0 -0.09,0 -0.14,0 -0.17,0 -0.24,0.03 -0.24,0.12 0,0.06 0.06,0.09 0.12,0.09 0.14,0 0.4,0.02 0.52,0.05 0.75,0.08 0.64,0.85 0.69,1.43 0,0.46 0,1.17 0,2.73l0 0.92 -0.06 0c-0.26,-0.29 -3.02,-3.1 -3.57,-3.69 -0.43,-0.44 -0.82,-0.84 -0.82,-1.1 0,-0.18 0.08,-0.27 0.2,-0.32 0.08,-0.03 0.14,-0.06 0.14,-0.12 0,-0.08 -0.08,-0.11 -0.18,-0.11 -0.31,0 -0.78,0.05 -1.14,0.05 -0.08,0 -1.08,-0.05 -1.46,-0.05 -0.17,0 -0.23,0.03 -0.23,0.11 0,0.08 0.03,0.11 0.15,0.11 0.23,0 0.55,0.08 0.85,0.21 0.63,0.27 0.96,0.66 1.65,1.31 0.38,0.37 3.11,3.14 3.28,3.34 -0.75,0.92 -3.07,3.68 -3.66,4.3 -1.25,1.33 -1.46,1.43 -2.2,1.75 -0.5,0.21 -0.78,0.15 -0.81,0.27 -0.02,0.08 0.06,0.11 0.32,0.12l0.37 0c0.43,-0.02 0.72,-0.02 1.05,-0.03 0.82,-0.08 1.27,-0.34 1.86,-0.93 0.69,-0.69 3.4,-4 4.2,-4.96l0.08 0 0 1.49c0,1.1 0,2.06 -0.03,2.73 0,0.32 -0.05,0.56 -0.08,0.85 -0.02,0.06 -0.05,0.15 -0.06,0.2 -0.08,0.2 -0.23,0.34 -0.5,0.37 -0.21,0.03 -0.46,0.06 -0.59,0.06 -0.09,0 -0.12,0.05 -0.12,0.09 0,0.08 0.08,0.12 0.24,0.12 0.09,0 0.2,0 0.29,0 0.15,0 0.35,0 0.55,0 0.06,0 0.14,-0.02 0.2,-0.02 0.37,-0.02 0.66,-0.03 0.72,-0.03 0.12,0 1.01,0.05 1.46,0.05 0.18,0 0.37,0.02 0.47,-0.05 0.03,-0.02 0.06,-0.03 0.06,-0.08 0,-0.05 -0.03,-0.09 -0.12,-0.09 -0.17,0 -0.32,-0.02 -0.61,-0.06 -0.24,-0.05 -0.49,-0.27 -0.55,-0.59 -0.08,-0.56 -0.09,-1.13 -0.11,-1.71 0,-0.53 0,-1.16 0,-1.85l0 -1.49 0.08 0.02c0.79,0.9 3.51,4.26 4.19,4.94 0.59,0.59 1.04,0.85 1.86,0.93 0.34,0.02 0.63,0.02 1.05,0.03l0.31 0c0.26,-0.02 0.32,-0.05 0.32,-0.12 0,-0.11 -0.23,-0.05 -0.7,-0.24 -0.73,-0.32 -0.99,-0.46 -2.24,-1.78 -0.59,-0.63 -3.13,-3.55 -3.72,-4.24 0.15,-0.21 2.96,-3.04 3.34,-3.4 0.69,-0.66 1.02,-1.04 1.65,-1.31 0.31,-0.14 0.63,-0.21 0.85,-0.21 0.12,0 0.15,-0.03 0.15,-0.11 0,-0.08 -0.06,-0.11 -0.23,-0.11 -0.38,0 -1.39,0.05 -1.46,0.05 -0.37,0 -0.84,-0.05 -1.14,-0.05 -0.11,0 -0.18,0.03 -0.18,0.11 0,0.06 0.06,0.09 0.14,0.12 0.12,0.05 0.2,0.14 0.2,0.32 0,0.26 -0.4,0.66 -0.82,1.1 -0.55,0.59 -3.31,3.4 -3.57,3.69zm16.31 6.41c0.98,0 2.14,-0.11 2.75,-0.35 0.27,-0.12 0.31,-0.15 0.4,-0.44 0.15,-0.52 0.34,-1.85 0.34,-1.95 0,-0.12 -0.03,-0.23 -0.11,-0.23 -0.09,0 -0.12,0.06 -0.15,0.23 -0.05,0.27 -0.24,0.95 -0.56,1.28 -0.61,0.63 -1.51,0.76 -2.65,0.76 -3.26,0 -5.51,-2.67 -5.51,-5.58 0,-2.7 0.96,-5.09 4.88,-5.09 1.91,0 3.69,0.64 3.69,2.43 0,0.21 0.02,0.32 0.12,0.32 0.12,0 0.15,-0.23 0.15,-0.96 0,-0.88 0.11,-1.62 0.11,-1.78 0,-0.09 -0.03,-0.17 -0.2,-0.17 -0.58,0 -1.95,-0.41 -3.77,-0.41 -4.85,0 -6.36,3.36 -6.36,5.8 0,3.52 2.23,6.16 6.88,6.16z"></path> <path class="fil0" d="M18.3 43.07l349.87 0c5.03,0 9.61,2.06 12.93,5.38 3.32,3.32 5.38,7.89 5.38,12.93 0,5.03 -2.06,9.61 -5.38,12.93 -3.32,3.32 -7.89,5.38 -12.93,5.38l-349.87 0c-5.03,0 -9.61,-2.06 -12.93,-5.38 -3.32,-3.32 -5.38,-7.89 -5.38,-12.93 0,-5.03 2.06,-9.61 5.38,-12.93 3.32,-3.32 7.89,-5.38 12.93,-5.38zm349.87 0.95l-349.87 0c-4.77,0 -9.11,1.95 -12.25,5.1 -3.14,3.15 -5.1,7.48 -5.1,12.25 0,4.77 1.95,9.11 5.1,12.25 3.15,3.15 7.48,5.1 12.25,5.1l349.87 0c4.77,0 9.11,-1.95 12.25,-5.1 3.15,-3.14 5.1,-7.48 5.1,-12.25 0,-4.77 -1.95,-9.11 -5.1,-12.25 -3.14,-3.14 -7.48,-5.1 -12.25,-5.1z"></path> <path class="fil0" d="M22.84 2.24l4.37 0.07c3.33,0.07 4.13,0.87 4.27,1.91l0.03 0.38c0.03,0.49 0.1,0.59 0.28,0.59 0.14,0 0.24,-0.14 0.24,-0.45 0,-0.38 0.1,-2.77 0.1,-3.82 0,-0.21 0,-0.42 -0.17,-0.42 -0.28,0 -1.21,0.35 -3.43,0.35l-13.01 0c-0.42,0 -1.73,-0.07 -2.74,-0.17 -0.94,-0.07 -1.28,-0.42 -1.53,-0.42 -0.14,0 -0.28,0.45 -0.35,0.66 -0.07,0.28 -0.76,3.26 -0.76,3.61 0,0.21 0.07,0.31 0.17,0.31 0.14,0 0.24,-0.07 0.35,-0.35 0.1,-0.24 0.21,-0.49 0.59,-1.08 0.55,-0.83 1.39,-1.08 3.54,-1.11l5.13 -0.07 0 14.67c0,3.33 0,6.07 -0.17,7.53 -0.14,1.01 -0.31,1.77 -1.01,1.91 -0.31,0.07 -0.73,0.14 -1.04,0.14 -0.21,0 -0.28,0.1 -0.28,0.21 0,0.21 0.17,0.28 0.55,0.28 1.04,0 3.23,-0.1 3.4,-0.1 0.17,0 2.36,0.1 4.27,0.1 0.38,0 0.55,-0.1 0.55,-0.28 0,-0.1 -0.07,-0.21 -0.28,-0.21 -0.31,0 -1.08,-0.07 -1.56,-0.14 -1.04,-0.14 -1.25,-0.9 -1.35,-1.91 -0.17,-1.46 -0.17,-4.2 -0.17,-7.53l0 -14.67zm22.34 -1.98c-0.21,0 -0.35,0.21 -0.76,1.35l-7.87 21.54c-0.62,1.73 -1.32,3.05 -2.91,3.26 -0.28,0.03 -0.76,0.07 -1.01,0.07 -0.17,0 -0.31,0.07 -0.31,0.21 0,0.21 0.21,0.28 0.66,0.28 1.63,0 3.54,-0.1 3.92,-0.1 0.38,0 1.87,0.1 2.71,0.1 0.31,0 0.52,-0.07 0.52,-0.28 0,-0.14 -0.1,-0.21 -0.35,-0.21l-0.35 0c-0.59,0 -1.32,-0.31 -1.32,-1.01 0,-0.62 0.17,-1.46 0.49,-2.32l2.08 -6.14c0.07,-0.17 0.17,-0.28 0.35,-0.28l7.46 0c0.17,0 0.24,0.07 0.31,0.21l3.23 8.53c0.07,0.14 0.07,0.35 0.07,0.45 0,0.31 -0.21,0.49 -0.28,0.49 -0.1,0 -0.24,0.1 -0.24,0.24 0,0.21 0.38,0.21 1.04,0.24 2.39,0.07 4.93,0.07 5.45,0.07 0.38,0 0.69,-0.07 0.69,-0.28 0,-0.17 -0.14,-0.21 -0.35,-0.21 -0.35,0 -0.87,-0.03 -1.39,-0.21 -0.73,-0.21 -1.73,-0.76 -2.98,-3.85 -2.12,-5.27 -7.56,-19.6 -8.08,-20.91 -0.42,-1.07 -0.55,-1.25 -0.76,-1.25zm-3.78 15.23c-0.1,0 -0.17,-0.07 -0.1,-0.24l3.05 -9.36c0.07,-0.24 0.17,-0.38 0.24,-0.38 0.1,0 0.17,0.1 0.28,0.38l3.29 9.36c0.03,0.14 0.03,0.24 -0.14,0.24l-6.62 0zm45.78 -14.29c-0.07,-0.66 -0.17,-0.94 -0.42,-0.94 -0.24,0 -0.38,0.24 -0.52,0.55l-10.2 21.78 -10.61 -21.82c-0.17,-0.38 -0.31,-0.52 -0.52,-0.52 -0.21,0 -0.31,0.24 -0.38,0.62l-2.5 22.61c-0.14,1.32 -0.24,2.67 -1.39,2.88 -0.52,0.1 -0.76,0.1 -1.04,0.1 -0.17,0 -0.35,0.07 -0.35,0.17 0,0.24 0.24,0.31 0.59,0.31 0.94,0 2.6,-0.1 2.91,-0.1 0.28,0 1.94,0.1 3.23,0.1 0.42,0 0.62,-0.07 0.62,-0.31 0,-0.1 -0.14,-0.17 -0.28,-0.17 -0.21,0 -0.73,-0.03 -1.32,-0.17 -0.52,-0.1 -0.9,-0.55 -0.9,-1.08 0,-0.59 0,-1.21 0.03,-1.77l1.39 -16.09 0.14 0c0.38,0.94 4.27,9.26 4.58,9.88 0.17,0.35 3.16,6.35 4.06,8.05 0.66,1.21 0.83,1.56 1.08,1.56 0.31,0.03 0.42,-0.28 1.14,-1.8l8.5 -18.03 0.1 0 1.66 17.9c0.07,0.62 0.1,1.35 -0.07,1.39 -0.17,0.03 -0.42,0.1 -0.42,0.24 0,0.28 0.28,0.35 1.08,0.42 0.49,0.03 1.35,0 2.25,0 1.46,0 3.05,0 3.54,0 0.42,0 0.73,-0.1 0.73,-0.31 0,-0.14 -0.1,-0.17 -0.28,-0.17 -0.35,-0.03 -1.25,-0.03 -2.25,-0.35 -1.49,-0.45 -1.73,-2.39 -1.87,-3.64l-2.32 -21.3zm15.75 2.12c0.07,-1.21 0.35,-1.8 1.28,-1.98 0.42,-0.07 0.62,-0.1 0.87,-0.1 0.14,0 0.28,-0.07 0.28,-0.21 0,-0.21 -0.17,-0.28 -0.55,-0.28 -1.04,0 -3.23,0.1 -3.4,0.1 -0.17,0 -2.36,-0.1 -3.5,-0.1 -0.38,0 -0.55,0.07 -0.55,0.28 0,0.14 0.14,0.21 0.28,0.21 0.24,0 0.69,0.03 1.08,0.14 0.76,0.17 1.32,0.76 1.35,1.94 0.07,2.19 0.07,2.08 0.07,7.49l0 6.1c0,3.33 0,6.07 -0.17,7.53 -0.14,1.01 -0.31,1.77 -1.01,1.91 -0.31,0.07 -0.73,0.14 -1.04,0.14 -0.21,0 -0.28,0.1 -0.28,0.21 0,0.21 0.17,0.28 0.55,0.28 1.04,0 3.23,-0.1 3.4,-0.1 0.28,0 3.81,0.21 4.61,0.21 5.93,0 8.84,-3.85 8.84,-7.56 0,-4.72 -3.95,-7.42 -8.67,-7.42l-1.11 0c-1.28,0 -1.91,-0.1 -2.12,-0.14 -0.17,-0.07 -0.24,-0.14 -0.24,-0.38l0.03 -8.25zm-0.03 11.13c-0.03,-0.9 0.21,-1.21 1.98,-1.21 5.41,0 7.18,4.65 7.18,7.8 0,3.92 -3.02,4.93 -4.89,4.93 -0.62,0 -2.12,-0.07 -3.05,-0.52 -1.08,-0.52 -1.08,-1.01 -1.18,-2.71 -0.03,-0.52 -0.03,-4.82 -0.03,-7.49l0 -0.8zm20.53 -3.64c0,-5.41 0,-6.38 0.07,-7.49 0.07,-1.21 0.35,-1.8 1.28,-1.98 0.42,-0.07 0.62,-0.1 0.87,-0.1 0.14,0 0.28,-0.07 0.28,-0.21 0,-0.21 -0.17,-0.28 -0.55,-0.28 -1.04,0 -3.23,0.1 -3.4,0.1 -0.17,0 -2.36,-0.1 -3.5,-0.1 -0.38,0 -0.55,0.07 -0.55,0.28 0,0.14 0.14,0.21 0.28,0.21 0.24,0 0.69,0.03 1.07,0.14 0.76,0.17 1.11,0.76 1.18,1.94 0.07,1.11 0.07,2.08 0.07,7.49l0 6.1c0,3.33 0,6.07 -0.17,7.53 -0.14,1.01 -0.31,1.77 -1.01,1.91 -0.31,0.07 -0.73,0.14 -1.04,0.14 -0.21,0 -0.28,0.1 -0.28,0.21 0,0.21 0.17,0.28 0.55,0.28 1.04,0 3.23,-0.1 3.4,-0.1 0.17,0 2.36,0.1 4.27,0.1 0.38,0 0.55,-0.1 0.55,-0.28 0,-0.1 -0.07,-0.21 -0.28,-0.21 -0.31,0 -1.08,-0.07 -1.56,-0.14 -1.04,-0.14 -1.25,-0.9 -1.35,-1.91 -0.17,-1.46 -0.17,-4.2 -0.17,-7.53l0 -6.1zm18 0.9c2.19,-1.14 4.16,-3.23 4.16,-6.24 0,-3.33 -2.43,-5.2 -6.38,-5.2 -1.21,0 -3.71,0.62 -5.2,0.49 -0.24,-0.03 -0.31,0.17 -0.38,0.66 -0.17,1.04 -0.69,4.2 -0.69,4.61 0,0.28 0.03,0.45 0.21,0.45 0.17,0 0.31,-0.1 0.38,-0.62 0.21,-1.46 2.08,-4.34 4.54,-4.34 3.29,0 4.89,1.94 4.89,4.27 0,3.16 -2.29,6.38 -5.24,6.38 -0.45,0 -0.66,-0.07 -1.35,-0.07 -0.49,0 -0.66,0.07 -0.66,0.52 0,0.49 0.17,0.59 0.62,0.59 0.38,0 0.9,-0.1 1.35,-0.1 3.47,0 6.49,3.09 6.49,6.73 0,4.51 -3.23,6.07 -6.62,6.07 -2.43,0 -4.79,-1.42 -5.31,-3.71 -0.1,-0.49 -0.1,-0.97 -0.1,-1.28 0,-0.28 -0.03,-0.38 -0.28,-0.38 -0.17,0 -0.24,0.17 -0.28,0.55 -0.03,0.55 -0.24,2.22 -0.24,3.95 0,0.94 0,1.11 0.55,1.32 1.42,0.52 2.95,0.9 4.96,0.9 5.51,0 10.3,-3.09 10.3,-8.6 0,-3.33 -3.36,-6.14 -5.72,-6.76l0 -0.17z"></path> <path class="fil0" d="M306.18 26.6c1.46,0 1.98,-0.1 2.25,-1.04 0.35,-1.18 1.04,-3.88 1.04,-4.54 0,-0.21 -0.03,-0.52 -0.21,-0.52 -0.21,0 -0.31,0.14 -0.42,0.52 -0.42,1.84 -1.53,3.09 -4.06,3.33 -1.25,0.14 -5.34,0.17 -5.93,0.17l-2.53 0c-0.17,0 -0.24,-0.1 -0.07,-0.24 4.3,-3.68 12.07,-10.09 12.07,-17.27 0,-3.68 -2.6,-7.01 -7.84,-7.01 -2.81,0 -4.82,0.62 -6.1,1.21 -0.31,0.21 -0.35,0.31 -0.35,0.52 0,1.08 0.17,3.95 0.21,4.27 0.03,0.31 0.14,0.45 0.28,0.45 0.17,0 0.31,-0.21 0.31,-0.52 0,-1.35 0.38,-2.57 1.21,-3.36 1.01,-0.94 2.05,-1.32 3.71,-1.32 2.32,0 5.51,1.46 5.51,6.42 0,6.66 -5.17,11.45 -12.1,17.62 -0.28,0.24 -0.62,0.55 -0.62,0.83 0,0.28 0.24,0.49 0.49,0.49l13.14 0zm8.05 -12.21c0,5.27 2.15,12.8 8.77,12.8 5.93,0 9.36,-6.14 9.36,-14.39 0,-5.27 -2.08,-12.8 -8.81,-12.8 -6,0 -9.33,6.14 -9.33,14.39zm2.91 -1.42c0,-7.18 2.29,-11.69 5.72,-11.69 4.58,0 6.59,7.04 6.59,13.01 0,7.14 -2.32,11.62 -5.76,11.62 -4.65,0 -6.55,-6.9 -6.55,-12.94zm31.91 13.63c1.46,0 1.98,-0.1 2.25,-1.04 0.35,-1.18 1.04,-3.88 1.04,-4.54 0,-0.21 -0.03,-0.52 -0.21,-0.52 -0.21,0 -0.31,0.14 -0.42,0.52 -0.42,1.84 -1.53,3.09 -4.06,3.33 -1.25,0.14 -5.34,0.17 -5.93,0.17l-2.53 0c-0.17,0 -0.24,-0.1 -0.07,-0.24 4.3,-3.68 12.07,-10.09 12.07,-17.27 0,-3.68 -2.6,-7.01 -7.84,-7.01 -2.81,0 -4.82,0.62 -6.1,1.21 -0.31,0.21 -0.35,0.31 -0.35,0.52 0,1.08 0.17,3.95 0.21,4.27 0.03,0.31 0.14,0.45 0.28,0.45 0.17,0 0.31,-0.21 0.31,-0.52 0,-1.35 0.38,-2.57 1.21,-3.36 1.01,-0.94 2.05,-1.32 3.71,-1.32 2.32,0 5.51,1.46 5.51,6.42 0,6.66 -5.17,11.45 -12.1,17.62 -0.28,0.24 -0.62,0.55 -0.62,0.83 0,0.28 0.24,0.49 0.49,0.49l13.14 0zm21.82 -6.76c0,3.82 -2.19,6.03 -4.96,6.03 -3.99,0 -5.79,-4.61 -5.79,-8.67 0,-8.22 4.89,-13.8 9.33,-16.27 0.35,-0.21 0.66,-0.35 0.66,-0.62 0,-0.21 -0.14,-0.31 -0.28,-0.31 -0.14,0 -0.42,0.1 -0.73,0.24 -6.73,2.91 -12,10.23 -12,16.96 0,6.31 3.29,9.99 8.15,9.99 2.57,0 4.37,-0.76 6,-2.32 1.53,-1.49 2.5,-3.85 2.5,-6.59 0,-3.09 -2.15,-7.04 -6.97,-7.04 -1.94,0 -3.33,0.73 -4.02,1.21 -0.21,0.14 -0.31,0.24 -0.31,0.42 0,0.17 0.03,0.28 0.14,0.28 0.1,0 0.35,-0.1 0.45,-0.14 0.8,-0.38 1.7,-0.45 2.6,-0.45 2.12,0 5.24,2.46 5.24,7.28z"></path> <path class="fil0" d="M365.8 113.17c0.96,0 1.3,-0.07 1.49,-0.69 0.23,-0.78 0.69,-2.56 0.69,-3 0,-0.14 -0.02,-0.34 -0.14,-0.34 -0.14,0 -0.21,0.09 -0.27,0.34 -0.27,1.21 -1.01,2.04 -2.68,2.2 -0.82,0.09 -3.52,0.11 -3.91,0.11l-1.67 0c-0.11,0 -0.16,-0.07 -0.05,-0.16 2.84,-2.42 7.96,-6.65 7.96,-11.39 0,-2.42 -1.72,-4.62 -5.17,-4.62 -1.85,0 -3.18,0.41 -4.02,0.8 -0.21,0.14 -0.23,0.21 -0.23,0.34 0,0.71 0.11,2.61 0.14,2.81 0.02,0.21 0.09,0.3 0.18,0.3 0.11,0 0.21,-0.14 0.21,-0.34 0,-0.89 0.25,-1.69 0.8,-2.22 0.66,-0.62 1.35,-0.87 2.45,-0.87 1.53,0 3.64,0.96 3.64,4.23 0,4.39 -3.41,7.55 -7.98,11.62 -0.18,0.16 -0.41,0.37 -0.41,0.55 0,0.18 0.16,0.32 0.32,0.32l8.67 0z"></path> <path class="fil0" d="M27.15 143.84c0,2.72 -1.83,4.05 -4.14,4.05 -2.4,0 -3.27,-1.33 -3.43,-3.09 -0.02,-0.25 -0.05,-0.32 -0.16,-0.32 -0.11,0 -0.16,0.11 -0.18,0.34 -0.07,0.5 -0.16,1.78 -0.16,2.86 0,0.27 0.05,0.43 0.37,0.64 0.48,0.27 1.85,0.55 2.79,0.55 4.07,0 6.84,-2.68 6.84,-5.88 0,-2.65 -2.33,-4.05 -3.77,-4.39l0 -0.11c0.71,-0.32 3.06,-1.83 3.06,-4.12 0,-1.14 -0.8,-3.43 -4.53,-3.43 -1.72,0 -3,0.43 -3.7,0.78 -0.27,0.18 -0.3,0.27 -0.3,0.48 0,0.53 0.07,1.55 0.16,2.29 0.02,0.21 0.09,0.25 0.16,0.25 0.07,0 0.16,-0.05 0.16,-0.27 0,-1.76 1.21,-2.7 2.88,-2.7 2.7,0 3.29,2.13 3.29,3.09 0,2.68 -2.52,3.77 -3.64,3.98 -0.3,0.05 -0.53,0.11 -0.53,0.27 0,0.16 0.16,0.21 0.59,0.3 1.49,0.3 4.23,1.37 4.23,4.44z"></path> <path class="fil0" d="M83.8 134.76c0,-1.26 0.02,-3.09 0.02,-3.43 0,-0.23 -0.07,-0.39 -0.23,-0.39 -0.16,0 -0.3,0.16 -0.48,0.41 -0.73,1.01 -8.74,11.07 -8.87,11.23 -0.09,0.11 -0.21,0.3 -0.21,0.48 0,0.21 0.21,0.27 0.48,0.27l7.55 0c0,0.75 0.05,2.52 -0.05,3.52 -0.07,0.69 -0.23,1.17 -0.98,1.28 -0.37,0.05 -0.87,0.07 -1.07,0.07 -0.11,0 -0.18,0.09 -0.18,0.18 0,0.11 0.11,0.16 0.37,0.16 1.26,0 2.49,-0.07 2.65,-0.07 0.16,0 1.62,0.07 2.88,0.07 0.25,0 0.37,-0.05 0.37,-0.16 0,-0.09 -0.09,-0.18 -0.21,-0.18 -0.23,0 -0.69,-0.02 -1.01,-0.09 -0.73,-0.18 -0.91,-0.57 -0.98,-1.26 -0.09,-1.01 -0.05,-2.77 -0.05,-3.52l2.1 0c0.27,0 0.37,-0.07 0.48,-0.3 0.09,-0.27 0.21,-0.8 0.21,-0.91 0,-0.11 0,-0.27 -0.11,-0.27 -0.09,0 -0.32,0.25 -0.94,0.25l-1.74 0 0 -7.34zm-1.74 7.34l-6.43 0c0.43,-0.57 6.04,-7.5 6.38,-8.1l0.05 0 0 8.1z"></path> <path class="fil0" d="M134.95 132.77l4.32 0c1.81,0 2.01,0.59 2.01,1.46 0,0.16 0.05,0.3 0.14,0.3 0.09,0 0.16,-0.14 0.18,-0.25 0.23,-1.67 0.3,-2.68 0.3,-2.88 0,-0.18 -0.07,-0.23 -0.16,-0.23 -0.16,0 -0.55,0.16 -1.81,0.16l-5.37 0c-0.25,0 -0.41,0.07 -0.43,0.3l-0.53 5.83c-0.02,0.25 0.14,0.39 0.59,0.41 1.76,0.09 5.81,1.88 5.81,5.56 0,3.16 -2.1,4.44 -4.02,4.44 -1.67,0 -3.13,-0.5 -3.13,-2.95 0,-0.27 -0.05,-0.39 -0.18,-0.39 -0.09,0 -0.16,0.18 -0.21,0.41 -0.11,0.73 -0.09,2.1 -0.09,2.88 0,0.23 0.05,0.43 0.43,0.64 0.57,0.32 1.42,0.41 2.1,0.41 4.62,0 6.86,-3.36 6.86,-6.31 0,-4.07 -4.23,-5.83 -7.14,-6.27l0.32 -3.52z"></path> <path class="fil0" d="M197.24 144.02c0,2.52 -1.44,3.98 -3.27,3.98 -2.63,0 -3.82,-3.04 -3.82,-5.72 0,-5.42 3.22,-9.1 6.15,-10.73 0.23,-0.14 0.43,-0.23 0.43,-0.41 0,-0.14 -0.09,-0.21 -0.18,-0.21 -0.09,0 -0.27,0.07 -0.48,0.16 -4.44,1.92 -7.91,6.75 -7.91,11.18 0,4.16 2.17,6.59 5.37,6.59 1.69,0 2.88,-0.5 3.96,-1.53 1.01,-0.98 1.65,-2.54 1.65,-4.34 0,-2.04 -1.42,-4.64 -4.6,-4.64 -1.28,0 -2.2,0.48 -2.65,0.8 -0.14,0.09 -0.21,0.16 -0.21,0.27 0,0.11 0.02,0.18 0.09,0.18 0.07,0 0.23,-0.07 0.3,-0.09 0.53,-0.25 1.12,-0.3 1.72,-0.3 1.39,0 3.45,1.62 3.45,4.8z"></path> <path class="fil0" d="M247.78 131.33c-1.49,0 -2.04,-0.23 -2.17,-0.23 -0.14,0 -0.23,0.09 -0.23,0.32 0,0.23 -0.34,2.9 -0.34,3.64 0,0.25 0.02,0.37 0.14,0.37 0.11,0 0.18,-0.11 0.21,-0.32 0.07,-0.64 0.39,-1.37 0.87,-1.76 0.55,-0.46 1.46,-0.57 2.13,-0.57l5.63 0c-3.45,5.99 -5.92,12.1 -6.81,15.09 -0.07,0.21 -0.14,0.55 -0.14,0.78 0,0.16 0.07,0.23 0.21,0.23 0.46,0 2.24,-0.94 2.24,-1.39 0,-0.25 -0.05,-0.41 0,-0.8 0.34,-2.97 4.12,-11.94 5.97,-14.68 0.11,-0.18 0.14,-0.34 0.14,-0.43 0,-0.14 -0.11,-0.23 -0.41,-0.23l-7.41 0z"></path> <path class="fil0" d="M301.18 144.43c0,2.77 2.33,4.44 5.19,4.44 3.27,0 5.44,-2.38 5.44,-5.03 0,-2.81 -2.47,-4.21 -3.98,-4.99 1.28,-0.64 3.27,-2.01 3.27,-4.41 0,-2.24 -1.81,-3.5 -4.18,-3.5 -3.34,0 -4.87,2.36 -4.87,4.09 0,2.04 1.42,3.25 3.2,4.3 -2.08,0.82 -4.07,2.54 -4.07,5.1zm5.37 3.57c-2.13,0 -3.61,-1.76 -3.61,-3.8 0,-2.29 1.39,-3.68 3.09,-4.5 2.06,1.07 4.02,2.17 4.02,4.66 0,2.04 -1.39,3.64 -3.5,3.64zm0.09 -16.28c1.76,0 2.86,1.26 2.86,3 0,2.33 -1.56,3.25 -2.45,3.77 -1.88,-1.01 -3.38,-1.97 -3.38,-3.89 0,-1.26 0.91,-2.88 2.97,-2.88l0 0z"></path> <path class="fil0" d="M307.82 102.06c0,-3.5 0.11,-5.76 0.11,-5.95 0,-0.23 -0.05,-0.48 -0.23,-0.48 -0.16,0 -0.34,0.11 -0.55,0.27 -0.21,0.14 -4.28,2.86 -4.41,2.95 -0.09,0.07 -0.16,0.16 -0.16,0.23 0,0.09 0.07,0.21 0.14,0.21 0.09,0 0.16,-0.02 0.27,-0.09 0.57,-0.27 2.17,-1.1 2.61,-1.1 0.37,0 0.41,0.25 0.41,0.71 0,1.26 0.02,2.24 0.02,3.48l0 4c0,2.29 0,4.25 -0.07,5.26 -0.05,0.71 -0.21,1.05 -0.96,1.19 -0.43,0.09 -1.56,0.16 -1.83,0.16 -0.09,0 -0.18,0.09 -0.18,0.18 0,0.11 0.11,0.16 0.37,0.16 1.46,0 3.38,-0.07 3.5,-0.07 0.11,0 1.58,0.07 3.29,0.07 0.27,0 0.39,-0.05 0.39,-0.16 0,-0.09 -0.09,-0.18 -0.18,-0.18 -0.21,0 -1.17,-0.07 -1.51,-0.14 -0.73,-0.16 -0.82,-0.5 -0.91,-1.21 -0.11,-1.01 -0.11,-2.97 -0.11,-5.26l0 -4.23z"></path> <path class="fil0" d="M363 130.94c-3.16,0 -5.47,2.17 -5.47,5.33 0,1.92 1.37,4.41 4.62,4.41 0.91,0 2.08,-0.34 2.74,-1.05 0.07,-0.07 0.09,-0.11 0.09,-0.18 0,-0.07 -0.05,-0.16 -0.11,-0.16 -0.07,0 -0.16,0.05 -0.3,0.14 -0.3,0.18 -0.75,0.41 -1.83,0.41 -0.62,0 -3.43,-0.75 -3.43,-4.55 0,-1.81 1.07,-3.5 3.13,-3.5 2.01,0 3.77,2.04 3.77,6.04 0,5.37 -3.52,9.17 -6.22,10.66 -0.14,0.07 -0.23,0.18 -0.23,0.32 0,0.14 0.09,0.23 0.18,0.23 0.09,0 0.23,-0.02 0.37,-0.09 2.79,-1.39 7.91,-5.35 7.91,-11.78 0,-3.48 -2.01,-6.22 -5.24,-6.22z"></path> <path class="fil0" d="M18.1 172.67c0,-3.5 0.11,-5.76 0.11,-5.95 0,-0.23 -0.05,-0.48 -0.23,-0.48 -0.16,0 -0.34,0.11 -0.55,0.27 -0.21,0.14 -4.28,2.86 -4.41,2.95 -0.09,0.07 -0.16,0.16 -0.16,0.23 0,0.09 0.07,0.21 0.14,0.21 0.09,0 0.16,-0.02 0.27,-0.09 0.57,-0.27 2.17,-1.1 2.61,-1.1 0.37,0 0.41,0.25 0.41,0.71 0,1.26 0.02,2.24 0.02,3.48l0 4c0,2.29 0,4.25 -0.07,5.26 -0.05,0.71 -0.21,1.05 -0.96,1.19 -0.43,0.09 -1.56,0.16 -1.83,0.16 -0.09,0 -0.18,0.09 -0.18,0.18 0,0.11 0.11,0.16 0.37,0.16 1.46,0 3.38,-0.07 3.5,-0.07 0.11,0 1.58,0.07 3.29,0.07 0.27,0 0.39,-0.05 0.39,-0.16 0,-0.09 -0.09,-0.18 -0.18,-0.18 -0.21,0 -1.17,-0.07 -1.51,-0.14 -0.73,-0.16 -0.82,-0.5 -0.91,-1.21 -0.11,-1.01 -0.11,-2.97 -0.11,-5.26l0 -4.23zm5.51 3.06c0,3.48 1.42,8.44 5.79,8.44 3.91,0 6.17,-4.05 6.17,-9.49 0,-3.48 -1.37,-8.44 -5.81,-8.44 -3.96,0 -6.15,4.05 -6.15,9.49zm1.92 -0.94c0,-4.73 1.51,-7.71 3.77,-7.71 3.02,0 4.34,4.64 4.34,8.58 0,4.71 -1.53,7.66 -3.8,7.66 -3.06,0 -4.32,-4.55 -4.32,-8.53z"></path> <path class="fil0" d="M76.63 172.67c0,-3.5 0.11,-5.76 0.11,-5.95 0,-0.23 -0.05,-0.48 -0.23,-0.48 -0.16,0 -0.34,0.11 -0.55,0.27 -0.21,0.14 -4.28,2.86 -4.41,2.95 -0.09,0.07 -0.16,0.16 -0.16,0.23 0,0.09 0.07,0.21 0.14,0.21 0.09,0 0.16,-0.02 0.27,-0.09 0.57,-0.27 2.17,-1.1 2.61,-1.1 0.37,0 0.41,0.25 0.41,0.71 0,1.26 0.02,2.24 0.02,3.48l0 4c0,2.29 0,4.25 -0.07,5.26 -0.05,0.71 -0.21,1.05 -0.96,1.19 -0.43,0.09 -1.56,0.16 -1.83,0.16 -0.09,0 -0.18,0.09 -0.18,0.18 0,0.11 0.11,0.16 0.37,0.16 1.46,0 3.38,-0.07 3.5,-0.07 0.11,0 1.58,0.07 3.29,0.07 0.27,0 0.39,-0.05 0.39,-0.16 0,-0.09 -0.09,-0.18 -0.18,-0.18 -0.21,0 -1.17,-0.07 -1.51,-0.14 -0.73,-0.16 -0.82,-0.5 -0.91,-1.21 -0.11,-1.01 -0.11,-2.97 -0.11,-5.26l0 -4.23zm10.75 0c0,-3.5 0.11,-5.76 0.11,-5.95 0,-0.23 -0.05,-0.48 -0.23,-0.48 -0.16,0 -0.34,0.11 -0.55,0.27 -0.21,0.14 -4.28,2.86 -4.41,2.95 -0.09,0.07 -0.16,0.16 -0.16,0.23 0,0.09 0.07,0.21 0.14,0.21 0.09,0 0.16,-0.02 0.27,-0.09 0.57,-0.27 2.17,-1.1 2.61,-1.1 0.37,0 0.41,0.25 0.41,0.71 0,1.26 0.02,2.24 0.02,3.48l0 4c0,2.29 0,4.25 -0.07,5.26 -0.05,0.71 -0.21,1.05 -0.96,1.19 -0.43,0.09 -1.56,0.16 -1.83,0.16 -0.09,0 -0.18,0.09 -0.18,0.18 0,0.11 0.11,0.16 0.37,0.16 1.46,0 3.38,-0.07 3.5,-0.07 0.11,0 1.58,0.07 3.29,0.07 0.27,0 0.39,-0.05 0.39,-0.16 0,-0.09 -0.09,-0.18 -0.18,-0.18 -0.21,0 -1.17,-0.07 -1.51,-0.14 -0.73,-0.16 -0.82,-0.5 -0.91,-1.21 -0.11,-1.01 -0.11,-2.97 -0.11,-5.26l0 -4.23z"></path> <path class="fil0" d="M131.77 172.67c0,-3.5 0.11,-5.76 0.11,-5.95 0,-0.23 -0.05,-0.48 -0.23,-0.48 -0.16,0 -0.34,0.11 -0.55,0.27 -0.21,0.14 -4.28,2.86 -4.41,2.95 -0.09,0.07 -0.16,0.16 -0.16,0.23 0,0.09 0.07,0.21 0.14,0.21 0.09,0 0.16,-0.02 0.27,-0.09 0.57,-0.27 2.17,-1.1 2.61,-1.1 0.37,0 0.41,0.25 0.41,0.71 0,1.26 0.02,2.24 0.02,3.48l0 4c0,2.29 0,4.25 -0.07,5.26 -0.05,0.71 -0.21,1.05 -0.96,1.19 -0.43,0.09 -1.56,0.16 -1.83,0.16 -0.09,0 -0.18,0.09 -0.18,0.18 0,0.11 0.11,0.16 0.37,0.16 1.46,0 3.38,-0.07 3.5,-0.07 0.11,0 1.58,0.07 3.29,0.07 0.27,0 0.39,-0.05 0.39,-0.16 0,-0.09 -0.09,-0.18 -0.18,-0.18 -0.21,0 -1.17,-0.07 -1.51,-0.14 -0.73,-0.16 -0.82,-0.5 -0.91,-1.21 -0.11,-1.01 -0.11,-2.97 -0.11,-5.26l0 -4.23zm13.58 11.11c0.96,0 1.3,-0.07 1.49,-0.69 0.23,-0.78 0.69,-2.56 0.69,-3 0,-0.14 -0.02,-0.34 -0.14,-0.34 -0.14,0 -0.21,0.09 -0.27,0.34 -0.27,1.21 -1.01,2.04 -2.68,2.2 -0.82,0.09 -3.52,0.11 -3.91,0.11l-1.67 0c-0.11,0 -0.16,-0.07 -0.05,-0.16 2.84,-2.42 7.96,-6.65 7.96,-11.39 0,-2.42 -1.72,-4.62 -5.17,-4.62 -1.85,0 -3.18,0.41 -4.02,0.8 -0.21,0.14 -0.23,0.21 -0.23,0.34 0,0.71 0.11,2.61 0.14,2.81 0.02,0.21 0.09,0.3 0.18,0.3 0.11,0 0.21,-0.14 0.21,-0.34 0,-0.89 0.25,-1.69 0.8,-2.22 0.66,-0.62 1.35,-0.87 2.45,-0.87 1.53,0 3.64,0.96 3.64,4.23 0,4.39 -3.41,7.55 -7.98,11.62 -0.18,0.16 -0.41,0.37 -0.41,0.55 0,0.18 0.16,0.32 0.32,0.32l8.67 0z"></path> <path class="fil0" d="M188.17 172.67c0,-3.5 0.11,-5.76 0.11,-5.95 0,-0.23 -0.05,-0.48 -0.23,-0.48 -0.16,0 -0.34,0.11 -0.55,0.27 -0.21,0.14 -4.28,2.86 -4.41,2.95 -0.09,0.07 -0.16,0.16 -0.16,0.23 0,0.09 0.07,0.21 0.14,0.21 0.09,0 0.16,-0.02 0.27,-0.09 0.57,-0.27 2.17,-1.1 2.61,-1.1 0.37,0 0.41,0.25 0.41,0.71 0,1.26 0.02,2.24 0.02,3.48l0 4c0,2.29 0,4.25 -0.07,5.26 -0.05,0.71 -0.21,1.05 -0.96,1.19 -0.43,0.09 -1.56,0.16 -1.83,0.16 -0.09,0 -0.18,0.09 -0.18,0.18 0,0.11 0.11,0.16 0.37,0.16 1.46,0 3.38,-0.07 3.5,-0.07 0.11,0 1.58,0.07 3.29,0.07 0.27,0 0.39,-0.05 0.39,-0.16 0,-0.09 -0.09,-0.18 -0.18,-0.18 -0.21,0 -1.17,-0.07 -1.51,-0.14 -0.73,-0.16 -0.82,-0.5 -0.91,-1.21 -0.11,-1.01 -0.11,-2.97 -0.11,-5.26l0 -4.23zm13.72 6.47c0,2.72 -1.83,4.05 -4.14,4.05 -2.4,0 -3.27,-1.33 -3.43,-3.09 -0.02,-0.25 -0.05,-0.32 -0.16,-0.32 -0.11,0 -0.16,0.11 -0.18,0.34 -0.07,0.5 -0.16,1.78 -0.16,2.86 0,0.27 0.05,0.43 0.37,0.64 0.48,0.27 1.85,0.55 2.79,0.55 4.07,0 6.84,-2.68 6.84,-5.88 0,-2.65 -2.33,-4.05 -3.77,-4.39l0 -0.11c0.71,-0.32 3.06,-1.83 3.06,-4.12 0,-1.14 -0.8,-3.43 -4.53,-3.43 -1.72,0 -3,0.43 -3.7,0.78 -0.27,0.18 -0.3,0.27 -0.3,0.48 0,0.53 0.07,1.55 0.16,2.29 0.02,0.21 0.09,0.25 0.16,0.25 0.07,0 0.16,-0.05 0.16,-0.27 0,-1.76 1.21,-2.7 2.88,-2.7 2.7,0 3.29,2.13 3.29,3.09 0,2.68 -2.52,3.77 -3.64,3.98 -0.3,0.05 -0.53,0.11 -0.53,0.27 0,0.16 0.16,0.21 0.59,0.3 1.49,0.3 4.23,1.37 4.23,4.44z"></path> <path class="fil0" d="M244.09 172.67c0,-3.5 0.11,-5.76 0.11,-5.95 0,-0.23 -0.05,-0.48 -0.23,-0.48 -0.16,0 -0.34,0.11 -0.55,0.27 -0.21,0.14 -4.28,2.86 -4.41,2.95 -0.09,0.07 -0.16,0.16 -0.16,0.23 0,0.09 0.07,0.21 0.14,0.21 0.09,0 0.16,-0.02 0.27,-0.09 0.57,-0.27 2.17,-1.1 2.61,-1.1 0.37,0 0.41,0.25 0.41,0.71 0,1.26 0.02,2.24 0.02,3.48l0 4c0,2.29 0,4.25 -0.07,5.26 -0.05,0.71 -0.21,1.05 -0.96,1.19 -0.43,0.09 -1.56,0.16 -1.83,0.16 -0.09,0 -0.18,0.09 -0.18,0.18 0,0.11 0.11,0.16 0.37,0.16 1.46,0 3.38,-0.07 3.5,-0.07 0.11,0 1.58,0.07 3.29,0.07 0.27,0 0.39,-0.05 0.39,-0.16 0,-0.09 -0.09,-0.18 -0.18,-0.18 -0.21,0 -1.17,-0.07 -1.51,-0.14 -0.73,-0.16 -0.82,-0.5 -0.91,-1.21 -0.11,-1.01 -0.11,-2.97 -0.11,-5.26l0 -4.23zm14.45 -2.61c0,-1.26 0.02,-3.09 0.02,-3.43 0,-0.23 -0.07,-0.39 -0.23,-0.39 -0.16,0 -0.3,0.16 -0.48,0.41 -0.73,1.01 -8.74,11.07 -8.87,11.23 -0.09,0.11 -0.21,0.3 -0.21,0.48 0,0.21 0.21,0.27 0.48,0.27l7.55 0c0,0.75 0.05,2.52 -0.05,3.52 -0.07,0.69 -0.23,1.17 -0.98,1.28 -0.37,0.05 -0.87,0.07 -1.07,0.07 -0.11,0 -0.18,0.09 -0.18,0.18 0,0.11 0.11,0.16 0.37,0.16 1.26,0 2.49,-0.07 2.65,-0.07 0.16,0 1.62,0.07 2.88,0.07 0.25,0 0.37,-0.05 0.37,-0.16 0,-0.09 -0.09,-0.18 -0.21,-0.18 -0.23,0 -0.69,-0.02 -1.01,-0.09 -0.73,-0.18 -0.91,-0.57 -0.98,-1.26 -0.09,-1.01 -0.05,-2.77 -0.05,-3.52l2.1 0c0.27,0 0.37,-0.07 0.48,-0.3 0.09,-0.27 0.21,-0.8 0.21,-0.91 0,-0.11 0,-0.27 -0.11,-0.27 -0.09,0 -0.32,0.25 -0.94,0.25l-1.74 0 0 -7.34zm-1.74 7.34l-6.43 0c0.43,-0.57 6.04,-7.5 6.38,-8.1l0.05 0 0 8.1z"></path> <path class="fil0" d="M301.32 172.67c0,-3.5 0.11,-5.76 0.11,-5.95 0,-0.23 -0.05,-0.48 -0.23,-0.48 -0.16,0 -0.34,0.11 -0.55,0.27 -0.21,0.14 -4.28,2.86 -4.41,2.95 -0.09,0.07 -0.16,0.16 -0.16,0.23 0,0.09 0.07,0.21 0.14,0.21 0.09,0 0.16,-0.02 0.27,-0.09 0.57,-0.27 2.17,-1.1 2.61,-1.1 0.37,0 0.41,0.25 0.41,0.71 0,1.26 0.02,2.24 0.02,3.48l0 4c0,2.29 0,4.25 -0.07,5.26 -0.05,0.71 -0.21,1.05 -0.96,1.19 -0.43,0.09 -1.56,0.16 -1.83,0.16 -0.09,0 -0.18,0.09 -0.18,0.18 0,0.11 0.11,0.16 0.37,0.16 1.46,0 3.38,-0.07 3.5,-0.07 0.11,0 1.58,0.07 3.29,0.07 0.27,0 0.39,-0.05 0.39,-0.16 0,-0.09 -0.09,-0.18 -0.18,-0.18 -0.21,0 -1.17,-0.07 -1.51,-0.14 -0.73,-0.16 -0.82,-0.5 -0.91,-1.21 -0.11,-1.01 -0.11,-2.97 -0.11,-5.26l0 -4.23zm8.37 -4.6l4.32 0c1.81,0 2.01,0.59 2.01,1.46 0,0.16 0.05,0.3 0.14,0.3 0.09,0 0.16,-0.14 0.18,-0.25 0.23,-1.67 0.3,-2.68 0.3,-2.88 0,-0.18 -0.07,-0.23 -0.16,-0.23 -0.16,0 -0.55,0.16 -1.81,0.16l-5.37 0c-0.25,0 -0.41,0.07 -0.43,0.3l-0.53 5.83c-0.02,0.25 0.14,0.39 0.59,0.41 1.76,0.09 5.81,1.88 5.81,5.56 0,3.16 -2.1,4.44 -4.02,4.44 -1.67,0 -3.13,-0.5 -3.13,-2.95 0,-0.27 -0.05,-0.39 -0.18,-0.39 -0.09,0 -0.16,0.18 -0.21,0.41 -0.11,0.73 -0.09,2.1 -0.09,2.88 0,0.23 0.05,0.43 0.43,0.64 0.57,0.32 1.42,0.41 2.1,0.41 4.62,0 6.86,-3.36 6.86,-6.31 0,-4.07 -4.23,-5.83 -7.14,-6.27l0.32 -3.52z"></path> <path class="fil0" d="M357.38 172.67c0,-3.5 0.11,-5.76 0.11,-5.95 0,-0.23 -0.05,-0.48 -0.23,-0.48 -0.16,0 -0.34,0.11 -0.55,0.27 -0.21,0.14 -4.28,2.86 -4.41,2.95 -0.09,0.07 -0.16,0.16 -0.16,0.23 0,0.09 0.07,0.21 0.14,0.21 0.09,0 0.16,-0.02 0.27,-0.09 0.57,-0.27 2.17,-1.1 2.61,-1.1 0.37,0 0.41,0.25 0.41,0.71 0,1.26 0.02,2.24 0.02,3.48l0 4c0,2.29 0,4.25 -0.07,5.26 -0.05,0.71 -0.21,1.05 -0.96,1.19 -0.43,0.09 -1.56,0.16 -1.83,0.16 -0.09,0 -0.18,0.09 -0.18,0.18 0,0.11 0.11,0.16 0.37,0.16 1.46,0 3.38,-0.07 3.5,-0.07 0.11,0 1.58,0.07 3.29,0.07 0.27,0 0.39,-0.05 0.39,-0.16 0,-0.09 -0.09,-0.18 -0.18,-0.18 -0.21,0 -1.17,-0.07 -1.51,-0.14 -0.73,-0.16 -0.82,-0.5 -0.91,-1.21 -0.11,-1.01 -0.11,-2.97 -0.11,-5.26l0 -4.23zm14.59 6.66c0,2.52 -1.44,3.98 -3.27,3.98 -2.63,0 -3.82,-3.04 -3.82,-5.72 0,-5.42 3.22,-9.1 6.15,-10.73 0.23,-0.14 0.43,-0.23 0.43,-0.41 0,-0.14 -0.09,-0.21 -0.18,-0.21 -0.09,0 -0.27,0.07 -0.48,0.16 -4.44,1.92 -7.91,6.75 -7.91,11.18 0,4.16 2.17,6.59 5.37,6.59 1.69,0 2.88,-0.5 3.96,-1.53 1.01,-0.98 1.65,-2.54 1.65,-4.34 0,-2.04 -1.42,-4.64 -4.6,-4.64 -1.28,0 -2.2,0.48 -2.65,0.8 -0.14,0.09 -0.21,0.16 -0.21,0.27 0,0.11 0.02,0.18 0.09,0.18 0.07,0 0.23,-0.07 0.3,-0.09 0.53,-0.25 1.12,-0.3 1.72,-0.3 1.39,0 3.45,1.62 3.45,4.8z"></path> <path class="fil0" d="M19.26 207.97c0,-3.5 0.11,-5.76 0.11,-5.95 0,-0.23 -0.05,-0.48 -0.23,-0.48 -0.16,0 -0.34,0.11 -0.55,0.27 -0.21,0.14 -4.28,2.86 -4.41,2.95 -0.09,0.07 -0.16,0.16 -0.16,0.23 0,0.09 0.07,0.21 0.14,0.21 0.09,0 0.16,-0.02 0.27,-0.09 0.57,-0.27 2.17,-1.1 2.61,-1.1 0.37,0 0.41,0.25 0.41,0.71 0,1.26 0.02,2.24 0.02,3.48l0 4c0,2.29 0,4.25 -0.07,5.26 -0.05,0.71 -0.21,1.05 -0.96,1.19 -0.43,0.09 -1.56,0.16 -1.83,0.16 -0.09,0 -0.18,0.09 -0.18,0.18 0,0.11 0.11,0.16 0.37,0.16 1.46,0 3.38,-0.07 3.5,-0.07 0.11,0 1.58,0.07 3.29,0.07 0.27,0 0.39,-0.05 0.39,-0.16 0,-0.09 -0.09,-0.18 -0.18,-0.18 -0.21,0 -1.17,-0.07 -1.51,-0.14 -0.73,-0.16 -0.82,-0.5 -0.91,-1.21 -0.11,-1.01 -0.11,-2.97 -0.11,-5.26l0 -4.23zm8.07 -6.04c-1.49,0 -2.04,-0.23 -2.17,-0.23 -0.14,0 -0.23,0.09 -0.23,0.32 0,0.23 -0.34,2.9 -0.34,3.64 0,0.25 0.02,0.37 0.14,0.37 0.11,0 0.18,-0.11 0.21,-0.32 0.07,-0.64 0.39,-1.37 0.87,-1.76 0.55,-0.46 1.46,-0.57 2.13,-0.57l5.63 0c-3.45,5.99 -5.92,12.1 -6.81,15.09 -0.07,0.21 -0.14,0.55 -0.14,0.78 0,0.16 0.07,0.23 0.21,0.23 0.46,0 2.24,-0.94 2.24,-1.39 0,-0.25 -0.05,-0.41 0,-0.8 0.34,-2.97 4.12,-11.94 5.97,-14.68 0.11,-0.18 0.14,-0.34 0.14,-0.43 0,-0.14 -0.11,-0.23 -0.41,-0.23l-7.41 0z"></path> <path class="fil0" d="M74.86 207.97c0,-3.5 0.11,-5.76 0.11,-5.95 0,-0.23 -0.05,-0.48 -0.23,-0.48 -0.16,0 -0.34,0.11 -0.55,0.27 -0.21,0.14 -4.28,2.86 -4.41,2.95 -0.09,0.07 -0.16,0.16 -0.16,0.23 0,0.09 0.07,0.21 0.14,0.21 0.09,0 0.16,-0.02 0.27,-0.09 0.57,-0.27 2.17,-1.1 2.61,-1.1 0.37,0 0.41,0.25 0.41,0.71 0,1.26 0.02,2.24 0.02,3.48l0 4c0,2.29 0,4.25 -0.07,5.26 -0.05,0.71 -0.21,1.05 -0.96,1.19 -0.43,0.09 -1.56,0.16 -1.83,0.16 -0.09,0 -0.18,0.09 -0.18,0.18 0,0.11 0.11,0.16 0.37,0.16 1.46,0 3.38,-0.07 3.5,-0.07 0.11,0 1.58,0.07 3.29,0.07 0.27,0 0.39,-0.05 0.39,-0.16 0,-0.09 -0.09,-0.18 -0.18,-0.18 -0.21,0 -1.17,-0.07 -1.51,-0.14 -0.73,-0.16 -0.82,-0.5 -0.91,-1.21 -0.11,-1.01 -0.11,-2.97 -0.11,-5.26l0 -4.23zm5.88 7.07c0,2.77 2.33,4.44 5.19,4.44 3.27,0 5.44,-2.38 5.44,-5.03 0,-2.81 -2.47,-4.21 -3.98,-4.99 1.28,-0.64 3.27,-2.01 3.27,-4.41 0,-2.24 -1.81,-3.5 -4.18,-3.5 -3.34,0 -4.87,2.36 -4.87,4.09 0,2.04 1.42,3.25 3.2,4.3 -2.08,0.82 -4.07,2.54 -4.07,5.1zm5.37 3.57c-2.13,0 -3.61,-1.76 -3.61,-3.8 0,-2.29 1.39,-3.68 3.09,-4.5 2.06,1.07 4.02,2.17 4.02,4.66 0,2.04 -1.39,3.64 -3.5,3.64zm0.09 -16.28c1.76,0 2.86,1.26 2.86,3 0,2.33 -1.56,3.25 -2.45,3.77 -1.88,-1.01 -3.38,-1.97 -3.38,-3.89 0,-1.26 0.91,-2.88 2.97,-2.88l0 0z"></path> <path class="fil0" d="M131.71 207.97c0,-3.5 0.11,-5.76 0.11,-5.95 0,-0.23 -0.05,-0.48 -0.23,-0.48 -0.16,0 -0.34,0.11 -0.55,0.27 -0.21,0.14 -4.28,2.86 -4.41,2.95 -0.09,0.07 -0.16,0.16 -0.16,0.23 0,0.09 0.07,0.21 0.14,0.21 0.09,0 0.16,-0.02 0.27,-0.09 0.57,-0.27 2.17,-1.1 2.61,-1.1 0.37,0 0.41,0.25 0.41,0.71 0,1.26 0.02,2.24 0.02,3.48l0 4c0,2.29 0,4.25 -0.07,5.26 -0.05,0.71 -0.21,1.05 -0.96,1.19 -0.43,0.09 -1.56,0.16 -1.83,0.16 -0.09,0 -0.18,0.09 -0.18,0.18 0,0.11 0.11,0.16 0.37,0.16 1.46,0 3.38,-0.07 3.5,-0.07 0.11,0 1.58,0.07 3.29,0.07 0.27,0 0.39,-0.05 0.39,-0.16 0,-0.09 -0.09,-0.18 -0.18,-0.18 -0.21,0 -1.17,-0.07 -1.51,-0.14 -0.73,-0.16 -0.82,-0.5 -0.91,-1.21 -0.11,-1.01 -0.11,-2.97 -0.11,-5.26l0 -4.23zm10.84 -6.43c-3.16,0 -5.47,2.17 -5.47,5.33 0,1.92 1.37,4.41 4.62,4.41 0.91,0 2.08,-0.34 2.74,-1.05 0.07,-0.07 0.09,-0.11 0.09,-0.18 0,-0.07 -0.05,-0.16 -0.11,-0.16 -0.07,0 -0.16,0.05 -0.3,0.14 -0.3,0.18 -0.75,0.41 -1.83,0.41 -0.62,0 -3.43,-0.75 -3.43,-4.55 0,-1.81 1.07,-3.5 3.13,-3.5 2.01,0 3.77,2.04 3.77,6.04 0,5.37 -3.52,9.17 -6.22,10.66 -0.14,0.07 -0.23,0.18 -0.23,0.32 0,0.14 0.09,0.23 0.18,0.23 0.09,0 0.23,-0.02 0.37,-0.09 2.79,-1.39 7.91,-5.35 7.91,-11.78 0,-3.48 -2.01,-6.22 -5.24,-6.22z"></path> <path class="fil0" d="M188.99 219.09c0.96,0 1.3,-0.07 1.49,-0.69 0.23,-0.78 0.69,-2.56 0.69,-3 0,-0.14 -0.02,-0.34 -0.14,-0.34 -0.14,0 -0.21,0.09 -0.27,0.34 -0.27,1.21 -1.01,2.04 -2.68,2.2 -0.82,0.09 -3.52,0.11 -3.91,0.11l-1.67 0c-0.11,0 -0.16,-0.07 -0.05,-0.16 2.84,-2.42 7.96,-6.65 7.96,-11.39 0,-2.42 -1.72,-4.62 -5.17,-4.62 -1.85,0 -3.18,0.41 -4.02,0.8 -0.21,0.14 -0.23,0.21 -0.23,0.34 0,0.71 0.11,2.61 0.14,2.81 0.02,0.21 0.09,0.3 0.18,0.3 0.11,0 0.21,-0.14 0.21,-0.34 0,-0.89 0.25,-1.69 0.8,-2.22 0.66,-0.62 1.35,-0.87 2.45,-0.87 1.53,0 3.64,0.96 3.64,4.23 0,4.39 -3.41,7.55 -7.98,11.62 -0.18,0.16 -0.41,0.37 -0.41,0.55 0,0.18 0.16,0.32 0.32,0.32l8.67 0zm5.31 -8.05c0,3.48 1.42,8.44 5.79,8.44 3.91,0 6.17,-4.05 6.17,-9.49 0,-3.48 -1.37,-8.44 -5.81,-8.44 -3.96,0 -6.15,4.05 -6.15,9.49zm1.92 -0.94c0,-4.73 1.51,-7.71 3.77,-7.71 3.02,0 4.34,4.64 4.34,8.58 0,4.71 -1.53,7.66 -3.8,7.66 -3.06,0 -4.32,-4.55 -4.32,-8.53z"></path> <path class="fil0" d="M247.52 219.09c0.96,0 1.3,-0.07 1.49,-0.69 0.23,-0.78 0.69,-2.56 0.69,-3 0,-0.14 -0.02,-0.34 -0.14,-0.34 -0.14,0 -0.21,0.09 -0.27,0.34 -0.27,1.21 -1.01,2.04 -2.68,2.2 -0.82,0.09 -3.52,0.11 -3.91,0.11l-1.67 0c-0.11,0 -0.16,-0.07 -0.05,-0.16 2.84,-2.42 7.96,-6.65 7.96,-11.39 0,-2.42 -1.72,-4.62 -5.17,-4.62 -1.85,0 -3.18,0.41 -4.02,0.8 -0.21,0.14 -0.23,0.21 -0.23,0.34 0,0.71 0.11,2.61 0.14,2.81 0.02,0.21 0.09,0.3 0.18,0.3 0.11,0 0.21,-0.14 0.21,-0.34 0,-0.89 0.25,-1.69 0.8,-2.22 0.66,-0.62 1.35,-0.87 2.45,-0.87 1.53,0 3.64,0.96 3.64,4.23 0,4.39 -3.41,7.55 -7.98,11.62 -0.18,0.16 -0.41,0.37 -0.41,0.55 0,0.18 0.16,0.32 0.32,0.32l8.67 0zm10.54 -11.11c0,-3.5 0.11,-5.76 0.11,-5.95 0,-0.23 -0.05,-0.48 -0.23,-0.48 -0.16,0 -0.34,0.11 -0.55,0.27 -0.21,0.14 -4.28,2.86 -4.41,2.95 -0.09,0.07 -0.16,0.16 -0.16,0.23 0,0.09 0.07,0.21 0.14,0.21 0.09,0 0.16,-0.02 0.27,-0.09 0.57,-0.27 2.17,-1.1 2.61,-1.1 0.37,0 0.41,0.25 0.41,0.71 0,1.26 0.02,2.24 0.02,3.48l0 4c0,2.29 0,4.25 -0.07,5.26 -0.05,0.71 -0.21,1.05 -0.96,1.19 -0.43,0.09 -1.56,0.16 -1.83,0.16 -0.09,0 -0.18,0.09 -0.18,0.18 0,0.11 0.11,0.16 0.37,0.16 1.46,0 3.38,-0.07 3.5,-0.07 0.11,0 1.58,0.07 3.29,0.07 0.27,0 0.39,-0.05 0.39,-0.16 0,-0.09 -0.09,-0.18 -0.18,-0.18 -0.21,0 -1.17,-0.07 -1.51,-0.14 -0.73,-0.16 -0.82,-0.5 -0.91,-1.21 -0.11,-1.01 -0.11,-2.97 -0.11,-5.26l0 -4.23z"></path> <path class="fil0" d="M302.66 219.09c0.96,0 1.3,-0.07 1.49,-0.69 0.23,-0.78 0.69,-2.56 0.69,-3 0,-0.14 -0.02,-0.34 -0.14,-0.34 -0.14,0 -0.21,0.09 -0.27,0.34 -0.27,1.21 -1.01,2.04 -2.68,2.2 -0.82,0.09 -3.52,0.11 -3.91,0.11l-1.67 0c-0.11,0 -0.16,-0.07 -0.05,-0.16 2.84,-2.42 7.96,-6.65 7.96,-11.39 0,-2.42 -1.72,-4.62 -5.17,-4.62 -1.85,0 -3.18,0.41 -4.02,0.8 -0.21,0.14 -0.23,0.21 -0.23,0.34 0,0.71 0.11,2.61 0.14,2.81 0.02,0.21 0.09,0.3 0.18,0.3 0.11,0 0.21,-0.14 0.21,-0.34 0,-0.89 0.25,-1.69 0.8,-2.22 0.66,-0.62 1.35,-0.87 2.45,-0.87 1.53,0 3.64,0.96 3.64,4.23 0,4.39 -3.41,7.55 -7.98,11.62 -0.18,0.16 -0.41,0.37 -0.41,0.55 0,0.18 0.16,0.32 0.32,0.32l8.67 0zm13.38 0c0.96,0 1.3,-0.07 1.49,-0.69 0.23,-0.78 0.69,-2.56 0.69,-3 0,-0.14 -0.02,-0.34 -0.14,-0.34 -0.14,0 -0.21,0.09 -0.27,0.34 -0.27,1.21 -1.01,2.04 -2.68,2.2 -0.82,0.09 -3.52,0.11 -3.91,0.11l-1.67 0c-0.11,0 -0.16,-0.07 -0.05,-0.16 2.84,-2.42 7.96,-6.65 7.96,-11.39 0,-2.42 -1.72,-4.62 -5.17,-4.62 -1.85,0 -3.18,0.41 -4.02,0.8 -0.21,0.14 -0.23,0.21 -0.23,0.34 0,0.71 0.11,2.61 0.14,2.81 0.02,0.21 0.09,0.3 0.18,0.3 0.11,0 0.21,-0.14 0.21,-0.34 0,-0.89 0.25,-1.69 0.8,-2.22 0.66,-0.62 1.35,-0.87 2.45,-0.87 1.53,0 3.64,0.96 3.64,4.23 0,4.39 -3.41,7.55 -7.98,11.62 -0.18,0.16 -0.41,0.37 -0.41,0.55 0,0.18 0.16,0.32 0.32,0.32l8.67 0z"></path> <path class="fil0" d="M359.05 219.09c0.96,0 1.3,-0.07 1.49,-0.69 0.23,-0.78 0.69,-2.56 0.69,-3 0,-0.14 -0.02,-0.34 -0.14,-0.34 -0.14,0 -0.21,0.09 -0.27,0.34 -0.27,1.21 -1.01,2.04 -2.68,2.2 -0.82,0.09 -3.52,0.11 -3.91,0.11l-1.67 0c-0.11,0 -0.16,-0.07 -0.05,-0.16 2.84,-2.42 7.96,-6.65 7.96,-11.39 0,-2.42 -1.72,-4.62 -5.17,-4.62 -1.85,0 -3.18,0.41 -4.02,0.8 -0.21,0.14 -0.23,0.21 -0.23,0.34 0,0.71 0.11,2.61 0.14,2.81 0.02,0.21 0.09,0.3 0.18,0.3 0.11,0 0.21,-0.14 0.21,-0.34 0,-0.89 0.25,-1.69 0.8,-2.22 0.66,-0.62 1.35,-0.87 2.45,-0.87 1.53,0 3.64,0.96 3.64,4.23 0,4.39 -3.41,7.55 -7.98,11.62 -0.18,0.16 -0.41,0.37 -0.41,0.55 0,0.18 0.16,0.32 0.32,0.32l8.67 0zm13.52 -4.64c0,2.72 -1.83,4.05 -4.14,4.05 -2.4,0 -3.27,-1.33 -3.43,-3.09 -0.02,-0.25 -0.05,-0.32 -0.16,-0.32 -0.11,0 -0.16,0.11 -0.18,0.34 -0.07,0.5 -0.16,1.78 -0.16,2.86 0,0.27 0.05,0.43 0.37,0.64 0.48,0.27 1.85,0.55 2.79,0.55 4.07,0 6.84,-2.68 6.84,-5.88 0,-2.65 -2.33,-4.05 -3.77,-4.39l0 -0.11c0.71,-0.32 3.06,-1.83 3.06,-4.12 0,-1.14 -0.8,-3.43 -4.53,-3.43 -1.72,0 -3,0.43 -3.7,0.78 -0.27,0.18 -0.3,0.27 -0.3,0.48 0,0.53 0.07,1.55 0.16,2.29 0.02,0.21 0.09,0.25 0.16,0.25 0.07,0 0.16,-0.05 0.16,-0.27 0,-1.76 1.21,-2.7 2.88,-2.7 2.7,0 3.29,2.13 3.29,3.09 0,2.68 -2.52,3.77 -3.64,3.98 -0.3,0.05 -0.53,0.11 -0.53,0.27 0,0.16 0.16,0.21 0.59,0.3 1.49,0.3 4.23,1.37 4.23,4.44z"></path> <path class="fil0" d="M302.6 254.39c0.96,0 1.3,-0.07 1.49,-0.69 0.23,-0.78 0.69,-2.56 0.69,-3 0,-0.14 -0.02,-0.34 -0.14,-0.34 -0.14,0 -0.21,0.09 -0.27,0.34 -0.27,1.21 -1.01,2.04 -2.68,2.2 -0.82,0.09 -3.52,0.11 -3.91,0.11l-1.67 0c-0.11,0 -0.16,-0.07 -0.05,-0.16 2.84,-2.42 7.96,-6.65 7.96,-11.39 0,-2.42 -1.72,-4.62 -5.17,-4.62 -1.85,0 -3.18,0.41 -4.02,0.8 -0.21,0.14 -0.23,0.21 -0.23,0.34 0,0.71 0.11,2.61 0.14,2.81 0.02,0.21 0.09,0.3 0.18,0.3 0.11,0 0.21,-0.14 0.21,-0.34 0,-0.89 0.25,-1.69 0.8,-2.22 0.66,-0.62 1.35,-0.87 2.45,-0.87 1.53,0 3.64,0.96 3.64,4.23 0,4.39 -3.41,7.55 -7.98,11.62 -0.18,0.16 -0.41,0.37 -0.41,0.55 0,0.18 0.16,0.32 0.32,0.32l8.67 0zm10.63 -17.54c-3.16,0 -5.47,2.17 -5.47,5.33 0,1.92 1.37,4.41 4.62,4.41 0.91,0 2.08,-0.34 2.74,-1.05 0.07,-0.07 0.09,-0.11 0.09,-0.18 0,-0.07 -0.05,-0.16 -0.11,-0.16 -0.07,0 -0.16,0.05 -0.3,0.14 -0.3,0.18 -0.75,0.41 -1.83,0.41 -0.62,0 -3.43,-0.75 -3.43,-4.55 0,-1.81 1.07,-3.5 3.13,-3.5 2.01,0 3.77,2.04 3.77,6.04 0,5.37 -3.52,9.17 -6.22,10.66 -0.14,0.07 -0.23,0.18 -0.23,0.32 0,0.14 0.09,0.23 0.18,0.23 0.09,0 0.23,-0.02 0.37,-0.09 2.79,-1.39 7.91,-5.35 7.91,-11.78 0,-3.48 -2.01,-6.22 -5.24,-6.22z"></path> <path class="fil0" d="M358.44 249.75c0,2.72 -1.83,4.05 -4.14,4.05 -2.4,0 -3.27,-1.33 -3.43,-3.09 -0.02,-0.25 -0.05,-0.32 -0.16,-0.32 -0.11,0 -0.16,0.11 -0.18,0.34 -0.07,0.5 -0.16,1.78 -0.16,2.86 0,0.27 0.05,0.43 0.37,0.64 0.48,0.27 1.85,0.55 2.79,0.55 4.07,0 6.84,-2.68 6.84,-5.88 0,-2.65 -2.33,-4.05 -3.77,-4.39l0 -0.11c0.71,-0.32 3.06,-1.83 3.06,-4.12 0,-1.14 -0.8,-3.43 -4.53,-3.43 -1.72,0 -3,0.43 -3.7,0.78 -0.27,0.18 -0.3,0.27 -0.3,0.48 0,0.53 0.07,1.55 0.16,2.29 0.02,0.21 0.09,0.25 0.16,0.25 0.07,0 0.16,-0.05 0.16,-0.27 0,-1.76 1.21,-2.7 2.88,-2.7 2.7,0 3.29,2.13 3.29,3.09 0,2.68 -2.52,3.77 -3.64,3.98 -0.3,0.05 -0.53,0.11 -0.53,0.27 0,0.16 0.16,0.21 0.59,0.3 1.49,0.3 4.23,1.37 4.23,4.44zm5.28 -3.41c0,3.48 1.42,8.44 5.79,8.44 3.91,0 6.17,-4.05 6.17,-9.49 0,-3.48 -1.37,-8.44 -5.81,-8.44 -3.96,0 -6.15,4.05 -6.15,9.49zm1.92 -0.94c0,-4.73 1.51,-7.71 3.77,-7.71 3.02,0 4.34,4.64 4.34,8.58 0,4.71 -1.53,7.66 -3.8,7.66 -3.06,0 -4.32,-4.55 -4.32,-8.53z"></path> <path class="fil0" d="M19.79 254.39c0.96,0 1.3,-0.07 1.49,-0.69 0.23,-0.78 0.69,-2.56 0.69,-3 0,-0.14 -0.02,-0.34 -0.14,-0.34 -0.14,0 -0.21,0.09 -0.27,0.34 -0.27,1.21 -1.01,2.04 -2.68,2.2 -0.82,0.09 -3.52,0.11 -3.91,0.11l-1.67 0c-0.11,0 -0.16,-0.07 -0.05,-0.16 2.84,-2.42 7.96,-6.65 7.96,-11.39 0,-2.42 -1.72,-4.62 -5.17,-4.62 -1.85,0 -3.18,0.41 -4.02,0.8 -0.21,0.14 -0.23,0.21 -0.23,0.34 0,0.71 0.11,2.61 0.14,2.81 0.02,0.21 0.09,0.3 0.18,0.3 0.11,0 0.21,-0.14 0.21,-0.34 0,-0.89 0.25,-1.69 0.8,-2.22 0.66,-0.62 1.35,-0.87 2.45,-0.87 1.53,0 3.64,0.96 3.64,4.23 0,4.39 -3.41,7.55 -7.98,11.62 -0.18,0.16 -0.41,0.37 -0.41,0.55 0,0.18 0.16,0.32 0.32,0.32l8.67 0zm14.25 -13.72c0,-1.26 0.02,-3.09 0.02,-3.43 0,-0.23 -0.07,-0.39 -0.23,-0.39 -0.16,0 -0.3,0.16 -0.48,0.41 -0.73,1.01 -8.74,11.07 -8.87,11.23 -0.09,0.11 -0.21,0.3 -0.21,0.48 0,0.21 0.21,0.27 0.48,0.27l7.55 0c0,0.75 0.05,2.52 -0.05,3.52 -0.07,0.69 -0.23,1.17 -0.98,1.28 -0.37,0.05 -0.87,0.07 -1.07,0.07 -0.11,0 -0.18,0.09 -0.18,0.18 0,0.11 0.11,0.16 0.37,0.16 1.26,0 2.49,-0.07 2.65,-0.07 0.16,0 1.62,0.07 2.88,0.07 0.25,0 0.37,-0.05 0.37,-0.16 0,-0.09 -0.09,-0.18 -0.21,-0.18 -0.23,0 -0.69,-0.02 -1.01,-0.09 -0.73,-0.18 -0.91,-0.57 -0.98,-1.26 -0.09,-1.01 -0.05,-2.77 -0.05,-3.52l2.1 0c0.27,0 0.37,-0.07 0.48,-0.3 0.09,-0.27 0.21,-0.8 0.21,-0.91 0,-0.11 0,-0.27 -0.11,-0.27 -0.09,0 -0.32,0.25 -0.94,0.25l-1.74 0 0 -7.34zm-1.74 7.34l-6.43 0c0.43,-0.57 6.04,-7.5 6.38,-8.1l0.05 0 0 8.1z"></path> <path class="fil0" d="M77.02 254.39c0.96,0 1.3,-0.07 1.49,-0.69 0.23,-0.78 0.69,-2.56 0.69,-3 0,-0.14 -0.02,-0.34 -0.14,-0.34 -0.14,0 -0.21,0.09 -0.27,0.34 -0.27,1.21 -1.01,2.04 -2.68,2.2 -0.82,0.09 -3.52,0.11 -3.91,0.11l-1.67 0c-0.11,0 -0.16,-0.07 -0.05,-0.16 2.84,-2.42 7.96,-6.65 7.96,-11.39 0,-2.42 -1.72,-4.62 -5.17,-4.62 -1.85,0 -3.18,0.41 -4.02,0.8 -0.21,0.14 -0.23,0.21 -0.23,0.34 0,0.71 0.11,2.61 0.14,2.81 0.02,0.21 0.09,0.3 0.18,0.3 0.11,0 0.21,-0.14 0.21,-0.34 0,-0.89 0.25,-1.69 0.8,-2.22 0.66,-0.62 1.35,-0.87 2.45,-0.87 1.53,0 3.64,0.96 3.64,4.23 0,4.39 -3.41,7.55 -7.98,11.62 -0.18,0.16 -0.41,0.37 -0.41,0.55 0,0.18 0.16,0.32 0.32,0.32l8.67 0zm8.16 -15.71l4.32 0c1.81,0 2.01,0.59 2.01,1.46 0,0.16 0.05,0.3 0.14,0.3 0.09,0 0.16,-0.14 0.18,-0.25 0.23,-1.67 0.3,-2.68 0.3,-2.88 0,-0.18 -0.07,-0.23 -0.16,-0.23 -0.16,0 -0.55,0.16 -1.81,0.16l-5.37 0c-0.25,0 -0.41,0.07 -0.43,0.3l-0.53 5.83c-0.02,0.25 0.14,0.39 0.59,0.41 1.76,0.09 5.81,1.88 5.81,5.56 0,3.16 -2.1,4.44 -4.02,4.44 -1.67,0 -3.13,-0.5 -3.13,-2.95 0,-0.27 -0.05,-0.39 -0.18,-0.39 -0.09,0 -0.16,0.18 -0.21,0.41 -0.11,0.73 -0.09,2.1 -0.09,2.88 0,0.23 0.05,0.43 0.43,0.64 0.57,0.32 1.42,0.41 2.1,0.41 4.62,0 6.86,-3.36 6.86,-6.31 0,-4.07 -4.23,-5.83 -7.14,-6.27l0.32 -3.52z"></path> <path class="fil0" d="M133.08 254.39c0.96,0 1.3,-0.07 1.49,-0.69 0.23,-0.78 0.69,-2.56 0.69,-3 0,-0.14 -0.02,-0.34 -0.14,-0.34 -0.14,0 -0.21,0.09 -0.27,0.34 -0.27,1.21 -1.01,2.04 -2.68,2.2 -0.82,0.09 -3.52,0.11 -3.91,0.11l-1.67 0c-0.11,0 -0.16,-0.07 -0.05,-0.16 2.84,-2.42 7.96,-6.65 7.96,-11.39 0,-2.42 -1.72,-4.62 -5.17,-4.62 -1.85,0 -3.18,0.41 -4.02,0.8 -0.21,0.14 -0.23,0.21 -0.23,0.34 0,0.71 0.11,2.61 0.14,2.81 0.02,0.21 0.09,0.3 0.18,0.3 0.11,0 0.21,-0.14 0.21,-0.34 0,-0.89 0.25,-1.69 0.8,-2.22 0.66,-0.62 1.35,-0.87 2.45,-0.87 1.53,0 3.64,0.96 3.64,4.23 0,4.39 -3.41,7.55 -7.98,11.62 -0.18,0.16 -0.41,0.37 -0.41,0.55 0,0.18 0.16,0.32 0.32,0.32l8.67 0zm14.38 -4.46c0,2.52 -1.44,3.98 -3.27,3.98 -2.63,0 -3.82,-3.04 -3.82,-5.72 0,-5.42 3.22,-9.1 6.15,-10.73 0.23,-0.14 0.43,-0.23 0.43,-0.41 0,-0.14 -0.09,-0.21 -0.18,-0.21 -0.09,0 -0.27,0.07 -0.48,0.16 -4.44,1.92 -7.91,6.75 -7.91,11.18 0,4.16 2.17,6.59 5.37,6.59 1.69,0 2.88,-0.5 3.96,-1.53 1.01,-0.98 1.65,-2.54 1.65,-4.34 0,-2.04 -1.42,-4.64 -4.6,-4.64 -1.28,0 -2.2,0.48 -2.65,0.8 -0.14,0.09 -0.21,0.16 -0.21,0.27 0,0.11 0.02,0.18 0.09,0.18 0.07,0 0.23,-0.07 0.3,-0.09 0.53,-0.25 1.12,-0.3 1.72,-0.3 1.39,0 3.45,1.62 3.45,4.8z"></path> <path class="fil0" d="M190.15 254.39c0.96,0 1.3,-0.07 1.49,-0.69 0.23,-0.78 0.69,-2.56 0.69,-3 0,-0.14 -0.02,-0.34 -0.14,-0.34 -0.14,0 -0.21,0.09 -0.27,0.34 -0.27,1.21 -1.01,2.04 -2.68,2.2 -0.82,0.09 -3.52,0.11 -3.91,0.11l-1.67 0c-0.11,0 -0.16,-0.07 -0.05,-0.16 2.84,-2.42 7.96,-6.65 7.96,-11.39 0,-2.42 -1.72,-4.62 -5.17,-4.62 -1.85,0 -3.18,0.41 -4.02,0.8 -0.21,0.14 -0.23,0.21 -0.23,0.34 0,0.71 0.11,2.61 0.14,2.81 0.02,0.21 0.09,0.3 0.18,0.3 0.11,0 0.21,-0.14 0.21,-0.34 0,-0.89 0.25,-1.69 0.8,-2.22 0.66,-0.62 1.35,-0.87 2.45,-0.87 1.53,0 3.64,0.96 3.64,4.23 0,4.39 -3.41,7.55 -7.98,11.62 -0.18,0.16 -0.41,0.37 -0.41,0.55 0,0.18 0.16,0.32 0.32,0.32l8.67 0zm7.87 -17.15c-1.49,0 -2.04,-0.23 -2.17,-0.23 -0.14,0 -0.23,0.09 -0.23,0.32 0,0.23 -0.34,2.9 -0.34,3.64 0,0.25 0.02,0.37 0.14,0.37 0.11,0 0.18,-0.11 0.21,-0.32 0.07,-0.64 0.39,-1.37 0.87,-1.76 0.55,-0.46 1.46,-0.57 2.13,-0.57l5.63 0c-3.45,5.99 -5.92,12.1 -6.81,15.09 -0.07,0.21 -0.14,0.55 -0.14,0.78 0,0.16 0.07,0.23 0.21,0.23 0.46,0 2.24,-0.94 2.24,-1.39 0,-0.25 -0.05,-0.41 0,-0.8 0.34,-2.97 4.12,-11.94 5.97,-14.68 0.11,-0.18 0.14,-0.34 0.14,-0.43 0,-0.14 -0.11,-0.23 -0.41,-0.23l-7.41 0z"></path> <path class="fil0" d="M245.74 254.39c0.96,0 1.3,-0.07 1.49,-0.69 0.23,-0.78 0.69,-2.56 0.69,-3 0,-0.14 -0.02,-0.34 -0.14,-0.34 -0.14,0 -0.21,0.09 -0.27,0.34 -0.27,1.21 -1.01,2.04 -2.68,2.2 -0.82,0.09 -3.52,0.11 -3.91,0.11l-1.67 0c-0.11,0 -0.16,-0.07 -0.05,-0.16 2.84,-2.42 7.96,-6.65 7.96,-11.39 0,-2.42 -1.72,-4.62 -5.17,-4.62 -1.85,0 -3.18,0.41 -4.02,0.8 -0.21,0.14 -0.23,0.21 -0.23,0.34 0,0.71 0.11,2.61 0.14,2.81 0.02,0.21 0.09,0.3 0.18,0.3 0.11,0 0.21,-0.14 0.21,-0.34 0,-0.89 0.25,-1.69 0.8,-2.22 0.66,-0.62 1.35,-0.87 2.45,-0.87 1.53,0 3.64,0.96 3.64,4.23 0,4.39 -3.41,7.55 -7.98,11.62 -0.18,0.16 -0.41,0.37 -0.41,0.55 0,0.18 0.16,0.32 0.32,0.32l8.67 0zm5.67 -4.05c0,2.77 2.33,4.44 5.19,4.44 3.27,0 5.44,-2.38 5.44,-5.03 0,-2.81 -2.47,-4.21 -3.98,-4.99 1.28,-0.64 3.27,-2.01 3.27,-4.41 0,-2.24 -1.81,-3.5 -4.18,-3.5 -3.34,0 -4.87,2.36 -4.87,4.09 0,2.04 1.42,3.25 3.2,4.3 -2.08,0.82 -4.07,2.54 -4.07,5.1zm5.37 3.57c-2.13,0 -3.61,-1.76 -3.61,-3.8 0,-2.29 1.39,-3.68 3.09,-4.5 2.06,1.07 4.02,2.17 4.02,4.66 0,2.04 -1.39,3.64 -3.5,3.64zm0.09 -16.28c1.76,0 2.86,1.26 2.86,3 0,2.33 -1.56,3.25 -2.45,3.77 -1.88,-1.01 -3.38,-1.97 -3.38,-3.89 0,-1.26 0.91,-2.88 2.97,-2.88l0 0z"></path> <path class="fil0" d="M21.77 285.01c0,2.72 -1.83,4.05 -4.14,4.05 -2.4,0 -3.27,-1.33 -3.43,-3.09 -0.02,-0.25 -0.05,-0.32 -0.16,-0.32 -0.11,0 -0.16,0.11 -0.18,0.34 -0.07,0.5 -0.16,1.78 -0.16,2.86 0,0.27 0.05,0.43 0.37,0.64 0.48,0.27 1.85,0.55 2.79,0.55 4.07,0 6.84,-2.68 6.84,-5.88 0,-2.65 -2.33,-4.05 -3.77,-4.39l0 -0.11c0.71,-0.32 3.06,-1.83 3.06,-4.12 0,-1.14 -0.8,-3.43 -4.53,-3.43 -1.72,0 -3,0.43 -3.7,0.78 -0.27,0.18 -0.3,0.27 -0.3,0.48 0,0.53 0.07,1.55 0.16,2.29 0.02,0.21 0.09,0.25 0.16,0.25 0.07,0 0.16,-0.05 0.16,-0.27 0,-1.76 1.21,-2.7 2.88,-2.7 2.7,0 3.29,2.13 3.29,3.09 0,2.68 -2.52,3.77 -3.64,3.98 -0.3,0.05 -0.53,0.11 -0.53,0.27 0,0.16 0.16,0.21 0.59,0.3 1.49,0.3 4.23,1.37 4.23,4.44zm10.52 -6.47c0,-3.5 0.11,-5.76 0.11,-5.95 0,-0.23 -0.05,-0.48 -0.23,-0.48 -0.16,0 -0.34,0.11 -0.55,0.27 -0.21,0.14 -4.28,2.86 -4.41,2.95 -0.09,0.07 -0.16,0.16 -0.16,0.23 0,0.09 0.07,0.21 0.14,0.21 0.09,0 0.16,-0.02 0.27,-0.09 0.57,-0.27 2.17,-1.1 2.61,-1.1 0.37,0 0.41,0.25 0.41,0.71 0,1.26 0.02,2.24 0.02,3.48l0 4c0,2.29 0,4.25 -0.07,5.26 -0.05,0.71 -0.21,1.05 -0.96,1.19 -0.43,0.09 -1.56,0.16 -1.83,0.16 -0.09,0 -0.18,0.09 -0.18,0.18 0,0.11 0.11,0.16 0.37,0.16 1.46,0 3.38,-0.07 3.5,-0.07 0.11,0 1.58,0.07 3.29,0.07 0.27,0 0.39,-0.05 0.39,-0.16 0,-0.09 -0.09,-0.18 -0.18,-0.18 -0.21,0 -1.17,-0.07 -1.51,-0.14 -0.73,-0.16 -0.82,-0.5 -0.91,-1.21 -0.11,-1.01 -0.11,-2.97 -0.11,-5.26l0 -4.23z"></path> </g> </g> </svg>