<svg xmlns="http://www.w3.org/2000/svg" xmlns:xlink="http://www.w3.org/1999/xlink" width="51.9194mm" height="51.9351mm" version="1.1" style="shape-rendering:geometricPrecision; text-rendering:geometricPrecision; image-rendering:optimizeQuality; fill-rule:evenodd; clip-rule:evenodd" viewBox="0 0 3031.41 3032.33"> <defs> <style type="text/css"> .fil0 {fill:#BFAC85} </style> </defs> <g id="Слой_x0020_1">  <path id="_60.cdr" class="fil0" d="M1079.61 177.61l3.69 4.57 7.03 7.33 7.49 6.56 7.88 5.8 8.23 5.06 8.5 4.3 8.75 3.58 8.92 2.85 9.05 2.15 9.13 1.45 9.17 0.76 9.16 0.11 9.1 -0.55 9 -1.2 8.86 -1.84 8.66 -2.46 8.43 -3.09 8.14 -3.7 7.82 -4.31 7.44 -4.92 6.99 -5.51 6.52 -6.11 4.57 -5.09c9.43,21.93 23.02,29.67 38.43,30.99 -4.23,-17.4 -6.08,-22.71 -0.33,-39.76 1.64,-3.57 3.37,-6.74 5.47,-10.07 2.36,-3.29 4.76,-6.23 7.49,-9.22 2.99,-2.93 5.96,-5.56 9.23,-8.17 3.47,-2.5 6.92,-4.74 10.61,-6.9 3.82,-2 7.6,-3.75 11.6,-5.4 4.05,-1.46 7.99,-2.69 12.16,-3.77 4.13,-0.86 8.1,-1.5 12.28,-1.95 4.08,-0.24 7.93,-0.26 11.99,-0.05 7.19,0.77 14.02,2.25 21.05,3.94l8.06 2.5 7.69 2.97 7.32 3.4 6.95 3.81 6.57 4.19 6.19 4.54 5.81 4.86 5.41 5.16 5.02 5.42 4.62 5.68 4.21 5.89 3.78 6.07 3.37 6.22 2.93 6.35 2.5 6.45 2.06 6.51 1.6 6.55 1.16 6.55 0.69 6.53 0.25 6.47 -0.22 6.39 -0.69 6.28 -1.14 6.14 -1.62 5.98 -2.08 5.8 -2.56 5.6 -3.04 5.37 -3.53 5.14 -4.03 4.88 -4.65 4.72c-4.02,3.62 -8.09,6.91 -12.48,10.05 -5.14,3.42 -10.21,6.28 -15.86,8.79 -6.31,2.51 -12.23,4.12 -18.96,4.97 -2.77,0.23 -5.43,0.3 -8.21,0.27 -8.06,-0.52 -14.85,-2.25 -22.27,-5.42l-5.7 -2.92 -7.66 -5.13 -4.29 -3.56 -3.67 -3.6 -3.08 -3.6 -4.58 -7.1 -2.73 -6.91 -1.16 -6.63 0.2 -6.31c0.58,-3.13 1.32,-5.71 2.49,-8.66l2.91 -5.06c1.84,-2.34 3.57,-4.15 5.83,-6.08 2.34,-1.62 4.37,-2.76 7,-3.85 2.69,-0.79 4.87,-1.17 7.65,-1.32l5.42 0.68 2.83 0.89c4.12,1.83 8.74,4.17 11.52,7.9 4.22,6.14 5.63,14 5.07,21.31l-3.65 25.45 24.14 -16.3 4.73 -3.82 4.23 -4.09 3.73 -4.34 3.23 -4.56 2.71 -4.74 2.21 -4.9 1.7 -5.01 1.2 -5.09 0.72 -5.11 0.26 -5.13 -0.19 -5.11 -0.62 -5.06 -1.02 -4.99 -3.19 -9.67 -4.64 -9.13 -5.97 -8.44 -7.19 -7.59 -8.33 -6.57 -9.38 -5.38 -5.04 -2.18 -5.27 -1.8 -5.48 -1.41 -5.67 -0.99 -5.83 -0.54 -5.89 -0.07 -8.24 0.75c-4.15,0.83 -7.87,1.86 -11.86,3.27l-7.4 3.44c-3.6,2.1 -6.87,4.27 -10.21,6.77 -3.21,2.68 -6.13,5.39 -9.05,8.4 -2.79,3.16 -5.31,6.32 -7.78,9.75 -2.34,3.57 -4.4,7.09 -6.4,10.85 -3.42,7.28 -6.04,14.41 -7.65,22.31 -2.79,-2.19 -5.77,-4.33 -8.87,-6.06l-0.01 -0.08 -9.06 -4.76 0.36 0.43c-4.57,-1.97 -9.11,-3.35 -13.94,-4.54l-8.22 -1.23 -8.34 -0.1 -8.3 1.22 -8.09 2.72 -3.88 1.98 -3.71 2.41 -3.5 2.83 -3.25 3.25 -2.97 3.67 -2.66 4.05 -8.19 15.6c9.91,2.48 19.62,4.75 29.25,8.1 7.04,2.63 13.61,5.63 20.17,9.3 6.17,3.68 11.76,7.67 17.25,12.31 7.94,7.09 14.5,14.69 20.59,23.41 2,3.01 3.89,6.03 5.76,9.13 11.21,14.43 23.62,27.02 38.51,37.66 6.45,4.39 12.95,8.2 19.96,11.63 8.24,3.79 16.38,6.68 25.17,8.92 4.15,0.94 8.22,1.66 12.43,2.24 4.64,0.44 9.13,0.64 13.8,0.66 4.67,-0.19 9.16,-0.58 13.78,-1.16 4.61,-0.78 9.03,-1.72 13.55,-2.88 12.1,-3.62 23.78,-8.59 34.07,-16.04 -0.98,4.89 -1.59,9.69 -1.96,14.67 -0.31,8.12 0.23,15.71 1.58,23.73 1.03,5.39 2.31,10.62 3.87,15.9l13.24 30.88c8.33,19.92 17.43,38.48 23.23,54.98 5.79,-16.5 14.89,-35.06 23.23,-54.98l13.24 -30.88c1.56,-5.28 2.83,-10.52 3.87,-15.91 1.35,-8.01 1.9,-15.61 1.59,-23.72 -0.36,-4.98 -0.98,-9.78 -1.96,-14.67 10.29,7.45 21.97,12.42 34.06,16.04 4.52,1.16 8.94,2.1 13.55,2.88 4.63,0.58 9.12,0.96 13.78,1.16 4.67,-0.02 9.16,-0.22 13.81,-0.66 4.22,-0.58 8.29,-1.3 12.42,-2.24 8.79,-2.24 16.94,-5.13 25.18,-8.92 6.99,-3.43 13.5,-7.24 19.95,-11.63 14.89,-10.64 27.3,-23.23 38.51,-37.66 1.86,-3.09 3.77,-6.12 5.76,-9.13 6.09,-8.72 12.65,-16.32 20.59,-23.41 5.49,-4.64 11.08,-8.62 17.25,-12.31 6.55,-3.67 13.13,-6.67 20.16,-9.3 9.63,-3.35 19.34,-5.62 29.25,-8.1l-8.19 -15.6 -2.66 -4.05 -2.97 -3.67 -3.25 -3.25 -3.51 -2.83 -3.71 -2.41 -3.87 -1.98 -8.1 -2.72 -8.31 -1.22 -8.33 0.1 -8.23 1.23c-4.83,1.2 -9.37,2.57 -13.94,4.54l0.36 -0.43 -9.06 4.76 -0.01 0.08c-3.1,1.73 -6.08,3.87 -8.87,6.06 -1.61,-7.9 -4.23,-15.03 -7.66,-22.31 -1.99,-3.77 -4.06,-7.29 -6.39,-10.85 -2.48,-3.43 -4.99,-6.59 -7.79,-9.75 -2.91,-3 -5.83,-5.72 -9.05,-8.4 -3.33,-2.5 -6.6,-4.67 -10.21,-6.77l-7.4 -3.44c-3.99,-1.41 -7.71,-2.43 -11.85,-3.27l-8.24 -0.75 -5.9 0.07 -5.83 0.54 -5.66 0.99 -5.48 1.41 -5.27 1.8 -5.05 2.18 -9.37 5.38 -8.33 6.57 -7.19 7.59 -5.97 8.44 -4.64 9.13 -3.2 9.67 -1.02 4.99 -0.62 5.06 -0.19 5.11 0.26 5.13 0.72 5.11 1.2 5.09 1.7 5.01 2.2 4.9 2.71 4.74 3.22 4.56 3.74 4.34 4.23 4.09 4.73 3.82 24.15 16.3 -3.65 -25.45c-0.55,-7.31 0.86,-15.17 5.07,-21.31 2.78,-3.73 7.4,-6.07 11.52,-7.9l2.83 -0.89 5.42 -0.68c2.79,0.15 4.97,0.53 7.66,1.32 2.62,1.09 4.67,2.22 6.99,3.85 2.27,1.93 3.99,3.74 5.84,6.08l2.91 5.06c1.17,2.95 1.92,5.54 2.49,8.66l0.2 6.31 -1.16 6.63 -2.73 6.91 -4.58 7.1 -3.08 3.6 -3.67 3.6 -4.29 3.56 -7.66 5.13 -5.7 2.92c-7.42,3.17 -14.22,4.9 -22.27,5.42 -2.78,0.04 -5.44,-0.04 -8.21,-0.27 -6.73,-0.85 -12.66,-2.46 -18.97,-4.97 -5.65,-2.5 -10.72,-5.37 -15.86,-8.79 -4.4,-3.14 -8.47,-6.43 -12.48,-10.05l-4.65 -4.72 -4.03 -4.88 -3.53 -5.14 -3.04 -5.37 -2.56 -5.6 -2.08 -5.8 -1.62 -5.98 -1.14 -6.14 -0.69 -6.28 -0.22 -6.39 0.24 -6.47 0.69 -6.53 1.16 -6.55 1.61 -6.55 2.06 -6.51 2.49 -6.45 2.93 -6.35 3.36 -6.22 3.78 -6.07 4.22 -5.89 4.61 -5.68 5.02 -5.42 5.42 -5.16 5.8 -4.86 6.19 -4.54 6.57 -4.19 6.95 -3.81 7.32 -3.4 7.68 -2.97 8.06 -2.5c7.02,-1.69 13.86,-3.17 21.05,-3.94 4.06,-0.21 7.92,-0.19 11.99,0.05 4.19,0.45 8.16,1.09 12.28,1.95 4.16,1.09 8.11,2.31 12.16,3.77 3.99,1.65 7.77,3.4 11.59,5.4 3.7,2.17 7.13,4.4 10.61,6.9 3.27,2.61 6.25,5.24 9.24,8.17 2.72,2.99 5.13,5.93 7.49,9.22 2.09,3.33 3.83,6.5 5.47,10.07 5.76,17.05 3.91,22.36 -0.33,39.76 15.41,-1.32 29,-9.06 38.44,-30.99l4.56 5.09 6.52 6.11 7 5.51 7.44 4.92 7.82 4.31 8.14 3.7 8.43 3.09 8.66 2.46 8.86 1.84 9 1.2 9.1 0.55 9.16 -0.11 9.17 -0.76 9.13 -1.45 9.06 -2.15 8.92 -2.85 8.75 -3.58 8.51 -4.3 8.22 -5.06 7.89 -5.8 7.48 -6.56 7.04 -7.33 2.1 -2.62c423,140.47 758.01,476.67 896.89,900.37l-5.5 4.44 -7.33 7.04 -6.57 7.48 -5.8 7.88 -5.05 8.23 -4.3 8.49 -3.57 8.75 -2.86 8.92 -2.15 9.05 -1.45 9.14 -0.77 9.17 -0.11 9.16 0.55 9.1 1.2 9 1.83 8.86 2.47 8.66 3.08 8.43 3.7 8.14 4.31 7.82 4.92 7.44 5.51 6.99 6.1 6.52 5.09 4.56c-21.93,9.44 -29.67,23.02 -30.99,38.44 17.4,-4.24 22.72,-6.09 39.76,-0.33 3.57,1.64 6.75,3.37 10.07,5.46 3.29,2.36 6.23,4.76 9.23,7.49 2.93,2.98 5.56,5.97 8.17,9.24 2.5,3.47 4.73,6.91 6.9,10.61 2.01,3.82 3.76,7.6 5.41,11.59 1.46,4.05 2.68,8 3.77,12.16 0.86,4.12 1.51,8.09 1.95,12.28 0.24,4.06 0.26,7.93 0.06,11.98 -0.78,7.2 -2.25,14.04 -3.94,21.07l-2.51 8.05 -2.97 7.7 -3.4 7.32 -3.81 6.94 -4.19 6.57 -4.53 6.19 -4.86 5.81 -5.17 5.42 -5.42 5.01 -5.68 4.61 -5.89 4.21 -6.07 3.79 -6.22 3.36 -6.36 2.93 -6.44 2.5 -6.52 2.05 -6.54 1.61 -6.56 1.16 -6.53 0.69 -6.46 0.25 -6.39 -0.22 -6.28 -0.69 -6.13 -1.14 -5.98 -1.62 -5.79 -2.08 -5.61 -2.57 -5.37 -3.03 -5.14 -3.53 -4.88 -4.03 -4.72 -4.65c-3.61,-4.02 -6.91,-8.09 -10.04,-12.49 -3.43,-5.14 -6.28,-10.21 -8.79,-15.86 -2.51,-6.31 -4.12,-12.24 -4.97,-18.98 -0.23,-2.77 -0.3,-5.42 -0.27,-8.2 0.52,-8.06 2.24,-14.85 5.42,-22.27l2.92 -5.7 5.13 -7.67 3.57 -4.29 3.6 -3.67 3.59 -3.08 7.09 -4.59 6.91 -2.73 6.63 -1.16 6.31 0.2c3.12,0.57 5.7,1.32 8.66,2.49l5.06 2.93c2.34,1.83 4.16,3.56 6.08,5.83 1.62,2.33 2.76,4.37 3.85,6.99 0.79,2.69 1.17,4.87 1.31,7.65l-0.68 5.42 -0.89 2.84c-1.83,4.12 -4.17,8.73 -7.9,11.51 -6.14,4.22 -14,5.63 -21.32,5.07l-25.45 -3.65 16.3 24.14 3.82 4.73 4.09 4.23 4.35 3.74 4.55 3.22 4.75 2.72 4.9 2.2 5 1.7 5.09 1.2 5.12 0.72 5.13 0.26 5.1 -0.19 5.06 -0.62 4.98 -1.02 9.67 -3.2 9.13 -4.64 8.44 -5.97 7.59 -7.2 6.57 -8.31 5.38 -9.38 2.18 -5.05 1.8 -5.27 1.41 -5.48 0.99 -5.66 0.54 -5.82 0.07 -5.9 -0.74 -8.24c-0.83,-4.15 -1.87,-7.87 -3.27,-11.86l-3.44 -7.4c-2.1,-3.6 -4.26,-6.87 -6.77,-10.2 -2.67,-3.22 -5.39,-6.14 -8.4,-9.05 -3.16,-2.8 -6.32,-5.31 -9.75,-7.79 -3.57,-2.33 -7.08,-4.4 -10.85,-6.39 -7.29,-3.43 -14.41,-6.05 -22.32,-7.66 2.2,-2.8 4.33,-5.76 6.06,-8.87l0.08 -0.01 4.76 -9.06 -0.44 0.36c1.98,-4.58 3.35,-9.1 4.55,-13.93l1.23 -8.23 0.1 -8.33 -1.22 -8.3 -2.72 -8.1 -1.97 -3.88 -2.42 -3.71 -2.82 -3.51 -3.25 -3.25 -3.66 -2.97 -4.05 -2.66 -15.6 -8.19c-2.49,9.91 -4.76,19.62 -8.1,29.25 -2.64,7.03 -5.63,13.6 -9.31,20.16 -3.68,6.18 -7.66,11.76 -12.3,17.25 -7.09,7.95 -14.69,14.5 -23.41,20.58 -3.01,2.01 -6.04,3.91 -9.13,5.77 -14.44,11.21 -27.02,23.62 -37.67,38.51 -4.39,6.45 -8.2,12.95 -11.63,19.96 -3.79,8.24 -6.67,16.38 -8.92,25.18 -0.95,4.14 -1.65,8.21 -2.24,12.42 -0.43,4.65 -0.64,9.14 -0.65,13.81 0.19,4.66 0.57,9.16 1.16,13.78 0.78,4.61 1.72,9.03 2.87,13.55 3.63,12.1 8.6,23.78 16.04,34.07 -4.89,-0.99 -9.69,-1.6 -14.68,-1.97 -8.1,-0.3 -15.7,0.24 -23.72,1.59 -5.39,1.04 -10.62,2.32 -15.9,3.88l-30.88 13.23c-19.92,8.34 -38.49,17.44 -54.99,23.23 16.51,5.8 35.07,14.89 54.99,23.23l30.87 13.24c5.28,1.56 10.52,2.84 15.91,3.87 8.02,1.35 15.61,1.89 23.72,1.59 4.98,-0.36 9.79,-0.98 14.67,-1.96 -7.44,10.29 -12.42,21.97 -16.04,34.07 -1.16,4.52 -2.1,8.94 -2.88,13.55 -0.58,4.62 -0.96,9.11 -1.15,13.78 0.02,4.67 0.22,9.16 0.65,13.8 0.59,4.22 1.3,8.28 2.24,12.43 2.25,8.79 5.13,16.93 8.92,25.18 3.43,7 7.24,13.5 11.62,19.95 10.65,14.89 23.23,27.3 37.68,38.51 3.09,1.86 6.11,3.76 9.12,5.76 8.72,6.08 16.31,12.65 23.41,20.58 4.64,5.49 8.62,11.08 12.3,17.25 3.68,6.56 6.67,13.14 9.3,20.17 3.35,9.63 5.62,19.34 8.12,29.25l15.59 -8.19 4.06 -2.66 3.65 -2.97 3.25 -3.25 2.83 -3.5 2.41 -3.71 1.99 -3.87 2.7 -8.1 1.22 -8.31 -0.1 -8.34 -1.23 -8.23c-1.2,-4.83 -2.57,-9.37 -4.55,-13.94l0.44 0.36 -4.76 -9.06 -0.08 -0.01c-1.73,-3.11 -3.87,-6.08 -6.05,-8.87 7.89,-1.61 15.03,-4.23 22.31,-7.65 3.77,-2 7.29,-4.07 10.85,-6.39 3.43,-2.48 6.59,-4.99 9.75,-7.79 3.01,-2.92 5.72,-5.84 8.41,-9.05 2.49,-3.33 4.65,-6.59 6.76,-10.21l3.44 -7.39c1.4,-4 2.43,-7.72 3.27,-11.86l0.74 -8.24 -0.07 -5.9 -0.54 -5.82 -0.99 -5.67 -1.4 -5.48 -1.81 -5.27 -2.18 -5.05 -5.38 -9.37 -6.57 -8.32 -7.59 -7.19 -8.43 -5.97 -9.14 -4.64 -9.67 -3.2 -4.98 -1.02 -5.06 -0.62 -5.11 -0.19 -5.13 0.26 -5.11 0.73 -5.09 1.2 -5 1.7 -4.9 2.21 -4.74 2.71 -4.56 3.22 -4.35 3.73 -4.09 4.23 -3.82 4.73 -16.3 24.14 25.45 -3.64c7.32,-0.56 15.18,0.85 21.32,5.07 3.73,2.77 6.07,7.4 7.9,11.52l0.88 2.83 0.68 5.42c-0.15,2.79 -0.53,4.97 -1.31,7.65 -1.09,2.63 -2.22,4.67 -3.85,7 -1.93,2.25 -3.75,3.99 -6.08,5.83l-5.06 2.91c-2.95,1.18 -5.53,1.92 -8.66,2.49l-6.32 0.2 -6.63 -1.16 -6.9 -2.73 -7.11 -4.59 -3.59 -3.08 -3.6 -3.67 -3.56 -4.29 -5.13 -7.67 -2.92 -5.7c-3.18,-7.42 -4.9,-14.21 -5.42,-22.27 -0.03,-2.77 0.05,-5.44 0.27,-8.21 0.85,-6.74 2.46,-12.65 4.97,-18.96 2.5,-5.65 5.36,-10.73 8.79,-15.86 3.14,-4.4 6.43,-8.47 10.04,-12.48l4.72 -4.66 4.88 -4.03 5.14 -3.53 5.37 -3.04 5.59 -2.56 5.8 -2.08 5.98 -1.62 6.14 -1.14 6.28 -0.68 6.39 -0.22 6.47 0.23 6.52 0.69 6.55 1.16 6.55 1.61 6.52 2.06 6.44 2.49 6.36 2.93 6.22 3.37 6.07 3.78 5.89 4.21 5.68 4.61 5.42 5.02 5.17 5.41 4.86 5.81 4.53 6.19 4.19 6.57 3.81 6.95 3.4 7.32 2.97 7.69 2.52 8.06c1.69,7.02 3.16,13.87 3.94,21.05 0.2,4.06 0.18,7.92 -0.06,11.99 -0.45,4.19 -1.09,8.16 -1.95,12.28 -1.09,4.17 -2.31,8.12 -3.77,12.16 -1.65,4 -3.41,7.76 -5.41,11.6 -2.17,3.69 -4.4,7.13 -6.9,10.61 -2.61,3.27 -5.24,6.24 -8.17,9.23 -3,2.72 -5.93,5.13 -9.23,7.5 -3.32,2.08 -6.5,3.82 -10.07,5.45 -17.05,5.76 -22.37,3.91 -39.77,-0.33 1.33,15.43 9.06,29 30.99,38.44l-5.09 4.56 -6.1 6.52 -5.51 6.99 -4.92 7.44 -4.31 7.81 -3.7 8.15 -3.08 8.41 -2.47 8.67 -1.83 8.86 -1.2 9 -0.55 9.1 0.1 9.16 0.77 9.17 1.45 9.14 2.15 9.06 2.86 8.92 3.57 8.74 4.3 8.51 5.05 8.22 5.8 7.88 6.56 7.48 7.33 7.04 3.49 2.81c-139.99,420.5 -473.45,753.94 -893.97,893.91l-2.74 -3.39 -7.03 -7.33 -7.48 -6.56 -7.89 -5.8 -8.22 -5.05 -8.51 -4.3 -8.75 -3.58 -8.92 -2.86 -9.06 -2.15 -9.13 -1.45 -9.17 -0.77 -9.16 -0.1 -9.1 0.55 -9 1.2 -8.86 1.83 -8.66 2.47 -8.43 3.08 -8.15 3.7 -7.81 4.31 -7.44 4.91 -7 5.51 -6.52 6.11 -4.56 5.09c-9.44,-21.93 -23.03,-29.67 -38.44,-30.99 4.23,17.4 6.08,22.72 0.33,39.77 -1.63,3.57 -3.37,6.74 -5.47,10.07 -2.36,3.29 -4.76,6.23 -7.49,9.23 -2.98,2.93 -5.96,5.56 -9.23,8.17 -3.47,2.5 -6.91,4.73 -10.61,6.9 -3.83,2 -7.6,3.76 -11.59,5.41 -4.05,1.46 -8,2.69 -12.16,3.77 -4.12,0.86 -8.1,1.5 -12.28,1.95 -4.07,0.24 -7.93,0.26 -11.99,0.06 -7.19,-0.78 -14.03,-2.25 -21.06,-3.94l-8.06 -2.51 -7.68 -2.97 -7.32 -3.4 -6.95 -3.81 -6.57 -4.19 -6.19 -4.53 -5.8 -4.86 -5.42 -5.17 -5.02 -5.42 -4.61 -5.68 -4.22 -5.89 -3.78 -6.07 -3.36 -6.22 -2.93 -6.36 -2.49 -6.44 -2.06 -6.52 -1.61 -6.55 -1.16 -6.55 -0.69 -6.52 -0.24 -6.47 0.22 -6.39 0.68 -6.28 1.14 -6.14 1.62 -5.97 2.08 -5.8 2.56 -5.59 3.04 -5.37 3.53 -5.14 4.03 -4.88 4.65 -4.72c4.01,-3.61 8.08,-6.91 12.48,-10.04 5.13,-3.43 10.21,-6.29 15.86,-8.79 6.31,-2.51 12.24,-4.13 18.97,-4.97 2.77,-0.22 5.43,-0.3 8.21,-0.27 8.05,0.52 14.85,2.25 22.27,5.42l5.7 2.93 7.67 5.13 4.29 3.56 3.67 3.59 3.08 3.6 4.58 7.11 2.73 6.9 1.16 6.63 -0.2 6.31c-0.57,3.14 -1.31,5.71 -2.49,8.67l-2.92 5.06c-1.84,2.34 -3.57,4.16 -5.83,6.08 -2.33,1.62 -4.37,2.76 -7,3.85 -2.68,0.79 -4.87,1.16 -7.65,1.31l-5.42 -0.68 -2.83 -0.89c-4.12,-1.83 -8.75,-4.17 -11.53,-7.91 -4.22,-6.13 -5.62,-14 -5.07,-21.31l3.65 -25.46 -24.15 16.3 -4.73 3.82 -4.23 4.09 -3.73 4.35 -3.22 4.56 -2.71 4.74 -2.21 4.9 -1.7 5.01 -1.2 5.09 -0.73 5.11 -0.26 5.13 0.19 5.11 0.62 5.06 1.02 4.98 3.2 9.67 4.64 9.12 5.97 8.44 7.18 7.59 8.33 6.57 9.37 5.38 5.05 2.18 5.27 1.81 5.47 1.41 5.67 0.99 5.83 0.54 5.9 0.07 8.24 -0.74c4.15,-0.83 7.87,-1.87 11.86,-3.27l7.4 -3.44c3.61,-2.1 6.87,-4.26 10.21,-6.76 3.22,-2.69 6.14,-5.39 9.05,-8.4 2.8,-3.16 5.31,-6.32 7.78,-9.75 2.34,-3.56 4.4,-7.08 6.4,-10.85 3.43,-7.28 6.05,-14.42 7.66,-22.32 2.79,2.2 5.77,4.33 8.87,6.06l0.01 0.08 9.06 4.76 -0.36 -0.44c4.57,1.98 9.11,3.35 13.94,4.54l8.22 1.23 8.34 0.1 8.31 -1.22 8.09 -2.72 3.88 -1.97 3.71 -2.41 3.51 -2.83 3.25 -3.25 2.97 -3.66 2.66 -4.05 8.19 -15.6c-9.9,-2.49 -19.62,-4.76 -29.25,-8.1 -7.03,-2.63 -13.61,-5.63 -20.16,-9.31 -6.18,-3.68 -11.77,-7.66 -17.26,-12.3 -7.93,-7.09 -14.49,-14.69 -20.58,-23.41 -2,-3.01 -3.9,-6.04 -5.76,-9.13 -11.21,-14.44 -23.61,-27.02 -38.51,-37.67 -6.46,-4.39 -12.96,-8.2 -19.96,-11.63 -8.24,-3.79 -16.38,-6.67 -25.18,-8.92 -4.14,-0.94 -8.21,-1.66 -12.42,-2.24 -4.65,-0.43 -9.14,-0.64 -13.81,-0.65 -4.66,0.19 -9.16,0.57 -13.78,1.16 -4.61,0.78 -9.03,1.72 -13.55,2.87 -12.1,3.63 -23.78,8.6 -34.07,16.04 0.98,-4.89 1.6,-9.69 1.96,-14.67 0.3,-8.11 -0.23,-15.71 -1.59,-23.72 -1.03,-5.4 -2.31,-10.63 -3.87,-15.91l-13.24 -30.88c-8.33,-19.92 -17.43,-38.49 -23.23,-54.98 -5.8,16.49 -14.9,35.06 -23.23,54.98l-13.24 30.88c-1.56,5.28 -2.84,10.51 -3.87,15.9 -1.35,8.02 -1.89,15.61 -1.59,23.72 0.36,4.98 0.98,9.79 1.96,14.67 -10.29,-7.44 -21.97,-12.42 -34.07,-16.04 -4.52,-1.16 -8.94,-2.1 -13.55,-2.87 -4.62,-0.58 -9.11,-0.96 -13.78,-1.16 -4.67,0.02 -9.16,0.22 -13.81,0.65 -4.22,0.58 -8.28,1.3 -12.42,2.24 -8.79,2.25 -16.93,5.13 -25.17,8.92 -7.01,3.43 -13.5,7.24 -19.96,11.63 -14.89,10.64 -27.3,23.23 -38.51,37.67 -1.86,3.09 -3.75,6.12 -5.76,9.13 -6.09,8.72 -12.65,16.31 -20.59,23.41 -5.49,4.64 -11.08,8.62 -17.25,12.3 -6.56,3.68 -13.13,6.67 -20.17,9.31 -9.63,3.35 -19.34,5.62 -29.25,8.1l8.19 15.6 2.66 4.05 2.97 3.66 3.25 3.25 3.5 2.83 3.71 2.41 3.88 1.97 8.09 2.72 8.31 1.22 8.34 -0.1 8.22 -1.23c4.83,-1.2 9.37,-2.56 13.94,-4.54l-0.37 0.44 9.06 -4.76 0.01 -0.08c3.1,-1.73 6.08,-3.87 8.87,-6.06 1.61,7.9 4.23,15.03 7.65,22.32 2,3.77 4.06,7.29 6.4,10.85 2.47,3.43 4.99,6.59 7.78,9.75 2.91,3.01 5.83,5.72 9.05,8.4 3.33,2.5 6.6,4.66 10.21,6.76l7.4 3.44c3.99,1.4 7.71,2.43 11.86,3.27l8.24 0.74 5.89 -0.07 5.83 -0.54 5.67 -0.99 5.48 -1.41 5.27 -1.81 5.04 -2.18 9.38 -5.38 8.33 -6.57 7.19 -7.59 5.96 -8.44 4.64 -9.12 3.2 -9.67 1.02 -4.98 0.62 -5.06 0.19 -5.11 -0.26 -5.13 -0.73 -5.11 -1.2 -5.09 -1.7 -5.01 -2.21 -4.9 -2.71 -4.74 -3.23 -4.56 -3.73 -4.35 -4.23 -4.09 -4.73 -3.82 -24.14 -16.3 3.65 25.46c0.55,7.31 -0.86,15.17 -5.07,21.31 -2.78,3.73 -7.4,6.07 -11.52,7.91l-2.84 0.89 -5.42 0.68c-2.79,-0.15 -4.97,-0.53 -7.65,-1.31 -2.63,-1.09 -4.67,-2.22 -7,-3.85 -2.26,-1.93 -3.99,-3.75 -5.83,-6.08l-2.92 -5.06c-1.17,-2.96 -1.91,-5.54 -2.49,-8.67l-0.2 -6.31 1.16 -6.63 2.73 -6.9 4.58 -7.11 3.08 -3.6 3.68 -3.59 4.29 -3.56 7.66 -5.13 5.7 -2.93c7.43,-3.17 14.22,-4.9 22.27,-5.42 2.78,-0.04 5.44,0.05 8.2,0.27 6.73,0.85 12.66,2.46 18.97,4.97 5.65,2.5 10.73,5.36 15.86,8.79 4.4,3.14 8.47,6.43 12.48,10.04l4.66 4.72 4.03 4.88 3.53 5.14 3.03 5.37 2.56 5.59 2.08 5.8 1.62 5.97 1.14 6.14 0.68 6.28 0.22 6.39 -0.25 6.47 -0.69 6.52 -1.16 6.55 -1.6 6.55 -2.06 6.52 -2.5 6.44 -2.93 6.36 -3.37 6.22 -3.78 6.07 -4.21 5.89 -4.62 5.68 -5.02 5.42 -5.42 5.17 -5.8 4.86 -6.19 4.53 -6.57 4.19 -6.95 3.81 -7.32 3.4 -7.69 2.97 -8.06 2.51c-7.03,1.69 -13.86,3.16 -21.06,3.94 -4.06,0.2 -7.92,0.18 -11.99,-0.06 -4.18,-0.45 -8.16,-1.09 -12.28,-1.95 -4.16,-1.08 -8.11,-2.31 -12.16,-3.77 -4,-1.65 -7.77,-3.4 -11.6,-5.41 -3.7,-2.17 -7.13,-4.4 -10.61,-6.9 -3.27,-2.61 -6.25,-5.24 -9.23,-8.17 -2.73,-3 -5.13,-5.94 -7.49,-9.23 -2.09,-3.32 -3.82,-6.5 -5.47,-10.07 -5.76,-17.04 -3.91,-22.36 0.33,-39.76 -15.41,1.32 -29,9.06 -38.43,30.99l-4.57 -5.09 -6.52 -6.11 -7 -5.51 -7.44 -4.91 -7.81 -4.31 -8.14 -3.7 -8.43 -3.08 -8.67 -2.47 -8.86 -1.83 -9 -1.2 -9.1 -0.55 -9.16 0.1 -9.17 0.77 -9.13 1.45 -9.05 2.15 -8.92 2.86 -8.75 3.58 -8.51 4.3 -8.22 5.05 -7.89 5.8 -7.48 6.56 -7.03 7.33 -4.43 5.48c-423.49,-138.77 -759.57,-473.54 -900.21,-896.19l3.24 -2.62 7.33 -7.04 6.56 -7.48 5.8 -7.88 5.06 -8.22 4.3 -8.51 3.58 -8.75 2.85 -8.92 2.15 -9.06 1.45 -9.13 0.76 -9.17 0.11 -9.16 -0.55 -9.1 -1.2 -9 -1.84 -8.86 -2.46 -8.66 -3.09 -8.43 -3.7 -8.14 -4.31 -7.82 -4.91 -7.44 -5.51 -7 -6.11 -6.52 -5.09 -4.56c21.93,-9.44 29.67,-23.03 30.99,-38.44 -17.41,4.24 -22.72,6.09 -39.77,0.33 -3.57,-1.63 -6.74,-3.37 -10.07,-5.47 -3.29,-2.36 -6.23,-4.76 -9.22,-7.49 -2.93,-2.99 -5.56,-5.97 -8.17,-9.24 -2.5,-3.47 -4.74,-6.91 -6.9,-10.61 -2,-3.82 -3.75,-7.6 -5.4,-11.59 -1.46,-4.05 -2.69,-8 -3.77,-12.16 -0.86,-4.12 -1.5,-8.1 -1.95,-12.28 -0.24,-4.07 -0.26,-7.93 -0.05,-11.99 0.77,-7.19 2.25,-14.03 3.94,-21.05l2.5 -8.06 2.97 -7.68 3.4 -7.32 3.81 -6.95 4.19 -6.57 4.54 -6.19 4.86 -5.8 5.16 -5.42 5.42 -5.02 5.68 -4.61 5.89 -4.21 6.07 -3.79 6.22 -3.36 6.35 -2.93 6.45 -2.49 6.51 -2.06 6.55 -1.61 6.55 -1.16 6.53 -0.69 6.47 -0.24 6.39 0.22 6.28 0.69 6.14 1.14 5.98 1.62 5.8 2.08 5.6 2.56 5.37 3.04 5.14 3.53 4.88 4.03 4.72 4.65c3.62,4.01 6.91,8.09 10.05,12.48 3.43,5.14 6.28,10.21 8.79,15.86 2.51,6.31 4.13,12.24 4.97,18.97 0.23,2.77 0.3,5.43 0.27,8.21 -0.52,8.06 -2.24,14.85 -5.41,22.27l-2.93 5.7 -5.13 7.66 -3.56 4.29 -3.6 3.67 -3.6 3.08 -7.1 4.58 -6.91 2.73 -6.63 1.16 -6.3 -0.2c-3.14,-0.57 -5.72,-1.31 -8.67,-2.49l-5.06 -2.91c-2.34,-1.85 -4.15,-3.57 -6.08,-5.84 -1.62,-2.33 -2.76,-4.37 -3.85,-6.99 -0.79,-2.69 -1.17,-4.87 -1.32,-7.66l0.68 -5.42 0.89 -2.83c1.83,-4.12 4.17,-8.74 7.9,-11.52 6.14,-4.22 14,-5.63 21.31,-5.07l25.45 3.65 -16.3 -24.14 -3.82 -4.74 -4.09 -4.23 -4.34 -3.74 -4.56 -3.22 -4.74 -2.71 -4.9 -2.2 -5.01 -1.7 -5.09 -1.2 -5.11 -0.72 -5.13 -0.26 -5.11 0.19 -5.06 0.62 -4.99 1.02 -9.67 3.2 -9.13 4.64 -8.44 5.97 -7.59 7.19 -6.57 8.33 -5.38 9.37 -2.18 5.05 -1.8 5.27 -1.41 5.48 -0.99 5.66 -0.54 5.83 -0.06 5.9 0.74 8.24c0.83,4.14 1.86,7.86 3.27,11.85l3.44 7.4c2.1,3.61 4.27,6.87 6.77,10.21 2.68,3.22 5.39,6.14 8.4,9.05 3.16,2.8 6.32,5.31 9.75,7.79 3.57,2.33 7.09,4.4 10.85,6.39 7.28,3.43 14.41,6.05 22.31,7.66 -2.19,2.79 -4.33,5.77 -6.06,8.87l-0.08 0.01 -4.76 9.06 0.43 -0.36c-1.97,4.57 -3.35,9.11 -4.54,13.94l-1.23 8.23 -0.1 8.33 1.22 8.31 2.72 8.1 1.98 3.88 2.41 3.71 2.83 3.51 3.25 3.25 3.66 2.97 4.05 2.66 15.6 8.19c2.48,-9.91 4.75,-19.62 8.1,-29.25 2.63,-7.03 5.63,-13.6 9.3,-20.16 3.68,-6.18 7.67,-11.76 12.31,-17.25 7.09,-7.94 14.69,-14.5 23.41,-20.59 3.01,-2 6.03,-3.9 9.13,-5.76 14.43,-11.21 27.02,-23.61 37.66,-38.51 4.4,-6.45 8.2,-12.96 11.63,-19.95 3.79,-8.24 6.68,-16.39 8.92,-25.18 0.94,-4.14 1.66,-8.21 2.24,-12.42 0.44,-4.65 0.64,-9.14 0.66,-13.81 -0.19,-4.66 -0.58,-9.15 -1.16,-13.78 -0.78,-4.61 -1.72,-9.03 -2.88,-13.55 -3.62,-12.1 -8.59,-23.78 -16.04,-34.06 4.89,0.98 9.69,1.59 14.67,1.96 8.12,0.31 15.71,-0.23 23.72,-1.59 5.39,-1.03 10.63,-2.31 15.91,-3.87l30.88 -13.24c19.92,-8.33 38.48,-17.43 54.98,-23.23 -16.5,-5.8 -35.06,-14.89 -54.98,-23.23l-30.88 -13.24c-5.28,-1.56 -10.52,-2.84 -15.9,-3.87 -8.02,-1.35 -15.61,-1.89 -23.73,-1.58 -4.98,0.36 -9.78,0.98 -14.67,1.96 7.45,-10.29 12.42,-21.97 16.04,-34.07 1.16,-4.52 2.1,-8.94 2.88,-13.55 0.58,-4.62 0.96,-9.11 1.16,-13.78 -0.02,-4.67 -0.22,-9.16 -0.66,-13.8 -0.58,-4.22 -1.3,-8.29 -2.24,-12.43 -2.24,-8.79 -5.13,-16.93 -8.92,-25.17 -3.43,-7.01 -7.23,-13.5 -11.63,-19.96 -10.64,-14.89 -23.23,-27.3 -37.66,-38.51 -3.09,-1.86 -6.12,-3.75 -9.13,-5.76 -8.72,-6.09 -16.32,-12.65 -23.41,-20.59 -4.64,-5.49 -8.62,-11.08 -12.31,-17.25 -3.67,-6.56 -6.67,-13.13 -9.3,-20.16 -3.35,-9.63 -5.62,-19.34 -8.1,-29.25l-15.6 8.19 -4.05 2.66 -3.66 2.97 -3.25 3.25 -2.83 3.5 -2.41 3.71 -1.98 3.88 -2.72 8.09 -1.22 8.3 0.1 8.34 1.23 8.23c1.2,4.83 2.57,9.37 4.54,13.94l-0.43 -0.36 4.76 9.06 0.08 0c1.73,3.11 3.87,6.08 6.06,8.87 -7.9,1.61 -15.03,4.23 -22.31,7.65 -3.77,2 -7.29,4.06 -10.85,6.4 -3.43,2.48 -6.59,4.99 -9.75,7.78 -3,2.92 -5.72,5.84 -8.4,9.05 -2.5,3.33 -4.67,6.6 -6.77,10.21l-3.44 7.4c-1.41,3.99 -2.43,7.71 -3.27,11.86l-0.74 8.24 0.06 5.89 0.54 5.83 0.99 5.67 1.41 5.48 1.8 5.27 2.18 5.05 5.38 9.37 6.57 8.33 7.59 7.19 8.44 5.97 9.13 4.64 9.67 3.2 4.99 1.02 5.06 0.62 5.11 0.19 5.13 -0.26 5.11 -0.72 5.09 -1.2 5.01 -1.7 4.9 -2.21 4.74 -2.71 4.56 -3.23 4.34 -3.73 4.09 -4.23 3.82 -4.73 16.3 -24.14 -25.45 3.65c-7.31,0.55 -15.17,-0.86 -21.31,-5.07 -3.73,-2.78 -6.07,-7.4 -7.9,-11.52l-0.89 -2.83 -0.68 -5.42c0.15,-2.79 0.53,-4.97 1.32,-7.65 1.09,-2.62 2.22,-4.67 3.85,-7 1.93,-2.26 3.74,-3.99 6.08,-5.83l5.06 -2.91c2.95,-1.17 5.54,-1.92 8.67,-2.49l6.3 -0.2 6.63 1.16 6.91 2.73 7.1 4.58 3.6 3.08 3.6 3.67 3.56 4.29 5.13 7.66 2.93 5.7c3.17,7.42 4.89,14.21 5.41,22.27 0.04,2.78 -0.04,5.44 -0.27,8.21 -0.84,6.73 -2.46,12.66 -4.97,18.96 -2.5,5.65 -5.36,10.73 -8.79,15.86 -3.14,4.4 -6.43,8.47 -10.05,12.48l-4.72 4.65 -4.88 4.03 -5.14 3.53 -5.37 3.04 -5.6 2.56 -5.8 2.08 -5.98 1.62 -6.14 1.14 -6.28 0.69 -6.39 0.22 -6.47 -0.25 -6.53 -0.69 -6.55 -1.16 -6.55 -1.61 -6.51 -2.06 -6.45 -2.5 -6.35 -2.93 -6.22 -3.37 -6.07 -3.78 -5.89 -4.21 -5.68 -4.61 -5.42 -5.02 -5.16 -5.41 -4.86 -5.81 -4.54 -6.19 -4.19 -6.57 -3.81 -6.95 -3.4 -7.32 -2.97 -7.68 -2.5 -8.06c-1.69,-7.02 -3.17,-13.86 -3.94,-21.05 -0.21,-4.06 -0.19,-7.92 0.05,-11.99 0.45,-4.18 1.09,-8.16 1.95,-12.28 1.09,-4.17 2.31,-8.12 3.77,-12.16 1.65,-4 3.4,-7.77 5.4,-11.6 2.17,-3.69 4.4,-7.13 6.9,-10.61 2.61,-3.27 5.24,-6.24 8.17,-9.23 2.99,-2.72 5.93,-5.13 9.22,-7.49 3.33,-2.09 6.5,-3.82 10.07,-5.47 17.05,-5.76 22.36,-3.91 39.77,0.33 -1.33,-15.41 -9.06,-29 -30.99,-38.43l5.09 -4.57 6.11 -6.52 5.51 -6.99 4.91 -7.44 4.31 -7.82 3.7 -8.14 3.09 -8.43 2.46 -8.66 1.84 -8.86 1.2 -9 0.55 -9.1 -0.11 -9.16 -0.76 -9.17 -1.45 -9.13 -2.15 -9.05 -2.85 -8.92 -3.58 -8.75 -4.3 -8.5 -5.06 -8.23 -5.8 -7.88 -6.56 -7.49 -7.33 -7.03 -5.23 -4.22c139.45,-425.73 476.89,-763.18 902.66,-902.54zm881.26 -46.51c-8.36,-3.77 -14.6,-4.88 -25.46,-7.85 -1.97,5.85 -2.58,8.31 -3.35,10.33l-0.38 0.95c-2.81,7.04 -6.41,13.16 -10.8,19.32l-6.52 7.35 -7.18 6.08 -7.77 4.85 -8.27 3.68 -8.7 2.53 -9.01 1.4 -9.24 0.26c-4.81,-0.3 -9.27,-0.85 -14.01,-1.7 -4.78,-1.16 -9.21,-2.5 -13.83,-4.19l-8.9 -4.15c-4.43,-2.55 -8.45,-5.16 -12.56,-8.19 -4.87,-4.03 -9.22,-8.1 -13.32,-12.92 -2.1,-2.74 -3.95,-5.45 -5.76,-8.39 -3.02,-5.48 -5.32,-10.78 -7.3,-16.72 -1.37,-4.9 -2.35,-9.56 -3,-14.61 -0.29,-3.71 -0.38,-7.24 -0.27,-10.96 0.33,-3.61 0.83,-6.95 1.6,-10.5 0.99,-3.41 2.1,-6.45 3.58,-9.69l3.56 -5.91c2.28,-2.96 4.54,-5.4 7.29,-7.96l6.38 -4.65c4.11,-2.33 8.52,-4.75 13.13,-5.98 11.33,-2.24 22.53,2.57 29.57,11.41 4.2,5.98 5.99,12.59 4.66,19.82 -2.42,9.59 -9.86,17.13 -19.87,18.75 -10.49,0.94 -26.36,-5.16 -32.29,-13.53l4.41 24.07c1.61,5.79 3.94,10.78 7.13,15.89 2.69,3.91 5.47,7.13 8.94,10.38 2.42,2.01 4.78,3.7 7.44,5.37 3.02,1.59 5.85,2.83 9.09,3.96 3.6,0.96 6.88,1.57 10.59,1.97 4.08,0.14 7.78,-0.01 11.83,-0.46 4.47,-0.78 8.55,-1.8 12.9,-3.14l9.52 -3.82 4.98 -2.9 4.51 -3.21 4.16 -3.55 3.81 -3.88 3.46 -4.15 3.11 -4.39 5.13 -9.39 3.74 -10.05 2.34 -10.49 0.96 -10.76 -0.43 -10.85 -1.86 -10.77 -3.31 -10.5 -4.82 -10.05 -3 -4.78 -3.39 -4.58 -3.78 -4.36 -4.17 -4.08 -4.57 -3.8 -4.96 -3.46 -5.34 -3.09 -5.72 -2.71 -6.08 -2.3c-4.15,-1.19 -8.17,-2.59 -12.3,-3.83 -4.01,-0.92 -7.81,-1.56 -11.9,-2.02 -4.29,-0.25 -8.37,-0.27 -12.64,-0.1 -4.44,0.39 -8.69,0.97 -13.08,1.76 -4.52,1.03 -8.82,2.2 -13.23,3.61 -4.49,1.66 -8.73,3.46 -13.06,5.51 -4.36,2.33 -8.41,4.75 -12.52,7.48l-7.86 6.1c-3.85,3.49 -7.32,6.99 -10.77,10.87l-6.31 8.41c-9.59,15.35 -14.59,31.73 -16.83,49.53 -14.21,-8.11 -29.7,-12.86 -45.88,-15.26 -6.27,-0.82 -12.52,-1.27 -18.84,-1.63 -9.28,-0.23 -18.19,0.01 -27.43,0.78 -6.72,0.81 -13.2,1.84 -19.83,3.16l-12.79 3.37c-6.31,2.09 -12.3,4.36 -18.4,6.98l-11.68 5.95 -11.15 7.01 -10.56 8.06 -9.93 9.11 -9.24 10.16 -8.5 11.2c-10.27,15.5 -12.98,23.71 -15.23,24.63 -2.25,-0.92 -4.97,-9.13 -15.23,-24.63l-8.51 -11.2 -9.24 -10.16 -9.92 -9.11 -10.56 -8.06 -11.15 -7.01 -11.68 -5.95c-6.1,-2.62 -12.1,-4.89 -18.4,-6.98l-12.79 -3.37c-6.63,-1.32 -13.12,-2.35 -19.84,-3.16 -9.24,-0.77 -18.15,-1 -27.43,-0.78 -6.31,0.36 -12.56,0.81 -18.84,1.63 -16.17,2.39 -31.67,7.15 -45.88,15.26 -2.23,-17.8 -7.23,-34.18 -16.82,-49.53l-6.31 -8.41c-3.45,-3.88 -6.92,-7.37 -10.77,-10.87l-7.87 -6.1c-4.11,-2.73 -8.17,-5.15 -12.52,-7.48 -4.33,-2.05 -8.57,-3.85 -13.06,-5.51 -4.41,-1.41 -8.71,-2.59 -13.22,-3.61 -4.4,-0.79 -8.64,-1.37 -13.09,-1.76 -4.27,-0.17 -8.36,-0.15 -12.63,0.1 -4.09,0.46 -7.89,1.1 -11.9,2.02 -4.13,1.24 -8.16,2.64 -12.3,3.83l-6.08 2.3 -5.71 2.71 -5.34 3.09 -4.96 3.46 -4.57 3.8 -4.17 4.08 -3.77 4.36 -3.39 4.58 -3 4.78 -4.82 10.05 -3.31 10.5 -1.87 10.77 -0.43 10.85 0.96 10.76 2.34 10.49 3.74 10.05 5.13 9.39 3.11 4.39 3.45 4.15 3.81 3.88 4.17 3.55 4.51 3.21 4.98 2.9 9.52 3.82c4.34,1.34 8.43,2.36 12.9,3.14 4.05,0.45 7.75,0.6 11.83,0.46 3.7,-0.4 6.99,-1.01 10.59,-1.97 3.23,-1.14 6.06,-2.37 9.09,-3.96 2.67,-1.67 5.02,-3.35 7.44,-5.37 3.47,-3.25 6.25,-6.48 8.94,-10.38 3.19,-5.1 5.52,-10.1 7.13,-15.89l4.41 -24.07c-5.93,8.37 -21.8,14.47 -32.29,13.53 -10.01,-1.62 -17.44,-9.17 -19.86,-18.75 -1.33,-7.23 0.45,-13.84 4.65,-19.82 7.04,-8.83 18.25,-13.65 29.57,-11.41 4.61,1.23 9.02,3.66 13.13,5.98l6.38 4.65c2.76,2.56 5.01,5 7.3,7.96l3.56 5.91c1.48,3.24 2.6,6.28 3.58,9.69 0.78,3.55 1.28,6.88 1.61,10.5 0.12,3.72 0.02,7.25 -0.27,10.96 -0.65,5.04 -1.62,9.71 -3,14.61 -1.97,5.93 -4.27,11.23 -7.29,16.72 -1.81,2.94 -3.67,5.65 -5.76,8.39 -4.1,4.82 -8.44,8.88 -13.32,12.92 -4.1,3.02 -8.13,5.64 -12.56,8.19l-8.9 4.15c-4.61,1.69 -9.04,3.03 -13.82,4.19 -4.74,0.86 -9.21,1.41 -14.01,1.7l-9.24 -0.26 -9.02 -1.4 -8.69 -2.53 -8.27 -3.68 -7.77 -4.85 -7.19 -6.08 -6.52 -7.35c-4.38,-6.16 -7.98,-12.28 -10.8,-19.32l-0.37 -0.95c-0.78,-2.03 -3.07,-7.22 -5.03,-13.07 -4.54,1.56 -7.98,3.09 -10.84,4.51l-0.06 -0.26c-457.76,140.32 -820.7,501.05 -964.1,957.46l2.73 1.31c-2.54,4.9 -5.74,9.55 -9.17,19.49 5.85,1.96 11.05,4.26 13.07,5.03l0.95 0.37c7.04,2.81 13.16,6.42 19.32,10.8l7.35 6.52 6.08 7.19 4.85 7.77 3.68 8.27 2.53 8.69 1.4 9.02 0.26 9.24c-0.3,4.81 -0.85,9.28 -1.7,14.02 -1.16,4.78 -2.5,9.2 -4.19,13.81l-4.15 8.9c-2.55,4.43 -5.16,8.45 -8.19,12.56 -4.03,4.88 -8.1,9.22 -12.92,13.32 -2.73,2.09 -5.45,3.95 -8.39,5.76 -5.48,3.02 -10.78,5.32 -16.72,7.29 -4.9,1.38 -9.56,2.35 -14.61,3.01 -3.71,0.29 -7.24,0.39 -10.96,0.27 -3.61,-0.33 -6.95,-0.83 -10.5,-1.61 -3.41,-0.98 -6.45,-2.1 -9.69,-3.58l-5.91 -3.56c-2.95,-2.29 -5.4,-4.54 -7.96,-7.3l-4.64 -6.38c-2.34,-4.1 -4.76,-8.52 -5.99,-13.13 -2.24,-11.32 2.57,-22.53 11.41,-29.57 5.98,-4.2 12.59,-5.98 19.82,-4.65 9.59,2.42 17.13,9.85 18.75,19.86 0.94,10.49 -5.16,26.37 -13.53,32.29l24.07 -4.41c5.79,-1.61 10.78,-3.94 15.89,-7.13 3.91,-2.7 7.13,-5.48 10.39,-8.95 2.01,-2.42 3.69,-4.77 5.36,-7.44 1.59,-3.02 2.83,-5.86 3.96,-9.09 0.97,-3.6 1.57,-6.88 1.97,-10.59 0.14,-4.08 -0.01,-7.78 -0.46,-11.83 -0.78,-4.47 -1.8,-8.56 -3.14,-12.9l-3.83 -9.52 -2.9 -4.98 -3.21 -4.51 -3.55 -4.17 -3.88 -3.81 -4.15 -3.45 -4.39 -3.11 -9.39 -5.13 -10.04 -3.74 -10.49 -2.34 -10.76 -0.96 -10.85 0.43 -10.77 1.87 -10.5 3.31 -10.05 4.82 -4.78 3 -4.58 3.39 -4.36 3.77 -4.08 4.17 -3.79 4.57 -3.46 4.96 -3.09 5.34 -2.71 5.71 -2.3 6.08c-1.19,4.15 -2.59,8.17 -3.83,12.3 -0.92,4.01 -1.56,7.81 -2.02,11.9 -0.25,4.28 -0.27,8.36 -0.1,12.63 0.39,4.45 0.97,8.7 1.76,13.09 1.03,4.51 2.2,8.82 3.61,13.22 1.66,4.49 3.46,8.73 5.51,13.06 2.33,4.35 4.75,8.41 7.48,12.52l6.1 7.87c3.49,3.85 6.99,7.32 10.87,10.77l8.41 6.31c15.35,9.59 31.73,14.59 49.53,16.82 -8.11,14.21 -12.86,29.71 -15.26,45.88 -0.82,6.28 -1.27,12.53 -1.63,18.84 -0.23,9.28 0.01,18.19 0.78,27.43 0.81,6.72 1.84,13.21 3.16,19.84l3.37 12.79c2.09,6.3 4.36,12.3 6.98,18.4l5.95 11.68 7.01 11.15 8.06 10.56 9.11 9.92 10.16 9.24 11.2 8.51c15.5,10.26 23.71,12.98 24.63,15.23 -0.92,2.25 -9.13,4.96 -24.63,15.23l-11.2 8.5 -10.16 9.24 -9.11 9.93 -8.06 10.56 -7.01 11.15 -5.95 11.68c-2.62,6.1 -4.89,12.1 -6.98,18.4l-3.37 12.79c-1.32,6.63 -2.35,13.11 -3.16,19.83 -0.77,9.24 -1,18.15 -0.78,27.43 0.36,6.31 0.81,12.56 1.63,18.84 2.39,16.18 7.15,31.67 15.26,45.88 -17.8,2.24 -34.18,7.24 -49.53,16.83l-8.41 6.31c-3.88,3.45 -7.37,6.92 -10.87,10.77l-6.1 7.86c-2.73,4.11 -5.15,8.17 -7.48,12.52 -2.05,4.32 -3.85,8.57 -5.51,13.06 -1.41,4.41 -2.59,8.71 -3.61,13.23 -0.79,4.39 -1.37,8.64 -1.76,13.08 -0.17,4.27 -0.15,8.36 0.1,12.64 0.46,4.09 1.1,7.89 2.02,11.9 1.24,4.12 2.64,8.15 3.83,12.3l2.3 6.08 2.71 5.71 3.09 5.34 3.46 4.96 3.79 4.57 4.08 4.17 4.36 3.78 4.58 3.39 4.78 3 10.05 4.82 10.5 3.31 10.77 1.86 10.85 0.43 10.76 -0.96 10.49 -2.34 10.04 -3.74 9.39 -5.13 4.39 -3.11 4.15 -3.46 3.88 -3.81 3.55 -4.16 3.21 -4.51 2.9 -4.98 3.83 -9.52c1.33,-4.34 2.35,-8.43 3.14,-12.9 0.45,-4.05 0.6,-7.75 0.46,-11.83 -0.4,-3.7 -1,-6.99 -1.97,-10.59 -1.14,-3.23 -2.37,-6.06 -3.96,-9.09 -1.67,-2.67 -3.35,-5.03 -5.36,-7.44 -3.26,-3.47 -6.48,-6.25 -10.39,-8.94 -5.1,-3.19 -10.1,-5.52 -15.89,-7.13l-24.07 -4.41c8.37,5.93 14.47,21.8 13.53,32.29 -1.62,10.02 -9.17,17.45 -18.75,19.87 -7.23,1.33 -13.84,-0.46 -19.82,-4.65 -8.83,-7.05 -13.65,-18.25 -11.41,-29.57 1.23,-4.61 3.66,-9.01 5.99,-13.13l4.64 -6.38c2.56,-2.75 5.01,-5.01 7.96,-7.29l5.91 -3.56c3.24,-1.48 6.28,-2.6 9.69,-3.58 3.55,-0.77 6.88,-1.27 10.5,-1.6 3.72,-0.11 7.25,-0.02 10.96,0.27 5.04,0.65 9.71,1.63 14.61,3 5.93,1.98 11.23,4.27 16.72,7.3 2.94,1.81 5.66,3.67 8.39,5.76 4.82,4.1 8.88,8.45 12.92,13.32 3.02,4.1 5.64,8.13 8.19,12.55l4.15 8.9c1.69,4.62 3.03,9.04 4.19,13.83 0.86,4.74 1.41,9.2 1.7,14.01l-0.26 9.24 -1.4 9.01 -2.53 8.7 -3.68 8.27 -4.85 7.77 -6.08 7.18 -7.35 6.52c-6.16,4.39 -12.28,7.99 -19.32,10.8l-0.95 0.38c-2.03,0.77 -4.48,1.38 -10.33,3.35 1.43,5.2 2.44,9.34 3.5,13.16l-0.25 0.06c142.73,455.92 504.45,816.61 961.03,957.83l0.47 -2.01c3.51,1.92 7.75,4.05 14.23,6.29 1.96,-5.85 4.26,-11.05 5.03,-13.07l0.37 -0.95c2.81,-7.04 6.41,-13.16 10.8,-19.32l6.52 -7.35 7.18 -6.08 7.78 -4.86 8.27 -3.67 8.69 -2.53 9.01 -1.4 9.24 -0.26c4.81,0.29 9.28,0.85 14.01,1.7 4.78,1.16 9.21,2.5 13.82,4.19l8.9 4.14c4.43,2.55 8.45,5.17 12.56,8.19 4.88,4.03 9.22,8.1 13.32,12.91 2.1,2.74 3.95,5.46 5.76,8.4 3.02,5.48 5.32,10.78 7.29,16.72 1.38,4.9 2.35,9.56 3,14.61 0.3,3.71 0.39,7.24 0.27,10.95 -0.33,3.61 -0.83,6.95 -1.61,10.5 -0.99,3.41 -2.1,6.45 -3.58,9.69l-3.56 5.91c-2.29,2.96 -4.55,5.41 -7.3,7.96l-6.38 4.65c-4.11,2.34 -8.52,4.76 -13.13,5.98 -11.32,2.24 -22.53,-2.57 -29.57,-11.4 -4.2,-5.98 -5.98,-12.59 -4.65,-19.82 2.42,-9.59 9.85,-17.13 19.86,-18.76 10.49,-0.94 26.37,5.16 32.29,13.53l-4.41 -24.08c-1.61,-5.79 -3.94,-10.78 -7.13,-15.88 -2.69,-3.91 -5.47,-7.13 -8.94,-10.39 -2.42,-2.01 -4.77,-3.69 -7.44,-5.36 -3.02,-1.6 -5.86,-2.83 -9.09,-3.97 -3.6,-0.96 -6.88,-1.56 -10.59,-1.97 -4.08,-0.14 -7.78,0.02 -11.83,0.47 -4.47,0.78 -8.56,1.8 -12.9,3.14l-9.52 3.82 -4.98 2.9 -4.51 3.21 -4.17 3.56 -3.81 3.88 -3.45 4.15 -3.11 4.39 -5.13 9.39 -3.74 10.05 -2.34 10.49 -0.96 10.75 0.43 10.85 1.87 10.77 3.31 10.5 4.82 10.05 3 4.78 3.39 4.58 3.78 4.36 4.17 4.08 4.57 3.8 4.96 3.46 5.34 3.1 5.71 2.71 6.08 2.29c4.14,1.19 8.17,2.6 12.29,3.84 4.02,0.92 7.82,1.56 11.91,2.01 4.28,0.25 8.36,0.27 12.63,0.1 4.45,-0.39 8.69,-0.96 13.08,-1.76 4.52,-1.02 8.82,-2.2 13.23,-3.61 4.49,-1.66 8.73,-3.46 13.06,-5.51 4.36,-2.33 8.41,-4.75 12.52,-7.47l7.87 -6.11c3.85,-3.49 7.32,-6.98 10.77,-10.87l6.31 -8.4c9.59,-15.36 14.6,-31.74 16.83,-49.54 14.21,8.12 29.71,12.86 45.88,15.26 6.27,0.82 12.52,1.27 18.84,1.63 9.28,0.23 18.19,-0.01 27.43,-0.78 6.72,-0.81 13.21,-1.84 19.84,-3.16l12.79 -3.36c6.3,-2.09 12.3,-4.36 18.4,-6.98l11.69 -5.95 11.15 -7 10.56 -8.06 9.92 -9.11 9.24 -10.17 8.5 -11.19c10.27,-15.5 12.99,-23.71 15.24,-24.63 2.25,0.93 4.96,9.13 15.23,24.63l8.5 11.19 9.24 10.17 9.93 9.11 10.56 8.06 11.15 7 11.69 5.95c6.1,2.62 12.1,4.89 18.4,6.98l12.8 3.36c6.63,1.32 13.11,2.35 19.83,3.16 9.24,0.77 18.15,1 27.43,0.78 6.31,-0.36 12.56,-0.81 18.84,-1.63 16.18,-2.39 31.67,-7.14 45.88,-15.26 2.24,17.8 7.24,34.18 16.83,49.54l6.31 8.4c3.46,3.88 6.92,7.37 10.77,10.87l7.87 6.11c4.11,2.73 8.17,5.14 12.52,7.47 4.32,2.05 8.57,3.85 13.06,5.51 4.41,1.42 8.71,2.59 13.23,3.61 4.39,0.79 8.64,1.37 13.08,1.76 4.27,0.18 8.36,0.15 12.64,-0.1 4.09,-0.46 7.89,-1.1 11.9,-2.01 4.12,-1.24 8.15,-2.64 12.3,-3.84l6.08 -2.29 5.71 -2.71 5.34 -3.1 4.96 -3.46 4.57 -3.8 4.17 -4.08 3.78 -4.36 3.39 -4.58 3 -4.78 4.82 -10.05 3.3 -10.5 1.87 -10.77 0.43 -10.85 -0.96 -10.75 -2.34 -10.49 -3.74 -10.05 -5.13 -9.39 -3.11 -4.39 -3.46 -4.15 -3.81 -3.88 -4.16 -3.56 -4.51 -3.21 -4.98 -2.9 -9.53 -3.82c-4.34,-1.34 -8.43,-2.36 -12.9,-3.14 -4.05,-0.45 -7.75,-0.61 -11.83,-0.47 -3.7,0.41 -6.98,1.01 -10.58,1.97 -3.23,1.14 -6.07,2.37 -9.09,3.97 -2.67,1.67 -5.03,3.35 -7.44,5.36 -3.47,3.25 -6.25,6.48 -8.94,10.39 -3.19,5.1 -5.52,10.1 -7.13,15.88l-4.41 24.08c5.92,-8.37 21.8,-14.47 32.29,-13.53 10.01,1.63 17.45,9.17 19.87,18.76 1.33,7.22 -0.46,13.84 -4.66,19.82 -7.04,8.83 -18.25,13.65 -29.57,11.4 -4.61,-1.23 -9.01,-3.65 -13.13,-5.98l-6.38 -4.65c-2.75,-2.56 -5.01,-5 -7.29,-7.96l-3.56 -5.91c-1.48,-3.23 -2.59,-6.28 -3.58,-9.69 -0.77,-3.54 -1.28,-6.88 -1.61,-10.5 -0.11,-3.71 -0.02,-7.25 0.27,-10.95 0.65,-5.04 1.63,-9.71 3,-14.61 1.97,-5.93 4.27,-11.24 7.3,-16.72 1.81,-2.94 3.66,-5.66 5.76,-8.4 4.1,-4.81 8.45,-8.87 13.32,-12.91 4.11,-3.02 8.13,-5.65 12.56,-8.19l8.9 -4.14c4.61,-1.69 9.04,-3.03 13.83,-4.19 4.73,-0.86 9.2,-1.41 14.01,-1.7l9.24 0.26 9.01 1.4 8.7 2.53 8.27 3.67 7.77 4.86 7.18 6.08 6.52 7.35c4.38,6.16 7.99,12.28 10.8,19.32l0.37 0.95c0.78,2.03 1.39,4.48 3.36,10.33 6.04,-1.66 10.64,-2.74 14.98,-4.01l0.2 0.42c454.5,-142.98 814,-503.7 955.37,-958.88l-0.72 -0.16c0.78,-2.95 1.6,-6.17 2.64,-9.95 -5.85,-1.97 -8.31,-2.59 -10.33,-3.35l-0.95 -0.38c-7.04,-2.81 -13.16,-6.41 -19.32,-10.8l-7.35 -6.52 -6.08 -7.19 -4.86 -7.77 -3.68 -8.28 -2.52 -8.69 -1.4 -9.02 -0.26 -9.24c0.29,-4.81 0.85,-9.28 1.7,-14.01 1.16,-4.78 2.5,-9.21 4.19,-13.83l4.14 -8.89c2.55,-4.43 5.17,-8.45 8.19,-12.55 4.03,-4.88 8.1,-9.23 12.91,-13.33 2.73,-2.1 5.47,-3.95 8.4,-5.76 5.48,-3.02 10.78,-5.32 16.72,-7.29 4.9,-1.38 9.56,-2.35 14.6,-3.01 3.72,-0.29 7.24,-0.38 10.96,-0.27 3.61,0.33 6.95,0.83 10.49,1.61 3.42,0.98 6.46,2.1 9.69,3.58l5.91 3.56c2.96,2.29 5.41,4.54 7.96,7.3l4.65 6.38c2.34,4.1 4.75,8.51 5.98,13.12 2.24,11.32 -2.57,22.53 -11.4,29.57 -5.98,4.2 -12.59,5.98 -19.82,4.66 -9.59,-2.43 -17.14,-9.86 -18.76,-19.87 -0.94,-10.49 5.16,-26.36 13.53,-32.29l-24.08 4.4c-5.79,1.62 -10.78,3.95 -15.89,7.13 -3.91,2.7 -7.13,5.48 -10.38,8.95 -2.01,2.42 -3.7,4.77 -5.37,7.44 -1.59,3.02 -2.82,5.86 -3.96,9.09 -0.96,3.6 -1.57,6.88 -1.97,10.59 -0.14,4.08 0.02,7.78 0.46,11.83 0.78,4.47 1.8,8.56 3.14,12.9l3.83 9.53 2.9 4.97 3.21 4.51 3.56 4.16 3.88 3.81 4.15 3.46 4.39 3.1 9.39 5.13 10.04 3.74 10.49 2.34 10.76 0.97 10.85 -0.43 10.77 -1.87 10.5 -3.31 10.05 -4.82 4.78 -3 4.58 -3.39 4.36 -3.77 4.08 -4.17 3.8 -4.57 3.46 -4.96 3.1 -5.34 2.71 -5.7 2.29 -6.08c1.2,-4.15 2.6,-8.17 3.84,-12.3 0.92,-4.01 1.56,-7.81 2.01,-11.9 0.26,-4.29 0.27,-8.37 0.11,-12.64 -0.39,-4.44 -0.96,-8.69 -1.76,-13.08 -1.02,-4.52 -2.2,-8.82 -3.61,-13.22 -1.66,-4.5 -3.47,-8.73 -5.52,-13.06 -2.33,-4.36 -4.75,-8.41 -7.47,-12.52l-6.11 -7.88c-3.49,-3.85 -6.98,-7.31 -10.87,-10.77l-8.4 -6.31c-15.36,-9.59 -31.74,-14.59 -49.54,-16.82 8.12,-14.21 12.86,-29.71 15.27,-45.88 0.81,-6.28 1.26,-12.53 1.62,-18.84 0.23,-9.28 -0.01,-18.19 -0.78,-27.43 -0.81,-6.73 -1.84,-13.21 -3.16,-19.85l-3.36 -12.79c-2.09,-6.3 -4.36,-12.3 -6.98,-18.4l-5.94 -11.68 -7.01 -11.15 -8.06 -10.56 -9.11 -9.92 -10.16 -9.24 -11.19 -8.51c-15.51,-10.26 -23.71,-12.97 -24.63,-15.23 0.93,-2.26 9.13,-4.98 24.63,-15.24l11.19 -8.5 10.17 -9.24 9.11 -9.93 8.06 -10.56 7.01 -11.15 5.94 -11.68c2.62,-6.11 4.89,-12.1 6.98,-18.4l3.36 -12.8c1.32,-6.63 2.36,-13.11 3.16,-19.84 0.77,-9.23 1,-18.15 0.78,-27.42 -0.36,-6.31 -0.81,-12.56 -1.62,-18.84 -2.4,-16.18 -7.15,-31.67 -15.26,-45.89 17.78,-2.23 34.17,-7.24 49.53,-16.83l8.4 -6.31c3.88,-3.45 7.37,-6.92 10.87,-10.77l6.11 -7.86c2.73,-4.12 5.14,-8.17 7.47,-12.52 2.05,-4.33 3.85,-8.57 5.51,-13.06 1.42,-4.41 2.59,-8.71 3.61,-13.23 0.79,-4.39 1.37,-8.64 1.76,-13.08 0.18,-4.27 0.15,-8.36 -0.1,-12.64 -0.46,-4.09 -1.1,-7.88 -2.01,-11.91 -1.23,-4.12 -2.64,-8.14 -3.84,-12.29l-2.29 -6.08 -2.71 -5.71 -3.1 -5.34 -3.46 -4.96 -3.8 -4.57 -4.08 -4.17 -4.36 -3.78 -4.58 -3.39 -4.78 -2.99 -10.05 -4.82 -10.5 -3.3 -10.78 -1.87 -10.85 -0.43 -10.77 0.95 -10.48 2.35 -10.05 3.74 -9.39 5.13 -4.38 3.1 -4.15 3.46 -3.88 3.81 -3.56 4.17 -3.21 4.51 -2.9 4.98 -3.82 9.52c-1.34,4.34 -2.36,8.43 -3.15,12.9 -0.44,4.05 -0.6,7.75 -0.46,11.83 0.41,3.7 1.01,6.99 1.97,10.59 1.14,3.23 2.37,6.06 3.97,9.09 1.66,2.67 3.35,5.03 5.36,7.44 3.25,3.47 6.48,6.25 10.39,8.95 5.1,3.18 10.1,5.52 15.88,7.12l24.08 4.42c-8.38,-5.93 -14.48,-21.8 -13.53,-32.29 1.62,-10.02 9.16,-17.44 18.75,-19.87 7.22,-1.33 13.84,0.45 19.82,4.65 8.83,7.05 13.65,18.25 11.4,29.57 -1.23,4.61 -3.65,9.01 -5.98,13.13l-4.65 6.38c-2.56,2.76 -5,5.01 -7.97,7.3l-5.9 3.56c-3.24,1.48 -6.28,2.6 -9.69,3.57 -3.54,0.78 -6.88,1.28 -10.5,1.61 -3.71,0.11 -7.25,0.02 -10.95,-0.27 -5.05,-0.65 -9.72,-1.63 -14.61,-3 -5.93,-1.98 -11.23,-4.27 -16.72,-7.3 -2.95,-1.81 -5.66,-3.67 -8.4,-5.76 -4.81,-4.1 -8.87,-8.45 -12.91,-13.32 -3.02,-4.1 -5.65,-8.13 -8.19,-12.55l-4.15 -8.9c-1.68,-4.62 -3.02,-9.04 -4.19,-13.82 -0.85,-4.74 -1.41,-9.21 -1.7,-14.01l0.26 -9.24 1.4 -9.01 2.52 -8.69 3.68 -8.28 4.86 -7.78 6.08 -7.18 7.36 -6.52c6.15,-4.38 12.27,-7.98 19.31,-10.79l0.95 -0.38c2.03,-0.77 7.23,-3.07 13.07,-5.03 -2.15,-6.24 -4.22,-10.4 -6.08,-13.85l1.87 -0.9c-140.01,-452.55 -495.58,-811.92 -945.83,-957.17z"></path> </g> </svg>