<?xml version="1.0" encoding="UTF-8"?> <svg xmlns="http://www.w3.org/2000/svg"   xmlSpace="preserve" width="495.804mm" height="17.196mm" version="1.1" style="shape-rendering:geometricPrecision; text-rendering:geometricPrecision; image-rendering:optimizeQuality; fill-rule:evenodd; clip-rule:evenodd" viewBox="0 0 19857.1 688.7"> <defs>  </defs> <g id="Слой_x0020_1"> <metadata id="CorelCorpID_0Corel-Layer"></metadata> <g id="_2423845095408"> <path fill="#aa915d" d="M1240.61 234.15c-9.4,46.71 -33.48,83.28 -72.96,109.67 41.19,26.36 63.45,64.29 73.21,110.56 5.77,-35.17 28.02,-82.16 72.59,-110.63 -39.52,-26.51 -62.69,-63.75 -72.84,-109.6zm196.11 209.12c-1.34,3.98 -2.81,7.94 -4.01,11.99 -7.79,26.38 3.25,51.11 27.11,58.14 36.84,10.86 69.82,-13.79 72.17,-53.7 2.08,-35.52 -19.35,-60.85 -48.97,-76.37 -28.8,-15.09 -61.29,-18.23 -93.31,-11.54 -40.99,8.57 -69.52,33.64 -86.84,71.67 -9.41,20.68 -10.72,42.08 -6.46,64.12 5.09,26.26 13.57,51.21 31.78,71.33 32.87,36.31 73.31,53.82 123.22,50.88 28.83,-1.71 56.41,-7.59 81.68,-19.97 75.55,-37.01 150.1,-76.06 225.28,-113.85 62.61,-31.46 124.79,-63.92 188.57,-92.84 49.54,-22.46 101.25,-40.12 152.05,-59.94 -7.44,-2.8 -15.58,-6.1 -23.87,-8.93 -68.6,-23.41 -135.65,-50.73 -200.46,-83.03 -68.52,-34.15 -135.89,-70.58 -204,-105.58 -42.71,-21.96 -85.68,-43.45 -128.81,-64.57 -27.47,-13.45 -56.76,-22.2 -87.22,-23.96 -49.91,-2.89 -92.75,12.94 -126.33,51.68 -20.86,24.07 -30.45,52.49 -33.77,83.01 -5.35,49.23 26.97,95.09 65.99,114.21 34.41,16.86 69.73,13.42 105.5,4.76 36.35,-8.8 60.85,-42.26 66.33,-74.15 3.92,-22.78 -17.07,-58.85 -46.99,-64.69 -33.21,-6.48 -62.93,24.44 -53.74,52.46 2.27,6.9 2.97,14.33 4.35,21.37 -4.38,1.07 -8.15,2.05 -11.96,2.91 -17.58,3.95 -36.55,-4.78 -44.33,-20.91 -14.75,-30.59 -8.91,-69.07 17.01,-92.26 30.08,-26.93 66.85,-33.63 106.34,-24.42 25.26,5.89 45.04,20.61 61.13,39.89 20.49,24.56 30.49,52.89 25.42,85.42 -1.03,6.6 -1.42,13.29 -2.23,21.27 29.45,-24.57 60.55,-41.57 100.15,-36.21 -1.06,17.86 -4.34,34.9 -14.2,49.72 -9.81,14.75 -20.71,28.77 -31.96,44.26 9.01,-0.99 17.78,-2.36 26.61,-2.88 40.38,-2.35 80.75,-5.58 121.16,-6.2 21.74,-0.33 43.74,2.82 65.29,6.42 28.6,4.78 55.49,15 80.38,30.96 -6.11,3.63 -11.39,7.38 -17.15,10.08 -42.77,20.02 -87.7,28.98 -134.94,26.45 -31.77,-1.71 -63.57,-2.83 -95.34,-4.49 -16.19,-0.83 -32.36,-2.28 -50.72,-3.61 29.65,26.04 50.26,55.02 50.73,94.72 -19.11,2.48 -36.86,0.43 -53.28,-7.89 -15.94,-8.09 -31.3,-17.34 -44.66,-24.82 0,13.1 0.5,28.3 -0.11,43.45 -1.03,25.15 -12.47,46.05 -29.24,63.93 -30.11,32.11 -66.8,43.06 -110.47,35.66 -44.56,-7.56 -82.1,-42.81 -76.71,-94.01 3.77,-35.78 28.08,-52.82 63.82,-39.95zm-392.08 -197.68c1.33,-4.11 2.63,-8.1 3.9,-12.1 11.18,-35.08 -11.56,-63.34 -43.58,-62.56 -33.63,0.81 -55.21,28.6 -55.51,57.58 -0.36,33.46 18.11,58.76 46.77,74.56 24.83,13.69 52.68,15.47 80.95,14.05 31.68,-1.6 57.26,-14.51 78.28,-37.46 17.84,-19.48 30.74,-41.78 31.47,-68.64 1.28,-47.9 -13.91,-89.02 -52.13,-120.44 -24.41,-20.07 -52.41,-31.14 -83.16,-33.39 -38.61,-2.82 -75.81,5.95 -110.19,23.4 -82.98,42.1 -165.26,85.58 -248.2,127.76 -45.28,23.03 -90.73,45.91 -137.2,66.4 -46.26,20.41 -93.87,37.82 -140.93,56.41 -10.97,4.33 -22.15,8.11 -34.42,12.59 14.42,5.27 27.3,9.48 39.79,14.65 64.9,26.85 130.56,52.06 194.26,81.51 53.84,24.9 105.14,55.21 157.95,82.38 53.21,27.38 106.86,53.91 160.37,80.7 39.69,19.86 81.32,31.41 126.07,26.16 29.76,-3.5 56.34,-15.11 79.14,-35.05 27.17,-23.76 41.33,-53.78 47.14,-89.2 7.99,-48.67 -11.82,-85.18 -48.53,-113.38 -29.84,-22.92 -64.99,-25.8 -101.55,-19.76 -37.4,6.16 -63.97,24.52 -80.69,59.65 -15.22,31.98 5.15,72.33 31,80.83 18.7,6.15 36.58,6.02 51.42,-7.65 12.86,-11.85 18,-27.22 12.43,-44.91 -1.7,-5.4 -2.98,-10.93 -4.44,-16.34 20.03,-8.91 38.43,-5.15 52.51,10.08 11.18,12.07 12.62,28.17 12.1,42.18 -0.93,24.96 -11.51,47.92 -32.59,62.84 -41.69,29.49 -107.82,31.1 -150.14,-11.12 -26,-25.93 -39.38,-56.42 -34.99,-93.65 0.85,-7.23 1.21,-14.53 1.9,-23.2 -29.62,24.51 -60.86,41.06 -98.92,36.6 -0.61,-40.31 20.89,-69.02 49.68,-95.04 -17.21,1.36 -32.2,3 -47.24,3.66 -39.49,1.72 -78.98,3.76 -118.48,4.29 -47.14,0.64 -91.15,-11.57 -132.29,-36 5.13,-3.33 9.76,-6.65 14.69,-9.43 3.06,-1.73 6.68,-2.44 9.89,-3.95 53.16,-25.14 109.54,-26.25 166.59,-22.43 31.64,2.12 63.28,4.33 94.94,6.39 2.58,0.17 5.2,-0.49 9.22,-0.92 -27.8,-25.83 -46.53,-54.51 -47.32,-92.27 18.21,-2.6 36.3,-1.12 52.74,6.78 16.24,7.81 31.33,18.04 46.63,27.04 0,-0.66 0.06,-2.46 -0.01,-4.25 -0.59,-16.66 -4.19,-33.86 -1.21,-49.85 6.76,-36.27 29.67,-62.06 61.22,-80.31 28.13,-16.28 58.07,-16.62 88.44,-8.42 18.19,4.9 35.32,13.02 47.46,27.91 15.73,19.3 22.15,41.93 18.42,66.76 -2.35,15.66 -8.06,29.91 -23.17,37.84 -12.93,6.8 -26.32,4.37 -40.5,0.69zm1275.01 -245.59c14.49,2.91 29.28,4.81 43.41,8.94 29.24,8.55 53.28,25.06 72.96,48.68 15.54,18.66 28.76,38.4 36.08,61.51 4.07,12.84 7.8,26.13 9.03,39.47 5.86,63.18 -14.05,118 -55.87,165.27 -2.12,2.4 -3.62,5.34 -5.72,7.76 -11.59,13.37 -11.06,12.84 0.72,25.91 30.45,33.77 52.43,71.79 59.18,117.8 10.59,72.05 -12.42,131.42 -67.43,177.89 -21.49,18.16 -47.72,27.81 -76.38,30.93 -46.02,5 -91.13,-0.36 -136.23,-8.69 -46,-8.49 -92.31,-15.38 -138.16,-24.57 -34.43,-6.89 -69.17,-8.48 -103.61,-5.63 -31.48,2.61 -62.7,9.85 -93.69,16.64 -19.01,4.15 -37.38,11.28 -57.14,17.43 6.66,-24.39 16.53,-46.82 33.81,-65.03 18.39,-19.39 40.84,-32.24 67.72,-36.18 9.21,-1.34 18.52,-3.46 27.73,-3.21 33.97,0.93 68.02,1.63 101.85,4.56 20.03,1.74 39.73,7.5 59.57,11.44 -1.13,1.31 -2.27,2.62 -3.41,3.93 -7.12,-9.24 -13.56,-19.12 -21.51,-27.59 -20.53,-21.87 -33.37,-46.37 -30.71,-77.37 0.54,-6.41 1.08,-9.79 9.46,-9.44 43.03,1.84 72.16,24.41 92.9,60.21 2.5,4.31 4.58,8.87 6.92,13.28 0.3,0.55 0.99,0.88 1.24,1.1 3.2,-15.75 5.69,-31.83 9.82,-47.49 6.98,-26.44 23.93,-45.8 45.59,-61.83 17.52,-12.98 37.42,-21.64 58.41,-21.19 44.53,0.93 72.65,16.06 87.28,62.83 8.25,26.41 -1.51,62.58 -21.89,71.55 -9.33,4.11 -20.29,4.51 -31.35,6.76 0.78,-10.92 1.87,-18.74 1.78,-26.54 -0.22,-18.04 -12.54,-41.28 -34.67,-44.11 -11.62,-1.5 -20.95,3.54 -28.67,11.06 -32.75,31.88 -26.25,84.11 12.09,106.13 52.93,30.39 113.87,15.64 149.38,-30.57 29.57,-38.47 37.5,-89.4 11.47,-136.09 -24.87,-44.62 -63.14,-67.63 -112.51,-73.97 -18.53,-2.37 -37.54,-5.62 -55.89,-3.86 -26.86,2.57 -53.53,8.38 -79.91,14.45 -50.36,11.59 -97.4,32.2 -143.6,54.9 -73.28,36.03 -146.81,71.52 -219.89,107.91 -47.1,23.46 -93.21,48.89 -140.46,72.02 -41.04,20.09 -82.6,39.28 -124.86,56.62 -17.48,7.18 -37.27,9.03 -56.17,12.41 -34.38,6.14 -68.05,1.08 -101.03,-8.76 -26.85,-8.01 -51.74,-19.58 -73.18,-38.75 -31.03,-27.74 -49.4,-62.21 -59.46,-101.81 -0.88,-3.46 -0.46,-7.22 -1.11,-10.76 -0.64,-3.43 -1.87,-6.75 -3.16,-11.21 -4.91,36.53 -16.8,69.49 -38.53,98.12 -20.35,26.81 -46.83,45.94 -78.46,57.95 -33.99,12.91 -69.11,19.51 -105.36,17.29 -30.39,-1.87 -60.03,-7.94 -87.9,-21.3 -62.23,-29.84 -125.02,-58.53 -186.87,-89.13 -73.17,-36.2 -145.11,-74.89 -218.48,-110.66 -58.02,-28.28 -115.38,-58.66 -177.7,-77 -31.75,-9.35 -63.57,-18.27 -97.08,-21.21 -39.83,-3.5 -78.19,0.13 -114.71,15.94 -42.5,18.4 -69.68,51.16 -78.17,96.59 -12.47,66.63 26.88,129.83 95.54,144.75 31.34,6.8 64.19,1.23 89.14,-21.66 34.66,-31.78 27.32,-81.92 -8.41,-105.12 -19.01,-12.35 -40.72,-1.13 -48.86,20.2 -4.99,13.05 -4.39,28.25 -6.45,43.65 -28.09,7.06 -45.07,-11.83 -51.16,-39.57 -9.85,-44.84 24.36,-93.65 72.05,-97.88 41.9,-3.72 72.96,13.11 99.28,43.55 18.21,21.06 26.14,45.45 27.59,72.65 0.24,4.45 1.84,8.84 2.39,11.33 10.34,-13.69 20.51,-29.26 32.79,-42.92 19.02,-21.15 44.18,-29.72 72.29,-29.47 2.05,0.02 5.55,4.29 5.84,6.88 3.42,28.98 -6.61,53.46 -25.8,74.81 -9.18,10.23 -17.93,20.84 -23.07,26.83 15.05,-2.72 36.77,-6.98 58.61,-10.47 12.72,-2.03 25.68,-4.18 38.47,-3.92 29.97,0.61 60.03,1.39 89.8,4.49 21.69,2.26 39.99,13.44 56.49,28.33 21.52,19.41 32.67,44 41.02,70.73 -28.46,-8.11 -56.16,-16.96 -84.35,-23.83 -43.11,-10.5 -87.37,-13.23 -131.24,-9.4 -35.42,3.1 -70.31,12.02 -105.48,18.16 -31.66,5.53 -63.24,11.95 -95.11,15.82 -30.71,3.73 -61.76,6.37 -92.67,6.47 -42.03,0.14 -78.75,-14.5 -109.53,-44.49 -27.09,-26.4 -43.77,-58 -53.62,-93.86 -1.09,-3.96 -1.83,-8.01 -2.72,-12.02 0,-18.94 0,-37.88 0,-56.82 3.79,-13.5 6.58,-27.4 11.58,-40.45 12.68,-33.09 31.52,-62.43 56.34,-87.95 2.05,-2.11 2.92,-8.07 1.44,-10.41 -4.01,-6.29 -9.76,-11.45 -14.52,-17.32 -16.01,-19.73 -31.07,-40.18 -39.49,-64.46 -5.75,-16.57 -10.27,-33.57 -15.35,-50.37 0,-18.21 0,-36.42 0,-54.63 0.57,-0.4 1.59,-0.75 1.63,-1.21 2.21,-24.28 11.32,-46.21 23.77,-66.72 24.09,-39.67 56.52,-68.79 103.44,-78.6 10.95,-2.29 21.96,-4.31 32.95,-6.44 8.02,0 16.03,0 24.05,0 3.66,0.72 7.31,1.86 11.01,2.12 14.77,1.03 29.67,0.92 44.32,2.84 20.51,2.69 40.85,6.74 61.25,10.34 34.8,6.15 69.5,12.92 104.4,18.43 26.16,4.14 52.5,7.43 78.89,9.66 12.82,1.08 25.92,-1.55 38.91,-1.79 35.06,-0.64 68.72,-8.92 102.14,-18.34 16.2,-4.57 32.07,-10.28 49.2,-15.83 -3.28,8.3 -6.33,15.44 -8.94,22.74 -10.77,30.07 -30.43,52.82 -58.39,67.62 -18.85,9.98 -39.65,12.62 -61.12,14.28 -35.9,2.78 -71.31,1.66 -106.63,-4.39 -18.38,-3.15 -36.61,-7.11 -54.58,-10.64 9.68,10.22 19.68,20.43 29.27,31.01 18.03,19.89 26.6,43.09 23.93,70.14 -0.62,6.28 -2.72,10.04 -9.96,9.45 -17.67,-1.45 -34.38,-5.99 -49.73,-14.96 -24.54,-14.35 -39.27,-36.86 -50.97,-62.24 -2.26,14.54 -3.43,28.8 -6.82,42.51 -5.86,23.62 -19.05,42.92 -37.17,59.34 -27.69,25.07 -59.2,35.17 -96.15,27.68 -45.43,-9.2 -73.94,-61.98 -59.71,-103.56 7.26,-21.19 25.36,-35.64 43.12,-34.05 6.09,0.55 11.27,2.38 8.87,9.85 -3.98,12.4 -2.31,24.54 3,35.56 10.65,22.05 30.75,32.4 50.84,19.58 27.19,-17.35 39.87,-58.47 19.2,-89.69 -17.93,-27.07 -45.67,-36.6 -75.69,-38.28 -42.44,-2.38 -76.8,17.61 -100.19,50.76 -19.76,28 -29.29,61.43 -21.29,97.06 10.16,45.2 37.3,77.47 78.85,95.94 33.29,14.8 68.93,18.87 105.88,16.42 35.8,-2.38 69.76,-11.52 103.63,-21.39 57.49,-16.77 110.88,-43.71 164.25,-70.16 79.59,-39.43 158.2,-80.81 237.59,-120.65 46.68,-23.43 93.95,-45.72 141.18,-68.03 20.95,-9.9 42.12,-19.53 63.84,-27.49 15.12,-5.53 31.36,-8.01 47.1,-11.85 21.86,0 43.73,0 65.59,0 11.9,2.92 23.87,5.6 35.69,8.81 43.57,11.84 79.93,34.08 105.71,72.23 18.74,27.73 29.82,58.18 34.63,92.4 4.72,-25.92 10.41,-49.91 22.58,-72.21 22.52,-41.3 53.98,-71.83 99.56,-86.09 17.78,-5.56 35.87,-10.12 53.83,-15.15 21.86,0 43.73,0 65.59,0 14.33,3.56 29.42,5.33 42.85,11.03 47.31,20.04 94.55,40.38 140.87,62.6 46.45,22.28 91.54,47.38 137.62,70.47 69.17,34.66 138.67,68.67 208.07,102.87 50.64,24.96 102.46,46.86 157.53,60.36 41.6,10.2 83.02,16.99 126.35,9.98 40.23,-6.5 75.03,-21.54 101.36,-52.89 16.06,-19.12 27.68,-41.41 29.5,-66.62 2.9,-40.21 -8.19,-76.22 -38.58,-104.39 -34.89,-32.32 -73.97,-42.61 -120.54,-26.26 -44.48,15.61 -68.34,67.08 -32.97,109.32 14.17,16.92 32.1,22.19 48.84,9.34 16.32,-12.54 21.03,-30.4 18.7,-50.09 -1.38,-11.65 -0.03,-14.85 11.15,-12.97 8.37,1.41 17.85,4.4 23.89,9.91 17.09,15.6 21.71,36.05 17.76,58.63 -7.61,43.51 -36.06,66.23 -72.6,70.67 -47.62,5.78 -88.52,-22.64 -111.31,-61.55 -12.59,-21.5 -14.78,-45.53 -17.55,-68.97 -7.26,11.77 -13.52,24.29 -21.96,35.11 -19.78,25.38 -46.58,38.6 -78.58,40.7 -3.35,0.22 -10.11,-4.11 -10.01,-6.05 0.76,-14.56 0.3,-29.95 5.05,-43.39 9.07,-25.64 29.05,-43.81 51.13,-61.55 -3.05,0.21 -4.48,0.05 -5.74,0.43 -35.55,10.54 -72.01,15.6 -108.92,16.71 -18.03,0.54 -36.14,-1.49 -54.22,-1.92 -41.83,-0.99 -75.71,-17.43 -100.11,-51.68 -10.71,-15.04 -18.46,-31.65 -21.86,-52.02 6.1,2.12 10.59,3.98 15.25,5.26 26.74,7.38 53.29,15.68 80.35,21.59 19.17,4.18 39,5.78 58.63,7.26 18.01,1.35 36.29,2.52 54.22,1 21.28,-1.81 42.32,-6.48 63.43,-10.12 34.47,-5.95 68.82,-12.74 103.41,-17.92 33.63,-5.03 67.51,-8.47 101.27,-12.7 3.71,-0.46 7.36,-1.42 11.03,-2.15 8.02,0 16.03,0 24.05,0z"></path> <path fill="#aa915d" d="M3722.74 234.15c-9.4,46.71 -33.48,83.28 -72.95,109.67 41.19,26.36 63.44,64.29 73.21,110.56 5.77,-35.17 28.02,-82.16 72.59,-110.63 -39.52,-26.51 -62.69,-63.75 -72.84,-109.6zm196.11 209.12c-1.34,3.98 -2.81,7.94 -4.01,11.99 -7.79,26.38 3.24,51.11 27.11,58.14 36.83,10.86 69.83,-13.79 72.17,-53.7 2.08,-35.52 -19.34,-60.85 -48.97,-76.37 -28.8,-15.09 -61.3,-18.23 -93.31,-11.54 -40.98,8.57 -69.52,33.64 -86.83,71.67 -9.42,20.68 -10.73,42.08 -6.47,64.12 5.09,26.26 13.56,51.21 31.78,71.33 32.87,36.31 73.31,53.82 123.23,50.88 28.82,-1.71 56.41,-7.59 81.68,-19.97 75.54,-37.01 150.1,-76.06 225.27,-113.85 62.61,-31.46 124.8,-63.92 188.56,-92.84 49.54,-22.46 101.26,-40.12 152.05,-59.94 -7.44,-2.8 -15.58,-6.1 -23.88,-8.93 -68.59,-23.41 -135.64,-50.73 -200.45,-83.03 -68.52,-34.15 -135.89,-70.58 -203.99,-105.58 -42.72,-21.96 -85.68,-43.45 -128.83,-64.57 -27.47,-13.45 -56.75,-22.2 -87.22,-23.96 -49.91,-2.89 -92.75,12.94 -126.33,51.68 -20.86,24.07 -30.45,52.49 -33.77,83.01 -5.35,49.23 26.97,95.09 65.99,114.21 34.41,16.86 69.74,13.42 105.5,4.76 36.36,-8.8 60.85,-42.26 66.34,-74.15 3.92,-22.78 -17.07,-58.85 -46.99,-64.69 -33.21,-6.48 -62.93,24.44 -53.74,52.46 2.27,6.9 2.96,14.33 4.35,21.37 -4.38,1.07 -8.15,2.05 -11.96,2.91 -17.59,3.95 -36.55,-4.78 -44.34,-20.91 -14.75,-30.59 -8.9,-69.07 17.01,-92.26 30.09,-26.93 66.86,-33.63 106.35,-24.42 25.27,5.89 45.04,20.61 61.14,39.89 20.49,24.56 30.49,52.89 25.42,85.42 -1.03,6.6 -1.42,13.29 -2.24,21.27 29.45,-24.57 60.56,-41.57 100.15,-36.21 -1.06,17.86 -4.33,34.9 -14.19,49.72 -9.81,14.75 -20.71,28.77 -31.97,44.26 9.01,-0.99 17.78,-2.36 26.61,-2.88 40.38,-2.35 80.75,-5.58 121.16,-6.2 21.74,-0.33 43.74,2.82 65.29,6.42 28.6,4.78 55.49,15 80.38,30.96 -6.11,3.63 -11.39,7.38 -17.15,10.08 -42.75,20.02 -87.69,28.98 -134.94,26.45 -31.77,-1.71 -63.57,-2.83 -95.34,-4.49 -16.2,-0.83 -32.36,-2.28 -50.72,-3.61 29.65,26.04 50.27,55.02 50.73,94.72 -19.11,2.48 -36.86,0.43 -53.28,-7.89 -15.95,-8.09 -31.31,-17.34 -44.66,-24.82 0,13.1 0.5,28.3 -0.11,43.45 -1.03,25.15 -12.47,46.05 -29.24,63.93 -30.1,32.11 -66.81,43.06 -110.48,35.66 -44.55,-7.56 -82.1,-42.81 -76.7,-94.01 3.76,-35.78 28.07,-52.82 63.82,-39.95zm-392.07 -197.68c1.33,-4.11 2.62,-8.1 3.89,-12.1 11.19,-35.08 -11.55,-63.34 -43.57,-62.56 -33.63,0.81 -55.21,28.6 -55.51,57.58 -0.35,33.46 18.11,58.76 46.77,74.56 24.83,13.69 52.69,15.47 80.95,14.05 31.68,-1.6 57.26,-14.51 78.29,-37.46 17.84,-19.48 30.74,-41.78 31.46,-68.64 1.28,-47.9 -13.9,-89.02 -52.12,-120.44 -24.41,-20.07 -52.41,-31.14 -83.17,-33.39 -38.61,-2.82 -75.82,5.95 -110.19,23.4 -82.98,42.1 -165.26,85.58 -248.2,127.76 -45.28,23.03 -90.74,45.91 -137.2,66.4 -46.27,20.41 -93.86,37.82 -140.92,56.41 -10.97,4.33 -22.15,8.11 -34.43,12.59 14.43,5.27 27.31,9.48 39.8,14.65 64.9,26.85 130.56,52.06 194.26,81.51 53.84,24.9 105.13,55.21 157.95,82.38 53.21,27.38 106.86,53.91 160.37,80.7 39.7,19.86 81.33,31.41 126.08,26.16 29.75,-3.5 56.34,-15.11 79.14,-35.05 27.17,-23.76 41.32,-53.78 47.14,-89.2 7.98,-48.67 -11.82,-85.18 -48.53,-113.38 -29.84,-22.92 -64.99,-25.8 -101.54,-19.76 -37.4,6.16 -63.98,24.52 -80.69,59.65 -15.22,31.98 5.14,72.33 30.99,80.83 18.7,6.15 36.58,6.02 51.42,-7.65 12.85,-11.85 17.99,-27.22 12.42,-44.91 -1.7,-5.4 -2.98,-10.93 -4.43,-16.34 20.03,-8.91 38.43,-5.15 52.51,10.08 11.18,12.07 12.62,28.17 12.1,42.18 -0.92,24.96 -11.5,47.92 -32.59,62.84 -41.68,29.49 -107.81,31.1 -150.14,-11.12 -25.99,-25.93 -39.37,-56.42 -34.98,-93.65 0.85,-7.23 1.21,-14.53 1.9,-23.2 -29.61,24.51 -60.86,41.06 -98.92,36.6 -0.6,-40.31 20.9,-69.02 49.68,-95.04 -17.21,1.36 -32.2,3 -47.24,3.66 -39.48,1.72 -78.97,3.76 -118.48,4.29 -47.14,0.64 -91.15,-11.57 -132.28,-36 5.12,-3.33 9.76,-6.65 14.68,-9.43 3.07,-1.73 6.68,-2.44 9.89,-3.95 53.16,-25.14 109.55,-26.25 166.6,-22.43 31.65,2.12 63.28,4.33 94.94,6.39 2.57,0.17 5.19,-0.49 9.22,-0.92 -27.8,-25.83 -46.53,-54.51 -47.32,-92.27 18.21,-2.6 36.3,-1.12 52.74,6.78 16.24,7.81 31.33,18.04 46.63,27.04 0,-0.66 0.06,-2.46 -0.01,-4.25 -0.59,-16.66 -4.18,-33.86 -1.21,-49.85 6.76,-36.27 29.68,-62.06 61.22,-80.31 28.13,-16.28 58.07,-16.62 88.44,-8.42 18.2,4.9 35.32,13.02 47.46,27.91 15.73,19.3 22.15,41.93 18.43,66.76 -2.35,15.66 -8.07,29.91 -23.18,37.84 -12.93,6.8 -26.32,4.37 -40.49,0.69zm1275.01 -245.59c14.48,2.91 29.27,4.81 43.41,8.94 29.24,8.55 53.28,25.06 72.96,48.68 15.53,18.66 28.75,38.4 36.08,61.51 4.07,12.84 7.79,26.13 9.03,39.47 5.85,63.18 -14.05,118 -55.87,165.27 -2.12,2.4 -3.62,5.34 -5.72,7.76 -11.59,13.37 -11.05,12.84 0.72,25.91 30.45,33.77 52.43,71.79 59.19,117.8 10.59,72.05 -12.42,131.42 -67.44,177.89 -21.49,18.16 -47.72,27.81 -76.37,30.93 -46.01,5 -91.13,-0.36 -136.23,-8.69 -46,-8.49 -92.31,-15.38 -138.16,-24.57 -34.43,-6.89 -69.17,-8.48 -103.6,-5.63 -31.49,2.61 -62.71,9.85 -93.7,16.64 -19.01,4.15 -37.37,11.28 -57.14,17.43 6.66,-24.39 16.53,-46.82 33.82,-65.03 18.4,-19.39 40.83,-32.24 67.72,-36.18 9.22,-1.34 18.52,-3.46 27.73,-3.21 33.97,0.93 68.02,1.63 101.84,4.56 20.04,1.74 39.73,7.5 59.57,11.44 -1.13,1.31 -2.27,2.62 -3.41,3.93 -7.12,-9.24 -13.56,-19.12 -21.5,-27.59 -20.53,-21.87 -33.37,-46.37 -30.71,-77.37 0.55,-6.41 1.09,-9.79 9.47,-9.44 43.02,1.84 72.15,24.41 92.89,60.21 2.5,4.31 4.59,8.87 6.92,13.28 0.29,0.55 0.99,0.88 1.24,1.1 3.2,-15.75 5.68,-31.83 9.81,-47.49 6.98,-26.44 23.94,-45.8 45.59,-61.83 17.52,-12.98 37.42,-21.64 58.42,-21.19 44.53,0.93 72.64,16.06 87.27,62.83 8.26,26.41 -1.51,62.58 -21.89,71.55 -9.32,4.11 -20.29,4.51 -31.34,6.76 0.77,-10.92 1.86,-18.74 1.77,-26.54 -0.21,-18.04 -12.54,-41.28 -34.66,-44.11 -11.63,-1.5 -20.95,3.54 -28.67,11.06 -32.76,31.88 -26.25,84.11 12.09,106.13 52.93,30.39 113.87,15.64 149.38,-30.57 29.57,-38.47 37.5,-89.4 11.47,-136.09 -24.88,-44.62 -63.13,-67.63 -112.51,-73.97 -18.53,-2.37 -37.53,-5.62 -55.88,-3.86 -26.86,2.57 -53.54,8.38 -79.92,14.45 -50.35,11.59 -97.4,32.2 -143.6,54.9 -73.27,36.03 -146.81,71.52 -219.88,107.91 -47.1,23.46 -93.22,48.89 -140.47,72.02 -41.04,20.09 -82.6,39.28 -124.86,56.62 -17.48,7.18 -37.27,9.03 -56.17,12.41 -34.37,6.14 -68.05,1.08 -101.03,-8.76 -26.85,-8.01 -51.74,-19.58 -73.18,-38.75 -31.03,-27.74 -49.4,-62.21 -59.46,-101.81 -0.87,-3.46 -0.46,-7.22 -1.11,-10.76 -0.64,-3.43 -1.87,-6.75 -3.16,-11.21 -4.91,36.53 -16.79,69.49 -38.54,98.12 -20.35,26.81 -46.82,45.94 -78.45,57.95 -34,12.91 -69.11,19.51 -105.36,17.29 -30.39,-1.87 -60.04,-7.94 -87.91,-21.3 -62.23,-29.84 -125.02,-58.53 -186.87,-89.13 -73.17,-36.2 -145.1,-74.89 -218.47,-110.66 -58.03,-28.28 -115.38,-58.66 -177.7,-77 -31.76,-9.35 -63.58,-18.27 -97.09,-21.21 -39.84,-3.5 -78.2,0.13 -114.7,15.94 -42.5,18.4 -69.69,51.16 -78.18,96.59 -12.46,66.63 26.89,129.83 95.56,144.75 31.34,6.8 64.19,1.23 89.13,-21.66 34.66,-31.78 27.33,-81.92 -8.41,-105.12 -19.02,-12.35 -40.72,-1.13 -48.86,20.2 -4.99,13.05 -4.39,28.25 -6.46,43.65 -28.09,7.06 -45.07,-11.83 -51.16,-39.57 -9.84,-44.84 24.37,-93.65 72.05,-97.88 41.9,-3.72 72.94,13.11 99.28,43.55 18.21,21.06 26.14,45.45 27.6,72.65 0.24,4.45 1.85,8.84 2.39,11.33 10.34,-13.69 20.5,-29.26 32.79,-42.92 19.03,-21.15 44.18,-29.72 72.29,-29.47 2.04,0.02 5.53,4.29 5.84,6.88 3.41,28.98 -6.62,53.46 -25.8,74.81 -9.18,10.23 -17.93,20.84 -23.06,26.83 15.04,-2.72 36.76,-6.98 58.61,-10.47 12.72,-2.03 25.68,-4.18 38.48,-3.92 29.96,0.61 60.02,1.39 89.79,4.49 21.7,2.26 39.99,13.44 56.49,28.33 21.52,19.41 32.67,44 41.02,70.73 -28.45,-8.11 -56.16,-16.96 -84.34,-23.83 -43.11,-10.5 -87.37,-13.23 -131.25,-9.4 -35.42,3.1 -70.31,12.02 -105.48,18.16 -31.66,5.53 -63.24,11.95 -95.11,15.82 -30.71,3.73 -61.75,6.37 -92.67,6.47 -42.02,0.14 -78.75,-14.5 -109.53,-44.49 -27.09,-26.4 -43.76,-58 -53.62,-93.86 -1.09,-3.96 -1.82,-8.01 -2.72,-12.02 0,-18.94 0,-37.88 0,-56.82 3.79,-13.5 6.58,-27.4 11.58,-40.45 12.68,-33.09 31.52,-62.43 56.34,-87.95 2.05,-2.11 2.93,-8.07 1.44,-10.41 -4.01,-6.29 -9.76,-11.45 -14.51,-17.32 -16.01,-19.73 -31.08,-40.18 -39.51,-64.46 -5.74,-16.57 -10.26,-33.57 -15.34,-50.37 0,-18.21 0,-36.42 0,-54.63 0.56,-0.4 1.59,-0.75 1.63,-1.21 2.21,-24.28 11.33,-46.21 23.77,-66.72 24.08,-39.67 56.52,-68.79 103.44,-78.6 10.96,-2.29 21.96,-4.31 32.95,-6.44 8.02,0 16.02,0 24.05,0 3.66,0.72 7.31,1.86 11.01,2.12 14.77,1.03 29.67,0.92 44.31,2.84 20.51,2.69 40.86,6.74 61.25,10.34 34.8,6.15 69.51,12.92 104.41,18.43 26.15,4.14 52.5,7.43 78.88,9.66 12.82,1.08 25.92,-1.55 38.9,-1.79 35.06,-0.64 68.73,-8.92 102.15,-18.34 16.19,-4.57 32.07,-10.28 49.2,-15.83 -3.28,8.3 -6.34,15.44 -8.95,22.74 -10.77,30.07 -30.42,52.82 -58.39,67.62 -18.85,9.98 -39.65,12.62 -61.12,14.28 -35.9,2.78 -71.31,1.66 -106.63,-4.39 -18.38,-3.15 -36.6,-7.11 -54.58,-10.64 9.68,10.22 19.68,20.43 29.27,31.01 18.03,19.89 26.61,43.09 23.93,70.14 -0.62,6.28 -2.72,10.04 -9.97,9.45 -17.67,-1.45 -34.37,-5.99 -49.72,-14.96 -24.54,-14.35 -39.27,-36.86 -50.98,-62.24 -2.25,14.54 -3.42,28.8 -6.82,42.51 -5.85,23.62 -19.04,42.92 -37.16,59.34 -27.7,25.07 -59.19,35.17 -96.15,27.68 -45.42,-9.2 -73.94,-61.98 -59.7,-103.56 7.25,-21.19 25.35,-35.64 43.12,-34.05 6.08,0.55 11.26,2.38 8.86,9.85 -3.98,12.4 -2.32,24.54 3,35.56 10.65,22.05 30.75,32.4 50.84,19.58 27.19,-17.35 39.87,-58.47 19.19,-89.69 -17.92,-27.07 -45.67,-36.6 -75.67,-38.28 -42.44,-2.38 -76.8,17.61 -100.21,50.76 -19.76,28 -29.28,61.43 -21.28,97.06 10.16,45.2 37.3,77.47 78.84,95.94 33.29,14.8 68.93,18.87 105.88,16.42 35.79,-2.38 69.76,-11.52 103.63,-21.39 57.5,-16.77 110.88,-43.71 164.26,-70.16 79.58,-39.43 158.2,-80.81 237.59,-120.65 46.68,-23.43 93.95,-45.72 141.19,-68.03 20.94,-9.9 42.11,-19.53 63.84,-27.49 15.11,-5.53 31.36,-8.01 47.09,-11.85 21.87,0 43.73,0 65.59,0 11.9,2.92 23.87,5.6 35.69,8.81 43.57,11.84 79.94,34.08 105.71,72.23 18.74,27.73 29.81,58.18 34.62,92.4 4.71,-25.92 10.41,-49.91 22.58,-72.21 22.52,-41.3 53.98,-71.83 99.56,-86.09 17.79,-5.56 35.88,-10.12 53.83,-15.15 21.86,0 43.72,0 65.59,0 14.33,3.56 29.42,5.33 42.86,11.03 47.31,20.04 94.55,40.38 140.86,62.6 46.45,22.28 91.54,47.38 137.62,70.47 69.17,34.66 138.67,68.67 208.07,102.87 50.64,24.96 102.46,46.86 157.52,60.36 41.6,10.2 83.03,16.99 126.35,9.98 40.24,-6.5 75.03,-21.54 101.36,-52.89 16.06,-19.12 27.69,-41.41 29.51,-66.62 2.9,-40.21 -8.19,-76.22 -38.6,-104.39 -34.88,-32.32 -73.97,-42.61 -120.54,-26.26 -44.48,15.61 -68.34,67.08 -32.97,109.32 14.17,16.92 32.1,22.19 48.83,9.34 16.32,-12.54 21.04,-30.4 18.71,-50.09 -1.39,-11.65 -0.04,-14.85 11.15,-12.97 8.37,1.41 17.85,4.4 23.9,9.91 17.09,15.6 21.7,36.05 17.76,58.63 -7.62,43.51 -36.05,66.23 -72.61,70.67 -47.61,5.78 -88.52,-22.64 -111.31,-61.55 -12.6,-21.5 -14.79,-45.53 -17.55,-68.97 -7.25,11.77 -13.52,24.29 -21.96,35.11 -19.77,25.38 -46.58,38.6 -78.57,40.7 -3.35,0.22 -10.11,-4.11 -10.01,-6.05 0.76,-14.56 0.31,-29.95 5.05,-43.39 9.07,-25.64 29.05,-43.81 51.14,-61.55 -3.05,0.21 -4.48,0.05 -5.75,0.43 -35.54,10.54 -72.01,15.6 -108.91,16.71 -18.04,0.54 -36.15,-1.49 -54.23,-1.92 -41.83,-0.99 -75.72,-17.43 -100.11,-51.68 -10.71,-15.04 -18.46,-31.65 -21.87,-52.02 6.1,2.12 10.6,3.98 15.26,5.26 26.74,7.38 53.29,15.68 80.35,21.59 19.16,4.18 39,5.78 58.63,7.26 18.02,1.35 36.29,2.52 54.22,1 21.28,-1.81 42.32,-6.48 63.43,-10.12 34.47,-5.95 68.81,-12.74 103.41,-17.92 33.63,-5.03 67.5,-8.47 101.27,-12.7 3.71,-0.46 7.36,-1.42 11.03,-2.15 8.02,0 16.04,0 24.06,0z"></path> </g> <g id="_2423845093776"> <path fill="#aa915d" d="M6204.89 234.15c-9.4,46.71 -33.48,83.28 -72.96,109.67 41.19,26.36 63.45,64.29 73.21,110.56 5.77,-35.17 28.02,-82.16 72.59,-110.63 -39.52,-26.51 -62.69,-63.75 -72.84,-109.6zm196.11 209.12c-1.34,3.98 -2.81,7.94 -4.01,11.99 -7.79,26.38 3.25,51.11 27.11,58.14 36.84,10.86 69.82,-13.79 72.17,-53.7 2.08,-35.52 -19.35,-60.85 -48.97,-76.37 -28.8,-15.09 -61.29,-18.23 -93.31,-11.54 -40.99,8.57 -69.52,33.64 -86.84,71.67 -9.41,20.68 -10.72,42.08 -6.46,64.12 5.09,26.26 13.57,51.21 31.78,71.33 32.87,36.31 73.31,53.82 123.22,50.88 28.83,-1.71 56.41,-7.59 81.68,-19.97 75.55,-37.01 150.1,-76.06 225.28,-113.85 62.61,-31.46 124.79,-63.92 188.57,-92.84 49.54,-22.46 101.25,-40.12 152.05,-59.94 -7.44,-2.8 -15.58,-6.1 -23.87,-8.93 -68.6,-23.41 -135.65,-50.73 -200.46,-83.03 -68.52,-34.15 -135.89,-70.58 -204,-105.58 -42.71,-21.96 -85.68,-43.45 -128.81,-64.57 -27.47,-13.45 -56.76,-22.2 -87.22,-23.96 -49.91,-2.89 -92.75,12.94 -126.33,51.68 -20.86,24.07 -30.45,52.49 -33.77,83.01 -5.35,49.23 26.97,95.09 65.99,114.21 34.41,16.86 69.73,13.42 105.5,4.76 36.35,-8.8 60.85,-42.26 66.33,-74.15 3.92,-22.78 -17.07,-58.85 -46.99,-64.69 -33.21,-6.48 -62.93,24.44 -53.74,52.46 2.27,6.9 2.97,14.33 4.35,21.37 -4.38,1.07 -8.15,2.05 -11.96,2.91 -17.58,3.95 -36.55,-4.78 -44.33,-20.91 -14.75,-30.59 -8.91,-69.07 17.01,-92.26 30.08,-26.93 66.85,-33.63 106.34,-24.42 25.26,5.89 45.04,20.61 61.13,39.89 20.49,24.56 30.49,52.89 25.42,85.42 -1.03,6.6 -1.42,13.29 -2.23,21.27 29.45,-24.57 60.55,-41.57 100.15,-36.21 -1.06,17.86 -4.34,34.9 -14.2,49.72 -9.81,14.75 -20.71,28.77 -31.96,44.26 9.01,-0.99 17.78,-2.36 26.61,-2.88 40.38,-2.35 80.75,-5.58 121.16,-6.2 21.74,-0.33 43.74,2.82 65.29,6.42 28.6,4.78 55.49,15 80.38,30.96 -6.11,3.63 -11.39,7.38 -17.15,10.08 -42.77,20.02 -87.7,28.98 -134.94,26.45 -31.77,-1.71 -63.57,-2.83 -95.34,-4.49 -16.19,-0.83 -32.36,-2.28 -50.72,-3.61 29.65,26.04 50.26,55.02 50.73,94.72 -19.11,2.48 -36.86,0.43 -53.28,-7.89 -15.94,-8.09 -31.3,-17.34 -44.66,-24.82 0,13.1 0.5,28.3 -0.11,43.45 -1.03,25.15 -12.47,46.05 -29.24,63.93 -30.11,32.11 -66.8,43.06 -110.47,35.66 -44.56,-7.56 -82.1,-42.81 -76.71,-94.01 3.77,-35.78 28.08,-52.82 63.82,-39.95zm-392.08 -197.68c1.33,-4.11 2.63,-8.1 3.9,-12.1 11.18,-35.08 -11.56,-63.34 -43.58,-62.56 -33.63,0.81 -55.21,28.6 -55.51,57.58 -0.36,33.46 18.11,58.76 46.77,74.56 24.83,13.69 52.68,15.47 80.95,14.05 31.68,-1.6 57.26,-14.51 78.28,-37.46 17.84,-19.48 30.74,-41.78 31.47,-68.64 1.28,-47.9 -13.91,-89.02 -52.13,-120.44 -24.41,-20.07 -52.41,-31.14 -83.16,-33.39 -38.61,-2.82 -75.81,5.95 -110.19,23.4 -82.98,42.1 -165.26,85.58 -248.2,127.76 -45.28,23.03 -90.73,45.91 -137.2,66.4 -46.26,20.41 -93.87,37.82 -140.93,56.41 -10.97,4.33 -22.15,8.11 -34.42,12.59 14.42,5.27 27.3,9.48 39.79,14.65 64.9,26.85 130.56,52.06 194.26,81.51 53.84,24.9 105.14,55.21 157.95,82.38 53.21,27.38 106.86,53.91 160.37,80.7 39.69,19.86 81.32,31.41 126.07,26.16 29.76,-3.5 56.34,-15.11 79.14,-35.05 27.17,-23.76 41.33,-53.78 47.14,-89.2 7.99,-48.67 -11.82,-85.18 -48.53,-113.38 -29.84,-22.92 -64.99,-25.8 -101.55,-19.76 -37.4,6.16 -63.97,24.52 -80.69,59.65 -15.22,31.98 5.15,72.33 31,80.83 18.7,6.15 36.58,6.02 51.42,-7.65 12.86,-11.85 18,-27.22 12.43,-44.91 -1.7,-5.4 -2.98,-10.93 -4.44,-16.34 20.03,-8.91 38.43,-5.15 52.51,10.08 11.18,12.07 12.62,28.17 12.1,42.18 -0.93,24.96 -11.51,47.92 -32.59,62.84 -41.69,29.49 -107.82,31.1 -150.14,-11.12 -26,-25.93 -39.38,-56.42 -34.99,-93.65 0.85,-7.23 1.21,-14.53 1.9,-23.2 -29.62,24.51 -60.86,41.06 -98.92,36.6 -0.61,-40.31 20.89,-69.02 49.68,-95.04 -17.21,1.36 -32.2,3 -47.24,3.66 -39.49,1.72 -78.98,3.76 -118.48,4.29 -47.14,0.64 -91.15,-11.57 -132.29,-36 5.13,-3.33 9.76,-6.65 14.69,-9.43 3.06,-1.73 6.68,-2.44 9.89,-3.95 53.16,-25.14 109.54,-26.25 166.59,-22.43 31.64,2.12 63.28,4.33 94.94,6.39 2.58,0.17 5.2,-0.49 9.22,-0.92 -27.8,-25.83 -46.53,-54.51 -47.32,-92.27 18.21,-2.6 36.3,-1.12 52.74,6.78 16.24,7.81 31.33,18.04 46.63,27.04 0,-0.66 0.06,-2.46 -0.01,-4.25 -0.59,-16.66 -4.19,-33.86 -1.21,-49.85 6.76,-36.27 29.67,-62.06 61.22,-80.31 28.13,-16.28 58.07,-16.62 88.44,-8.42 18.19,4.9 35.32,13.02 47.46,27.91 15.73,19.3 22.15,41.93 18.42,66.76 -2.35,15.66 -8.06,29.91 -23.17,37.84 -12.93,6.8 -26.32,4.37 -40.5,0.69zm1275.01 -245.59c14.49,2.91 29.28,4.81 43.41,8.94 29.24,8.55 53.28,25.06 72.96,48.68 15.54,18.66 28.76,38.4 36.08,61.51 4.07,12.84 7.8,26.13 9.03,39.47 5.86,63.18 -14.05,118 -55.87,165.27 -2.12,2.4 -3.62,5.34 -5.72,7.76 -11.59,13.37 -11.06,12.84 0.72,25.91 30.45,33.77 52.43,71.79 59.18,117.8 10.59,72.05 -12.42,131.42 -67.43,177.89 -21.49,18.16 -47.72,27.81 -76.38,30.93 -46.02,5 -91.13,-0.36 -136.23,-8.69 -46,-8.49 -92.31,-15.38 -138.16,-24.57 -34.43,-6.89 -69.17,-8.48 -103.61,-5.63 -31.48,2.61 -62.7,9.85 -93.69,16.64 -19.01,4.15 -37.38,11.28 -57.14,17.43 6.66,-24.39 16.53,-46.82 33.81,-65.03 18.39,-19.39 40.84,-32.24 67.72,-36.18 9.21,-1.34 18.52,-3.46 27.73,-3.21 33.97,0.93 68.02,1.63 101.85,4.56 20.03,1.74 39.73,7.5 59.57,11.44 -1.13,1.31 -2.27,2.62 -3.41,3.93 -7.12,-9.24 -13.56,-19.12 -21.51,-27.59 -20.53,-21.87 -33.37,-46.37 -30.71,-77.37 0.54,-6.41 1.08,-9.79 9.46,-9.44 43.03,1.84 72.16,24.41 92.9,60.21 2.5,4.31 4.58,8.87 6.92,13.28 0.3,0.55 0.99,0.88 1.24,1.1 3.2,-15.75 5.69,-31.83 9.82,-47.49 6.98,-26.44 23.93,-45.8 45.59,-61.83 17.52,-12.98 37.42,-21.64 58.41,-21.19 44.53,0.93 72.65,16.06 87.28,62.83 8.25,26.41 -1.51,62.58 -21.89,71.55 -9.33,4.11 -20.29,4.51 -31.35,6.76 0.78,-10.92 1.87,-18.74 1.78,-26.54 -0.22,-18.04 -12.54,-41.28 -34.67,-44.11 -11.62,-1.5 -20.95,3.54 -28.67,11.06 -32.75,31.88 -26.25,84.11 12.09,106.13 52.93,30.39 113.87,15.64 149.38,-30.57 29.57,-38.47 37.5,-89.4 11.47,-136.09 -24.87,-44.62 -63.14,-67.63 -112.51,-73.97 -18.53,-2.37 -37.54,-5.62 -55.89,-3.86 -26.86,2.57 -53.53,8.38 -79.91,14.45 -50.36,11.59 -97.4,32.2 -143.6,54.9 -73.28,36.03 -146.81,71.52 -219.89,107.91 -47.1,23.46 -93.21,48.89 -140.46,72.02 -41.04,20.09 -82.6,39.28 -124.86,56.62 -17.48,7.18 -37.27,9.03 -56.17,12.41 -34.38,6.14 -68.05,1.08 -101.03,-8.76 -26.85,-8.01 -51.74,-19.58 -73.18,-38.75 -31.03,-27.74 -49.4,-62.21 -59.46,-101.81 -0.88,-3.46 -0.46,-7.22 -1.11,-10.76 -0.64,-3.43 -1.87,-6.75 -3.16,-11.21 -4.91,36.53 -16.8,69.49 -38.53,98.12 -20.35,26.81 -46.83,45.94 -78.46,57.95 -33.99,12.91 -69.11,19.51 -105.36,17.29 -30.39,-1.87 -60.03,-7.94 -87.9,-21.3 -62.23,-29.84 -125.02,-58.53 -186.87,-89.13 -73.17,-36.2 -145.11,-74.89 -218.48,-110.66 -58.02,-28.28 -115.38,-58.66 -177.7,-77 -31.75,-9.35 -63.57,-18.27 -97.08,-21.21 -39.83,-3.5 -78.19,0.13 -114.71,15.94 -42.5,18.4 -69.68,51.16 -78.17,96.59 -12.47,66.63 26.88,129.83 95.54,144.75 31.34,6.8 64.19,1.23 89.14,-21.66 34.66,-31.78 27.32,-81.92 -8.41,-105.12 -19.01,-12.35 -40.72,-1.13 -48.86,20.2 -4.99,13.05 -4.39,28.25 -6.45,43.65 -28.09,7.06 -45.07,-11.83 -51.16,-39.57 -9.85,-44.84 24.36,-93.65 72.05,-97.88 41.9,-3.72 72.96,13.11 99.28,43.55 18.21,21.06 26.14,45.45 27.59,72.65 0.24,4.45 1.84,8.84 2.39,11.33 10.34,-13.69 20.51,-29.26 32.79,-42.92 19.02,-21.15 44.18,-29.72 72.29,-29.47 2.05,0.02 5.55,4.29 5.84,6.88 3.42,28.98 -6.61,53.46 -25.8,74.81 -9.18,10.23 -17.93,20.84 -23.07,26.83 15.05,-2.72 36.77,-6.98 58.61,-10.47 12.72,-2.03 25.68,-4.18 38.47,-3.92 29.97,0.61 60.03,1.39 89.8,4.49 21.69,2.26 39.99,13.44 56.49,28.33 21.52,19.41 32.67,44 41.02,70.73 -28.46,-8.11 -56.16,-16.96 -84.35,-23.83 -43.11,-10.5 -87.37,-13.23 -131.24,-9.4 -35.42,3.1 -70.31,12.02 -105.48,18.16 -31.66,5.53 -63.24,11.95 -95.11,15.82 -30.71,3.73 -61.76,6.37 -92.67,6.47 -42.03,0.14 -78.75,-14.5 -109.53,-44.49 -27.09,-26.4 -43.77,-58 -53.62,-93.86 -1.09,-3.96 -1.83,-8.01 -2.72,-12.02 0,-18.94 0,-37.88 0,-56.82 3.79,-13.5 6.58,-27.4 11.58,-40.45 12.68,-33.09 31.52,-62.43 56.34,-87.95 2.05,-2.11 2.92,-8.07 1.44,-10.41 -4.01,-6.29 -9.76,-11.45 -14.52,-17.32 -16.01,-19.73 -31.07,-40.18 -39.49,-64.46 -5.75,-16.57 -10.27,-33.57 -15.35,-50.37 0,-18.21 0,-36.42 0,-54.63 0.57,-0.4 1.59,-0.75 1.63,-1.21 2.21,-24.28 11.32,-46.21 23.77,-66.72 24.09,-39.67 56.52,-68.79 103.44,-78.6 10.95,-2.29 21.96,-4.31 32.95,-6.44 8.02,0 16.03,0 24.05,0 3.66,0.72 7.31,1.86 11.01,2.12 14.77,1.03 29.67,0.92 44.32,2.84 20.51,2.69 40.85,6.74 61.25,10.34 34.8,6.15 69.5,12.92 104.4,18.43 26.16,4.14 52.5,7.43 78.89,9.66 12.82,1.08 25.92,-1.55 38.91,-1.79 35.06,-0.64 68.72,-8.92 102.14,-18.34 16.2,-4.57 32.07,-10.28 49.2,-15.83 -3.28,8.3 -6.33,15.44 -8.94,22.74 -10.77,30.07 -30.43,52.82 -58.39,67.62 -18.85,9.98 -39.65,12.62 -61.12,14.28 -35.9,2.78 -71.31,1.66 -106.63,-4.39 -18.38,-3.15 -36.61,-7.11 -54.58,-10.64 9.68,10.22 19.68,20.43 29.27,31.01 18.03,19.89 26.6,43.09 23.93,70.14 -0.62,6.28 -2.72,10.04 -9.96,9.45 -17.67,-1.45 -34.38,-5.99 -49.73,-14.96 -24.54,-14.35 -39.27,-36.86 -50.97,-62.24 -2.26,14.54 -3.43,28.8 -6.82,42.51 -5.86,23.62 -19.05,42.92 -37.17,59.34 -27.69,25.07 -59.2,35.17 -96.15,27.68 -45.43,-9.2 -73.94,-61.98 -59.71,-103.56 7.26,-21.19 25.36,-35.64 43.12,-34.05 6.09,0.55 11.27,2.38 8.87,9.85 -3.98,12.4 -2.31,24.54 3,35.56 10.65,22.05 30.75,32.4 50.84,19.58 27.19,-17.35 39.87,-58.47 19.2,-89.69 -17.93,-27.07 -45.67,-36.6 -75.69,-38.28 -42.44,-2.38 -76.8,17.61 -100.19,50.76 -19.76,28 -29.29,61.43 -21.29,97.06 10.16,45.2 37.3,77.47 78.85,95.94 33.29,14.8 68.93,18.87 105.88,16.42 35.8,-2.38 69.76,-11.52 103.63,-21.39 57.49,-16.77 110.88,-43.71 164.25,-70.16 79.59,-39.43 158.2,-80.81 237.59,-120.65 46.68,-23.43 93.95,-45.72 141.18,-68.03 20.95,-9.9 42.12,-19.53 63.84,-27.49 15.12,-5.53 31.36,-8.01 47.1,-11.85 21.86,0 43.73,0 65.59,0 11.9,2.92 23.87,5.6 35.69,8.81 43.57,11.84 79.93,34.08 105.71,72.23 18.74,27.73 29.82,58.18 34.63,92.4 4.72,-25.92 10.41,-49.91 22.58,-72.21 22.52,-41.3 53.98,-71.83 99.56,-86.09 17.78,-5.56 35.87,-10.12 53.83,-15.15 21.86,0 43.73,0 65.59,0 14.33,3.56 29.42,5.33 42.85,11.03 47.31,20.04 94.55,40.38 140.87,62.6 46.45,22.28 91.54,47.38 137.62,70.47 69.17,34.66 138.67,68.67 208.07,102.87 50.64,24.96 102.46,46.86 157.53,60.36 41.6,10.2 83.02,16.99 126.35,9.98 40.23,-6.5 75.03,-21.54 101.36,-52.89 16.06,-19.12 27.68,-41.41 29.5,-66.62 2.9,-40.21 -8.19,-76.22 -38.58,-104.39 -34.89,-32.32 -73.97,-42.61 -120.54,-26.26 -44.48,15.61 -68.34,67.08 -32.97,109.32 14.17,16.92 32.1,22.19 48.84,9.34 16.32,-12.54 21.03,-30.4 18.7,-50.09 -1.38,-11.65 -0.03,-14.85 11.15,-12.97 8.37,1.41 17.85,4.4 23.89,9.91 17.09,15.6 21.71,36.05 17.76,58.63 -7.61,43.51 -36.06,66.23 -72.6,70.67 -47.62,5.78 -88.52,-22.64 -111.31,-61.55 -12.59,-21.5 -14.78,-45.53 -17.55,-68.97 -7.26,11.77 -13.52,24.29 -21.96,35.11 -19.78,25.38 -46.58,38.6 -78.58,40.7 -3.35,0.22 -10.11,-4.11 -10.01,-6.05 0.76,-14.56 0.3,-29.95 5.05,-43.39 9.07,-25.64 29.05,-43.81 51.13,-61.55 -3.05,0.21 -4.48,0.05 -5.74,0.43 -35.55,10.54 -72.01,15.6 -108.92,16.71 -18.03,0.54 -36.14,-1.49 -54.22,-1.92 -41.83,-0.99 -75.71,-17.43 -100.11,-51.68 -10.71,-15.04 -18.46,-31.65 -21.86,-52.02 6.1,2.12 10.59,3.98 15.25,5.26 26.74,7.38 53.29,15.68 80.35,21.59 19.17,4.18 39,5.78 58.63,7.26 18.01,1.35 36.29,2.52 54.22,1 21.28,-1.81 42.32,-6.48 63.43,-10.12 34.47,-5.95 68.82,-12.74 103.41,-17.92 33.63,-5.03 67.51,-8.47 101.27,-12.7 3.71,-0.46 7.36,-1.42 11.03,-2.15 8.02,0 16.03,0 24.05,0z"></path> <path fill="#aa915d" d="M8687.02 234.15c-9.4,46.71 -33.48,83.28 -72.95,109.67 41.19,26.36 63.44,64.29 73.21,110.56 5.77,-35.17 28.02,-82.16 72.59,-110.63 -39.52,-26.51 -62.69,-63.75 -72.84,-109.6zm196.11 209.12c-1.34,3.98 -2.81,7.94 -4.01,11.99 -7.79,26.38 3.24,51.11 27.11,58.14 36.83,10.86 69.83,-13.79 72.17,-53.7 2.08,-35.52 -19.34,-60.85 -48.97,-76.37 -28.8,-15.09 -61.3,-18.23 -93.31,-11.54 -40.98,8.57 -69.52,33.64 -86.83,71.67 -9.42,20.68 -10.73,42.08 -6.47,64.12 5.09,26.26 13.56,51.21 31.78,71.33 32.87,36.31 73.31,53.82 123.23,50.88 28.82,-1.71 56.41,-7.59 81.68,-19.97 75.54,-37.01 150.1,-76.06 225.27,-113.85 62.61,-31.46 124.8,-63.92 188.56,-92.84 49.54,-22.46 101.26,-40.12 152.05,-59.94 -7.44,-2.8 -15.58,-6.1 -23.88,-8.93 -68.59,-23.41 -135.64,-50.73 -200.45,-83.03 -68.52,-34.15 -135.89,-70.58 -203.99,-105.58 -42.72,-21.96 -85.68,-43.45 -128.83,-64.57 -27.47,-13.45 -56.75,-22.2 -87.22,-23.96 -49.91,-2.89 -92.75,12.94 -126.33,51.68 -20.86,24.07 -30.45,52.49 -33.77,83.01 -5.35,49.23 26.97,95.09 65.99,114.21 34.41,16.86 69.74,13.42 105.5,4.76 36.36,-8.8 60.85,-42.26 66.34,-74.15 3.92,-22.78 -17.07,-58.85 -46.99,-64.69 -33.21,-6.48 -62.93,24.44 -53.74,52.46 2.27,6.9 2.96,14.33 4.35,21.37 -4.38,1.07 -8.15,2.05 -11.96,2.91 -17.59,3.95 -36.55,-4.78 -44.34,-20.91 -14.75,-30.59 -8.9,-69.07 17.01,-92.26 30.09,-26.93 66.86,-33.63 106.35,-24.42 25.27,5.89 45.04,20.61 61.14,39.89 20.49,24.56 30.49,52.89 25.42,85.42 -1.03,6.6 -1.42,13.29 -2.24,21.27 29.45,-24.57 60.56,-41.57 100.15,-36.21 -1.06,17.86 -4.33,34.9 -14.19,49.72 -9.81,14.75 -20.71,28.77 -31.97,44.26 9.01,-0.99 17.78,-2.36 26.61,-2.88 40.38,-2.35 80.75,-5.58 121.16,-6.2 21.74,-0.33 43.74,2.82 65.29,6.42 28.6,4.78 55.49,15 80.38,30.96 -6.11,3.63 -11.39,7.38 -17.15,10.08 -42.75,20.02 -87.69,28.98 -134.94,26.45 -31.77,-1.71 -63.57,-2.83 -95.34,-4.49 -16.2,-0.83 -32.36,-2.28 -50.72,-3.61 29.65,26.04 50.27,55.02 50.73,94.72 -19.11,2.48 -36.86,0.43 -53.28,-7.89 -15.95,-8.09 -31.31,-17.34 -44.66,-24.82 0,13.1 0.5,28.3 -0.11,43.45 -1.03,25.15 -12.47,46.05 -29.24,63.93 -30.1,32.11 -66.81,43.06 -110.48,35.66 -44.55,-7.56 -82.1,-42.81 -76.7,-94.01 3.76,-35.78 28.07,-52.82 63.82,-39.95zm-392.07 -197.68c1.33,-4.11 2.62,-8.1 3.89,-12.1 11.19,-35.08 -11.55,-63.34 -43.57,-62.56 -33.63,0.81 -55.21,28.6 -55.51,57.58 -0.35,33.46 18.11,58.76 46.77,74.56 24.83,13.69 52.69,15.47 80.95,14.05 31.68,-1.6 57.26,-14.51 78.29,-37.46 17.84,-19.48 30.74,-41.78 31.46,-68.64 1.28,-47.9 -13.9,-89.02 -52.12,-120.44 -24.41,-20.07 -52.41,-31.14 -83.17,-33.39 -38.61,-2.82 -75.82,5.95 -110.19,23.4 -82.98,42.1 -165.26,85.58 -248.2,127.76 -45.28,23.03 -90.74,45.91 -137.2,66.4 -46.27,20.41 -93.86,37.82 -140.92,56.41 -10.97,4.33 -22.15,8.11 -34.43,12.59 14.43,5.27 27.31,9.48 39.8,14.65 64.9,26.85 130.56,52.06 194.26,81.51 53.84,24.9 105.13,55.21 157.95,82.38 53.21,27.38 106.86,53.91 160.37,80.7 39.7,19.86 81.33,31.41 126.08,26.16 29.75,-3.5 56.34,-15.11 79.14,-35.05 27.17,-23.76 41.32,-53.78 47.14,-89.2 7.98,-48.67 -11.82,-85.18 -48.53,-113.38 -29.84,-22.92 -64.99,-25.8 -101.54,-19.76 -37.4,6.16 -63.98,24.52 -80.69,59.65 -15.22,31.98 5.14,72.33 30.99,80.83 18.7,6.15 36.58,6.02 51.42,-7.65 12.85,-11.85 17.99,-27.22 12.42,-44.91 -1.7,-5.4 -2.98,-10.93 -4.43,-16.34 20.03,-8.91 38.43,-5.15 52.51,10.08 11.18,12.07 12.62,28.17 12.1,42.18 -0.92,24.96 -11.5,47.92 -32.59,62.84 -41.68,29.49 -107.81,31.1 -150.14,-11.12 -25.99,-25.93 -39.37,-56.42 -34.98,-93.65 0.85,-7.23 1.21,-14.53 1.9,-23.2 -29.61,24.51 -60.86,41.06 -98.92,36.6 -0.6,-40.31 20.9,-69.02 49.68,-95.04 -17.21,1.36 -32.2,3 -47.24,3.66 -39.48,1.72 -78.97,3.76 -118.48,4.29 -47.14,0.64 -91.15,-11.57 -132.28,-36 5.12,-3.33 9.76,-6.65 14.68,-9.43 3.07,-1.73 6.68,-2.44 9.89,-3.95 53.16,-25.14 109.55,-26.25 166.6,-22.43 31.65,2.12 63.28,4.33 94.94,6.39 2.57,0.17 5.19,-0.49 9.22,-0.92 -27.8,-25.83 -46.53,-54.51 -47.32,-92.27 18.21,-2.6 36.3,-1.12 52.74,6.78 16.24,7.81 31.33,18.04 46.63,27.04 0,-0.66 0.06,-2.46 -0.01,-4.25 -0.59,-16.66 -4.18,-33.86 -1.21,-49.85 6.76,-36.27 29.68,-62.06 61.22,-80.31 28.13,-16.28 58.07,-16.62 88.44,-8.42 18.2,4.9 35.32,13.02 47.46,27.91 15.73,19.3 22.15,41.93 18.43,66.76 -2.35,15.66 -8.07,29.91 -23.18,37.84 -12.93,6.8 -26.32,4.37 -40.49,0.69zm1275.01 -245.59c14.48,2.91 29.27,4.81 43.41,8.94 29.24,8.55 53.28,25.06 72.96,48.68 15.53,18.66 28.75,38.4 36.08,61.51 4.07,12.84 7.79,26.13 9.03,39.47 5.85,63.18 -14.05,118 -55.87,165.27 -2.12,2.4 -3.62,5.34 -5.72,7.76 -11.59,13.37 -11.05,12.84 0.72,25.91 30.45,33.77 52.43,71.79 59.19,117.8 10.59,72.05 -12.42,131.42 -67.44,177.89 -21.49,18.16 -47.72,27.81 -76.37,30.93 -46.01,5 -91.13,-0.36 -136.23,-8.69 -46,-8.49 -92.31,-15.38 -138.16,-24.57 -34.43,-6.89 -69.17,-8.48 -103.6,-5.63 -31.49,2.61 -62.71,9.85 -93.7,16.64 -19.01,4.15 -37.37,11.28 -57.14,17.43 6.66,-24.39 16.53,-46.82 33.82,-65.03 18.4,-19.39 40.83,-32.24 67.72,-36.18 9.22,-1.34 18.52,-3.46 27.73,-3.21 33.97,0.93 68.02,1.63 101.84,4.56 20.04,1.74 39.73,7.5 59.57,11.44 -1.13,1.31 -2.27,2.62 -3.41,3.93 -7.12,-9.24 -13.56,-19.12 -21.5,-27.59 -20.53,-21.87 -33.37,-46.37 -30.71,-77.37 0.55,-6.41 1.09,-9.79 9.47,-9.44 43.02,1.84 72.15,24.41 92.89,60.21 2.5,4.31 4.59,8.87 6.92,13.28 0.29,0.55 0.99,0.88 1.24,1.1 3.2,-15.75 5.68,-31.83 9.81,-47.49 6.98,-26.44 23.94,-45.8 45.59,-61.83 17.52,-12.98 37.42,-21.64 58.42,-21.19 44.53,0.93 72.64,16.06 87.27,62.83 8.26,26.41 -1.51,62.58 -21.89,71.55 -9.32,4.11 -20.29,4.51 -31.34,6.76 0.77,-10.92 1.86,-18.74 1.77,-26.54 -0.21,-18.04 -12.54,-41.28 -34.66,-44.11 -11.63,-1.5 -20.95,3.54 -28.67,11.06 -32.76,31.88 -26.25,84.11 12.09,106.13 52.93,30.39 113.87,15.64 149.38,-30.57 29.57,-38.47 37.5,-89.4 11.47,-136.09 -24.88,-44.62 -63.13,-67.63 -112.51,-73.97 -18.53,-2.37 -37.53,-5.62 -55.88,-3.86 -26.86,2.57 -53.54,8.38 -79.92,14.45 -50.35,11.59 -97.4,32.2 -143.6,54.9 -73.27,36.03 -146.81,71.52 -219.88,107.91 -47.1,23.46 -93.22,48.89 -140.47,72.02 -41.04,20.09 -82.6,39.28 -124.86,56.62 -17.48,7.18 -37.27,9.03 -56.17,12.41 -34.37,6.14 -68.05,1.08 -101.03,-8.76 -26.85,-8.01 -51.74,-19.58 -73.18,-38.75 -31.03,-27.74 -49.4,-62.21 -59.46,-101.81 -0.87,-3.46 -0.46,-7.22 -1.11,-10.76 -0.64,-3.43 -1.87,-6.75 -3.16,-11.21 -4.91,36.53 -16.79,69.49 -38.54,98.12 -20.35,26.81 -46.82,45.94 -78.45,57.95 -34,12.91 -69.11,19.51 -105.36,17.29 -30.39,-1.87 -60.04,-7.94 -87.91,-21.3 -62.23,-29.84 -125.02,-58.53 -186.87,-89.13 -73.17,-36.2 -145.1,-74.89 -218.47,-110.66 -58.03,-28.28 -115.38,-58.66 -177.7,-77 -31.76,-9.35 -63.58,-18.27 -97.09,-21.21 -39.84,-3.5 -78.2,0.13 -114.7,15.94 -42.5,18.4 -69.69,51.16 -78.18,96.59 -12.46,66.63 26.89,129.83 95.56,144.75 31.34,6.8 64.19,1.23 89.13,-21.66 34.66,-31.78 27.33,-81.92 -8.41,-105.12 -19.02,-12.35 -40.72,-1.13 -48.86,20.2 -4.99,13.05 -4.39,28.25 -6.46,43.65 -28.09,7.06 -45.07,-11.83 -51.16,-39.57 -9.84,-44.84 24.37,-93.65 72.05,-97.88 41.9,-3.72 72.94,13.11 99.28,43.55 18.21,21.06 26.14,45.45 27.6,72.65 0.24,4.45 1.85,8.84 2.39,11.33 10.34,-13.69 20.5,-29.26 32.79,-42.92 19.03,-21.15 44.18,-29.72 72.29,-29.47 2.04,0.02 5.53,4.29 5.84,6.88 3.41,28.98 -6.62,53.46 -25.8,74.81 -9.18,10.23 -17.93,20.84 -23.06,26.83 15.04,-2.72 36.76,-6.98 58.61,-10.47 12.72,-2.03 25.68,-4.18 38.48,-3.92 29.96,0.61 60.02,1.39 89.79,4.49 21.7,2.26 39.99,13.44 56.49,28.33 21.52,19.41 32.67,44 41.02,70.73 -28.45,-8.11 -56.16,-16.96 -84.34,-23.83 -43.11,-10.5 -87.37,-13.23 -131.25,-9.4 -35.42,3.1 -70.31,12.02 -105.48,18.16 -31.66,5.53 -63.24,11.95 -95.11,15.82 -30.71,3.73 -61.75,6.37 -92.67,6.47 -42.02,0.14 -78.75,-14.5 -109.53,-44.49 -27.09,-26.4 -43.76,-58 -53.62,-93.86 -1.09,-3.96 -1.82,-8.01 -2.72,-12.02 0,-18.94 0,-37.88 0,-56.82 3.79,-13.5 6.58,-27.4 11.58,-40.45 12.68,-33.09 31.52,-62.43 56.34,-87.95 2.05,-2.11 2.93,-8.07 1.44,-10.41 -4.01,-6.29 -9.76,-11.45 -14.51,-17.32 -16.01,-19.73 -31.08,-40.18 -39.51,-64.46 -5.74,-16.57 -10.26,-33.57 -15.34,-50.37 0,-18.21 0,-36.42 0,-54.63 0.56,-0.4 1.59,-0.75 1.63,-1.21 2.21,-24.28 11.33,-46.21 23.77,-66.72 24.08,-39.67 56.52,-68.79 103.44,-78.6 10.96,-2.29 21.96,-4.31 32.95,-6.44 8.02,0 16.02,0 24.05,0 3.66,0.72 7.31,1.86 11.01,2.12 14.77,1.03 29.67,0.92 44.31,2.84 20.51,2.69 40.86,6.74 61.25,10.34 34.8,6.15 69.51,12.92 104.41,18.43 26.15,4.14 52.5,7.43 78.88,9.66 12.82,1.08 25.92,-1.55 38.9,-1.79 35.06,-0.64 68.73,-8.92 102.15,-18.34 16.19,-4.57 32.07,-10.28 49.2,-15.83 -3.28,8.3 -6.34,15.44 -8.95,22.74 -10.77,30.07 -30.42,52.82 -58.39,67.62 -18.85,9.98 -39.65,12.62 -61.12,14.28 -35.9,2.78 -71.31,1.66 -106.63,-4.39 -18.38,-3.15 -36.6,-7.11 -54.58,-10.64 9.68,10.22 19.68,20.43 29.27,31.01 18.03,19.89 26.61,43.09 23.93,70.14 -0.62,6.28 -2.72,10.04 -9.97,9.45 -17.67,-1.45 -34.37,-5.99 -49.72,-14.96 -24.54,-14.35 -39.27,-36.86 -50.98,-62.24 -2.25,14.54 -3.42,28.8 -6.82,42.51 -5.85,23.62 -19.04,42.92 -37.16,59.34 -27.7,25.07 -59.19,35.17 -96.15,27.68 -45.42,-9.2 -73.94,-61.98 -59.7,-103.56 7.25,-21.19 25.35,-35.64 43.12,-34.05 6.08,0.55 11.26,2.38 8.86,9.85 -3.98,12.4 -2.32,24.54 3,35.56 10.65,22.05 30.75,32.4 50.84,19.58 27.19,-17.35 39.87,-58.47 19.19,-89.69 -17.92,-27.07 -45.67,-36.6 -75.67,-38.28 -42.44,-2.38 -76.8,17.61 -100.21,50.76 -19.76,28 -29.28,61.43 -21.28,97.06 10.16,45.2 37.3,77.47 78.84,95.94 33.29,14.8 68.93,18.87 105.88,16.42 35.79,-2.38 69.76,-11.52 103.63,-21.39 57.5,-16.77 110.88,-43.71 164.26,-70.16 79.58,-39.43 158.2,-80.81 237.59,-120.65 46.68,-23.43 93.95,-45.72 141.19,-68.03 20.94,-9.9 42.11,-19.53 63.84,-27.49 15.11,-5.53 31.36,-8.01 47.09,-11.85 21.87,0 43.73,0 65.59,0 11.9,2.92 23.87,5.6 35.69,8.81 43.57,11.84 79.94,34.08 105.71,72.23 18.74,27.73 29.81,58.18 34.62,92.4 4.71,-25.92 10.41,-49.91 22.58,-72.21 22.52,-41.3 53.98,-71.83 99.56,-86.09 17.79,-5.56 35.88,-10.12 53.83,-15.15 21.86,0 43.72,0 65.59,0 14.33,3.56 29.42,5.33 42.86,11.03 47.31,20.04 94.55,40.38 140.86,62.6 46.45,22.28 91.54,47.38 137.62,70.47 69.17,34.66 138.67,68.67 208.07,102.87 50.64,24.96 102.46,46.86 157.52,60.36 41.6,10.2 83.03,16.99 126.35,9.98 40.24,-6.5 75.03,-21.54 101.36,-52.89 16.06,-19.12 27.69,-41.41 29.51,-66.62 2.9,-40.21 -8.19,-76.22 -38.6,-104.39 -34.88,-32.32 -73.97,-42.61 -120.54,-26.26 -44.48,15.61 -68.34,67.08 -32.97,109.32 14.17,16.92 32.1,22.19 48.83,9.34 16.32,-12.54 21.04,-30.4 18.71,-50.09 -1.39,-11.65 -0.04,-14.85 11.15,-12.97 8.37,1.41 17.85,4.4 23.9,9.91 17.09,15.6 21.7,36.05 17.76,58.63 -7.62,43.51 -36.05,66.23 -72.61,70.67 -47.61,5.78 -88.52,-22.64 -111.31,-61.55 -12.6,-21.5 -14.79,-45.53 -17.55,-68.97 -7.25,11.77 -13.52,24.29 -21.96,35.11 -19.77,25.38 -46.58,38.6 -78.57,40.7 -3.35,0.22 -10.11,-4.11 -10.01,-6.05 0.76,-14.56 0.31,-29.95 5.05,-43.39 9.07,-25.64 29.05,-43.81 51.14,-61.55 -3.05,0.21 -4.48,0.05 -5.75,0.43 -35.54,10.54 -72.01,15.6 -108.91,16.71 -18.04,0.54 -36.15,-1.49 -54.23,-1.92 -41.83,-0.99 -75.72,-17.43 -100.11,-51.68 -10.71,-15.04 -18.46,-31.65 -21.87,-52.02 6.1,2.12 10.6,3.98 15.26,5.26 26.74,7.38 53.29,15.68 80.35,21.59 19.16,4.18 39,5.78 58.63,7.26 18.02,1.35 36.29,2.52 54.22,1 21.28,-1.81 42.32,-6.48 63.43,-10.12 34.47,-5.95 68.81,-12.74 103.41,-17.92 33.63,-5.03 67.5,-8.47 101.27,-12.7 3.71,-0.46 7.36,-1.42 11.03,-2.15 8.02,0 16.04,0 24.06,0z"></path> </g> <g id="_2423845095168"> <path fill="#aa915d" d="M11169.16 234.15c-9.4,46.71 -33.48,83.28 -72.96,109.67 41.19,26.36 63.45,64.29 73.21,110.56 5.77,-35.17 28.02,-82.16 72.59,-110.63 -39.52,-26.51 -62.69,-63.75 -72.84,-109.6zm196.11 209.12c-1.34,3.98 -2.81,7.94 -4.01,11.99 -7.79,26.38 3.25,51.11 27.11,58.14 36.84,10.86 69.82,-13.79 72.17,-53.7 2.08,-35.52 -19.35,-60.85 -48.97,-76.37 -28.8,-15.09 -61.29,-18.23 -93.31,-11.54 -40.99,8.57 -69.52,33.64 -86.84,71.67 -9.41,20.68 -10.72,42.08 -6.46,64.12 5.09,26.26 13.57,51.21 31.78,71.33 32.87,36.31 73.31,53.82 123.22,50.88 28.83,-1.71 56.41,-7.59 81.68,-19.97 75.55,-37.01 150.1,-76.06 225.28,-113.85 62.61,-31.46 124.79,-63.92 188.57,-92.84 49.54,-22.46 101.25,-40.12 152.05,-59.94 -7.44,-2.8 -15.58,-6.1 -23.87,-8.93 -68.6,-23.41 -135.65,-50.73 -200.46,-83.03 -68.52,-34.15 -135.89,-70.58 -204,-105.58 -42.71,-21.96 -85.68,-43.45 -128.81,-64.57 -27.47,-13.45 -56.76,-22.2 -87.22,-23.96 -49.91,-2.89 -92.75,12.94 -126.33,51.68 -20.86,24.07 -30.45,52.49 -33.77,83.01 -5.35,49.23 26.97,95.09 65.99,114.21 34.41,16.86 69.73,13.42 105.5,4.76 36.35,-8.8 60.85,-42.26 66.33,-74.15 3.92,-22.78 -17.07,-58.85 -46.99,-64.69 -33.21,-6.48 -62.93,24.44 -53.74,52.46 2.27,6.9 2.97,14.33 4.35,21.37 -4.38,1.07 -8.15,2.05 -11.96,2.91 -17.58,3.95 -36.55,-4.78 -44.33,-20.91 -14.75,-30.59 -8.91,-69.07 17.01,-92.26 30.08,-26.93 66.85,-33.63 106.34,-24.42 25.26,5.89 45.04,20.61 61.13,39.89 20.49,24.56 30.49,52.89 25.42,85.42 -1.03,6.6 -1.42,13.29 -2.23,21.27 29.45,-24.57 60.55,-41.57 100.15,-36.21 -1.06,17.86 -4.34,34.9 -14.2,49.72 -9.81,14.75 -20.71,28.77 -31.96,44.26 9.01,-0.99 17.78,-2.36 26.61,-2.88 40.38,-2.35 80.75,-5.58 121.16,-6.2 21.74,-0.33 43.74,2.82 65.29,6.42 28.6,4.78 55.49,15 80.38,30.96 -6.11,3.63 -11.39,7.38 -17.15,10.08 -42.77,20.02 -87.7,28.98 -134.94,26.45 -31.77,-1.71 -63.57,-2.83 -95.34,-4.49 -16.19,-0.83 -32.36,-2.28 -50.72,-3.61 29.65,26.04 50.26,55.02 50.73,94.72 -19.11,2.48 -36.86,0.43 -53.28,-7.89 -15.94,-8.09 -31.3,-17.34 -44.66,-24.82 0,13.1 0.5,28.3 -0.11,43.45 -1.03,25.15 -12.47,46.05 -29.24,63.93 -30.11,32.11 -66.8,43.06 -110.47,35.66 -44.56,-7.56 -82.1,-42.81 -76.71,-94.01 3.77,-35.78 28.08,-52.82 63.82,-39.95zm-392.08 -197.68c1.33,-4.11 2.63,-8.1 3.9,-12.1 11.18,-35.08 -11.56,-63.34 -43.58,-62.56 -33.63,0.81 -55.21,28.6 -55.51,57.58 -0.36,33.46 18.11,58.76 46.77,74.56 24.83,13.69 52.68,15.47 80.95,14.05 31.68,-1.6 57.26,-14.51 78.28,-37.46 17.84,-19.48 30.74,-41.78 31.47,-68.64 1.28,-47.9 -13.91,-89.02 -52.13,-120.44 -24.41,-20.07 -52.41,-31.14 -83.16,-33.39 -38.61,-2.82 -75.81,5.95 -110.19,23.4 -82.98,42.1 -165.26,85.58 -248.2,127.76 -45.28,23.03 -90.73,45.91 -137.2,66.4 -46.26,20.41 -93.87,37.82 -140.93,56.41 -10.97,4.33 -22.15,8.11 -34.42,12.59 14.42,5.27 27.3,9.48 39.79,14.65 64.9,26.85 130.56,52.06 194.26,81.51 53.84,24.9 105.14,55.21 157.95,82.38 53.21,27.38 106.86,53.91 160.37,80.7 39.69,19.86 81.32,31.41 126.07,26.16 29.76,-3.5 56.34,-15.11 79.14,-35.05 27.17,-23.76 41.33,-53.78 47.14,-89.2 7.99,-48.67 -11.82,-85.18 -48.53,-113.38 -29.84,-22.92 -64.99,-25.8 -101.55,-19.76 -37.4,6.16 -63.97,24.52 -80.69,59.65 -15.22,31.98 5.15,72.33 31,80.83 18.7,6.15 36.58,6.02 51.42,-7.65 12.86,-11.85 18,-27.22 12.43,-44.91 -1.7,-5.4 -2.98,-10.93 -4.44,-16.34 20.03,-8.91 38.43,-5.15 52.51,10.08 11.18,12.07 12.62,28.17 12.1,42.18 -0.93,24.96 -11.51,47.92 -32.59,62.84 -41.69,29.49 -107.82,31.1 -150.14,-11.12 -26,-25.93 -39.38,-56.42 -34.99,-93.65 0.85,-7.23 1.21,-14.53 1.9,-23.2 -29.62,24.51 -60.86,41.06 -98.92,36.6 -0.61,-40.31 20.89,-69.02 49.68,-95.04 -17.21,1.36 -32.2,3 -47.24,3.66 -39.49,1.72 -78.98,3.76 -118.48,4.29 -47.14,0.64 -91.15,-11.57 -132.29,-36 5.13,-3.33 9.76,-6.65 14.69,-9.43 3.06,-1.73 6.68,-2.44 9.89,-3.95 53.16,-25.14 109.54,-26.25 166.59,-22.43 31.64,2.12 63.28,4.33 94.94,6.39 2.58,0.17 5.2,-0.49 9.22,-0.92 -27.8,-25.83 -46.53,-54.51 -47.32,-92.27 18.21,-2.6 36.3,-1.12 52.74,6.78 16.24,7.81 31.33,18.04 46.63,27.04 0,-0.66 0.06,-2.46 -0.01,-4.25 -0.59,-16.66 -4.19,-33.86 -1.21,-49.85 6.76,-36.27 29.67,-62.06 61.22,-80.31 28.13,-16.28 58.07,-16.62 88.44,-8.42 18.19,4.9 35.32,13.02 47.46,27.91 15.73,19.3 22.15,41.93 18.42,66.76 -2.35,15.66 -8.06,29.91 -23.17,37.84 -12.93,6.8 -26.32,4.37 -40.5,0.69zm1275.01 -245.59c14.49,2.91 29.28,4.81 43.41,8.94 29.24,8.55 53.28,25.06 72.96,48.68 15.54,18.66 28.76,38.4 36.08,61.51 4.07,12.84 7.8,26.13 9.03,39.47 5.86,63.18 -14.05,118 -55.87,165.27 -2.12,2.4 -3.62,5.34 -5.72,7.76 -11.59,13.37 -11.06,12.84 0.72,25.91 30.45,33.77 52.43,71.79 59.18,117.8 10.59,72.05 -12.42,131.42 -67.43,177.89 -21.49,18.16 -47.72,27.81 -76.38,30.93 -46.02,5 -91.13,-0.36 -136.23,-8.69 -46,-8.49 -92.31,-15.38 -138.16,-24.57 -34.43,-6.89 -69.17,-8.48 -103.61,-5.63 -31.48,2.61 -62.7,9.85 -93.69,16.64 -19.01,4.15 -37.38,11.28 -57.14,17.43 6.66,-24.39 16.53,-46.82 33.81,-65.03 18.39,-19.39 40.84,-32.24 67.72,-36.18 9.21,-1.34 18.52,-3.46 27.73,-3.21 33.97,0.93 68.02,1.63 101.85,4.56 20.03,1.74 39.73,7.5 59.57,11.44 -1.13,1.31 -2.27,2.62 -3.41,3.93 -7.12,-9.24 -13.56,-19.12 -21.51,-27.59 -20.53,-21.87 -33.37,-46.37 -30.71,-77.37 0.54,-6.41 1.08,-9.79 9.46,-9.44 43.03,1.84 72.16,24.41 92.9,60.21 2.5,4.31 4.58,8.87 6.92,13.28 0.3,0.55 0.99,0.88 1.24,1.1 3.2,-15.75 5.69,-31.83 9.82,-47.49 6.98,-26.44 23.93,-45.8 45.59,-61.83 17.52,-12.98 37.42,-21.64 58.41,-21.19 44.53,0.93 72.65,16.06 87.28,62.83 8.25,26.41 -1.51,62.58 -21.89,71.55 -9.33,4.11 -20.29,4.51 -31.35,6.76 0.78,-10.92 1.87,-18.74 1.78,-26.54 -0.22,-18.04 -12.54,-41.28 -34.67,-44.11 -11.62,-1.5 -20.95,3.54 -28.67,11.06 -32.75,31.88 -26.25,84.11 12.09,106.13 52.93,30.39 113.87,15.64 149.38,-30.57 29.57,-38.47 37.5,-89.4 11.47,-136.09 -24.87,-44.62 -63.14,-67.63 -112.51,-73.97 -18.53,-2.37 -37.54,-5.62 -55.89,-3.86 -26.86,2.57 -53.53,8.38 -79.91,14.45 -50.36,11.59 -97.4,32.2 -143.6,54.9 -73.28,36.03 -146.81,71.52 -219.89,107.91 -47.1,23.46 -93.21,48.89 -140.46,72.02 -41.04,20.09 -82.6,39.28 -124.86,56.62 -17.48,7.18 -37.27,9.03 -56.17,12.41 -34.38,6.14 -68.05,1.08 -101.03,-8.76 -26.85,-8.01 -51.74,-19.58 -73.18,-38.75 -31.03,-27.74 -49.4,-62.21 -59.46,-101.81 -0.88,-3.46 -0.46,-7.22 -1.11,-10.76 -0.64,-3.43 -1.87,-6.75 -3.16,-11.21 -4.91,36.53 -16.8,69.49 -38.53,98.12 -20.35,26.81 -46.83,45.94 -78.46,57.95 -33.99,12.91 -69.11,19.51 -105.36,17.29 -30.39,-1.87 -60.03,-7.94 -87.9,-21.3 -62.23,-29.84 -125.02,-58.53 -186.87,-89.13 -73.17,-36.2 -145.11,-74.89 -218.48,-110.66 -58.02,-28.28 -115.38,-58.66 -177.7,-77 -31.75,-9.35 -63.57,-18.27 -97.08,-21.21 -39.83,-3.5 -78.19,0.13 -114.71,15.94 -42.5,18.4 -69.68,51.16 -78.17,96.59 -12.47,66.63 26.88,129.83 95.54,144.75 31.34,6.8 64.19,1.23 89.14,-21.66 34.66,-31.78 27.32,-81.92 -8.41,-105.12 -19.01,-12.35 -40.72,-1.13 -48.86,20.2 -4.99,13.05 -4.39,28.25 -6.45,43.65 -28.09,7.06 -45.07,-11.83 -51.16,-39.57 -9.85,-44.84 24.36,-93.65 72.05,-97.88 41.9,-3.72 72.96,13.11 99.28,43.55 18.21,21.06 26.14,45.45 27.59,72.65 0.24,4.45 1.84,8.84 2.39,11.33 10.34,-13.69 20.51,-29.26 32.79,-42.92 19.02,-21.15 44.18,-29.72 72.29,-29.47 2.05,0.02 5.55,4.29 5.84,6.88 3.42,28.98 -6.61,53.46 -25.8,74.81 -9.18,10.23 -17.93,20.84 -23.07,26.83 15.05,-2.72 36.77,-6.98 58.61,-10.47 12.72,-2.03 25.68,-4.18 38.47,-3.92 29.97,0.61 60.03,1.39 89.8,4.49 21.69,2.26 39.99,13.44 56.49,28.33 21.52,19.41 32.67,44 41.02,70.73 -28.46,-8.11 -56.16,-16.96 -84.35,-23.83 -43.11,-10.5 -87.37,-13.23 -131.24,-9.4 -35.42,3.1 -70.31,12.02 -105.48,18.16 -31.66,5.53 -63.24,11.95 -95.11,15.82 -30.71,3.73 -61.76,6.37 -92.67,6.47 -42.03,0.14 -78.75,-14.5 -109.53,-44.49 -27.09,-26.4 -43.77,-58 -53.62,-93.86 -1.09,-3.96 -1.83,-8.01 -2.72,-12.02 0,-18.94 0,-37.88 0,-56.82 3.79,-13.5 6.58,-27.4 11.58,-40.45 12.68,-33.09 31.52,-62.43 56.34,-87.95 2.05,-2.11 2.92,-8.07 1.44,-10.41 -4.01,-6.29 -9.76,-11.45 -14.52,-17.32 -16.01,-19.73 -31.07,-40.18 -39.49,-64.46 -5.75,-16.57 -10.27,-33.57 -15.35,-50.37 0,-18.21 0,-36.42 0,-54.63 0.57,-0.4 1.59,-0.75 1.63,-1.21 2.21,-24.28 11.32,-46.21 23.77,-66.72 24.09,-39.67 56.52,-68.79 103.44,-78.6 10.95,-2.29 21.96,-4.31 32.95,-6.44 8.02,0 16.03,0 24.05,0 3.66,0.72 7.31,1.86 11.01,2.12 14.77,1.03 29.67,0.92 44.32,2.84 20.51,2.69 40.85,6.74 61.25,10.34 34.8,6.15 69.5,12.92 104.4,18.43 26.16,4.14 52.5,7.43 78.89,9.66 12.82,1.08 25.92,-1.55 38.91,-1.79 35.06,-0.64 68.72,-8.92 102.14,-18.34 16.2,-4.57 32.07,-10.28 49.2,-15.83 -3.28,8.3 -6.33,15.44 -8.94,22.74 -10.77,30.07 -30.43,52.82 -58.39,67.62 -18.85,9.98 -39.65,12.62 -61.12,14.28 -35.9,2.78 -71.31,1.66 -106.63,-4.39 -18.38,-3.15 -36.61,-7.11 -54.58,-10.64 9.68,10.22 19.68,20.43 29.27,31.01 18.03,19.89 26.6,43.09 23.93,70.14 -0.62,6.28 -2.72,10.04 -9.96,9.45 -17.67,-1.45 -34.38,-5.99 -49.73,-14.96 -24.54,-14.35 -39.27,-36.86 -50.97,-62.24 -2.26,14.54 -3.43,28.8 -6.82,42.51 -5.86,23.62 -19.05,42.92 -37.17,59.34 -27.69,25.07 -59.2,35.17 -96.15,27.68 -45.43,-9.2 -73.94,-61.98 -59.71,-103.56 7.26,-21.19 25.36,-35.64 43.12,-34.05 6.09,0.55 11.27,2.38 8.87,9.85 -3.98,12.4 -2.31,24.54 3,35.56 10.65,22.05 30.75,32.4 50.84,19.58 27.19,-17.35 39.87,-58.47 19.2,-89.69 -17.93,-27.07 -45.67,-36.6 -75.69,-38.28 -42.44,-2.38 -76.8,17.61 -100.19,50.76 -19.76,28 -29.29,61.43 -21.29,97.06 10.16,45.2 37.3,77.47 78.85,95.94 33.29,14.8 68.93,18.87 105.88,16.42 35.8,-2.38 69.76,-11.52 103.63,-21.39 57.49,-16.77 110.88,-43.71 164.25,-70.16 79.59,-39.43 158.2,-80.81 237.59,-120.65 46.68,-23.43 93.95,-45.72 141.18,-68.03 20.95,-9.9 42.12,-19.53 63.84,-27.49 15.12,-5.53 31.36,-8.01 47.1,-11.85 21.86,0 43.73,0 65.59,0 11.9,2.92 23.87,5.6 35.69,8.81 43.57,11.84 79.93,34.08 105.71,72.23 18.74,27.73 29.82,58.18 34.63,92.4 4.72,-25.92 10.41,-49.91 22.58,-72.21 22.52,-41.3 53.98,-71.83 99.56,-86.09 17.78,-5.56 35.87,-10.12 53.83,-15.15 21.86,0 43.73,0 65.59,0 14.33,3.56 29.42,5.33 42.85,11.03 47.31,20.04 94.55,40.38 140.87,62.6 46.45,22.28 91.54,47.38 137.62,70.47 69.17,34.66 138.67,68.67 208.07,102.87 50.64,24.96 102.46,46.86 157.53,60.36 41.6,10.2 83.02,16.99 126.35,9.98 40.23,-6.5 75.03,-21.54 101.36,-52.89 16.06,-19.12 27.68,-41.41 29.5,-66.62 2.9,-40.21 -8.19,-76.22 -38.58,-104.39 -34.89,-32.32 -73.97,-42.61 -120.54,-26.26 -44.48,15.61 -68.34,67.08 -32.97,109.32 14.17,16.92 32.1,22.19 48.84,9.34 16.32,-12.54 21.03,-30.4 18.7,-50.09 -1.38,-11.65 -0.03,-14.85 11.15,-12.97 8.37,1.41 17.85,4.4 23.89,9.91 17.09,15.6 21.71,36.05 17.76,58.63 -7.61,43.51 -36.06,66.23 -72.6,70.67 -47.62,5.78 -88.52,-22.64 -111.31,-61.55 -12.59,-21.5 -14.78,-45.53 -17.55,-68.97 -7.26,11.77 -13.52,24.29 -21.96,35.11 -19.78,25.38 -46.58,38.6 -78.58,40.7 -3.35,0.22 -10.11,-4.11 -10.01,-6.05 0.76,-14.56 0.3,-29.95 5.05,-43.39 9.07,-25.64 29.05,-43.81 51.13,-61.55 -3.05,0.21 -4.48,0.05 -5.74,0.43 -35.55,10.54 -72.01,15.6 -108.92,16.71 -18.03,0.54 -36.14,-1.49 -54.22,-1.92 -41.83,-0.99 -75.71,-17.43 -100.11,-51.68 -10.71,-15.04 -18.46,-31.65 -21.86,-52.02 6.1,2.12 10.59,3.98 15.25,5.26 26.74,7.38 53.29,15.68 80.35,21.59 19.17,4.18 39,5.78 58.63,7.26 18.01,1.35 36.29,2.52 54.22,1 21.28,-1.81 42.32,-6.48 63.43,-10.12 34.47,-5.95 68.82,-12.74 103.41,-17.92 33.63,-5.03 67.51,-8.47 101.27,-12.7 3.71,-0.46 7.36,-1.42 11.03,-2.15 8.02,0 16.03,0 24.05,0z"></path> <path fill="#aa915d" d="M13651.29 234.15c-9.4,46.71 -33.48,83.28 -72.95,109.67 41.19,26.36 63.44,64.29 73.21,110.56 5.77,-35.17 28.02,-82.16 72.59,-110.63 -39.52,-26.51 -62.69,-63.75 -72.84,-109.6zm196.11 209.12c-1.34,3.98 -2.81,7.94 -4.01,11.99 -7.79,26.38 3.24,51.11 27.11,58.14 36.83,10.86 69.83,-13.79 72.17,-53.7 2.08,-35.52 -19.34,-60.85 -48.97,-76.37 -28.8,-15.09 -61.3,-18.23 -93.31,-11.54 -40.98,8.57 -69.52,33.64 -86.83,71.67 -9.42,20.68 -10.73,42.08 -6.47,64.12 5.09,26.26 13.56,51.21 31.78,71.33 32.87,36.31 73.31,53.82 123.23,50.88 28.82,-1.71 56.41,-7.59 81.68,-19.97 75.54,-37.01 150.1,-76.06 225.27,-113.85 62.61,-31.46 124.8,-63.92 188.56,-92.84 49.54,-22.46 101.26,-40.12 152.05,-59.94 -7.44,-2.8 -15.58,-6.1 -23.88,-8.93 -68.59,-23.41 -135.64,-50.73 -200.45,-83.03 -68.52,-34.15 -135.89,-70.58 -203.99,-105.58 -42.72,-21.96 -85.68,-43.45 -128.83,-64.57 -27.47,-13.45 -56.75,-22.2 -87.22,-23.96 -49.91,-2.89 -92.75,12.94 -126.33,51.68 -20.86,24.07 -30.45,52.49 -33.77,83.01 -5.35,49.23 26.97,95.09 65.99,114.21 34.41,16.86 69.74,13.42 105.5,4.76 36.36,-8.8 60.85,-42.26 66.34,-74.15 3.92,-22.78 -17.07,-58.85 -46.99,-64.69 -33.21,-6.48 -62.93,24.44 -53.74,52.46 2.27,6.9 2.96,14.33 4.35,21.37 -4.38,1.07 -8.15,2.05 -11.96,2.91 -17.59,3.95 -36.55,-4.78 -44.34,-20.91 -14.75,-30.59 -8.9,-69.07 17.01,-92.26 30.09,-26.93 66.86,-33.63 106.35,-24.42 25.27,5.89 45.04,20.61 61.14,39.89 20.49,24.56 30.49,52.89 25.42,85.42 -1.03,6.6 -1.42,13.29 -2.24,21.27 29.45,-24.57 60.56,-41.57 100.15,-36.21 -1.06,17.86 -4.33,34.9 -14.19,49.72 -9.81,14.75 -20.71,28.77 -31.97,44.26 9.01,-0.99 17.78,-2.36 26.61,-2.88 40.38,-2.35 80.75,-5.58 121.16,-6.2 21.74,-0.33 43.74,2.82 65.29,6.42 28.6,4.78 55.49,15 80.38,30.96 -6.11,3.63 -11.39,7.38 -17.15,10.08 -42.75,20.02 -87.69,28.98 -134.94,26.45 -31.77,-1.71 -63.57,-2.83 -95.34,-4.49 -16.2,-0.83 -32.36,-2.28 -50.72,-3.61 29.65,26.04 50.27,55.02 50.73,94.72 -19.11,2.48 -36.86,0.43 -53.28,-7.89 -15.95,-8.09 -31.31,-17.34 -44.66,-24.82 0,13.1 0.5,28.3 -0.11,43.45 -1.03,25.15 -12.47,46.05 -29.24,63.93 -30.1,32.11 -66.81,43.06 -110.48,35.66 -44.55,-7.56 -82.1,-42.81 -76.7,-94.01 3.76,-35.78 28.07,-52.82 63.82,-39.95zm-392.07 -197.68c1.33,-4.11 2.62,-8.1 3.89,-12.1 11.19,-35.08 -11.55,-63.34 -43.57,-62.56 -33.63,0.81 -55.21,28.6 -55.51,57.58 -0.35,33.46 18.11,58.76 46.77,74.56 24.83,13.69 52.69,15.47 80.95,14.05 31.68,-1.6 57.26,-14.51 78.29,-37.46 17.84,-19.48 30.74,-41.78 31.46,-68.64 1.28,-47.9 -13.9,-89.02 -52.12,-120.44 -24.41,-20.07 -52.41,-31.14 -83.17,-33.39 -38.61,-2.82 -75.82,5.95 -110.19,23.4 -82.98,42.1 -165.26,85.58 -248.2,127.76 -45.28,23.03 -90.74,45.91 -137.2,66.4 -46.27,20.41 -93.86,37.82 -140.92,56.41 -10.97,4.33 -22.15,8.11 -34.43,12.59 14.43,5.27 27.31,9.48 39.8,14.65 64.9,26.85 130.56,52.06 194.26,81.51 53.84,24.9 105.13,55.21 157.95,82.38 53.21,27.38 106.86,53.91 160.37,80.7 39.7,19.86 81.33,31.41 126.08,26.16 29.75,-3.5 56.34,-15.11 79.14,-35.05 27.17,-23.76 41.32,-53.78 47.14,-89.2 7.98,-48.67 -11.82,-85.18 -48.53,-113.38 -29.84,-22.92 -64.99,-25.8 -101.54,-19.76 -37.4,6.16 -63.98,24.52 -80.69,59.65 -15.22,31.98 5.14,72.33 30.99,80.83 18.7,6.15 36.58,6.02 51.42,-7.65 12.85,-11.85 17.99,-27.22 12.42,-44.91 -1.7,-5.4 -2.98,-10.93 -4.43,-16.34 20.03,-8.91 38.43,-5.15 52.51,10.08 11.18,12.07 12.62,28.17 12.1,42.18 -0.92,24.96 -11.5,47.92 -32.59,62.84 -41.68,29.49 -107.81,31.1 -150.14,-11.12 -25.99,-25.93 -39.37,-56.42 -34.98,-93.65 0.85,-7.23 1.21,-14.53 1.9,-23.2 -29.61,24.51 -60.86,41.06 -98.92,36.6 -0.6,-40.31 20.9,-69.02 49.68,-95.04 -17.21,1.36 -32.2,3 -47.24,3.66 -39.48,1.72 -78.97,3.76 -118.48,4.29 -47.14,0.64 -91.15,-11.57 -132.28,-36 5.12,-3.33 9.76,-6.65 14.68,-9.43 3.07,-1.73 6.68,-2.44 9.89,-3.95 53.16,-25.14 109.55,-26.25 166.6,-22.43 31.65,2.12 63.28,4.33 94.94,6.39 2.57,0.17 5.19,-0.49 9.22,-0.92 -27.8,-25.83 -46.53,-54.51 -47.32,-92.27 18.21,-2.6 36.3,-1.12 52.74,6.78 16.24,7.81 31.33,18.04 46.63,27.04 0,-0.66 0.06,-2.46 -0.01,-4.25 -0.59,-16.66 -4.18,-33.86 -1.21,-49.85 6.76,-36.27 29.68,-62.06 61.22,-80.31 28.13,-16.28 58.07,-16.62 88.44,-8.42 18.2,4.9 35.32,13.02 47.46,27.91 15.73,19.3 22.15,41.93 18.43,66.76 -2.35,15.66 -8.07,29.91 -23.18,37.84 -12.93,6.8 -26.32,4.37 -40.49,0.69zm1275.01 -245.59c14.48,2.91 29.27,4.81 43.41,8.94 29.24,8.55 53.28,25.06 72.96,48.68 15.53,18.66 28.75,38.4 36.08,61.51 4.07,12.84 7.79,26.13 9.03,39.47 5.85,63.18 -14.05,118 -55.87,165.27 -2.12,2.4 -3.62,5.34 -5.72,7.76 -11.59,13.37 -11.05,12.84 0.72,25.91 30.45,33.77 52.43,71.79 59.19,117.8 10.59,72.05 -12.42,131.42 -67.44,177.89 -21.49,18.16 -47.72,27.81 -76.37,30.93 -46.01,5 -91.13,-0.36 -136.23,-8.69 -46,-8.49 -92.31,-15.38 -138.16,-24.57 -34.43,-6.89 -69.17,-8.48 -103.6,-5.63 -31.49,2.61 -62.71,9.85 -93.7,16.64 -19.01,4.15 -37.37,11.28 -57.14,17.43 6.66,-24.39 16.53,-46.82 33.82,-65.03 18.4,-19.39 40.83,-32.24 67.72,-36.18 9.22,-1.34 18.52,-3.46 27.73,-3.21 33.97,0.93 68.02,1.63 101.84,4.56 20.04,1.74 39.73,7.5 59.57,11.44 -1.13,1.31 -2.27,2.62 -3.41,3.93 -7.12,-9.24 -13.56,-19.12 -21.5,-27.59 -20.53,-21.87 -33.37,-46.37 -30.71,-77.37 0.55,-6.41 1.09,-9.79 9.47,-9.44 43.02,1.84 72.15,24.41 92.89,60.21 2.5,4.31 4.59,8.87 6.92,13.28 0.29,0.55 0.99,0.88 1.24,1.1 3.2,-15.75 5.68,-31.83 9.81,-47.49 6.98,-26.44 23.94,-45.8 45.59,-61.83 17.52,-12.98 37.42,-21.64 58.42,-21.19 44.53,0.93 72.64,16.06 87.27,62.83 8.26,26.41 -1.51,62.58 -21.89,71.55 -9.32,4.11 -20.29,4.51 -31.34,6.76 0.77,-10.92 1.86,-18.74 1.77,-26.54 -0.21,-18.04 -12.54,-41.28 -34.66,-44.11 -11.63,-1.5 -20.95,3.54 -28.67,11.06 -32.76,31.88 -26.25,84.11 12.09,106.13 52.93,30.39 113.87,15.64 149.38,-30.57 29.57,-38.47 37.5,-89.4 11.47,-136.09 -24.88,-44.62 -63.13,-67.63 -112.51,-73.97 -18.53,-2.37 -37.53,-5.62 -55.88,-3.86 -26.86,2.57 -53.54,8.38 -79.92,14.45 -50.35,11.59 -97.4,32.2 -143.6,54.9 -73.27,36.03 -146.81,71.52 -219.88,107.91 -47.1,23.46 -93.22,48.89 -140.47,72.02 -41.04,20.09 -82.6,39.28 -124.86,56.62 -17.48,7.18 -37.27,9.03 -56.17,12.41 -34.37,6.14 -68.05,1.08 -101.03,-8.76 -26.85,-8.01 -51.74,-19.58 -73.18,-38.75 -31.03,-27.74 -49.4,-62.21 -59.46,-101.81 -0.87,-3.46 -0.46,-7.22 -1.11,-10.76 -0.64,-3.43 -1.87,-6.75 -3.16,-11.21 -4.91,36.53 -16.79,69.49 -38.54,98.12 -20.35,26.81 -46.82,45.94 -78.45,57.95 -34,12.91 -69.11,19.51 -105.36,17.29 -30.39,-1.87 -60.04,-7.94 -87.91,-21.3 -62.23,-29.84 -125.02,-58.53 -186.87,-89.13 -73.17,-36.2 -145.1,-74.89 -218.47,-110.66 -58.03,-28.28 -115.38,-58.66 -177.7,-77 -31.76,-9.35 -63.58,-18.27 -97.09,-21.21 -39.84,-3.5 -78.2,0.13 -114.7,15.94 -42.5,18.4 -69.69,51.16 -78.18,96.59 -12.46,66.63 26.89,129.83 95.56,144.75 31.34,6.8 64.19,1.23 89.13,-21.66 34.66,-31.78 27.33,-81.92 -8.41,-105.12 -19.02,-12.35 -40.72,-1.13 -48.86,20.2 -4.99,13.05 -4.39,28.25 -6.46,43.65 -28.09,7.06 -45.07,-11.83 -51.16,-39.57 -9.84,-44.84 24.37,-93.65 72.05,-97.88 41.9,-3.72 72.94,13.11 99.28,43.55 18.21,21.06 26.14,45.45 27.6,72.65 0.24,4.45 1.85,8.84 2.39,11.33 10.34,-13.69 20.5,-29.26 32.79,-42.92 19.03,-21.15 44.18,-29.72 72.29,-29.47 2.04,0.02 5.53,4.29 5.84,6.88 3.41,28.98 -6.62,53.46 -25.8,74.81 -9.18,10.23 -17.93,20.84 -23.06,26.83 15.04,-2.72 36.76,-6.98 58.61,-10.47 12.72,-2.03 25.68,-4.18 38.48,-3.92 29.96,0.61 60.02,1.39 89.79,4.49 21.7,2.26 39.99,13.44 56.49,28.33 21.52,19.41 32.67,44 41.02,70.73 -28.45,-8.11 -56.16,-16.96 -84.34,-23.83 -43.11,-10.5 -87.37,-13.23 -131.25,-9.4 -35.42,3.1 -70.31,12.02 -105.48,18.16 -31.66,5.53 -63.24,11.95 -95.11,15.82 -30.71,3.73 -61.75,6.37 -92.67,6.47 -42.02,0.14 -78.75,-14.5 -109.53,-44.49 -27.09,-26.4 -43.76,-58 -53.62,-93.86 -1.09,-3.96 -1.82,-8.01 -2.72,-12.02 0,-18.94 0,-37.88 0,-56.82 3.79,-13.5 6.58,-27.4 11.58,-40.45 12.68,-33.09 31.52,-62.43 56.34,-87.95 2.05,-2.11 2.93,-8.07 1.44,-10.41 -4.01,-6.29 -9.76,-11.45 -14.51,-17.32 -16.01,-19.73 -31.08,-40.18 -39.51,-64.46 -5.74,-16.57 -10.26,-33.57 -15.34,-50.37 0,-18.21 0,-36.42 0,-54.63 0.56,-0.4 1.59,-0.75 1.63,-1.21 2.21,-24.28 11.33,-46.21 23.77,-66.72 24.08,-39.67 56.52,-68.79 103.44,-78.6 10.96,-2.29 21.96,-4.31 32.95,-6.44 8.02,0 16.02,0 24.05,0 3.66,0.72 7.31,1.86 11.01,2.12 14.77,1.03 29.67,0.92 44.31,2.84 20.51,2.69 40.86,6.74 61.25,10.34 34.8,6.15 69.51,12.92 104.41,18.43 26.15,4.14 52.5,7.43 78.88,9.66 12.82,1.08 25.92,-1.55 38.9,-1.79 35.06,-0.64 68.73,-8.92 102.15,-18.34 16.19,-4.57 32.07,-10.28 49.2,-15.83 -3.28,8.3 -6.34,15.44 -8.95,22.74 -10.77,30.07 -30.42,52.82 -58.39,67.62 -18.85,9.98 -39.65,12.62 -61.12,14.28 -35.9,2.78 -71.31,1.66 -106.63,-4.39 -18.38,-3.15 -36.6,-7.11 -54.58,-10.64 9.68,10.22 19.68,20.43 29.27,31.01 18.03,19.89 26.61,43.09 23.93,70.14 -0.62,6.28 -2.72,10.04 -9.97,9.45 -17.67,-1.45 -34.37,-5.99 -49.72,-14.96 -24.54,-14.35 -39.27,-36.86 -50.98,-62.24 -2.25,14.54 -3.42,28.8 -6.82,42.51 -5.85,23.62 -19.04,42.92 -37.16,59.34 -27.7,25.07 -59.19,35.17 -96.15,27.68 -45.42,-9.2 -73.94,-61.98 -59.7,-103.56 7.25,-21.19 25.35,-35.64 43.12,-34.05 6.08,0.55 11.26,2.38 8.86,9.85 -3.98,12.4 -2.32,24.54 3,35.56 10.65,22.05 30.75,32.4 50.84,19.58 27.19,-17.35 39.87,-58.47 19.19,-89.69 -17.92,-27.07 -45.67,-36.6 -75.67,-38.28 -42.44,-2.38 -76.8,17.61 -100.21,50.76 -19.76,28 -29.28,61.43 -21.28,97.06 10.16,45.2 37.3,77.47 78.84,95.94 33.29,14.8 68.93,18.87 105.88,16.42 35.79,-2.38 69.76,-11.52 103.63,-21.39 57.5,-16.77 110.88,-43.71 164.26,-70.16 79.58,-39.43 158.2,-80.81 237.59,-120.65 46.68,-23.43 93.95,-45.72 141.19,-68.03 20.94,-9.9 42.11,-19.53 63.84,-27.49 15.11,-5.53 31.36,-8.01 47.09,-11.85 21.87,0 43.73,0 65.59,0 11.9,2.92 23.87,5.6 35.69,8.81 43.57,11.84 79.94,34.08 105.71,72.23 18.74,27.73 29.81,58.18 34.62,92.4 4.71,-25.92 10.41,-49.91 22.58,-72.21 22.52,-41.3 53.98,-71.83 99.56,-86.09 17.79,-5.56 35.88,-10.12 53.83,-15.15 21.86,0 43.72,0 65.59,0 14.33,3.56 29.42,5.33 42.86,11.03 47.31,20.04 94.55,40.38 140.86,62.6 46.45,22.28 91.54,47.38 137.62,70.47 69.17,34.66 138.67,68.67 208.07,102.87 50.64,24.96 102.46,46.86 157.52,60.36 41.6,10.2 83.03,16.99 126.35,9.98 40.24,-6.5 75.03,-21.54 101.36,-52.89 16.06,-19.12 27.69,-41.41 29.51,-66.62 2.9,-40.21 -8.19,-76.22 -38.6,-104.39 -34.88,-32.32 -73.97,-42.61 -120.54,-26.26 -44.48,15.61 -68.34,67.08 -32.97,109.32 14.17,16.92 32.1,22.19 48.83,9.34 16.32,-12.54 21.04,-30.4 18.71,-50.09 -1.39,-11.65 -0.04,-14.85 11.15,-12.97 8.37,1.41 17.85,4.4 23.9,9.91 17.09,15.6 21.7,36.05 17.76,58.63 -7.62,43.51 -36.05,66.23 -72.61,70.67 -47.61,5.78 -88.52,-22.64 -111.31,-61.55 -12.6,-21.5 -14.79,-45.53 -17.55,-68.97 -7.25,11.77 -13.52,24.29 -21.96,35.11 -19.77,25.38 -46.58,38.6 -78.57,40.7 -3.35,0.22 -10.11,-4.11 -10.01,-6.05 0.76,-14.56 0.31,-29.95 5.05,-43.39 9.07,-25.64 29.05,-43.81 51.14,-61.55 -3.05,0.21 -4.48,0.05 -5.75,0.43 -35.54,10.54 -72.01,15.6 -108.91,16.71 -18.04,0.54 -36.15,-1.49 -54.23,-1.92 -41.83,-0.99 -75.72,-17.43 -100.11,-51.68 -10.71,-15.04 -18.46,-31.65 -21.87,-52.02 6.1,2.12 10.6,3.98 15.26,5.26 26.74,7.38 53.29,15.68 80.35,21.59 19.16,4.18 39,5.78 58.63,7.26 18.02,1.35 36.29,2.52 54.22,1 21.28,-1.81 42.32,-6.48 63.43,-10.12 34.47,-5.95 68.81,-12.74 103.41,-17.92 33.63,-5.03 67.5,-8.47 101.27,-12.7 3.71,-0.46 7.36,-1.42 11.03,-2.15 8.02,0 16.04,0 24.06,0z"></path> </g> <g id="_2423845093968"> <path fill="#aa915d" d="M16133.44 234.15c-9.4,46.71 -33.48,83.28 -72.96,109.67 41.19,26.36 63.45,64.29 73.21,110.56 5.77,-35.17 28.02,-82.16 72.59,-110.63 -39.52,-26.51 -62.69,-63.75 -72.84,-109.6zm196.11 209.12c-1.34,3.98 -2.81,7.94 -4.01,11.99 -7.79,26.38 3.25,51.11 27.11,58.14 36.84,10.86 69.82,-13.79 72.17,-53.7 2.08,-35.52 -19.35,-60.85 -48.97,-76.37 -28.8,-15.09 -61.29,-18.23 -93.31,-11.54 -40.99,8.57 -69.52,33.64 -86.84,71.67 -9.41,20.68 -10.72,42.08 -6.46,64.12 5.09,26.26 13.57,51.21 31.78,71.33 32.87,36.31 73.31,53.82 123.22,50.88 28.83,-1.71 56.41,-7.59 81.68,-19.97 75.55,-37.01 150.1,-76.06 225.28,-113.85 62.61,-31.46 124.79,-63.92 188.57,-92.84 49.54,-22.46 101.25,-40.12 152.05,-59.94 -7.44,-2.8 -15.58,-6.1 -23.87,-8.93 -68.6,-23.41 -135.65,-50.73 -200.46,-83.03 -68.52,-34.15 -135.89,-70.58 -204,-105.58 -42.71,-21.96 -85.68,-43.45 -128.81,-64.57 -27.47,-13.45 -56.76,-22.2 -87.22,-23.96 -49.91,-2.89 -92.75,12.94 -126.33,51.68 -20.86,24.07 -30.45,52.49 -33.77,83.01 -5.35,49.23 26.97,95.09 65.99,114.21 34.41,16.86 69.73,13.42 105.5,4.76 36.35,-8.8 60.85,-42.26 66.33,-74.15 3.92,-22.78 -17.07,-58.85 -46.99,-64.69 -33.21,-6.48 -62.93,24.44 -53.74,52.46 2.27,6.9 2.97,14.33 4.35,21.37 -4.38,1.07 -8.15,2.05 -11.96,2.91 -17.58,3.95 -36.55,-4.78 -44.33,-20.91 -14.75,-30.59 -8.91,-69.07 17.01,-92.26 30.08,-26.93 66.85,-33.63 106.34,-24.42 25.26,5.89 45.04,20.61 61.13,39.89 20.49,24.56 30.49,52.89 25.42,85.42 -1.03,6.6 -1.42,13.29 -2.23,21.27 29.45,-24.57 60.55,-41.57 100.15,-36.21 -1.06,17.86 -4.34,34.9 -14.2,49.72 -9.81,14.75 -20.71,28.77 -31.96,44.26 9.01,-0.99 17.78,-2.36 26.61,-2.88 40.38,-2.35 80.75,-5.58 121.16,-6.2 21.74,-0.33 43.74,2.82 65.29,6.42 28.6,4.78 55.49,15 80.38,30.96 -6.11,3.63 -11.39,7.38 -17.15,10.08 -42.77,20.02 -87.7,28.98 -134.94,26.45 -31.77,-1.71 -63.57,-2.83 -95.34,-4.49 -16.19,-0.83 -32.36,-2.28 -50.72,-3.61 29.65,26.04 50.26,55.02 50.73,94.72 -19.11,2.48 -36.86,0.43 -53.28,-7.89 -15.94,-8.09 -31.3,-17.34 -44.66,-24.82 0,13.1 0.5,28.3 -0.11,43.45 -1.03,25.15 -12.47,46.05 -29.24,63.93 -30.11,32.11 -66.8,43.06 -110.47,35.66 -44.56,-7.56 -82.1,-42.81 -76.71,-94.01 3.77,-35.78 28.08,-52.82 63.82,-39.95zm-392.08 -197.68c1.33,-4.11 2.63,-8.1 3.9,-12.1 11.18,-35.08 -11.56,-63.34 -43.58,-62.56 -33.63,0.81 -55.21,28.6 -55.51,57.58 -0.36,33.46 18.11,58.76 46.77,74.56 24.83,13.69 52.68,15.47 80.95,14.05 31.68,-1.6 57.26,-14.51 78.28,-37.46 17.84,-19.48 30.74,-41.78 31.47,-68.64 1.28,-47.9 -13.91,-89.02 -52.13,-120.44 -24.41,-20.07 -52.41,-31.14 -83.16,-33.39 -38.61,-2.82 -75.81,5.95 -110.19,23.4 -82.98,42.1 -165.26,85.58 -248.2,127.76 -45.28,23.03 -90.73,45.91 -137.2,66.4 -46.26,20.41 -93.87,37.82 -140.93,56.41 -10.97,4.33 -22.15,8.11 -34.42,12.59 14.42,5.27 27.3,9.48 39.79,14.65 64.9,26.85 130.56,52.06 194.26,81.51 53.84,24.9 105.14,55.21 157.95,82.38 53.21,27.38 106.86,53.91 160.37,80.7 39.69,19.86 81.32,31.41 126.07,26.16 29.76,-3.5 56.34,-15.11 79.14,-35.05 27.17,-23.76 41.33,-53.78 47.14,-89.2 7.99,-48.67 -11.82,-85.18 -48.53,-113.38 -29.84,-22.92 -64.99,-25.8 -101.55,-19.76 -37.4,6.16 -63.97,24.52 -80.69,59.65 -15.22,31.98 5.15,72.33 31,80.83 18.7,6.15 36.58,6.02 51.42,-7.65 12.86,-11.85 18,-27.22 12.43,-44.91 -1.7,-5.4 -2.98,-10.93 -4.44,-16.34 20.03,-8.91 38.43,-5.15 52.51,10.08 11.18,12.07 12.62,28.17 12.1,42.18 -0.93,24.96 -11.51,47.92 -32.59,62.84 -41.69,29.49 -107.82,31.1 -150.14,-11.12 -26,-25.93 -39.38,-56.42 -34.99,-93.65 0.85,-7.23 1.21,-14.53 1.9,-23.2 -29.62,24.51 -60.86,41.06 -98.92,36.6 -0.61,-40.31 20.89,-69.02 49.68,-95.04 -17.21,1.36 -32.2,3 -47.24,3.66 -39.49,1.72 -78.98,3.76 -118.48,4.29 -47.14,0.64 -91.15,-11.57 -132.29,-36 5.13,-3.33 9.76,-6.65 14.69,-9.43 3.06,-1.73 6.68,-2.44 9.89,-3.95 53.16,-25.14 109.54,-26.25 166.59,-22.43 31.64,2.12 63.28,4.33 94.94,6.39 2.58,0.17 5.2,-0.49 9.22,-0.92 -27.8,-25.83 -46.53,-54.51 -47.32,-92.27 18.21,-2.6 36.3,-1.12 52.74,6.78 16.24,7.81 31.33,18.04 46.63,27.04 0,-0.66 0.06,-2.46 -0.01,-4.25 -0.59,-16.66 -4.19,-33.86 -1.21,-49.85 6.76,-36.27 29.67,-62.06 61.22,-80.31 28.13,-16.28 58.07,-16.62 88.44,-8.42 18.19,4.9 35.32,13.02 47.46,27.91 15.73,19.3 22.15,41.93 18.42,66.76 -2.35,15.66 -8.06,29.91 -23.17,37.84 -12.93,6.8 -26.32,4.37 -40.5,0.69zm1275.01 -245.59c14.49,2.91 29.28,4.81 43.41,8.94 29.24,8.55 53.28,25.06 72.96,48.68 15.54,18.66 28.76,38.4 36.08,61.51 4.07,12.84 7.8,26.13 9.03,39.47 5.86,63.18 -14.05,118 -55.87,165.27 -2.12,2.4 -3.62,5.34 -5.72,7.76 -11.59,13.37 -11.06,12.84 0.72,25.91 30.45,33.77 52.43,71.79 59.18,117.8 10.59,72.05 -12.42,131.42 -67.43,177.89 -21.49,18.16 -47.72,27.81 -76.38,30.93 -46.02,5 -91.13,-0.36 -136.23,-8.69 -46,-8.49 -92.31,-15.38 -138.16,-24.57 -34.43,-6.89 -69.17,-8.48 -103.61,-5.63 -31.48,2.61 -62.7,9.85 -93.69,16.64 -19.01,4.15 -37.38,11.28 -57.14,17.43 6.66,-24.39 16.53,-46.82 33.81,-65.03 18.39,-19.39 40.84,-32.24 67.72,-36.18 9.21,-1.34 18.52,-3.46 27.73,-3.21 33.97,0.93 68.02,1.63 101.85,4.56 20.03,1.74 39.73,7.5 59.57,11.44 -1.13,1.31 -2.27,2.62 -3.41,3.93 -7.12,-9.24 -13.56,-19.12 -21.51,-27.59 -20.53,-21.87 -33.37,-46.37 -30.71,-77.37 0.54,-6.41 1.08,-9.79 9.46,-9.44 43.03,1.84 72.16,24.41 92.9,60.21 2.5,4.31 4.58,8.87 6.92,13.28 0.3,0.55 0.99,0.88 1.24,1.1 3.2,-15.75 5.69,-31.83 9.82,-47.49 6.98,-26.44 23.93,-45.8 45.59,-61.83 17.52,-12.98 37.42,-21.64 58.41,-21.19 44.53,0.93 72.65,16.06 87.28,62.83 8.25,26.41 -1.51,62.58 -21.89,71.55 -9.33,4.11 -20.29,4.51 -31.35,6.76 0.78,-10.92 1.87,-18.74 1.78,-26.54 -0.22,-18.04 -12.54,-41.28 -34.67,-44.11 -11.62,-1.5 -20.95,3.54 -28.67,11.06 -32.75,31.88 -26.25,84.11 12.09,106.13 52.93,30.39 113.87,15.64 149.38,-30.57 29.57,-38.47 37.5,-89.4 11.47,-136.09 -24.87,-44.62 -63.14,-67.63 -112.51,-73.97 -18.53,-2.37 -37.54,-5.62 -55.89,-3.86 -26.86,2.57 -53.53,8.38 -79.91,14.45 -50.36,11.59 -97.4,32.2 -143.6,54.9 -73.28,36.03 -146.81,71.52 -219.89,107.91 -47.1,23.46 -93.21,48.89 -140.46,72.02 -41.04,20.09 -82.6,39.28 -124.86,56.62 -17.48,7.18 -37.27,9.03 -56.17,12.41 -34.38,6.14 -68.05,1.08 -101.03,-8.76 -26.85,-8.01 -51.74,-19.58 -73.18,-38.75 -31.03,-27.74 -49.4,-62.21 -59.46,-101.81 -0.88,-3.46 -0.46,-7.22 -1.11,-10.76 -0.64,-3.43 -1.87,-6.75 -3.16,-11.21 -4.91,36.53 -16.8,69.49 -38.53,98.12 -20.35,26.81 -46.83,45.94 -78.46,57.95 -33.99,12.91 -69.11,19.51 -105.36,17.29 -30.39,-1.87 -60.03,-7.94 -87.9,-21.3 -62.23,-29.84 -125.02,-58.53 -186.87,-89.13 -73.17,-36.2 -145.11,-74.89 -218.48,-110.66 -58.02,-28.28 -115.38,-58.66 -177.7,-77 -31.75,-9.35 -63.57,-18.27 -97.08,-21.21 -39.83,-3.5 -78.19,0.13 -114.71,15.94 -42.5,18.4 -69.68,51.16 -78.17,96.59 -12.47,66.63 26.88,129.83 95.54,144.75 31.34,6.8 64.19,1.23 89.14,-21.66 34.66,-31.78 27.32,-81.92 -8.41,-105.12 -19.01,-12.35 -40.72,-1.13 -48.86,20.2 -4.99,13.05 -4.39,28.25 -6.45,43.65 -28.09,7.06 -45.07,-11.83 -51.16,-39.57 -9.85,-44.84 24.36,-93.65 72.05,-97.88 41.9,-3.72 72.96,13.11 99.28,43.55 18.21,21.06 26.14,45.45 27.59,72.65 0.24,4.45 1.84,8.84 2.39,11.33 10.34,-13.69 20.51,-29.26 32.79,-42.92 19.02,-21.15 44.18,-29.72 72.29,-29.47 2.05,0.02 5.55,4.29 5.84,6.88 3.42,28.98 -6.61,53.46 -25.8,74.81 -9.18,10.23 -17.93,20.84 -23.07,26.83 15.05,-2.72 36.77,-6.98 58.61,-10.47 12.72,-2.03 25.68,-4.18 38.47,-3.92 29.97,0.61 60.03,1.39 89.8,4.49 21.69,2.26 39.99,13.44 56.49,28.33 21.52,19.41 32.67,44 41.02,70.73 -28.46,-8.11 -56.16,-16.96 -84.35,-23.83 -43.11,-10.5 -87.37,-13.23 -131.24,-9.4 -35.42,3.1 -70.31,12.02 -105.48,18.16 -31.66,5.53 -63.24,11.95 -95.11,15.82 -30.71,3.73 -61.76,6.37 -92.67,6.47 -42.03,0.14 -78.75,-14.5 -109.53,-44.49 -27.09,-26.4 -43.77,-58 -53.62,-93.86 -1.09,-3.96 -1.83,-8.01 -2.72,-12.02 0,-18.94 0,-37.88 0,-56.82 3.79,-13.5 6.58,-27.4 11.58,-40.45 12.68,-33.09 31.52,-62.43 56.34,-87.95 2.05,-2.11 2.92,-8.07 1.44,-10.41 -4.01,-6.29 -9.76,-11.45 -14.52,-17.32 -16.01,-19.73 -31.07,-40.18 -39.49,-64.46 -5.75,-16.57 -10.27,-33.57 -15.35,-50.37 0,-18.21 0,-36.42 0,-54.63 0.57,-0.4 1.59,-0.75 1.63,-1.21 2.21,-24.28 11.32,-46.21 23.77,-66.72 24.09,-39.67 56.52,-68.79 103.44,-78.6 10.95,-2.29 21.96,-4.31 32.95,-6.44 8.02,0 16.03,0 24.05,0 3.66,0.72 7.31,1.86 11.01,2.12 14.77,1.03 29.67,0.92 44.32,2.84 20.51,2.69 40.85,6.74 61.25,10.34 34.8,6.15 69.5,12.92 104.4,18.43 26.16,4.14 52.5,7.43 78.89,9.66 12.82,1.08 25.92,-1.55 38.91,-1.79 35.06,-0.64 68.72,-8.92 102.14,-18.34 16.2,-4.57 32.07,-10.28 49.2,-15.83 -3.28,8.3 -6.33,15.44 -8.94,22.74 -10.77,30.07 -30.43,52.82 -58.39,67.62 -18.85,9.98 -39.65,12.62 -61.12,14.28 -35.9,2.78 -71.31,1.66 -106.63,-4.39 -18.38,-3.15 -36.61,-7.11 -54.58,-10.64 9.68,10.22 19.68,20.43 29.27,31.01 18.03,19.89 26.6,43.09 23.93,70.14 -0.62,6.28 -2.72,10.04 -9.96,9.45 -17.67,-1.45 -34.38,-5.99 -49.73,-14.96 -24.54,-14.35 -39.27,-36.86 -50.97,-62.24 -2.26,14.54 -3.43,28.8 -6.82,42.51 -5.86,23.62 -19.05,42.92 -37.17,59.34 -27.69,25.07 -59.2,35.17 -96.15,27.68 -45.43,-9.2 -73.94,-61.98 -59.71,-103.56 7.26,-21.19 25.36,-35.64 43.12,-34.05 6.09,0.55 11.27,2.38 8.87,9.85 -3.98,12.4 -2.31,24.54 3,35.56 10.65,22.05 30.75,32.4 50.84,19.58 27.19,-17.35 39.87,-58.47 19.2,-89.69 -17.93,-27.07 -45.67,-36.6 -75.69,-38.28 -42.44,-2.38 -76.8,17.61 -100.19,50.76 -19.76,28 -29.29,61.43 -21.29,97.06 10.16,45.2 37.3,77.47 78.85,95.94 33.29,14.8 68.93,18.87 105.88,16.42 35.8,-2.38 69.76,-11.52 103.63,-21.39 57.49,-16.77 110.88,-43.71 164.25,-70.16 79.59,-39.43 158.2,-80.81 237.59,-120.65 46.68,-23.43 93.95,-45.72 141.18,-68.03 20.95,-9.9 42.12,-19.53 63.84,-27.49 15.12,-5.53 31.36,-8.01 47.1,-11.85 21.86,0 43.73,0 65.59,0 11.9,2.92 23.87,5.6 35.69,8.81 43.57,11.84 79.93,34.08 105.71,72.23 18.74,27.73 29.82,58.18 34.63,92.4 4.72,-25.92 10.41,-49.91 22.58,-72.21 22.52,-41.3 53.98,-71.83 99.56,-86.09 17.78,-5.56 35.87,-10.12 53.83,-15.15 21.86,0 43.73,0 65.59,0 14.33,3.56 29.42,5.33 42.85,11.03 47.31,20.04 94.55,40.38 140.87,62.6 46.45,22.28 91.54,47.38 137.62,70.47 69.17,34.66 138.67,68.67 208.07,102.87 50.64,24.96 102.46,46.86 157.53,60.36 41.6,10.2 83.02,16.99 126.35,9.98 40.23,-6.5 75.03,-21.54 101.36,-52.89 16.06,-19.12 27.68,-41.41 29.5,-66.62 2.9,-40.21 -8.19,-76.22 -38.58,-104.39 -34.89,-32.32 -73.97,-42.61 -120.54,-26.26 -44.48,15.61 -68.34,67.08 -32.97,109.32 14.17,16.92 32.1,22.19 48.84,9.34 16.32,-12.54 21.03,-30.4 18.7,-50.09 -1.38,-11.65 -0.03,-14.85 11.15,-12.97 8.37,1.41 17.85,4.4 23.89,9.91 17.09,15.6 21.71,36.05 17.76,58.63 -7.61,43.51 -36.06,66.23 -72.6,70.67 -47.62,5.78 -88.52,-22.64 -111.31,-61.55 -12.59,-21.5 -14.78,-45.53 -17.55,-68.97 -7.26,11.77 -13.52,24.29 -21.96,35.11 -19.78,25.38 -46.58,38.6 -78.58,40.7 -3.35,0.22 -10.11,-4.11 -10.01,-6.05 0.76,-14.56 0.3,-29.95 5.05,-43.39 9.07,-25.64 29.05,-43.81 51.13,-61.55 -3.05,0.21 -4.48,0.05 -5.74,0.43 -35.55,10.54 -72.01,15.6 -108.92,16.71 -18.03,0.54 -36.14,-1.49 -54.22,-1.92 -41.83,-0.99 -75.71,-17.43 -100.11,-51.68 -10.71,-15.04 -18.46,-31.65 -21.86,-52.02 6.1,2.12 10.59,3.98 15.25,5.26 26.74,7.38 53.29,15.68 80.35,21.59 19.17,4.18 39,5.78 58.63,7.26 18.01,1.35 36.29,2.52 54.22,1 21.28,-1.81 42.32,-6.48 63.43,-10.12 34.47,-5.95 68.82,-12.74 103.41,-17.92 33.63,-5.03 67.51,-8.47 101.27,-12.7 3.71,-0.46 7.36,-1.42 11.03,-2.15 8.02,0 16.03,0 24.05,0z"></path> <path fill="#aa915d" d="M18615.57 234.15c-9.4,46.71 -33.48,83.28 -72.95,109.67 41.19,26.36 63.44,64.29 73.21,110.56 5.77,-35.17 28.02,-82.16 72.59,-110.63 -39.52,-26.51 -62.69,-63.75 -72.84,-109.6zm196.11 209.12c-1.34,3.98 -2.81,7.94 -4.01,11.99 -7.79,26.38 3.24,51.11 27.11,58.14 36.83,10.86 69.83,-13.79 72.17,-53.7 2.08,-35.52 -19.34,-60.85 -48.97,-76.37 -28.8,-15.09 -61.3,-18.23 -93.31,-11.54 -40.98,8.57 -69.52,33.64 -86.83,71.67 -9.42,20.68 -10.73,42.08 -6.47,64.12 5.09,26.26 13.56,51.21 31.78,71.33 32.87,36.31 73.31,53.82 123.23,50.88 28.82,-1.71 56.41,-7.59 81.68,-19.97 75.54,-37.01 150.1,-76.06 225.27,-113.85 62.61,-31.46 124.8,-63.92 188.56,-92.84 49.54,-22.46 101.26,-40.12 152.05,-59.94 -7.44,-2.8 -15.58,-6.1 -23.88,-8.93 -68.59,-23.41 -135.64,-50.73 -200.45,-83.03 -68.52,-34.15 -135.89,-70.58 -203.99,-105.58 -42.72,-21.96 -85.68,-43.45 -128.83,-64.57 -27.47,-13.45 -56.75,-22.2 -87.22,-23.96 -49.91,-2.89 -92.75,12.94 -126.33,51.68 -20.86,24.07 -30.45,52.49 -33.77,83.01 -5.35,49.23 26.97,95.09 65.99,114.21 34.41,16.86 69.74,13.42 105.5,4.76 36.36,-8.8 60.85,-42.26 66.34,-74.15 3.92,-22.78 -17.07,-58.85 -46.99,-64.69 -33.21,-6.48 -62.93,24.44 -53.74,52.46 2.27,6.9 2.96,14.33 4.35,21.37 -4.38,1.07 -8.15,2.05 -11.96,2.91 -17.59,3.95 -36.55,-4.78 -44.34,-20.91 -14.75,-30.59 -8.9,-69.07 17.01,-92.26 30.09,-26.93 66.86,-33.63 106.35,-24.42 25.27,5.89 45.04,20.61 61.14,39.89 20.49,24.56 30.49,52.89 25.42,85.42 -1.03,6.6 -1.42,13.29 -2.24,21.27 29.45,-24.57 60.56,-41.57 100.15,-36.21 -1.06,17.86 -4.33,34.9 -14.19,49.72 -9.81,14.75 -20.71,28.77 -31.97,44.26 9.01,-0.99 17.78,-2.36 26.61,-2.88 40.38,-2.35 80.75,-5.58 121.16,-6.2 21.74,-0.33 43.74,2.82 65.29,6.42 28.6,4.78 55.49,15 80.38,30.96 -6.11,3.63 -11.39,7.38 -17.15,10.08 -42.75,20.02 -87.69,28.98 -134.94,26.45 -31.77,-1.71 -63.57,-2.83 -95.34,-4.49 -16.2,-0.83 -32.36,-2.28 -50.72,-3.61 29.65,26.04 50.27,55.02 50.73,94.72 -19.11,2.48 -36.86,0.43 -53.28,-7.89 -15.95,-8.09 -31.31,-17.34 -44.66,-24.82 0,13.1 0.5,28.3 -0.11,43.45 -1.03,25.15 -12.47,46.05 -29.24,63.93 -30.1,32.11 -66.81,43.06 -110.48,35.66 -44.55,-7.56 -82.1,-42.81 -76.7,-94.01 3.76,-35.78 28.07,-52.82 63.82,-39.95zm-392.07 -197.68c1.33,-4.11 2.62,-8.1 3.89,-12.1 11.19,-35.08 -11.55,-63.34 -43.57,-62.56 -33.63,0.81 -55.21,28.6 -55.51,57.58 -0.35,33.46 18.11,58.76 46.77,74.56 24.83,13.69 52.69,15.47 80.95,14.05 31.68,-1.6 57.26,-14.51 78.29,-37.46 17.84,-19.48 30.74,-41.78 31.46,-68.64 1.28,-47.9 -13.9,-89.02 -52.12,-120.44 -24.41,-20.07 -52.41,-31.14 -83.17,-33.39 -38.61,-2.82 -75.82,5.95 -110.19,23.4 -82.98,42.1 -165.26,85.58 -248.2,127.76 -45.28,23.03 -90.74,45.91 -137.2,66.4 -46.27,20.41 -93.86,37.82 -140.92,56.41 -10.97,4.33 -22.15,8.11 -34.43,12.59 14.43,5.27 27.31,9.48 39.8,14.65 64.9,26.85 130.56,52.06 194.26,81.51 53.84,24.9 105.13,55.21 157.95,82.38 53.21,27.38 106.86,53.91 160.37,80.7 39.7,19.86 81.33,31.41 126.08,26.16 29.75,-3.5 56.34,-15.11 79.14,-35.05 27.17,-23.76 41.32,-53.78 47.14,-89.2 7.98,-48.67 -11.82,-85.18 -48.53,-113.38 -29.84,-22.92 -64.99,-25.8 -101.54,-19.76 -37.4,6.16 -63.98,24.52 -80.69,59.65 -15.22,31.98 5.14,72.33 30.99,80.83 18.7,6.15 36.58,6.02 51.42,-7.65 12.85,-11.85 17.99,-27.22 12.42,-44.91 -1.7,-5.4 -2.98,-10.93 -4.43,-16.34 20.03,-8.91 38.43,-5.15 52.51,10.08 11.18,12.07 12.62,28.17 12.1,42.18 -0.92,24.96 -11.5,47.92 -32.59,62.84 -41.68,29.49 -107.81,31.1 -150.14,-11.12 -25.99,-25.93 -39.37,-56.42 -34.98,-93.65 0.85,-7.23 1.21,-14.53 1.9,-23.2 -29.61,24.51 -60.86,41.06 -98.92,36.6 -0.6,-40.31 20.9,-69.02 49.68,-95.04 -17.21,1.36 -32.2,3 -47.24,3.66 -39.48,1.72 -78.97,3.76 -118.48,4.29 -47.14,0.64 -91.15,-11.57 -132.28,-36 5.12,-3.33 9.76,-6.65 14.68,-9.43 3.07,-1.73 6.68,-2.44 9.89,-3.95 53.16,-25.14 109.55,-26.25 166.6,-22.43 31.65,2.12 63.28,4.33 94.94,6.39 2.57,0.17 5.19,-0.49 9.22,-0.92 -27.8,-25.83 -46.53,-54.51 -47.32,-92.27 18.21,-2.6 36.3,-1.12 52.74,6.78 16.24,7.81 31.33,18.04 46.63,27.04 0,-0.66 0.06,-2.46 -0.01,-4.25 -0.59,-16.66 -4.18,-33.86 -1.21,-49.85 6.76,-36.27 29.68,-62.06 61.22,-80.31 28.13,-16.28 58.07,-16.62 88.44,-8.42 18.2,4.9 35.32,13.02 47.46,27.91 15.73,19.3 22.15,41.93 18.43,66.76 -2.35,15.66 -8.07,29.91 -23.18,37.84 -12.93,6.8 -26.32,4.37 -40.49,0.69zm1275.01 -245.59c14.48,2.91 29.27,4.81 43.41,8.94 29.24,8.55 53.28,25.06 72.96,48.68 15.53,18.66 28.75,38.4 36.08,61.51 4.07,12.84 7.79,26.13 9.03,39.47 5.85,63.18 -14.05,118 -55.87,165.27 -2.12,2.4 -3.62,5.34 -5.72,7.76 -11.59,13.37 -11.05,12.84 0.72,25.91 30.45,33.77 52.43,71.79 59.19,117.8 10.59,72.05 -12.42,131.42 -67.44,177.89 -21.49,18.16 -47.72,27.81 -76.37,30.93 -46.01,5 -91.13,-0.36 -136.23,-8.69 -46,-8.49 -92.31,-15.38 -138.16,-24.57 -34.43,-6.89 -69.17,-8.48 -103.6,-5.63 -31.49,2.61 -62.71,9.85 -93.7,16.64 -19.01,4.15 -37.37,11.28 -57.14,17.43 6.66,-24.39 16.53,-46.82 33.82,-65.03 18.4,-19.39 40.83,-32.24 67.72,-36.18 9.22,-1.34 18.52,-3.46 27.73,-3.21 33.97,0.93 68.02,1.63 101.84,4.56 20.04,1.74 39.73,7.5 59.57,11.44 -1.13,1.31 -2.27,2.62 -3.41,3.93 -7.12,-9.24 -13.56,-19.12 -21.5,-27.59 -20.53,-21.87 -33.37,-46.37 -30.71,-77.37 0.55,-6.41 1.09,-9.79 9.47,-9.44 43.02,1.84 72.15,24.41 92.89,60.21 2.5,4.31 4.59,8.87 6.92,13.28 0.29,0.55 0.99,0.88 1.24,1.1 3.2,-15.75 5.68,-31.83 9.81,-47.49 6.98,-26.44 23.94,-45.8 45.59,-61.83 17.52,-12.98 37.42,-21.64 58.42,-21.19 44.53,0.93 72.64,16.06 87.27,62.83 8.26,26.41 -1.51,62.58 -21.89,71.55 -9.32,4.11 -20.29,4.51 -31.34,6.76 0.77,-10.92 1.86,-18.74 1.77,-26.54 -0.21,-18.04 -12.54,-41.28 -34.66,-44.11 -11.63,-1.5 -20.95,3.54 -28.67,11.06 -32.76,31.88 -26.25,84.11 12.09,106.13 52.93,30.39 113.87,15.64 149.38,-30.57 29.57,-38.47 37.5,-89.4 11.47,-136.09 -24.88,-44.62 -63.13,-67.63 -112.51,-73.97 -18.53,-2.37 -37.53,-5.62 -55.88,-3.86 -26.86,2.57 -53.54,8.38 -79.92,14.45 -50.35,11.59 -97.4,32.2 -143.6,54.9 -73.27,36.03 -146.81,71.52 -219.88,107.91 -47.1,23.46 -93.22,48.89 -140.47,72.02 -41.04,20.09 -82.6,39.28 -124.86,56.62 -17.48,7.18 -37.27,9.03 -56.17,12.41 -34.37,6.14 -68.05,1.08 -101.03,-8.76 -26.85,-8.01 -51.74,-19.58 -73.18,-38.75 -31.03,-27.74 -49.4,-62.21 -59.46,-101.81 -0.87,-3.46 -0.46,-7.22 -1.11,-10.76 -0.64,-3.43 -1.87,-6.75 -3.16,-11.21 -4.91,36.53 -16.79,69.49 -38.54,98.12 -20.35,26.81 -46.82,45.94 -78.45,57.95 -34,12.91 -69.11,19.51 -105.36,17.29 -30.39,-1.87 -60.04,-7.94 -87.91,-21.3 -62.23,-29.84 -125.02,-58.53 -186.87,-89.13 -73.17,-36.2 -145.1,-74.89 -218.47,-110.66 -58.03,-28.28 -115.38,-58.66 -177.7,-77 -31.76,-9.35 -63.58,-18.27 -97.09,-21.21 -39.84,-3.5 -78.2,0.13 -114.7,15.94 -42.5,18.4 -69.69,51.16 -78.18,96.59 -12.46,66.63 26.89,129.83 95.56,144.75 31.34,6.8 64.19,1.23 89.13,-21.66 34.66,-31.78 27.33,-81.92 -8.41,-105.12 -19.02,-12.35 -40.72,-1.13 -48.86,20.2 -4.99,13.05 -4.39,28.25 -6.46,43.65 -28.09,7.06 -45.07,-11.83 -51.16,-39.57 -9.84,-44.84 24.37,-93.65 72.05,-97.88 41.9,-3.72 72.94,13.11 99.28,43.55 18.21,21.06 26.14,45.45 27.6,72.65 0.24,4.45 1.85,8.84 2.39,11.33 10.34,-13.69 20.5,-29.26 32.79,-42.92 19.03,-21.15 44.18,-29.72 72.29,-29.47 2.04,0.02 5.53,4.29 5.84,6.88 3.41,28.98 -6.62,53.46 -25.8,74.81 -9.18,10.23 -17.93,20.84 -23.06,26.83 15.04,-2.72 36.76,-6.98 58.61,-10.47 12.72,-2.03 25.68,-4.18 38.48,-3.92 29.96,0.61 60.02,1.39 89.79,4.49 21.7,2.26 39.99,13.44 56.49,28.33 21.52,19.41 32.67,44 41.02,70.73 -28.45,-8.11 -56.16,-16.96 -84.34,-23.83 -43.11,-10.5 -87.37,-13.23 -131.25,-9.4 -35.42,3.1 -70.31,12.02 -105.48,18.16 -31.66,5.53 -63.24,11.95 -95.11,15.82 -30.71,3.73 -61.75,6.37 -92.67,6.47 -42.02,0.14 -78.75,-14.5 -109.53,-44.49 -27.09,-26.4 -43.76,-58 -53.62,-93.86 -1.09,-3.96 -1.82,-8.01 -2.72,-12.02 0,-18.94 0,-37.88 0,-56.82 3.79,-13.5 6.58,-27.4 11.58,-40.45 12.68,-33.09 31.52,-62.43 56.34,-87.95 2.05,-2.11 2.93,-8.07 1.44,-10.41 -4.01,-6.29 -9.76,-11.45 -14.51,-17.32 -16.01,-19.73 -31.08,-40.18 -39.51,-64.46 -5.74,-16.57 -10.26,-33.57 -15.34,-50.37 0,-18.21 0,-36.42 0,-54.63 0.56,-0.4 1.59,-0.75 1.63,-1.21 2.21,-24.28 11.33,-46.21 23.77,-66.72 24.08,-39.67 56.52,-68.79 103.44,-78.6 10.96,-2.29 21.96,-4.31 32.95,-6.44 8.02,0 16.02,0 24.05,0 3.66,0.72 7.31,1.86 11.01,2.12 14.77,1.03 29.67,0.92 44.31,2.84 20.51,2.69 40.86,6.74 61.25,10.34 34.8,6.15 69.51,12.92 104.41,18.43 26.15,4.14 52.5,7.43 78.88,9.66 12.82,1.08 25.92,-1.55 38.9,-1.79 35.06,-0.64 68.73,-8.92 102.15,-18.34 16.19,-4.57 32.07,-10.28 49.2,-15.83 -3.28,8.3 -6.34,15.44 -8.95,22.74 -10.77,30.07 -30.42,52.82 -58.39,67.62 -18.85,9.98 -39.65,12.62 -61.12,14.28 -35.9,2.78 -71.31,1.66 -106.63,-4.39 -18.38,-3.15 -36.6,-7.11 -54.58,-10.64 9.68,10.22 19.68,20.43 29.27,31.01 18.03,19.89 26.61,43.09 23.93,70.14 -0.62,6.28 -2.72,10.04 -9.97,9.45 -17.67,-1.45 -34.37,-5.99 -49.72,-14.96 -24.54,-14.35 -39.27,-36.86 -50.98,-62.24 -2.25,14.54 -3.42,28.8 -6.82,42.51 -5.85,23.62 -19.04,42.92 -37.16,59.34 -27.7,25.07 -59.19,35.17 -96.15,27.68 -45.42,-9.2 -73.94,-61.98 -59.7,-103.56 7.25,-21.19 25.35,-35.64 43.12,-34.05 6.08,0.55 11.26,2.38 8.86,9.85 -3.98,12.4 -2.32,24.54 3,35.56 10.65,22.05 30.75,32.4 50.84,19.58 27.19,-17.35 39.87,-58.47 19.19,-89.69 -17.92,-27.07 -45.67,-36.6 -75.67,-38.28 -42.44,-2.38 -76.8,17.61 -100.21,50.76 -19.76,28 -29.28,61.43 -21.28,97.06 10.16,45.2 37.3,77.47 78.84,95.94 33.29,14.8 68.93,18.87 105.88,16.42 35.79,-2.38 69.76,-11.52 103.63,-21.39 57.5,-16.77 110.88,-43.71 164.26,-70.16 79.58,-39.43 158.2,-80.81 237.59,-120.65 46.68,-23.43 93.95,-45.72 141.19,-68.03 20.94,-9.9 42.11,-19.53 63.84,-27.49 15.11,-5.53 31.36,-8.01 47.09,-11.85 21.87,0 43.73,0 65.59,0 11.9,2.92 23.87,5.6 35.69,8.81 43.57,11.84 79.94,34.08 105.71,72.23 18.74,27.73 29.81,58.18 34.62,92.4 4.71,-25.92 10.41,-49.91 22.58,-72.21 22.52,-41.3 53.98,-71.83 99.56,-86.09 17.79,-5.56 35.88,-10.12 53.83,-15.15 21.86,0 43.72,0 65.59,0 14.33,3.56 29.42,5.33 42.86,11.03 47.31,20.04 94.55,40.38 140.86,62.6 46.45,22.28 91.54,47.38 137.62,70.47 69.17,34.66 138.67,68.67 208.07,102.87 50.64,24.96 102.46,46.86 157.52,60.36 41.6,10.2 83.03,16.99 126.35,9.98 40.24,-6.5 75.03,-21.54 101.36,-52.89 16.06,-19.12 27.69,-41.41 29.51,-66.62 2.9,-40.21 -8.19,-76.22 -38.6,-104.39 -34.88,-32.32 -73.97,-42.61 -120.54,-26.26 -44.48,15.61 -68.34,67.08 -32.97,109.32 14.17,16.92 32.1,22.19 48.83,9.34 16.32,-12.54 21.04,-30.4 18.71,-50.09 -1.39,-11.65 -0.04,-14.85 11.15,-12.97 8.37,1.41 17.85,4.4 23.9,9.91 17.09,15.6 21.7,36.05 17.76,58.63 -7.62,43.51 -36.05,66.23 -72.61,70.67 -47.61,5.78 -88.52,-22.64 -111.31,-61.55 -12.6,-21.5 -14.79,-45.53 -17.55,-68.97 -7.25,11.77 -13.52,24.29 -21.96,35.11 -19.77,25.38 -46.58,38.6 -78.57,40.7 -3.35,0.22 -10.11,-4.11 -10.01,-6.05 0.76,-14.56 0.31,-29.95 5.05,-43.39 9.07,-25.64 29.05,-43.81 51.14,-61.55 -3.05,0.21 -4.48,0.05 -5.75,0.43 -35.54,10.54 -72.01,15.6 -108.91,16.71 -18.04,0.54 -36.15,-1.49 -54.23,-1.92 -41.83,-0.99 -75.72,-17.43 -100.11,-51.68 -10.71,-15.04 -18.46,-31.65 -21.87,-52.02 6.1,2.12 10.6,3.98 15.26,5.26 26.74,7.38 53.29,15.68 80.35,21.59 19.16,4.18 39,5.78 58.63,7.26 18.02,1.35 36.29,2.52 54.22,1 21.28,-1.81 42.32,-6.48 63.43,-10.12 34.47,-5.95 68.81,-12.74 103.41,-17.92 33.63,-5.03 67.5,-8.47 101.27,-12.7 3.71,-0.46 7.36,-1.42 11.03,-2.15 8.02,0 16.04,0 24.06,0z"></path> </g> </g> </svg> 