<?xml version="1.0" encoding="UTF-8"?> <svg xmlns="http://www.w3.org/2000/svg"   xmlSpace="preserve" width="58.393mm" height="58.3925mm" version="1.1" style="shape-rendering:geometricPrecision; text-rendering:geometricPrecision; image-rendering:optimizeQuality; fill-rule:evenodd; clip-rule:evenodd" viewBox="0 0 5825.02 5824.97"> <defs>  </defs> <g id="Слой_x0020_1"> <metadata id="CorelCorpID_0Corel-Layer"></metadata> <path fill="#AA915D" d="M1435.36 1156.16c-72.44,-12.75 -109.46,-97.24 -116.62,-158.37 11.13,-99.79 66.07,-162.62 141.3,-217.4 263.9,-120.17 319.23,171.54 302.52,358.78 -37.02,139.69 -72.45,273.86 -77.23,426.29 4.38,18.67 36.63,119.31 26.67,140.54 -36.62,-11.46 -72.44,-22.5 -108.27,-33.13 -149.26,-8.91 -284.99,21.67 -424.31,59.88 -24.69,2.54 -49.37,4.67 -74.05,7.63 -143.69,0 -277.83,-74.3 -296.13,-231.4 -2.39,-141.81 83.2,-222.06 232.86,-252.63 104.68,19.96 172.35,59.87 154.03,192.77 -2.78,5.1 -5.57,10.61 -8.36,15.71 -51.34,-20.38 -69.65,-65.39 -128.17,-58.6 -157.62,91.72 -5.58,209.32 115.44,209.32 80.4,-31.41 107.08,-69.63 133.74,-150.72 23.88,-3.82 50.16,35.24 70.45,56.9 57.72,33.11 120.22,36.08 192.67,24.19 9.95,-84.91 15.52,-225.03 -78.03,-258.15 -1.59,-7.22 -3.58,-2.11 -7.16,-7.64 0,-2.97 0.8,-5.95 1.59,-8.07 42.21,3.83 145.69,-73.88 150.07,-93.41 83.98,-217.39 -169.97,-331.18 -179.12,-134.17 9.15,18.68 18.31,37.37 28.26,56.89 7.16,4.68 24.68,36.94 25.48,43.74 -31.45,30.57 -74.44,9.77 -77.62,11.04l0 0zm846.64 1168.89c-58.91,-11.03 -111.06,-18.68 -166.78,-20.8 -14.72,-81.11 -35.03,-154.13 -58.52,-224.62 69.26,29.31 134.54,53.93 214.94,67.51 -1.59,88.74 -1.59,88.74 2,137.56 10.74,33.55 10.74,33.55 8.36,40.34l0 0zm-1057.61 -1148.51c-32.65,-8.5 -13.54,-2.55 -31.85,-8.92 -101.1,-44.16 -165.18,-41.19 -270.27,-20.38 -155.24,57.74 -275.85,205.92 -271.47,389.77 7.16,34.39 13.94,69.63 21.1,104.87 24.68,61.56 56.92,118.88 108.27,169.83 0.79,14.02 0.79,14.02 -9.56,61.57 0,81.94 -0.8,149.45 79.22,200.41 3.57,-0.85 7.16,-0.85 10.74,-0.85 44.18,-94.69 82.4,-153.7 189.86,-146.91 -47.76,111.67 -47.76,111.67 -68.85,170.25 -48.57,197.02 -50.96,673.41 -335.17,661.52 -175.94,-13.59 -313.26,-191.91 -206.58,-369.39 44.98,-28.02 149.67,-69.21 183.51,10.19 -63.29,43.72 -93.55,59.43 -85.19,146.48 14.33,6.79 14.33,6.79 24.68,16.56 107.08,30.99 161.21,-9.77 204.2,-117.61 1.2,-61.57 3.98,-174.51 -63.29,-194.04 -11.54,-24.62 -44.58,-35.66 -61.29,-45.43 -0.8,-5.52 -1.6,-9.77 -2,-14.43 24.28,-66.23 69.66,-170.26 45.38,-237.77 -32.25,-28.88 -32.25,-28.88 -35.03,-36.09 -75.23,-50.54 -132.94,-40.76 -212.56,-35.24 1.6,8.92 22.69,33.55 38.23,62.84 49.75,134.6 -39.41,222.07 -147.29,297.22 -1.99,12.73 -57.72,76.85 -66.07,79.81 68.46,-898.01 1056.01,-2021.48 2103.27,-2119.13 -25.08,19.95 -50.55,40.33 -76.02,60.71 -41.4,47.98 -87.17,101.91 -133.34,142.67 -99.52,48.83 -142.91,29.3 -224.1,-35.24 -18.71,28.45 -10.34,107 -8.36,151.59 35.02,93.83 62.09,135.01 167.58,126.1 134.93,-41.19 134.93,-41.19 145.68,-41.19 28.26,72.61 68.86,119.32 149.66,146.06 103.5,-2.97 160.02,-17.84 205.8,-129.08 2.78,-32.26 -5.18,-59.02 -10.75,-84.91 -35.82,-76.43 -142.1,0 -152.85,58.6 -2.78,0 -4.78,0 -6.76,0 -54.14,-77.28 -47.37,-111.67 0,-200.41 109.06,-87.05 194.24,-16.99 289.77,72.17 54.14,91.72 56.52,153.28 17.52,259.85 -113.04,191.92 -267.09,166.02 -470.5,193.62 -116.22,24.63 -196.63,51.8 -303.31,98.93 -0.8,-47.97 6.76,-111.67 52.54,-127.37 5.17,-33.98 63.29,-50.54 90.76,-63.26 0,-99.79 -152.06,-109.55 -212.56,-104.87 -2.79,9.76 -20.3,9.76 -27.47,10.19 -87.17,-124.4 -219.31,-155.4 -348.68,-152.44 -138.12,48.84 -208.58,104.45 -279.42,233.11 -43.79,122.28 -42.99,213.57 3.18,339.68 0.8,7.63 1.59,15.28 2.38,22.49 -4.37,-0.42 -8.35,-1.27 -12.73,-2.11l0 0zm3165.26 -20.38c72.45,-12.75 109.87,-97.24 117.03,-158.37 -11.54,-99.79 -66.48,-162.62 -141.7,-217.4 -263.9,-120.17 -318.84,171.54 -302.52,358.78 37.41,139.69 72.44,273.86 77.22,426.29 -3.98,18.67 -36.22,119.31 -26.67,140.54 36.63,-11.46 72.45,-22.5 108.67,-33.13 148.86,-8.91 285,21.67 424.32,59.88 24.68,2.54 48.95,4.67 73.63,7.63 143.7,0 278.24,-74.3 296.55,-231.4 2,-141.81 -83.59,-222.06 -233.26,-252.63 -104.68,19.96 -172.36,59.87 -154.04,192.77 2.79,5.1 5.58,10.61 8.36,15.71 51.35,-20.38 69.66,-65.39 128.18,-58.6 157.62,91.72 5.57,209.32 -115.44,209.32 -80.01,-31.41 -106.68,-69.63 -133.74,-150.72 -23.88,-3.82 -49.76,35.24 -70.06,56.9 -57.72,33.11 -120.6,36.08 -193.06,24.19 -9.95,-84.91 -15.52,-225.03 78.02,-258.15 1.6,-7.22 3.58,-2.11 7.16,-7.64 0,-2.97 -0.8,-5.95 -1.6,-8.07 -42.19,3.83 -145.28,-73.88 -149.66,-93.41 -84.38,-217.39 169.56,-331.18 178.73,-134.17 -9.17,18.68 -18.32,37.37 -28.27,56.89 -6.76,4.68 -24.68,36.94 -25.07,43.74 31.44,30.57 74.04,9.77 77.21,11.04l0 0zm-846.63 1168.89c59.3,-11.03 111.45,-18.68 166.78,-20.8 14.72,-81.11 35.42,-154.13 58.51,-224.62 -68.86,29.31 -134.54,53.93 -214.54,67.51 1.19,88.74 1.19,88.74 -2.38,137.56 -10.35,33.55 -10.35,33.55 -8.36,40.34l0 0zm1057.61 -1148.51c33.04,-8.5 13.53,-2.55 31.84,-8.92 101.51,-44.16 165.58,-41.19 270.28,-20.38 155.64,57.74 275.84,205.92 271.46,389.77 -6.76,34.39 -13.93,69.63 -21.1,104.87 -24.68,61.56 -56.92,118.88 -108.26,169.83 -0.8,14.02 -0.8,14.02 9.95,61.57 0,81.94 0.8,149.45 -79.6,200.41 -3.59,-0.85 -7.16,-0.85 -10.35,-0.85 -44.58,-94.69 -82.39,-153.7 -190.26,-146.91 47.77,111.67 47.77,111.67 68.86,170.25 48.56,197.02 50.96,673.41 335.16,661.52 176.34,-13.59 313.66,-191.91 206.98,-369.39 -44.97,-28.02 -150.06,-69.21 -183.9,10.19 63.29,43.72 93.55,59.43 85.18,146.48 -13.93,6.79 -13.93,6.79 -24.67,16.56 -106.69,30.99 -160.82,-9.77 -203.8,-117.61 -1.6,-61.57 -4.39,-174.51 63.28,-194.04 11.14,-24.62 44.18,-35.66 61.3,-45.43 0.4,-5.52 1.2,-9.77 1.99,-14.43 -24.67,-66.23 -69.65,-170.26 -45.77,-237.77 32.24,-28.88 32.24,-28.88 35.02,-36.09 75.63,-50.54 133.35,-40.76 212.56,-35.24 -1.2,8.92 -22.3,33.55 -37.82,62.84 -50.15,134.6 39.4,222.07 146.88,297.22 2.39,12.73 57.72,76.85 66.48,79.81 -68.86,-898.01 -1056.02,-2021.48 -2103.67,-2119.13 25.47,19.95 50.55,40.33 76.02,60.71 41.4,47.98 87.17,101.91 133.74,142.67 99.12,48.83 142.9,29.3 223.7,-35.24 19.1,28.45 10.74,107 8.36,151.59 -35.03,93.83 -61.7,135.01 -167.18,126.1 -135.34,-41.19 -135.34,-41.19 -145.68,-41.19 -28.26,72.61 -69.26,119.32 -150.07,146.06 -103.49,-2.97 -159.61,-17.84 -205.39,-129.08 -2.78,-32.26 4.78,-59.02 10.34,-84.91 35.82,-76.43 142.1,0 152.86,58.6 2.78,0 4.78,0 7.16,0 54.14,-77.28 46.96,-111.67 0,-200.41 -109.06,-87.05 -194.25,-16.99 -290.18,72.17 -54.14,91.72 -56.12,153.28 -17.51,259.85 113.04,191.92 267.09,166.02 470.89,193.62 116.22,24.63 196.24,51.8 303.32,98.93 0.8,-47.97 -7.17,-111.67 -52.94,-127.37 -4.78,-33.98 -63.29,-50.54 -90.76,-63.26 0,-99.79 152.06,-109.55 212.55,-104.87 2.79,9.76 20.31,9.76 27.47,10.19 87.17,-124.4 219.72,-155.4 349.08,-152.44 137.72,48.84 208.18,104.45 279.43,233.11 43.38,122.28 42.98,213.57 -3.58,339.68 -0.8,7.63 -1.6,15.28 -2,22.49 3.98,-0.42 8.36,-1.27 12.34,-2.11l0 0zm-1688.12 -452.62c-27.46,104.44 -100.3,201.69 -225.7,270.89 1.21,2.98 2.79,6.79 3.99,10.61 5.97,1.7 11.54,2.98 17.11,4.68 0,3.82 0,8.06 0.8,12.73 68.06,54.78 94.74,67.51 134.14,152.44 101.5,240.31 53.74,368.12 -100.7,547.3 -173.94,135.87 -356.25,132.89 -505.12,-9.35 -56.12,-96.8 -122.6,-126.1 -214.54,-73.45 -18.32,29.3 -31.05,36.09 -59.31,13.59 0,-31.41 -10.34,-53.5 -17.51,-77.27 7.96,-107.43 71.64,-183.85 180.31,-141.39 3.58,-0.42 7.56,-1.27 11.94,-1.27 11.15,-24.21 22.29,-47.98 34.24,-71.34 88.76,-118.46 175.94,-140.55 315.26,-78.98 82.4,78.13 112.24,141.81 15.52,223.76 -73.64,32.27 -115.84,11.88 -158.83,-46.71 -3.57,-0.43 -6.35,-1.28 -9.15,-2.12 -0.8,47.97 -6.37,70.49 13.14,118.88 67.66,40.34 72.04,50.11 152.85,56.9 132.94,-39.06 168.38,-84.06 208.18,-216.96 12.74,-95.55 -48.96,-165.17 -97.52,-227.59 -102.3,-86.19 -188.67,-95.11 -305.7,-95.11 -140.51,26.75 -281.42,97.66 -363.82,217.4 -69.65,127.8 -71.64,256.02 -35.82,401.24 4.78,8.92 9.96,17.83 14.73,27.59 21.89,26.33 44.58,52.65 66.88,79.41 90.75,82.79 118.21,100.63 241.61,118.88 128.56,0 262.31,-12.31 398.05,-12.31 19.89,-14.01 19.1,-53.92 46.57,-60.72 0.8,-2.96 1.59,-5.94 1.99,-8.91 64.09,-39.06 132.94,-56.47 211.36,-43.73 -6.36,25.05 -27.06,39.91 -44.58,57.32 -39.8,93.83 -29.45,114.21 45.78,190.64 7.56,-2.55 15.12,-7.22 22.3,-12.74l0 -2.54c0.39,0.42 1.19,0.85 1.59,1.27 0.8,-0.42 1.2,-0.85 1.6,-1.27l0 2.54c7.56,5.52 14.72,10.19 22.29,12.74 75.24,-76.43 85.98,-96.81 45.78,-190.64 -17.52,-17.41 -37.82,-32.27 -44.18,-57.32 78.02,-12.74 146.88,4.67 210.96,43.73 0.8,2.97 1.6,5.95 2,8.91 27.46,6.8 27.06,46.72 46.57,60.72 135.74,0 269.48,12.31 398.45,12.31 122.99,-18.25 150.46,-36.09 241.21,-118.88 22.69,-26.75 44.98,-53.08 66.88,-79.41 5.17,-9.77 9.95,-18.67 14.72,-27.59 35.82,-145.21 33.84,-273.44 -35.82,-401.24 -82.4,-119.74 -222.9,-190.64 -363.82,-217.4 -116.62,0 -203.4,8.92 -305.3,95.11 -48.56,62.42 -110.65,132.05 -97.92,227.59 40.2,132.89 75.24,177.89 208.19,216.96 81.19,-6.79 85.18,-16.56 152.85,-56.9 19.9,-48.39 13.94,-70.91 13.53,-118.88 -2.78,0.85 -5.97,1.7 -9.15,2.12 -42.99,58.59 -85.18,78.98 -159.22,46.71 -96.33,-81.95 -66.88,-145.63 15.52,-223.76 139.32,-61.57 226.48,-39.48 315.26,78.98 11.93,23.35 23.08,47.12 34.63,71.34 3.98,0 8.36,0.85 11.94,1.27 108.26,-42.46 172.36,33.97 179.92,141.39 -6.76,23.77 -17.52,45.86 -17.52,77.27 -28.26,22.5 -40.6,15.71 -58.91,-13.59 -92.35,-52.65 -158.42,-23.35 -214.95,73.45 -148.48,142.24 -331.17,145.21 -505.12,9.35 -154.04,-179.18 -202.2,-306.99 -100.7,-547.3 39.4,-84.92 66.08,-97.66 134.54,-152.44 0.8,-4.67 0.8,-8.91 0.8,-12.73 5.58,-1.7 11.14,-2.98 16.71,-4.68 1.6,-3.82 2.79,-7.63 4.39,-10.61 -125.79,-69.2 -198.22,-166.44 -226.1,-270.89l0 0zm0 -622.02c-107.47,3.82 -297.74,10.61 -394.06,51.37 30.25,8.49 60.5,16.55 91.55,25.9 88.77,43.31 92.35,50.11 114.64,61.57 96.72,76.43 162.01,175.78 187.88,280.23 26.28,-104.45 91.16,-203.8 187.88,-280.23 22.69,-11.46 26.27,-18.26 114.64,-61.57 31.04,-9.35 61.3,-17.41 91.55,-25.9 -96.32,-40.76 -286.19,-47.55 -394.06,-51.37l0 0zm-1477.15 4566.48c-72.44,12.74 -109.46,97.66 -116.62,158.37 11.13,99.78 66.07,163.05 141.3,217.82 263.9,119.74 319.23,-171.96 302.52,-358.78 -37.02,-139.69 -72.45,-273.87 -77.23,-426.29 4.38,-19.1 36.63,-119.31 26.67,-140.54 -36.62,11.47 -72.44,22.5 -108.27,33.12 -149.26,8.91 -284.99,-21.65 -424.31,-60.29 -24.69,-2.12 -49.37,-4.25 -74.05,-7.21 -143.69,0 -277.83,74.3 -296.13,230.97 -2.39,141.81 83.2,222.06 232.86,253.05 104.68,-20.38 172.35,-59.86 154.03,-192.77 -2.78,-5.52 -5.57,-10.61 -8.36,-15.7 -51.34,19.95 -69.65,64.96 -128.17,58.18 -157.62,-91.3 -5.58,-209.34 115.44,-209.34 80.4,31.42 107.08,70.06 133.74,151.16 23.88,3.39 50.16,-35.66 70.45,-57.32 57.72,-33.12 120.22,-36.08 192.67,-23.78 9.95,84.49 15.52,225.04 -78.03,258.16 -1.59,6.79 -3.58,2.12 -7.16,7.21 0,3.4 0.8,6.37 1.59,8.5 42.21,-3.83 145.69,73.87 150.07,92.98 83.98,217.39 -169.97,331.61 -179.12,134.6 9.15,-19.11 18.31,-37.8 28.26,-57.32 7.16,-4.25 24.68,-36.52 25.48,-43.31 -31.45,-30.57 -74.44,-9.77 -77.62,-11.46l0 0zm846.64 -1168.9c-58.91,11.46 -111.06,19.11 -166.78,21.23 -14.72,81.1 -35.03,153.71 -58.52,224.61 69.26,-29.3 134.54,-54.35 214.94,-67.93 -1.59,-88.31 -1.59,-88.31 2,-137.14 10.74,-33.97 10.74,-33.97 8.36,-40.76l0 0zm-1057.61 1148.52c-32.65,8.49 -13.54,2.54 -31.85,9.34 -101.1,44.15 -165.18,41.19 -270.27,19.96 -155.24,-57.75 -275.85,-205.51 -271.47,-389.35 7.16,-34.4 13.94,-70.07 21.1,-105.31 24.68,-61.56 56.92,-118.46 108.27,-169.4 0.79,-14.44 0.79,-14.44 -9.56,-61.57 0,-81.94 -0.8,-149.45 79.22,-200.41 3.57,0.85 7.16,0.85 10.74,0.85 44.18,94.26 82.4,153.71 189.86,146.91 -47.76,-111.67 -47.76,-111.67 -68.85,-170.26 -48.57,-197.01 -50.96,-673.83 -335.17,-661.51 -175.94,13.16 -313.26,191.91 -206.58,369.39 44.98,27.59 149.67,69.2 183.51,-10.61 -63.29,-43.31 -93.55,-59.02 -85.19,-146.49 14.33,-6.36 14.33,-6.36 24.68,-16.13 107.08,-30.99 161.21,9.77 204.2,117.61 1.2,61.56 3.98,174.08 -63.29,193.61 -11.54,25.06 -44.58,36.09 -61.29,45.87 -0.8,5.09 -1.6,9.77 -2,14.43 24.28,65.81 69.66,170.25 45.38,237.77 -32.25,28.45 -32.25,28.45 -35.03,36.09 -75.23,50.11 -132.94,40.34 -212.56,35.24 1.6,-8.92 22.69,-33.54 38.23,-62.84 49.75,-134.6 -39.41,-222.49 -147.29,-297.64 -1.99,-12.74 -57.72,-76.43 -66.07,-79.41 68.46,898.02 1056.01,2021.48 2103.27,2119.14 -25.08,-20.38 -50.55,-40.34 -76.02,-60.72 -41.4,-47.97 -87.17,-102.32 -133.34,-142.66 -99.52,-48.83 -142.91,-29.3 -224.1,35.23 -18.71,-28.44 -10.34,-107.42 -8.36,-151.58 35.02,-93.82 62.09,-135.01 167.58,-126.1 134.93,41.19 134.93,41.19 145.68,41.19 28.26,-72.61 68.86,-119.31 149.66,-146.49 103.5,2.98 160.02,18.27 205.8,129.08 2.78,32.27 -5.18,59.43 -10.75,84.91 -35.82,76.86 -142.1,0 -152.85,-58.59 -2.78,0 -4.78,0 -6.76,0 -54.14,77.28 -47.37,112.09 0,200.4 109.06,87.05 194.24,17.41 289.77,-71.74 54.14,-91.72 56.52,-153.28 17.52,-259.85 -113.04,-191.92 -267.09,-166.02 -470.5,-193.62 -116.22,-25.06 -196.63,-51.8 -303.31,-99.36 -0.8,48.4 6.76,112.1 52.54,127.8 5.17,33.98 63.29,50.11 90.76,63.27 0,99.78 -152.06,109.54 -212.56,104.87 -2.79,-9.77 -20.3,-9.77 -27.47,-10.61 -87.17,124.82 -219.31,155.4 -348.68,152.43 -138.12,-48.83 -208.58,-104.45 -279.42,-232.68 -43.79,-122.28 -42.99,-214 3.18,-340.1 0.8,-7.21 1.59,-14.86 2.38,-22.5 -4.37,0.85 -8.35,1.7 -12.73,2.12l0 0zm-725.24 -1735.73l0.4 0c-41,-25.48 -41,-25.48 -150.07,-110.39 -89.16,-95.54 -111.06,-168.14 -142.1,-289.15 -4.78,-6.79 -4.78,-6.79 -9.16,-5.94 -34.63,136.29 -62.49,264.09 -58.91,405.48 -3.58,141.39 24.28,269.62 58.91,405.91 4.38,0.42 4.38,0.42 9.16,-6.37 31.04,-120.58 52.94,-193.62 142.1,-288.72 109.07,-84.91 109.07,-84.91 150.07,-110.39 0,0 -0.4,0 -0.4,-0.43l0 0zm764.64 0c-49.76,-22.92 -103.09,-60.71 -139.32,-67.09 0,-2.97 0,-5.1 0,-7.21 -46.58,-26.33 -87.17,-90.02 -107.87,-133.75 -9.56,-9.77 -9.56,-9.77 -18.32,-11.04 -59.71,122.72 -132.94,164.75 -248.78,219.09l0 0c0,0.43 0,0.43 0,0.43 115.84,53.92 189.07,95.95 248.78,219.08 8.76,-1.27 8.76,-1.27 18.32,-11.03 20.7,-43.73 61.29,-107.43 107.87,-133.75 0,-2.11 0,-4.67 0,-7.64 36.23,-5.94 89.56,-43.73 139.32,-67.09l0 0zm497.16 0c0.8,-101.47 20.7,-194.46 119.81,-236.49 5.98,-58.6 4.38,-95.96 8.77,-179.6 21.09,-132.06 37.01,-285.34 -11.55,-404.65 -58.91,-84.06 -97.52,-142.66 -179.12,-193.62 -561.24,-198.7 -802.06,702.28 -326,839.42 143.7,-23.35 188.68,-74.31 235.64,-217.82 -3.58,-47.12 -17.51,-140.55 -56.92,-156.68 -0.8,-3.82 -1.19,-6.79 -1.19,-9.77 -39.41,-18.26 -74.04,-23.34 -107.88,-8.49 8.36,11.89 8.36,11.89 37.82,34.39 21.89,48.84 40.19,127.82 -16.72,166.02 0,2.54 0,4.67 0,7.64 -7.16,1.28 -7.16,1.28 -33.04,20.38 -115.43,38.22 -175.14,-90.44 -191.46,-180.88 2.78,-6.79 2.78,-6.79 2.78,-67.09 37.42,-114.64 77.62,-132.05 173.95,-189.78 4.77,-21.23 -7.96,-42.88 -11.15,-56.47 4.78,-23.78 9.56,-47.98 14.73,-71.34 62.5,-74.31 136.92,-95.11 225.69,-32.27 2.39,11.46 -27.46,43.73 -35.82,57.32 -42.2,113.37 1.99,151.58 86.38,222.91 125.38,151.58 105.08,321.84 15.12,495.91 -9.16,11.47 -50.96,65.4 -65.68,65.4 -28.26,25.47 -107.47,67.5 -140.51,95.53 33.04,28.44 112.24,70.49 140.51,95.54 14.72,0 56.52,54.35 65.68,65.39 89.96,174.08 110.26,344.76 -15.12,496.34 -84.39,71.34 -128.57,109.54 -86.38,222.91 8.36,13.59 38.22,45.86 35.82,56.89 -88.76,63.26 -163.19,42.04 -225.69,-32.26 -5.18,-22.93 -9.96,-47.13 -14.73,-71.34 3.19,-13.16 15.92,-35.24 11.15,-56.04 -96.33,-57.75 -136.54,-75.16 -173.95,-190.22 0,-59.86 0,-59.86 -2.78,-66.67 16.32,-90.86 76.03,-219.08 191.46,-180.87 25.88,18.68 25.88,18.68 33.04,20.38 0,2.97 0,5.1 0,7.21 56.91,38.65 38.61,117.18 16.72,166.02 -29.46,22.49 -29.46,22.49 -37.82,34.39 33.84,15.28 68.46,9.77 107.88,-8.06 0,-2.98 0.39,-5.95 1.19,-9.77 39.41,-16.56 53.34,-109.55 56.92,-156.68 -46.96,-143.51 -91.94,-194.46 -235.64,-217.82 -476.06,137.14 -235.24,1037.7 326,838.99 81.6,-50.96 120.22,-109.54 179.12,-193.62 48.56,-119.31 32.64,-272.16 11.55,-404.64 -4.39,-83.22 -2.79,-120.58 -8.77,-179.18 -99.11,-42.04 -119.01,-135.45 -119.81,-236.92l0 0zm209.77 0c-29.46,-31.42 -48.95,-33.54 -95.53,-35.24 -13.94,5.52 -51.75,19.11 -62.1,35.24 10.34,16.14 48.16,29.73 62.1,35.67 46.58,-1.71 66.07,-3.83 95.53,-35.67l0 0zm2418.93 1756.11c72.45,12.74 109.87,97.66 117.03,158.37 -11.54,99.78 -66.48,163.05 -141.7,217.82 -263.9,119.74 -318.84,-171.96 -302.52,-358.78 37.41,-139.69 72.44,-273.87 77.22,-426.29 -3.98,-19.1 -36.22,-119.31 -26.67,-140.54 36.63,11.47 72.45,22.5 108.67,33.12 148.86,8.91 285,-21.65 424.32,-60.29 24.68,-2.12 48.95,-4.25 73.63,-7.21 143.7,0 278.24,74.3 296.55,230.97 2,141.81 -83.59,222.06 -233.26,253.05 -104.68,-20.38 -172.36,-59.86 -154.04,-192.77 2.79,-5.52 5.58,-10.61 8.36,-15.7 51.35,19.95 69.66,64.96 128.18,58.18 157.62,-91.3 5.57,-209.34 -115.44,-209.34 -80.01,31.42 -106.68,70.06 -133.74,151.16 -23.88,3.39 -49.76,-35.66 -70.06,-57.32 -57.72,-33.12 -120.6,-36.08 -193.06,-23.78 -9.95,84.49 -15.52,225.04 78.02,258.16 1.6,6.79 3.58,2.12 7.16,7.21 0,3.4 -0.8,6.37 -1.6,8.5 -42.19,-3.83 -145.28,73.87 -149.66,92.98 -84.38,217.39 169.56,331.61 178.73,134.6 -9.17,-19.11 -18.32,-37.8 -28.27,-57.32 -6.76,-4.25 -24.68,-36.52 -25.07,-43.31 31.44,-30.57 74.04,-9.77 77.21,-11.46l0 0zm-846.63 -1168.9c59.3,11.46 111.45,19.11 166.78,21.23 14.72,81.1 35.42,153.71 58.51,224.61 -68.86,-29.3 -134.54,-54.35 -214.54,-67.93 1.19,-88.31 1.19,-88.31 -2.38,-137.14 -10.35,-33.97 -10.35,-33.97 -8.36,-40.76l0 0zm1057.61 1148.52c33.04,8.49 13.53,2.54 31.84,9.34 101.51,44.15 165.58,41.19 270.28,19.96 155.64,-57.75 275.84,-205.51 271.46,-389.35 -6.76,-34.4 -13.93,-70.07 -21.1,-105.31 -24.68,-61.56 -56.92,-118.46 -108.26,-169.4 -0.8,-14.44 -0.8,-14.44 9.95,-61.57 0,-81.94 0.8,-149.45 -79.6,-200.41 -3.59,0.85 -7.16,0.85 -10.35,0.85 -44.58,94.26 -82.39,153.71 -190.26,146.91 47.77,-111.67 47.77,-111.67 68.86,-170.26 48.56,-197.01 50.96,-673.83 335.16,-661.51 176.34,13.16 313.66,191.91 206.98,369.39 -44.97,27.59 -150.06,69.2 -183.9,-10.61 63.29,-43.31 93.55,-59.02 85.18,-146.49 -13.93,-6.36 -13.93,-6.36 -24.67,-16.13 -106.69,-30.99 -160.82,9.77 -203.8,117.61 -1.6,61.56 -4.39,174.08 63.28,193.61 11.14,25.06 44.18,36.09 61.3,45.87 0.4,5.09 1.2,9.77 1.99,14.43 -24.67,65.81 -69.65,170.25 -45.77,237.77 32.24,28.45 32.24,28.45 35.02,36.09 75.63,50.11 133.35,40.34 212.56,35.24 -1.2,-8.92 -22.3,-33.54 -37.82,-62.84 -50.15,-134.6 39.4,-222.49 146.88,-297.64 2.39,-12.74 57.72,-76.43 66.48,-79.41 -68.86,898.02 -1056.02,2021.48 -2103.67,2119.14 25.47,-20.38 50.55,-40.34 76.02,-60.72 41.4,-47.97 87.17,-102.32 133.74,-142.66 99.12,-48.83 142.9,-29.3 223.7,35.23 19.1,-28.44 10.74,-107.42 8.36,-151.58 -35.03,-93.82 -61.7,-135.01 -167.18,-126.1 -135.34,41.19 -135.34,41.19 -145.68,41.19 -28.26,-72.61 -69.26,-119.31 -150.07,-146.49 -103.49,2.98 -159.61,18.27 -205.39,129.08 -2.78,32.27 4.78,59.43 10.34,84.91 35.82,76.86 142.1,0 152.86,-58.59 2.78,0 4.78,0 7.16,0 54.14,77.28 46.96,112.09 0,200.4 -109.06,87.05 -194.25,17.41 -290.18,-71.74 -54.14,-91.72 -56.12,-153.28 -17.51,-259.85 113.04,-191.92 267.09,-166.02 470.89,-193.62 116.22,-25.06 196.24,-51.8 303.32,-99.36 0.8,48.4 -7.17,112.1 -52.94,127.8 -4.78,33.98 -63.29,50.11 -90.76,63.27 0,99.78 152.06,109.54 212.55,104.87 2.79,-9.77 20.31,-9.77 27.47,-10.61 87.17,124.82 219.72,155.4 349.08,152.43 137.72,-48.83 208.18,-104.45 279.43,-232.68 43.38,-122.28 42.98,-214 -3.58,-340.1 -0.8,-7.21 -1.6,-14.86 -2,-22.5 3.98,0.85 8.36,1.7 12.34,2.12l0 0zm-1688.12 656c-25.87,104.01 -91.16,203.8 -187.88,280.22 -22.29,11.46 -25.87,18.26 -114.64,61.57 -31.04,8.91 -61.3,17.41 -91.55,25.48 96.32,41.19 286.6,47.55 394.06,51.79 107.88,-4.24 297.74,-10.6 394.06,-51.79 -30.25,-8.07 -60.5,-16.57 -91.55,-25.48 -88.37,-43.31 -91.94,-50.11 -114.64,-61.57 -96.72,-76.42 -161.6,-176.21 -187.88,-280.22l0 0zm1.6 -1527.69l0 2.98c-0.4,-0.86 -0.8,-1.29 -1.6,-1.71 -0.4,0.42 -1.2,0.85 -1.59,1.71l0 -2.55c-7.17,-5.52 -14.73,-10.19 -22.3,-12.73 -75.23,76.41 -85.58,96.79 -45.78,190.63 17.52,17.41 38.22,32.27 44.58,56.9 -78.42,12.73 -147.27,-4.25 -211.36,-43.31 -0.4,-2.97 -1.19,-5.95 -1.99,-9.34 -27.46,-6.36 -26.67,-46.29 -46.57,-60.72 -135.75,0 -269.49,-11.89 -398.05,-11.89 -123.4,17.84 -150.86,36.09 -241.61,118.47 -22.3,27.17 -44.99,53.5 -66.88,79.82 -4.78,9.77 -9.96,18.67 -14.73,27.59 -35.82,144.78 -33.83,273.44 35.82,400.82 82.4,120.16 223.31,190.64 363.82,217.82 117.03,0 203.4,-8.92 305.7,-95.54 48.56,-61.99 110.26,-132.05 97.52,-227.16 -39.8,-132.89 -75.24,-177.89 -208.18,-216.96 -80.8,6.78 -85.18,16.56 -152.85,56.89 -19.51,47.98 -13.94,70.48 -13.14,118.47 2.79,-0.43 5.58,-1.29 9.15,-2.13 42.99,-58.59 85.19,-78.55 158.83,-46.28 96.72,81.52 66.88,145.63 -15.52,223.34 -139.32,61.56 -226.49,39.91 -315.26,-78.56 -11.95,-23.35 -23.08,-47.55 -34.24,-71.33 -4.38,0 -8.36,-0.86 -11.94,-1.71 -108.66,42.88 -172.35,-33.54 -180.31,-140.96 7.16,-24.19 17.51,-45.85 17.51,-77.27 28.26,-22.5 41,-15.71 59.31,13.59 91.94,52.22 158.42,22.92 214.54,-73.88 148.87,-142.24 331.18,-144.78 505.12,-8.92 154.44,179.17 202.2,306.56 100.7,547.31 -39.4,84.91 -66.08,97.64 -134.14,152.43 -0.8,4.67 -0.8,8.91 -0.8,12.73 -5.57,1.28 -11.14,2.97 -17.11,4.67 -1.2,3.4 -2.78,7.22 -3.99,10.19 125.39,69.63 198.23,166.44 225.7,271.31 27.87,-104.87 100.3,-201.69 226.1,-271.31 -1.6,-2.97 -2.79,-6.79 -4.39,-10.19 -5.57,-1.7 -11.13,-3.39 -16.71,-4.67 0,-3.82 0,-8.06 -0.8,-12.73 -68.46,-54.79 -95.14,-67.51 -134.54,-152.43 -101.5,-240.75 -53.34,-368.14 100.7,-547.31 173.95,-135.87 356.65,-133.32 505.12,8.92 56.53,96.8 122.6,126.1 214.95,73.88 18.31,-29.3 30.64,-36.09 58.91,-13.59 0,31.42 10.75,53.08 17.52,77.27 -7.56,107.43 -71.65,183.85 -179.92,140.96 -3.58,0.85 -7.96,1.71 -11.94,1.71 -11.54,23.77 -22.69,47.97 -34.63,71.33 -88.77,118.47 -175.94,140.12 -315.26,78.56 -82.4,-77.71 -111.86,-141.82 -15.52,-223.34 74.04,-32.27 116.22,-12.31 159.22,46.28 3.18,0.85 6.36,1.71 9.15,2.13 0.41,-47.99 6.37,-70.49 -13.53,-118.47 -67.66,-40.33 -71.65,-50.11 -152.85,-56.89 -132.95,39.06 -167.99,84.06 -208.19,216.96 -12.73,95.12 49.36,165.17 97.92,227.16 101.9,86.62 188.68,95.54 305.3,95.54 140.91,-27.17 281.42,-97.66 363.82,-217.82 69.66,-127.38 71.64,-256.03 35.82,-400.82 -4.78,-8.92 -9.56,-17.83 -14.72,-27.59 -21.9,-26.33 -44.18,-52.65 -66.88,-79.82 -90.75,-82.38 -118.22,-100.63 -241.21,-118.47 -128.97,0 -262.72,11.89 -398.45,11.89 -19.5,14.43 -19.1,54.36 -46.57,60.72 -0.4,3.39 -1.2,6.36 -2,9.34 -64.08,39.06 -132.94,56.04 -210.96,43.31 6.36,-24.63 26.66,-39.49 44.18,-56.9 40.2,-93.84 29.46,-114.22 -45.78,-190.63 -7.56,2.53 -14.72,7.21 -22.29,12.3l0 0zm741.96 -864.04c39.4,-55.19 56.12,-83.64 62.89,-88.74 31.04,-75.15 49.36,-143.93 46.58,-218.23 -21.1,-73.88 -29.46,-112.1 -97.92,-136.72 -73.24,-10.61 -144.1,3.83 -188.68,80.25 -11.94,46.71 -18.71,59.86 17.12,102.75 41.4,16.56 73.24,-8.91 78.81,-46.28 2,0 3.99,0 5.58,0 9.16,-28.02 9.16,-28.02 18.32,-44.58 71.64,0 85.97,96.8 83.59,158.37 -1.2,0.85 -3.59,2.55 -5.58,3.82 -20.3,120.17 -206.19,180.45 -286.2,77.28 -2.39,0 -4.38,0 -7.17,0 -1.59,-5.95 -3.57,-11.05 -5.57,-16.57 -2.38,-0.42 -4.38,-1.27 -7.16,-2.11 -1.2,-6.79 -2.78,-12.74 -4.78,-18.68 -2.39,0.85 -5.18,1.28 -7.97,2.97 -59.7,81.95 -103.49,108.69 -213.74,111.24 -26.28,-10.61 -52.15,-21.23 -78.82,-31.84 -44.58,-113.37 -35.82,-155.4 10.34,-256.45 12.74,-15.29 58.51,-50.96 58.51,-55.61 -33.83,-5.96 -69.65,-67.51 -84.38,-97.66 -11.14,-100.63 16.72,-180.03 94.35,-226.73 45.77,-8.07 91.94,-19.53 132.15,5.52 17.52,19.96 41,35.24 44.98,64.54 -30.65,14.85 -118.62,47.12 -89.16,109.97 54.93,40.76 57.72,25.9 112.64,5.52 66.88,-59.44 85.18,-151.58 40.6,-230.55 -99.11,-78.98 -142.9,-66.67 -265.89,-37.36 -21.9,11.88 -43.79,24.62 -65.68,37.36 -113.05,92.56 -113.05,92.56 -124.2,95.95 -5.98,-4.24 -11.54,-8.91 -17.12,-13.58 -5.57,4.67 -11.14,9.34 -16.71,13.58 -11.15,-3.39 -11.15,-3.39 -124.59,-95.95 -21.9,-12.74 -43.78,-25.48 -65.28,-37.36 -123.4,-29.31 -166.78,-41.62 -266.3,37.36 -44.18,78.98 -25.87,171.11 41,230.55 54.94,20.38 57.72,35.24 112.65,-5.52 29.46,-62.85 -58.52,-95.12 -89.56,-109.97 4.38,-29.3 27.46,-44.58 44.97,-64.54 40.21,-25.05 86.78,-13.59 132.55,-5.52 77.22,46.71 105.48,126.1 94.34,226.73 -15.12,30.15 -50.96,91.71 -84.78,97.66 0,4.66 45.78,40.32 58.51,55.61 46.58,101.05 54.94,143.08 10.74,256.45 -27.06,10.61 -52.93,21.23 -78.81,31.84 -110.66,-2.54 -154.44,-29.29 -214.15,-111.24 -2.78,-1.7 -5.57,-2.12 -7.56,-2.97 -2.38,5.95 -3.57,11.89 -5.17,18.68 -2.79,0.85 -4.78,1.7 -6.76,2.11 -2.39,5.52 -4.39,10.62 -5.58,16.57 -3.19,0 -5.18,0 -7.17,0 -80.4,103.17 -265.89,42.88 -286.59,-77.28 -1.99,-1.27 -3.98,-2.97 -5.58,-3.82 -1.99,-61.57 11.94,-158.37 83.99,-158.37 9.15,16.56 9.15,16.56 18.31,44.58 1.2,0 3.18,0 5.58,0 5.58,37.37 37.02,62.84 78.81,46.28 35.83,-42.88 28.66,-56.04 16.73,-102.75 -44.19,-76.42 -115.44,-90.87 -188.69,-80.25 -68.05,24.63 -76.42,62.85 -97.52,136.72 -3.18,74.31 15.13,143.09 46.18,218.23 6.76,5.1 23.89,33.55 62.9,88.74 -39,55.62 -56.13,83.64 -62.9,89.16 -31.04,74.73 -49.36,143.94 -46.18,218.24 21.1,73.46 29.47,111.67 97.52,136.72 73.25,10.61 144.5,-3.83 188.69,-80.25 11.93,-46.71 19.1,-60.29 -16.73,-103.18 -41.79,-16.13 -73.23,9.34 -78.81,46.71 -2.39,0 -4.38,0 -5.58,0 -9.16,27.6 -9.16,27.6 -18.31,44.15 -72.05,0 -85.98,-96.8 -83.99,-158.36 1.6,-0.43 3.59,-2.13 5.58,-3.83 20.7,-119.74 206.18,-180.02 286.59,-77.28 2,0 3.98,0 7.17,0 1.19,5.96 3.18,11.47 5.58,16.57 1.99,0.85 3.97,1.7 6.76,2.54 1.6,6.36 2.78,12.74 5.17,18.68 2,-0.86 4.78,-1.71 7.56,-2.97 59.71,-81.95 103.5,-109.12 214.15,-111.24 25.88,10.61 51.74,21.23 78.81,31.41 44.19,113.36 35.83,155.4 -10.74,256.88 -12.73,14.86 -58.51,50.95 -58.51,55.61 33.83,5.96 69.66,67.51 84.78,97.66 11.14,100.2 -17.12,180.03 -94.34,226.73 -45.78,8.07 -92.34,19.1 -132.55,-5.53 -17.51,-20.38 -40.59,-35.23 -44.97,-64.53 31.04,-14.86 119.02,-47.12 89.56,-110.39 -54.94,-40.34 -57.72,-25.48 -112.65,-5.1 -66.87,59.02 -85.18,151.58 -41,230.55 99.52,78.55 142.9,66.67 266.3,37.36 21.5,-11.88 43.38,-24.63 65.28,-37.36 113.44,-92.56 113.44,-92.56 124.59,-96.38 5.57,4.67 11.14,8.91 16.71,13.59 5.58,-4.68 11.14,-8.92 17.12,-13.59 11.14,3.82 11.14,3.82 124.2,96.38 21.89,12.73 43.78,25.48 65.68,37.36 122.99,29.31 166.78,41.19 265.89,-37.36 44.58,-78.98 26.28,-171.54 -40.6,-230.55 -54.93,-20.38 -57.72,-35.24 -112.64,5.1 -29.46,63.26 58.51,95.53 89.16,110.39 -3.98,29.3 -27.46,44.15 -44.98,64.53 -40.2,24.63 -86.38,13.6 -132.15,5.53 -77.63,-46.71 -105.49,-126.53 -94.35,-226.73 14.73,-30.15 50.56,-91.71 84.38,-97.66 0,-4.67 -45.77,-40.75 -58.51,-55.61 -46.17,-101.48 -54.93,-143.52 -10.34,-256.88 26.66,-10.19 52.54,-20.8 78.82,-31.41 110.25,2.11 154.03,29.29 213.74,111.24 2.79,1.27 5.58,2.11 7.97,2.97 2,-5.95 3.58,-12.32 4.78,-18.68 2.78,-0.85 4.78,-1.7 7.16,-2.54 2,-5.1 3.98,-10.61 5.57,-16.57 2.79,0 4.78,0 7.17,0 80,-102.74 265.9,-42.46 286.2,77.28 1.99,1.7 4.38,3.4 5.58,3.83 2.37,61.56 -11.95,158.36 -83.59,158.36 -9.16,-16.55 -9.16,-16.55 -18.32,-44.15 -1.59,0 -3.58,0 -5.58,0 -5.57,-37.37 -37.41,-62.84 -78.81,-46.71 -35.83,42.88 -29.06,56.47 -17.12,103.18 44.58,76.42 115.44,90.87 188.68,80.25 68.46,-25.06 76.82,-63.26 97.92,-136.72 2.78,-74.31 -15.53,-143.52 -46.58,-218.24 -6.76,-5.52 -23.48,-33.54 -62.89,-89.16l0 0zm355.86 0c-10.35,-16.13 -48.17,-29.73 -62.1,-35.24 -46.18,1.71 -66.08,3.82 -95.14,35.24 29.06,31.84 48.96,33.97 95.14,35.67 13.93,-5.95 51.74,-19.53 62.1,-35.67l0 0zm308.48 0c-32.64,-28.02 -112.25,-70.06 -140.52,-95.53 -14.73,0 -56.12,-53.93 -65.28,-65.4 -89.96,-174.07 -110.66,-344.34 14.72,-495.91 84.39,-71.34 128.57,-109.54 86.39,-222.91 -8.36,-13.59 -37.82,-45.86 -35.83,-57.32 88.76,-62.84 163.2,-42.04 226.09,32.27 4.78,23.35 9.96,47.55 14.73,71.34 -3.58,13.59 -16.32,35.24 -11.14,56.47 96.32,57.74 136.53,75.15 173.54,189.78 0,60.29 0,60.29 2.78,67.09 -15.92,90.44 -76.02,219.09 -191.46,180.88 -25.87,-19.1 -25.87,-19.1 -33.04,-20.38 0,-2.97 0,-5.1 0,-7.64 -56.92,-38.21 -38.61,-117.18 -16.71,-166.02 29.46,-22.49 29.46,-22.49 37.82,-34.39 -33.45,-14.85 -68.07,-9.77 -107.48,8.49 0,2.97 -0.8,5.95 -1.6,9.77 -39.4,16.13 -53.34,109.55 -56.92,156.68 47.36,143.51 92.35,194.46 235.64,217.82 476.46,-137.14 235.24,-1038.12 -325.6,-839.42 -81.6,50.96 -120.21,109.55 -179.52,193.62 -48.56,119.31 -32.24,272.59 -11.14,404.65 3.98,83.63 2.78,121 8.36,179.6 99.51,42.03 119.02,135.02 119.82,236.49 -0.8,101.47 -20.31,194.88 -119.82,236.92 -5.58,58.6 -4.38,95.96 -8.36,179.18 -21.1,132.48 -37.42,285.33 11.14,404.64 59.31,84.07 97.92,142.66 179.52,193.62 560.84,198.7 802.06,-701.85 325.6,-838.99 -143.29,23.35 -188.28,74.31 -235.64,217.82 3.58,47.12 17.52,140.12 56.92,156.68 0.8,3.82 1.6,6.78 1.6,9.77 39.4,17.83 74.03,23.34 107.48,8.06 -8.36,-11.89 -8.36,-11.89 -37.82,-34.39 -21.9,-48.84 -40.21,-127.38 16.71,-166.02 0,-2.11 0,-4.24 0,-7.21 7.17,-1.7 7.17,-1.7 33.04,-20.38 115.44,-38.22 175.54,90.01 191.46,180.87 -2.78,6.8 -2.78,6.8 -2.78,66.67 -37.02,115.07 -77.22,132.48 -173.54,190.22 -5.18,20.8 7.56,42.88 11.14,56.04 -4.78,24.2 -9.96,48.4 -14.73,71.34 -62.89,74.3 -137.32,95.53 -226.09,32.26 -1.99,-11.03 27.47,-43.3 35.83,-56.89 42.19,-113.37 -2,-151.58 -86.39,-222.91 -125.38,-151.58 -104.68,-322.26 -14.72,-496.34 9.16,-11.04 50.55,-65.39 65.28,-65.39 28.26,-25.05 107.88,-67.1 140.52,-95.54l0 0zm755.49 0l0 0c-116.22,-54.35 -189.47,-96.37 -249.18,-219.09 -8.35,1.28 -8.35,1.28 -18.31,11.04 -20.3,43.73 -61.3,107.43 -107.47,133.75 0,2.11 0,4.24 0,7.21 -36.23,6.37 -89.96,44.16 -139.73,67.09 49.77,23.35 103.5,61.15 139.73,67.09 0,2.97 0,5.53 0,7.64 46.17,26.33 87.17,90.02 107.47,133.75 9.96,9.77 9.96,9.77 18.31,11.03 59.71,-123.13 132.95,-165.16 249.18,-219.08 0,0 0,0 0,-0.43l0 0zm609.81 0c3.58,-141.38 -23.88,-269.19 -58.92,-405.48 -3.98,-0.86 -3.98,-0.86 -9.16,5.94 -31.04,121.01 -52.53,193.62 -142.1,289.15 -109.06,84.91 -109.06,84.91 -150.06,110.39 0.4,0 0.4,0 0.4,0 0,0.43 0,0.43 -0.4,0.43 41,25.48 41,25.48 150.06,110.39 89.57,95.11 111.06,168.14 142.1,288.72 5.18,6.79 5.18,6.79 9.16,6.37 35.03,-136.3 62.5,-264.52 58.92,-405.91l0 0zm-2877.48 -2912.27c35.02,0 69.66,0.84 104.28,2.11l0 0c34.64,-1.28 69.66,-2.11 104.69,-2.11 1520.93,0 2766.03,1300.52 2807.81,2912.27 -41.79,1611.76 -1286.88,2912.7 -2807.81,2912.7 -35.03,0 -70.06,-1.27 -104.69,-2.54l0 0c-34.63,1.28 -69.26,2.54 -104.28,2.54 -1520.94,0 -2766.03,-1300.94 -2808.22,-2912.7 42.2,-1611.75 1287.28,-2912.27 2808.22,-2912.27l0 0z"></path> </g> </svg> 