<?xml version="1.0" encoding="UTF-8"?> <svg xmlns="http://www.w3.org/2000/svg" xmlns:xlink="http://www.w3.org/1999/xlink" width="1920" zoomAndPan="magnify" viewBox="0 0 1440 1439.999935" height="1920" preserveAspectRatio="xMidYMid meet" version="1.0"><defs><clipPath id="49b67313b0"><path d="M 625.675781 437 L 814.675781 437 L 814.675781 1007.996094 L 625.675781 1007.996094 Z M 625.675781 437 " clip-rule="nonzero"></path></clipPath></defs><g clip-path="url(#49b67313b0)"><path fill="#77501d" d="M 625.910156 914.777344 L 625.910156 533.117188 C 625.878906 531.5625 625.886719 530.003906 625.933594 528.445312 C 625.984375 526.886719 626.070312 525.332031 626.195312 523.78125 C 626.320312 522.226562 626.480469 520.679688 626.683594 519.132812 C 626.886719 517.589844 627.125 516.050781 627.40625 514.515625 C 627.683594 512.984375 628 511.457031 628.351562 509.941406 C 628.707031 508.421875 629.097656 506.917969 629.527344 505.417969 C 629.957031 503.921875 630.421875 502.433594 630.925781 500.960938 C 631.429688 499.484375 631.96875 498.023438 632.542969 496.574219 C 633.121094 495.128906 633.730469 493.695312 634.378906 492.277344 C 635.023438 490.859375 635.707031 489.460938 636.421875 488.074219 C 637.136719 486.691406 637.886719 485.328125 638.671875 483.980469 C 639.457031 482.636719 640.273438 481.308594 641.125 480.003906 C 641.972656 478.699219 642.855469 477.414062 643.769531 476.152344 C 644.683594 474.890625 645.628906 473.652344 646.605469 472.4375 C 647.578125 471.222656 648.585938 470.03125 649.617188 468.867188 C 650.652344 467.703125 651.714844 466.5625 652.808594 465.449219 C 653.898438 464.339844 655.015625 463.253906 656.160156 462.199219 C 657.304688 461.140625 658.476562 460.113281 659.671875 459.113281 C 660.871094 458.117188 662.089844 457.148438 663.332031 456.210938 C 664.578125 455.273438 665.84375 454.367188 667.132812 453.492188 C 668.421875 452.617188 669.734375 451.773438 671.0625 450.964844 C 672.394531 450.15625 673.746094 449.378906 675.117188 448.636719 C 676.484375 447.894531 677.871094 447.183594 679.277344 446.511719 C 680.683594 445.835938 682.101562 445.199219 683.539062 444.597656 C 684.976562 443.992188 686.425781 443.425781 687.890625 442.894531 C 689.355469 442.363281 690.832031 441.871094 692.324219 441.410156 C 693.8125 440.953125 695.3125 440.535156 696.820312 440.152344 C 698.332031 439.765625 699.851562 439.421875 701.378906 439.113281 C 702.90625 438.808594 704.441406 438.539062 705.980469 438.304688 C 707.519531 438.074219 709.066406 437.882812 710.617188 437.726562 C 712.167969 437.574219 713.722656 437.457031 715.277344 437.378906 C 716.832031 437.300781 718.390625 437.261719 719.949219 437.261719 C 721.507812 437.261719 723.0625 437.300781 724.621094 437.378906 C 726.175781 437.457031 727.730469 437.574219 729.28125 437.726562 C 730.828125 437.882812 732.375 438.074219 733.917969 438.304688 C 735.457031 438.539062 736.992188 438.808594 738.519531 439.113281 C 740.046875 439.421875 741.566406 439.765625 743.074219 440.152344 C 744.585938 440.535156 746.085938 440.953125 747.574219 441.410156 C 749.0625 441.871094 750.539062 442.363281 752.003906 442.894531 C 753.46875 443.425781 754.921875 443.992188 756.359375 444.597656 C 757.792969 445.199219 759.214844 445.835938 760.621094 446.511719 C 762.023438 447.183594 763.410156 447.894531 764.78125 448.636719 C 766.152344 449.378906 767.5 450.15625 768.832031 450.964844 C 770.164062 451.773438 771.472656 452.617188 772.761719 453.492188 C 774.050781 454.367188 775.320312 455.273438 776.5625 456.210938 C 777.808594 457.148438 779.027344 458.117188 780.222656 459.113281 C 781.417969 460.113281 782.589844 461.140625 783.734375 462.199219 C 784.878906 463.253906 786 464.339844 787.089844 465.449219 C 788.179688 466.5625 789.242188 467.703125 790.277344 468.867188 C 791.3125 470.03125 792.316406 471.222656 793.292969 472.4375 C 794.269531 473.652344 795.214844 474.890625 796.128906 476.152344 C 797.039062 477.414062 797.921875 478.699219 798.773438 480.003906 C 799.621094 481.308594 800.441406 482.636719 801.222656 483.980469 C 802.007812 485.328125 802.757812 486.691406 803.476562 488.074219 C 804.191406 489.460938 804.871094 490.859375 805.519531 492.277344 C 806.167969 493.695312 806.777344 495.128906 807.351562 496.574219 C 807.929688 498.023438 808.46875 499.484375 808.972656 500.960938 C 809.472656 502.433594 809.941406 503.921875 810.367188 505.417969 C 810.796875 506.917969 811.191406 508.421875 811.542969 509.941406 C 811.898438 511.457031 812.214844 512.984375 812.492188 514.515625 C 812.769531 516.050781 813.011719 517.589844 813.210938 519.132812 C 813.414062 520.679688 813.578125 522.226562 813.703125 523.78125 C 813.828125 525.332031 813.914062 526.886719 813.960938 528.445312 C 814.007812 530.003906 814.019531 531.5625 813.988281 533.117188 L 813.988281 914.777344 C 813.960938 916.296875 813.894531 917.816406 813.789062 919.332031 C 813.6875 920.851562 813.546875 922.363281 813.371094 923.875 C 813.195312 925.382812 812.984375 926.890625 812.734375 928.390625 C 812.484375 929.890625 812.199219 931.382812 811.878906 932.867188 C 811.558594 934.355469 811.199219 935.832031 810.804688 937.300781 C 810.414062 938.769531 809.984375 940.230469 809.519531 941.675781 C 809.058594 943.125 808.558594 944.5625 808.023438 945.984375 C 807.492188 947.410156 806.921875 948.820312 806.320312 950.214844 C 805.71875 951.613281 805.082031 952.992188 804.414062 954.359375 C 803.746094 955.722656 803.042969 957.070312 802.308594 958.402344 C 801.574219 959.734375 800.808594 961.046875 800.011719 962.34375 C 799.214844 963.636719 798.382812 964.910156 797.523438 966.164062 C 796.664062 967.417969 795.773438 968.652344 794.855469 969.863281 C 793.933594 971.074219 792.988281 972.261719 792.007812 973.425781 C 791.03125 974.589844 790.027344 975.730469 788.996094 976.847656 C 787.960938 977.964844 786.902344 979.054688 785.816406 980.121094 C 784.734375 981.183594 783.621094 982.222656 782.484375 983.234375 C 781.351562 984.246094 780.191406 985.226562 779.007812 986.183594 C 777.824219 987.136719 776.617188 988.0625 775.390625 988.960938 C 774.160156 989.855469 772.914062 990.722656 771.640625 991.558594 C 770.371094 992.394531 769.082031 993.195312 767.773438 993.96875 C 766.464844 994.742188 765.136719 995.484375 763.789062 996.191406 C 762.445312 996.902344 761.082031 997.578125 759.707031 998.21875 C 758.328125 998.863281 756.933594 999.472656 755.527344 1000.046875 C 754.121094 1000.621094 752.699219 1001.164062 751.265625 1001.667969 C 749.832031 1002.175781 748.386719 1002.648438 746.929688 1003.082031 C 745.472656 1003.519531 744.007812 1003.921875 742.53125 1004.285156 C 741.054688 1004.648438 739.570312 1004.980469 738.078125 1005.273438 C 736.585938 1005.566406 735.085938 1005.820312 733.582031 1006.042969 C 732.078125 1006.261719 730.570312 1006.445312 729.054688 1006.59375 C 727.542969 1006.742188 726.027344 1006.851562 724.507812 1006.925781 C 722.988281 1007 721.46875 1007.035156 719.949219 1007.035156 C 718.429688 1007.035156 716.90625 1007 715.390625 1006.925781 C 713.871094 1006.851562 712.355469 1006.742188 710.839844 1006.59375 C 709.328125 1006.445312 707.820312 1006.261719 706.3125 1006.042969 C 704.808594 1005.820312 703.3125 1005.566406 701.820312 1005.273438 C 700.328125 1004.980469 698.84375 1004.648438 697.367188 1004.285156 C 695.890625 1003.921875 694.425781 1003.519531 692.96875 1003.082031 C 691.511719 1002.648438 690.066406 1002.175781 688.632812 1001.667969 C 687.199219 1001.164062 685.777344 1000.621094 684.371094 1000.046875 C 682.960938 999.472656 681.570312 998.863281 680.191406 998.21875 C 678.8125 997.578125 677.453125 996.902344 676.105469 996.191406 C 674.761719 995.484375 673.433594 994.742188 672.125 993.96875 C 670.816406 993.195312 669.527344 992.394531 668.253906 991.558594 C 666.984375 990.722656 665.734375 989.855469 664.507812 988.960938 C 663.277344 988.0625 662.074219 987.136719 660.890625 986.183594 C 659.707031 985.226562 658.546875 984.246094 657.410156 983.234375 C 656.273438 982.222656 655.164062 981.183594 654.078125 980.121094 C 652.992188 979.054688 651.933594 977.964844 650.902344 976.847656 C 649.871094 975.730469 648.863281 974.589844 647.886719 973.425781 C 646.910156 972.261719 645.960938 971.074219 645.042969 969.863281 C 644.121094 968.652344 643.234375 967.417969 642.371094 966.164062 C 641.511719 964.910156 640.683594 963.636719 639.886719 962.34375 C 639.085938 961.046875 638.320312 959.734375 637.585938 958.402344 C 636.851562 957.070312 636.152344 955.722656 635.480469 954.359375 C 634.8125 952.992188 634.179688 951.613281 633.574219 950.214844 C 632.972656 948.820312 632.40625 947.410156 631.871094 945.984375 C 631.339844 944.5625 630.839844 943.125 630.375 941.675781 C 629.914062 940.230469 629.484375 938.769531 629.089844 937.300781 C 628.699219 935.832031 628.339844 934.355469 628.019531 932.867188 C 627.695312 931.382812 627.410156 929.890625 627.164062 928.390625 C 626.914062 926.890625 626.699219 925.382812 626.523438 923.875 C 626.347656 922.363281 626.207031 920.851562 626.105469 919.332031 C 626.003906 917.816406 625.9375 916.296875 625.910156 914.777344 Z M 810.550781 533.117188 C 810.582031 531.617188 810.574219 530.117188 810.527344 528.617188 C 810.480469 527.113281 810.398438 525.617188 810.28125 524.121094 C 810.160156 522.621094 810.003906 521.128906 809.808594 519.640625 C 809.613281 518.152344 809.382812 516.667969 809.117188 515.191406 C 808.847656 513.714844 808.542969 512.246094 808.203125 510.78125 C 807.863281 509.320312 807.484375 507.867188 807.074219 506.421875 C 806.660156 504.980469 806.210938 503.546875 805.726562 502.125 C 805.242188 500.703125 804.722656 499.296875 804.167969 497.902344 C 803.613281 496.503906 803.027344 495.125 802.402344 493.757812 C 801.78125 492.394531 801.125 491.042969 800.433594 489.710938 C 799.742188 488.375 799.019531 487.058594 798.265625 485.761719 C 797.511719 484.464844 796.722656 483.1875 795.902344 481.929688 C 795.085938 480.667969 794.234375 479.433594 793.355469 478.214844 C 792.476562 477 791.566406 475.804688 790.625 474.636719 C 789.683594 473.464844 788.714844 472.316406 787.71875 471.195312 C 786.722656 470.070312 785.699219 468.972656 784.648438 467.902344 C 783.597656 466.832031 782.519531 465.785156 781.417969 464.765625 C 780.3125 463.746094 779.183594 462.757812 778.03125 461.796875 C 776.878906 460.832031 775.703125 459.898438 774.503906 458.996094 C 773.304688 458.089844 772.085938 457.21875 770.84375 456.375 C 769.601562 455.53125 768.339844 454.71875 767.054688 453.9375 C 765.773438 453.160156 764.472656 452.410156 763.152344 451.695312 C 761.832031 450.980469 760.496094 450.296875 759.140625 449.648438 C 757.789062 448.996094 756.417969 448.382812 755.035156 447.800781 C 753.648438 447.21875 752.253906 446.671875 750.839844 446.160156 C 749.429688 445.648438 748.007812 445.171875 746.570312 444.730469 C 745.136719 444.289062 743.691406 443.886719 742.234375 443.515625 C 740.78125 443.148438 739.316406 442.8125 737.84375 442.515625 C 736.371094 442.222656 734.894531 441.960938 733.410156 441.738281 C 731.925781 441.515625 730.433594 441.328125 728.941406 441.179688 C 727.445312 441.03125 725.949219 440.917969 724.449219 440.84375 C 722.949219 440.769531 721.449219 440.734375 719.949219 440.734375 C 718.445312 440.734375 716.945312 440.769531 715.445312 440.84375 C 713.945312 440.917969 712.449219 441.03125 710.957031 441.179688 C 709.460938 441.328125 707.972656 441.515625 706.488281 441.738281 C 705.003906 441.960938 703.523438 442.222656 702.054688 442.515625 C 700.582031 442.8125 699.117188 443.148438 697.660156 443.515625 C 696.207031 443.886719 694.761719 444.289062 693.324219 444.730469 C 691.890625 445.171875 690.46875 445.648438 689.054688 446.160156 C 687.644531 446.671875 686.246094 447.21875 684.863281 447.800781 C 683.476562 448.382812 682.109375 448.996094 680.753906 449.648438 C 679.402344 450.296875 678.0625 450.980469 676.746094 451.695312 C 675.425781 452.410156 674.125 453.160156 672.839844 453.9375 C 671.558594 454.71875 670.296875 455.53125 669.054688 456.375 C 667.8125 457.21875 666.589844 458.089844 665.390625 458.996094 C 664.191406 459.898438 663.015625 460.832031 661.863281 461.796875 C 660.710938 462.757812 659.585938 463.746094 658.480469 464.765625 C 657.378906 465.785156 656.300781 466.832031 655.25 467.902344 C 654.199219 468.972656 653.171875 470.070312 652.175781 471.195312 C 651.179688 472.316406 650.210938 473.464844 649.273438 474.636719 C 648.332031 475.804688 647.421875 477 646.542969 478.214844 C 645.660156 479.433594 644.8125 480.667969 643.992188 481.929688 C 643.175781 483.1875 642.386719 484.464844 641.632812 485.761719 C 640.875 487.058594 640.152344 488.375 639.464844 489.710938 C 638.773438 491.042969 638.117188 492.394531 637.492188 493.757812 C 636.871094 495.125 636.28125 496.503906 635.726562 497.902344 C 635.175781 499.296875 634.65625 500.703125 634.171875 502.125 C 633.6875 503.546875 633.238281 504.980469 632.824219 506.421875 C 632.410156 507.867188 632.035156 509.320312 631.695312 510.78125 C 631.351562 512.246094 631.046875 513.714844 630.78125 515.191406 C 630.511719 516.667969 630.28125 518.152344 630.085938 519.640625 C 629.894531 521.128906 629.738281 522.621094 629.617188 524.121094 C 629.496094 525.617188 629.414062 527.113281 629.367188 528.617188 C 629.324219 530.117188 629.316406 531.617188 629.34375 533.117188 L 629.34375 914.777344 C 629.375 916.242188 629.4375 917.703125 629.535156 919.164062 C 629.636719 920.625 629.769531 922.085938 629.941406 923.539062 C 630.113281 924.996094 630.316406 926.445312 630.558594 927.890625 C 630.796875 929.332031 631.074219 930.773438 631.382812 932.203125 C 631.691406 933.632812 632.039062 935.058594 632.417969 936.472656 C 632.796875 937.886719 633.210938 939.292969 633.65625 940.6875 C 634.105469 942.082031 634.585938 943.464844 635.097656 944.835938 C 635.613281 946.207031 636.160156 947.566406 636.742188 948.910156 C 637.320312 950.253906 637.933594 951.585938 638.578125 952.898438 C 639.222656 954.214844 639.898438 955.515625 640.605469 956.796875 C 641.316406 958.078125 642.054688 959.34375 642.820312 960.589844 C 643.589844 961.835938 644.390625 963.0625 645.21875 964.273438 C 646.046875 965.480469 646.902344 966.667969 647.789062 967.832031 C 648.675781 969 649.589844 970.144531 650.53125 971.265625 C 651.472656 972.386719 652.441406 973.484375 653.4375 974.5625 C 654.429688 975.636719 655.453125 976.6875 656.496094 977.710938 C 657.542969 978.738281 658.613281 979.738281 659.707031 980.710938 C 660.800781 981.683594 661.917969 982.628906 663.058594 983.550781 C 664.199219 984.46875 665.359375 985.359375 666.542969 986.222656 C 667.726562 987.085938 668.929688 987.921875 670.152344 988.726562 C 671.378906 989.53125 672.621094 990.304688 673.882812 991.050781 C 675.144531 991.792969 676.421875 992.507812 677.71875 993.191406 C 679.011719 993.875 680.324219 994.523438 681.652344 995.144531 C 682.980469 995.761719 684.320312 996.347656 685.675781 996.902344 C 687.035156 997.457031 688.402344 997.976562 689.78125 998.464844 C 691.164062 998.953125 692.554688 999.40625 693.960938 999.824219 C 695.363281 1000.246094 696.773438 1000.632812 698.195312 1000.984375 C 699.617188 1001.335938 701.046875 1001.652344 702.484375 1001.933594 C 703.921875 1002.214844 705.367188 1002.464844 706.816406 1002.675781 C 708.265625 1002.886719 709.71875 1003.066406 711.175781 1003.207031 C 712.632812 1003.347656 714.09375 1003.457031 715.558594 1003.527344 C 717.019531 1003.597656 718.484375 1003.632812 719.949219 1003.632812 C 721.414062 1003.632812 722.875 1003.597656 724.339844 1003.527344 C 725.804688 1003.457031 727.261719 1003.347656 728.722656 1003.207031 C 730.179688 1003.066406 731.632812 1002.886719 733.082031 1002.675781 C 734.53125 1002.464844 735.972656 1002.214844 737.410156 1001.933594 C 738.847656 1001.652344 740.277344 1001.335938 741.699219 1000.984375 C 743.121094 1000.632812 744.535156 1000.246094 745.9375 999.824219 C 747.339844 999.40625 748.734375 998.953125 750.113281 998.464844 C 751.496094 997.976562 752.863281 997.457031 754.21875 996.902344 C 755.574219 996.347656 756.917969 995.761719 758.246094 995.144531 C 759.570312 994.523438 760.882812 993.875 762.179688 993.191406 C 763.476562 992.507812 764.753906 991.792969 766.015625 991.050781 C 767.277344 990.304688 768.519531 989.53125 769.742188 988.726562 C 770.964844 987.921875 772.171875 987.085938 773.351562 986.222656 C 774.535156 985.359375 775.699219 984.46875 776.839844 983.550781 C 777.980469 982.628906 779.097656 981.683594 780.191406 980.710938 C 781.285156 979.738281 782.355469 978.738281 783.398438 977.710938 C 784.445312 976.6875 785.464844 975.636719 786.460938 974.5625 C 787.457031 973.484375 788.421875 972.386719 789.363281 971.265625 C 790.308594 970.144531 791.21875 969 792.105469 967.832031 C 792.992188 966.667969 793.851562 965.480469 794.679688 964.273438 C 795.507812 963.0625 796.304688 961.835938 797.074219 960.589844 C 797.84375 959.34375 798.582031 958.078125 799.289062 956.796875 C 799.996094 955.515625 800.671875 954.214844 801.316406 952.898438 C 801.960938 951.585938 802.574219 950.253906 803.15625 948.910156 C 803.734375 947.566406 804.28125 946.207031 804.796875 944.835938 C 805.3125 943.464844 805.792969 942.082031 806.238281 940.6875 C 806.6875 939.292969 807.101562 937.886719 807.480469 936.472656 C 807.859375 935.058594 808.203125 933.632812 808.515625 932.203125 C 808.824219 930.773438 809.097656 929.332031 809.339844 927.890625 C 809.582031 926.445312 809.785156 924.996094 809.957031 923.539062 C 810.125 922.085938 810.261719 920.625 810.359375 919.164062 C 810.460938 917.703125 810.523438 916.242188 810.550781 914.777344 Z M 810.550781 533.117188 " fill-opacity="1" fill-rule="nonzero"></path></g><path fill="#77501d" d="M 718.214844 938.625 L 718.214844 499.027344 C 718.214844 498.800781 718.257812 498.582031 718.34375 498.371094 C 718.429688 498.160156 718.554688 497.972656 718.714844 497.8125 C 718.878906 497.652344 719.0625 497.527344 719.273438 497.441406 C 719.484375 497.355469 719.703125 497.308594 719.929688 497.308594 C 720.160156 497.308594 720.378906 497.355469 720.589844 497.441406 C 720.800781 497.527344 720.984375 497.652344 721.144531 497.8125 C 721.308594 497.972656 721.429688 498.160156 721.519531 498.371094 C 721.605469 498.582031 721.648438 498.800781 721.648438 499.027344 L 721.648438 938.625 C 721.648438 938.855469 721.605469 939.074219 721.519531 939.285156 C 721.429688 939.496094 721.308594 939.679688 721.144531 939.839844 C 720.984375 940.003906 720.800781 940.125 720.589844 940.214844 C 720.378906 940.300781 720.160156 940.34375 719.929688 940.34375 C 719.703125 940.34375 719.484375 940.300781 719.273438 940.214844 C 719.0625 940.125 718.878906 940.003906 718.714844 939.839844 C 718.554688 939.679688 718.429688 939.496094 718.34375 939.285156 C 718.257812 939.074219 718.214844 938.855469 718.214844 938.625 Z M 718.214844 938.625 " fill-opacity="1" fill-rule="nonzero"></path><path fill="#77501d" d="M 688.523438 911.855469 C 688.523438 911.371094 688.695312 910.960938 689.035156 910.617188 C 689.199219 910.460938 689.386719 910.339844 689.597656 910.253906 C 689.808594 910.167969 690.027344 910.125 690.257812 910.125 C 690.484375 910.125 690.703125 910.167969 690.914062 910.253906 C 691.125 910.339844 691.3125 910.460938 691.476562 910.617188 L 719.929688 939.105469 L 748.417969 910.617188 C 748.582031 910.460938 748.765625 910.339844 748.972656 910.253906 C 749.179688 910.171875 749.398438 910.128906 749.621094 910.128906 C 749.847656 910.128906 750.0625 910.171875 750.273438 910.253906 C 750.480469 910.339844 750.664062 910.460938 750.824219 910.617188 C 750.988281 910.78125 751.113281 910.964844 751.203125 911.179688 C 751.289062 911.390625 751.332031 911.609375 751.332031 911.839844 C 751.332031 912.066406 751.289062 912.289062 751.203125 912.5 C 751.113281 912.710938 750.988281 912.898438 750.824219 913.058594 L 721.203125 942.75 C 721.039062 942.910156 720.851562 943.03125 720.640625 943.117188 C 720.429688 943.203125 720.210938 943.246094 719.984375 943.246094 C 719.753906 943.246094 719.535156 943.203125 719.324219 943.117188 C 719.113281 943.03125 718.925781 942.910156 718.761719 942.75 L 689.070312 913.058594 C 688.71875 912.734375 688.535156 912.335938 688.523438 911.855469 Z M 688.523438 911.855469 " fill-opacity="1" fill-rule="nonzero"></path></svg> 